<?xml version="1.0" encoding="UTF-8" standalone="no"?>
<!-- Created with Inkscape (http://www.inkscape.org/) -->

<svg
   xmlns:dc="http://purl.org/dc/elements/1.1/"
   xmlns:cc="http://creativecommons.org/ns#"
   xmlns:rdf="http://www.w3.org/1999/02/22-rdf-syntax-ns#"
   xmlns:svg="http://www.w3.org/2000/svg"
   xmlns="http://www.w3.org/2000/svg"
   xmlns:sodipodi="http://sodipodi.sourceforge.net/DTD/sodipodi-0.dtd"
   xmlns:inkscape="http://www.inkscape.org/namespaces/inkscape"
   version="1.1"
   id="svg2"
   width="250"
   height="63.035877"
   viewBox="0 0 250 63.035876"
   sodipodi:docname="Conference_Touring.svg"
   inkscape:version="0.92.3 (2405546, 2018-03-11)">
  <metadata
     id="metadata8">
    <rdf:RDF>
      <cc:Work
         rdf:about="">
        <dc:format>image/svg+xml</dc:format>
        <dc:type
           rdf:resource="http://purl.org/dc/dcmitype/StillImage" />
        <dc:title />
      </cc:Work>
    </rdf:RDF>
  </metadata>
  <defs
     id="defs6" />
  <sodipodi:namedview
     pagecolor="#ffffff"
     bordercolor="#666666"
     borderopacity="1"
     objecttolerance="10"
     gridtolerance="10"
     guidetolerance="10"
     inkscape:pageopacity="0"
     inkscape:pageshadow="2"
     inkscape:window-width="1920"
     inkscape:window-height="1027"
     id="namedview4"
     showgrid="false"
     inkscape:zoom="2.9128206"
     inkscape:cx="126.48859"
     inkscape:cy="24.173027"
     inkscape:window-x="-8"
     inkscape:window-y="-8"
     inkscape:window-maximized="1"
     inkscape:current-layer="svg2" />
  <path
     style="fill:#dedede;fill-opacity:1;stroke-width:0.32373148"
     d="m 207.24853,62.828825 c -2.20086,-0.711366 -3.21841,-1.973382 -3.21841,-3.991678 0,-1.310875 0.68426,-2.351093 1.9911,-3.026882 0.90889,-0.470008 0.94297,-0.54867 0.46595,-1.07577 -0.29712,-0.32831 -0.51465,-1.139058 -0.51465,-1.918119 0,-1.085692 0.2199,-1.592841 1.12513,-2.594828 l 1.12514,-1.245393 -0.82873,-0.443521 c -2.75252,-1.473104 -3.08197,-5.927995 -0.61074,-8.258658 0.58864,-0.555157 1.74312,-1.19777 2.56551,-1.428027 1.89944,-0.531809 5.03024,-0.265571 6.41912,0.545871 1.04298,0.609349 1.05771,0.608555 2.34449,-0.126078 2.22589,-1.270753 3.07547,-0.934027 3.07547,1.218944 0,0.87497 -0.0896,0.945084 -1.214,0.949673 -1.52524,0.0063 -2.09267,0.334021 -1.68746,0.974781 0.50731,0.802201 0.34676,3.334503 -0.28713,4.52875 -0.88208,1.661871 -2.8049,2.609616 -5.59214,2.756338 -2.42593,0.127704 -3.52107,0.688144 -3.52107,1.801918 0,0.886701 0.51458,1.051798 4.5712,1.466612 2.08592,0.213301 4.21081,0.616825 4.76956,0.905769 1.42563,0.737217 2.09687,2.195905 1.90921,4.148908 -0.19056,1.983222 -0.99915,3.08896 -3.01927,4.128781 -1.3802,0.710427 -2.04037,0.81997 -5.30813,0.880819 -2.05255,0.03821 -4.10461,-0.051 -4.56015,-0.19821 z m 8.2584,-2.109994 c 1.88426,-0.787293 2.37281,-2.602285 0.9927,-3.687889 -0.99511,-0.782748 -6.48786,-1.312331 -7.57526,-0.730371 -1.68207,0.900209 -1.64218,3.205141 0.0736,4.251322 1.25099,0.762804 4.86129,0.855397 6.50901,0.166938 z m -2.13555,-13.276119 c 1.60545,-0.830207 2.17671,-3.438449 1.17667,-5.372327 -0.99492,-1.923962 -3.45202,-2.246466 -4.81097,-0.631456 -2.74653,3.26408 0.0378,7.863638 3.6343,6.003783 z M 97.294685,58.668104 c -0.56486,-0.311593 -1.62608,-1.324964 -2.35825,-2.251932 -1.25196,-1.585043 -1.38327,-1.664374 -2.20525,-1.332225 -1.1965,0.483485 -7.04757,0.490892 -8.67561,0.01097 -3.89993,-1.149617 -5.96854,-4.512474 -4.99645,-8.122526 0.42495,-1.578147 2.17642,-3.670138 3.5486,-4.238513 l 0.94111,-0.389814 -0.9436,-1.3476 c -1.64834,-2.354069 -1.81281,-5.696969 -0.37504,-7.622708 2.13784,-2.863403 7.74093,-3.104746 10.50975,-0.452683 2.39973,2.298537 1.67168,6.277885 -1.37983,7.541868 -1.43171,0.593035 -1.82935,0.05175 -0.98247,-1.337388 1.20899,-1.983097 0.71899,-4.765317 -0.99542,-5.651867 -3.27577,-1.693969 -5.85518,1.057957 -4.19878,4.479614 0.87879,1.815345 9.69413,12.612798 10.0951,12.364985 0.48814,-0.30169 0.34559,-2.938518 -0.23765,-4.396191 -0.51341,-1.28314 -0.51045,-1.368585 0.0619,-1.78708 0.86158,-0.63 2.54555,-0.541775 3.43596,0.18003 0.66163,0.536335 0.76207,0.895003 0.74791,2.670786 -0.0169,2.119494 -0.57661,3.643625 -1.84951,5.036227 l -0.65707,0.718861 1.58152,1.851181 c 0.86983,1.018149 2.202305,2.288757 2.961055,2.823572 2.00463,1.413 1.8237,1.818951 -0.8107,1.818951 -1.478875,0 -2.523805,-0.184008 -3.217255,-0.566535 z m -5.05723,-5.371149 c 0.21055,-0.210552 -6.96542,-9.277702 -7.3426,-9.277702 -0.6922,0 -1.74106,2.133985 -1.88155,3.828137 -0.23569,2.84213 1.27667,4.825403 4.26571,5.593974 1.03436,0.265961 4.65348,0.160559 4.95844,-0.144409 z m 20.654405,1.94223 c -1.59316,-0.722637 -1.77267,-1.563346 -1.77267,-8.302039 V 40.82102 l -1.18897,-0.100473 c -0.65394,-0.05528 -1.23439,-0.246155 -1.28989,-0.424206 -0.12678,-0.40667 4.83036,-5.665299 5.34049,-5.665299 0.24626,0 0.37568,0.719397 0.37568,2.088227 v 2.088228 l 2.34706,-0.06491 2.34705,-0.0649 v 0.971194 0.971194 l -2.36819,0.09554 -2.36819,0.09554 0.10207,5.51557 c 0.12204,6.594663 0.13164,6.612313 3.42031,6.289884 2.17654,-0.213389 2.4715,0.01897 1.39308,1.097373 -1.58422,1.584218 -4.60503,2.311179 -6.33783,1.525203 z m 13.60457,0.150618 c -2.53354,-0.666169 -4.72099,-2.641543 -5.3221,-4.806139 -1.23035,-4.43047 0.53806,-9.399217 3.96803,-11.149055 1.64878,-0.841144 4.75662,-1.120097 6.69564,-0.600997 1.98627,0.531752 4.28844,2.904019 4.80358,4.949836 1.19122,4.730742 -0.66575,9.646475 -4.17438,11.050347 -1.57754,0.631204 -4.6106,0.913649 -5.97077,0.556008 z m 5.17464,-3.045578 c 2.58885,-2.588859 2.08839,-8.808691 -0.88725,-11.026665 -1.80582,-1.346011 -4.19505,-0.590873 -5.58232,1.764337 -0.93883,1.593893 -0.89043,5.748878 0.0888,7.624183 1.00101,1.917003 2.1253,2.701384 3.872,2.701384 1.20229,0 1.62441,-0.178896 2.50876,-1.063239 z m 12.6306,3.054296 c -2.29185,-0.745216 -2.7473,-1.761159 -2.77535,-6.190665 -0.0426,-6.730083 -0.49151,-8.102185 -2.65062,-8.102185 -0.78118,0 -0.91511,-0.117763 -0.82838,-0.728398 0.0849,-0.598166 0.42179,-0.795166 1.88397,-1.101842 0.97929,-0.205396 2.39689,-0.387494 3.15022,-0.404665 1.21497,-0.02767 1.39344,0.06342 1.57997,0.806626 0.11565,0.460811 0.10792,2.500097 -0.0172,4.531744 -0.49469,8.03321 0.63407,9.881334 5.10475,8.358022 1.87785,-0.639852 1.93812,-0.844637 1.78911,-6.079672 -0.13132,-4.614239 -0.48121,-5.381815 -2.4532,-5.381815 -0.96118,0 -1.09191,-0.09504 -1.00196,-0.728398 0.0863,-0.607641 0.42546,-0.794977 2.04584,-1.130025 1.06831,-0.220897 2.52511,-0.366573 3.23731,-0.323734 l 1.29493,0.0779 0.16187,6.668685 c 0.17718,7.299738 0.28736,7.725596 1.93624,7.483588 0.82103,-0.120499 0.97734,-0.03536 0.97734,0.532452 0,0.893225 -1.68773,1.757024 -3.50855,1.795728 -1.09124,0.0232 -1.53689,-0.133838 -1.99903,-0.704407 l -0.59473,-0.734261 -2.42843,0.815193 c -2.40801,0.808341 -3.65639,0.945834 -4.90411,0.540129 z m 14.85279,-0.51876 c -0.27325,-0.712097 0.0785,-1.053569 1.32627,-1.287659 0.62299,-0.116875 1.28015,-0.488011 1.46037,-0.824749 0.18021,-0.336738 0.32766,-2.807013 0.32766,-5.489505 0,-4.445611 -0.0573,-4.934555 -0.64746,-5.524716 -0.3597,-0.359702 -1.07911,-0.647461 -1.61866,-0.647461 -0.80903,0 -0.97119,-0.129589 -0.97119,-0.776097 0,-0.699673 0.20183,-0.811241 2.04984,-1.133064 3.56108,-0.620134 3.86516,-0.499824 4.27463,1.691171 l 0.23153,1.2388 0.788,-1.321434 c 1.82488,-3.06019 5.92899,-3.098213 5.92899,-0.0549 0,1.870615 -1.60775,2.995698 -2.58985,1.812338 -0.90829,-1.094423 -2.64586,-0.172447 -3.58897,1.904352 -0.44708,0.984507 -0.60718,2.104364 -0.61244,4.283824 -0.008,3.477033 0.51434,4.485399 2.51584,4.853352 1.29274,0.237658 1.72291,0.624409 1.45911,1.311846 -0.25423,0.66252 -10.07875,0.628222 -10.33367,-0.03606 z m 13.92046,0 c -0.27416,-0.714436 0.0792,-1.053714 1.34483,-1.291145 1.62275,-0.304432 1.83379,-1.111203 1.7111,-6.541384 -0.11523,-5.099868 -0.43509,-5.941561 -2.25793,-5.941561 -1.19036,0 -1.30156,-1.166271 -0.15284,-1.603015 1.45819,-0.554406 5.27419,-0.776885 5.55419,-0.323828 0.14093,0.22802 0.23149,2.90361 0.20126,5.945753 -0.0721,7.254238 0.25387,8.588455 2.10155,8.601661 0.70357,0.005 1.23961,0.790666 0.90684,1.329093 -0.10011,0.16199 -2.2175,0.294522 -4.70531,0.294522 -3.65577,0 -4.5579,-0.09016 -4.70369,-0.470096 z m 10.74545,0.184317 c -0.34673,-0.561007 0.2014,-1.332881 0.9465,-1.332881 0.40636,0 1.04619,-0.254936 1.42184,-0.566529 0.58103,-0.481941 0.71391,-1.053064 0.88995,-3.825124 0.22881,-3.603011 -0.0298,-6.573816 -0.64556,-7.415913 -0.22094,-0.30215 -0.90447,-0.652194 -1.51895,-0.777869 -0.81587,-0.166862 -1.11725,-0.399572 -1.11725,-0.862696 0,-0.507622 0.35534,-0.708713 1.78053,-1.007635 0.97929,-0.205396 2.33947,-0.387494 3.02264,-0.404665 1.08568,-0.0273 1.2867,0.08692 1.59619,0.906847 l 0.35408,0.938068 1.89489,-0.993275 c 3.37057,-1.766808 6.52524,-1.510025 7.93987,0.646288 0.47429,0.722965 0.59666,1.8711 0.73144,6.862943 l 0.16186,5.994731 1.29493,0.362563 c 0.93214,0.260988 1.29493,0.535774 1.29493,0.980813 0,0.580082 -0.28976,0.618244 -4.69411,0.618244 -4.42692,0 -4.6941,-0.03568 -4.6941,-0.62688 0,-0.434594 0.32044,-0.709922 1.04465,-0.89758 1.57129,-0.407168 1.82821,-1.208568 1.95019,-6.083227 0.13501,-5.394756 -0.0669,-5.94492 -2.23367,-6.086051 -1.04378,-0.06798 -1.96177,0.1272 -3.06772,0.652276 l -1.57823,0.749289 v 5.164523 5.164517 l 1.29492,0.36332 c 0.93188,0.26146 1.29493,0.536656 1.29493,0.981569 0,0.575209 -0.3194,0.62449 -4.58867,0.707918 -2.60955,0.051 -4.6695,-0.0411 -4.77608,-0.213584 z M 0.146489,54.307698 C 0.355125,53.256114 16.280585,9.5942179 16.566844,9.2889709 c 0.130434,-0.139085 2.070142,-0.211924 4.310463,-0.161866 l 4.073309,0.09101 L 16.631815,32.041185 8.313008,54.864257 4.156504,54.955157 0,55.046057 Z m 12.234596,0.439165 c 0,-0.242493 15.28215,-42.41751 16.23344,-44.8003481 l 0.35542,-0.890261 h 4.20387 c 3.22489,0 4.16998,0.09424 4.05835,0.404664 -0.08,0.222565 -3.83806,10.5657861 -8.35117,22.9849351 l -8.205668,22.580271 h -4.147118 c -2.280915,0 -4.147124,-0.125668 -4.147124,-0.279261 z m 12.379156,-0.125404 c 0.08064,-0.222567 3.836644,-10.565784 8.346664,-22.984935 l 8.20004,-22.5802701 h 4.18939 c 3.83189,0 4.17644,0.04834 4.03762,0.56653 -0.12977,0.4844151 -15.65747,43.2462331 -16.28117,44.8368111 -0.19572,0.499106 -0.72301,0.566529 -4.43066,0.566529 -3.229193,0 -4.17439,-0.09417 -4.061884,-0.404665 z m 13.445374,-2.93207 c 0.66388,-1.845489 4.41199,-12.19059 8.32915,-22.989116 l 7.12209,-19.6336801 4.12757,-0.0052 c 3.09235,-0.0039 4.12598,0.09632 4.12121,0.399494 -0.004,0.222565 -3.69213,10.5293661 -8.19694,22.9040031 l -8.19057,22.499339 -4.25979,0.09028 -4.25979,0.09028 z m 11.41883,2.93207 c 0.008,-0.222567 3.7025,-10.529368 8.21038,-22.904002 l 8.19615,-22.4993381 4.28346,-0.09054 c 2.56363,-0.05419 4.23884,0.03111 4.17235,0.212455 -0.0611,0.166651 -3.82593,10.5132541 -8.36627,22.9924591 l -8.25515,22.689459 -4.12758,0.0019 c -3.0949,0.0019 -4.12402,-0.09915 -4.11334,-0.402572 z M 176.83668,35.369331 c -1.00357,-0.362312 -1.61866,-1.192002 -1.61866,-2.18338 0,-1.340409 0.5741,-2.061038 1.83999,-2.309636 1.99543,-0.39186 3.45885,2.148962 2.12572,3.690733 -0.6329,0.731954 -1.61345,1.067134 -2.34705,0.802283 z m -85.266995,-9.18572 c -1.95925,-0.312547 -3.66495,-1.610163 -4.64942,-3.537064 -0.98168,-1.921441 -1.01329,-5.682466 -0.069,-8.206374 0.78672,-2.102703 2.89266,-4.200128 4.72919,-4.7100761 1.75607,-0.487611 4.79149,-0.433726 6.0882,0.108078 1.85359,0.7744791 2.405145,2.8340271 1.08768,4.0614381 -1.03612,0.965287 -2.08456,0.862845 -2.35585,-0.230186 -0.54766,-2.206573 -2.56748,-2.957209 -4.60855,-1.712698 -1.44257,0.879585 -2.12075,2.378326 -2.2765,5.030946 -0.17663,3.008242 0.69383,4.832845 2.82731,5.926426 1.84108,0.943703 3.49629,0.755722 5.42175,-0.615741 2.15296,-1.533506 2.868815,-0.306289 1.0378,1.779128 -1.53161,1.744401 -4.3519,2.565663 -7.23263,2.106123 z m 16.280775,0.005 c -1.94747,-0.301683 -3.20531,-0.976582 -4.43915,-2.381845 -1.31476,-1.497433 -1.78462,-3.348394 -1.60773,-6.333551 0.17176,-2.898867 0.95481,-4.623167 2.82736,-6.226004 1.57422,-1.3474711 3.1789,-1.8696471 5.71648,-1.8601741 4.82736,0.01803 7.9608,3.7983581 7.48624,9.0317941 -0.19219,2.1195 -1.26747,4.841302 -2.29336,5.805079 -1.6611,1.560518 -4.92153,2.393535 -7.68984,1.964697 z m 3.92909,-2.409304 c 2.92386,-1.511984 3.23238,-8.487281 0.49284,-11.14255 -2.01657,-1.954525 -4.8252,-1.445885 -6.14883,1.113546 -0.97921,1.893467 -0.93935,5.944603 0.0774,7.863189 1.25454,2.367335 3.50177,3.239788 5.5786,2.165815 z m 47.13976,2.401761 c -4.27874,-0.671125 -6.61199,-4.531199 -5.77867,-9.560138 0.46496,-2.805991 1.71551,-4.829364 3.76973,-6.099386 1.40729,-0.8700601 1.86578,-0.9797501 4.09527,-0.9797501 2.02254,0 2.68824,0.129541 3.42457,0.6664141 1.92905,1.406506 3.04232,5.252304 1.86207,6.432554 -0.38809,0.388092 -1.21329,0.509389 -3.48012,0.511535 -1.63426,0.0016 -3.7362,0.09468 -4.67097,0.206958 -1.61158,0.193572 -1.6996,0.252643 -1.6996,1.140645 0,1.414377 0.7593,2.945967 1.96233,3.958252 0.9945,0.836814 1.25138,0.898332 3.27384,0.784055 1.95058,-0.110218 2.31422,-0.239891 3.2697,-1.165977 1.12235,-1.087825 1.82742,-1.325473 1.89082,-0.637304 0.15857,1.721193 -0.81505,3.181377 -2.71032,4.064814 -1.7174,0.80053 -3.19671,0.992898 -5.20865,0.677325 z m 3.88134,-11.1984 c 0.72899,-0.27974 0.51645,-1.993982 -0.35531,-2.865739 -1.6862,-1.686211 -4.37915,-0.594954 -5.53619,2.24342 l -0.51261,1.257512 2.9824,-0.233309 c 1.64033,-0.128318 3.1801,-0.309168 3.42171,-0.401884 z m 26.48144,11.245464 c -3.75169,-0.57969 -5.97078,-3.431528 -5.97078,-7.673279 0,-5.548887 3.14506,-9.1749251 7.95788,-9.1749251 3.44948,0 5.63884,2.1720641 5.63884,5.5942551 0,1.919685 -0.44841,2.175301 -3.81601,2.175301 -1.41,0 -3.47413,0.09516 -4.58695,0.211477 l -2.02332,0.211478 0.21181,1.324596 c 0.46186,2.888332 2.24888,4.474536 5.01687,4.453095 1.72149,-0.01334 3.05637,-0.554378 4.03456,-1.635265 1.00344,-1.108794 1.60536,-0.88931 1.37943,0.502988 -0.43744,2.695634 -4.13002,4.583882 -7.84233,4.010279 z m 3.98084,-11.417641 c 0.52571,-0.425445 0.19105,-1.819989 -0.66231,-2.759779 -1.31614,-1.449436 -4.14885,-0.559722 -5.18763,1.629361 -0.90826,1.914014 -0.86388,1.944538 2.45389,1.687424 1.64699,-0.127634 3.17521,-0.378286 3.39605,-0.557006 z m 32.83062,11.374529 c -3.87792,-0.748777 -5.83484,-3.773572 -5.45103,-8.42562 0.44335,-5.373736 3.43817,-8.3690971 8.37479,-8.3763121 3.48554,-0.0051 4.79612,0.7915101 4.79612,2.9151881 0,1.371592 -0.84211,2.261356 -2.14027,2.261356 -0.54543,0 -0.7486,-0.252343 -0.91428,-1.135511 -0.60632,-3.231925 -5.19924,-2.434633 -6.38266,1.107974 -0.51405,1.538751 -0.49683,4.841877 0.0305,5.854703 1.70416,3.273234 5.3314,4.070403 8.06289,1.772006 1.23113,-1.035934 1.66758,-1.011661 1.66758,0.09276 0,2.481016 -4.40632,4.635776 -8.04362,3.93346 z m 15.99434,-0.0039 c -7.13154,-1.13637 -8.17785,-12.425991 -1.4761,-15.927011 1.55437,-0.8120091 2.05676,-0.9150461 3.95536,-0.8112261 3.28664,0.179723 4.93048,1.7321421 5.32041,5.0245331 0.28035,2.367063 -0.17348,2.681397 -3.87639,2.684903 -1.63426,0.0016 -3.73621,0.09468 -4.67098,0.206958 -1.61158,0.193572 -1.69959,0.252643 -1.69959,1.140646 0,1.414376 0.75929,2.945966 1.96233,3.958251 0.99449,0.836814 1.25137,0.898333 3.27383,0.784056 1.95058,-0.110218 2.31421,-0.239892 3.2697,-1.165978 1.38898,-1.346254 1.85354,-1.326127 1.85354,0.0803 0,0.846842 -0.27283,1.395101 -1.11169,2.233963 -1.61616,1.616165 -3.98348,2.23951 -6.80042,1.790637 z m 3.91176,-11.198461 c 0.72899,-0.27974 0.51645,-1.993983 -0.3553,-2.86574 -1.68621,-1.686211 -4.37916,-0.594954 -5.53619,2.24342 l -0.51262,1.257513 2.98241,-0.23331 c 1.64032,-0.128318 3.18009,-0.309167 3.4217,-0.401883 z M 119.98296,25.743925 c -0.27325,-0.712096 0.0785,-1.053571 1.32626,-1.287658 1.6782,-0.314832 1.89456,-1.010618 1.92403,-6.187444 0.0298,-5.245499 -0.28628,-6.179193 -2.15303,-6.358941 -0.80862,-0.07786 -1.05841,-0.254719 -1.05841,-0.749374 0,-0.77443 1.96682,-1.3898211 4.57271,-1.4307411 1.57436,-0.02473 1.66857,0.02124 1.84422,0.8994391 l 0.1851,0.925491 2.20241,-1.114828 c 1.96874,-0.9965401 2.42164,-1.1014091 4.26844,-0.9883621 1.8407,0.112672 2.16727,0.239797 2.99452,1.1656371 l 0.9285,1.039175 v 5.477252 c 0,3.01249 0.1391,5.843098 0.30909,6.290242 0.21909,0.576252 0.63678,0.87446 1.43437,1.024092 1.16588,0.21872 1.60714,0.735289 1.19614,1.400307 -0.16981,0.274729 -1.5272,0.358938 -4.74509,0.294376 -4.211,-0.08449 -4.50728,-0.131639 -4.50728,-0.717318 0,-0.434587 0.32045,-0.709921 1.04466,-0.897582 1.6432,-0.425797 1.85377,-1.158097 1.86177,-6.474687 0.006,-4.127654 -0.0691,-4.8383 -0.5653,-5.335934 -0.80428,-0.80658 -2.69166,-0.681005 -4.88981,0.325341 l -1.82168,0.833997 0.0323,4.307351 c 0.0402,5.367079 0.15641,5.819212 1.59899,6.221336 1.24687,0.347574 1.62805,0.727457 1.37961,1.374907 -0.25346,0.660528 -9.10825,0.626414 -9.36247,-0.03608 z M 141.1183,25.9982 c -0.47479,-0.474801 -0.20119,-1.402835 0.41359,-1.402835 0.34618,0 1.02364,-0.339099 1.50547,-0.753557 l 0.87606,-0.753553 0.15684,-5.701555 0.15683,-5.701556 -1.58137,-0.100454 c -1.44418,-0.09174 -1.58137,-0.170661 -1.58137,-0.909779 0,-0.7334301 0.14134,-0.8184651 1.50704,-0.9067461 l 1.50703,-0.09742 0.11162,-3.004089 c 0.10123,-2.724253 0.19859,-3.11803 1.04524,-4.227264 1.291,-1.69140497 3.07167,-2.43203197 5.86474,-2.439303967704 1.69066,-0.0044000023 2.5311,0.155660997704 3.30956,0.630308997704 1.70306,1.03840097 1.82742,3.11666697 0.23004,3.84448297 -1.1756,0.535637 -1.26046,0.496792 -1.72576,-0.789972 -0.54332,-1.502522 -2.22991,-2.315927 -3.61363,-1.74277 -1.3389,0.55459 -1.92299,2.090483 -1.92384,5.05878 l -6.3e-4,2.54093 2.23697,-0.10633 c 2.04448,-0.09717 2.25578,-0.04709 2.45546,0.5820661 0.37346,1.176919 -0.35485,1.628518 -2.62644,1.628518 h -2.06462 v 5.787526 c 0,4.267578 0.10741,5.876666 0.40897,6.126942 0.22493,0.186677 1.09901,0.513169 1.94239,0.725534 1.1075,0.278872 1.53342,0.545663 1.53342,0.960515 0,0.315916 -0.23043,0.66282 -0.51208,0.770899 -0.69792,0.267816 -9.36175,0.250438 -9.63151,-0.01933 z m 28.17274,0.0081 c -0.59885,-0.598852 -0.17372,-1.348297 0.87662,-1.545338 1.85563,-0.348119 1.97491,-0.722165 1.97491,-6.192738 0,-5.518576 -0.22646,-6.167761 -2.21909,-6.361337 -0.76943,-0.07475 -1.01822,-0.257114 -1.01822,-0.746376 0,-0.742455 1.93371,-1.3862401 4.29745,-1.4307411 1.19902,-0.02257 1.42605,0.08487 1.69959,0.8043531 0.17365,0.456721 0.32216,1.294376 0.33003,1.861457 l 0.0143,1.031052 0.62078,-1.174809 c 0.34144,-0.646142 1.07457,-1.556637 1.62919,-2.023322 1.96675,-1.6549081 4.8435,-0.8204261 4.8435,1.404995 0,1.606773 -2.2153,3.074252 -2.70692,1.793136 -0.21557,-0.561784 -1.26523,-0.63487 -2.16927,-0.151044 -0.34382,0.184006 -0.95338,0.948822 -1.35458,1.699591 -0.61496,1.150768 -0.72664,1.847785 -0.71156,4.440485 0.0218,3.748691 0.31622,4.374082 2.33645,4.96315 1.12944,0.329329 1.53044,0.607013 1.53044,1.059801 0,0.571133 -0.33698,0.619699 -4.87486,0.702574 -2.68116,0.04897 -4.97561,-0.01172 -5.09877,-0.134889 z m 30.10766,6.3e-4 c -0.59943,-0.599431 -0.1748,-1.34884 0.87598,-1.545966 1.85582,-0.348154 1.97492,-0.721698 1.97492,-6.193443 0,-5.51821 -0.226,-6.166768 -2.21643,-6.360635 -1.346,-0.131098 -1.56714,-1.101852 -0.35591,-1.562363 0.48067,-0.18275 1.94744,-0.4230171 3.2595,-0.5339241 l 2.38553,-0.201653 0.19555,0.9777571 0.19556,0.977756 2.09547,-1.092237 c 3.26878,-1.7038061 6.51802,-1.4385591 7.90199,0.645064 0.33707,0.507478 0.50175,2.270206 0.62085,6.645428 0.1745,6.410831 0.0934,6.140062 2.0471,6.83379 0.61304,0.21768 0.87796,0.510638 0.8049,0.890067 -0.0977,0.507271 -0.59261,0.565605 -4.7986,0.565605 -4.42255,0 -4.68967,-0.03571 -4.68967,-0.626887 0,-0.43033 0.31711,-0.709057 1.01141,-0.888967 1.74672,-0.452619 1.89195,-0.890925 2.01137,-6.070117 0.1,-4.33673 0.055,-4.803143 -0.53418,-5.530678 -0.82306,-1.016449 -2.47062,-1.01584 -4.83615,0.0016 l -1.6991,0.730935 v 4.938333 c 0,5.299406 0.006,5.319014 1.78053,5.891385 0.63234,0.20395 0.97119,0.529731 0.97119,0.933729 0,0.576569 -0.31061,0.626832 -4.38863,0.710144 -2.41374,0.04931 -4.48967,-0.0114 -4.61317,-0.134886 z"
     id="path817"
     inkscape:connector-curvature="0"
     inkscape:export-xdpi="96"
     inkscape:export-ydpi="96" />
</svg>
