<?xml version="1.0" encoding="UTF-8" standalone="no"?>
<!-- Created with Inkscape (http://www.inkscape.org/) -->

<svg
   xmlns:dc="http://purl.org/dc/elements/1.1/"
   xmlns:cc="http://creativecommons.org/ns#"
   xmlns:rdf="http://www.w3.org/1999/02/22-rdf-syntax-ns#"
   xmlns:svg="http://www.w3.org/2000/svg"
   xmlns="http://www.w3.org/2000/svg"
   xmlns:sodipodi="http://sodipodi.sourceforge.net/DTD/sodipodi-0.dtd"
   xmlns:inkscape="http://www.inkscape.org/namespaces/inkscape"
   version="1.1"
   id="svg2"
   width="235.92036"
   height="90"
   viewBox="0 0 235.92036 90"
   sodipodi:docname="Emerald.svg"
   inkscape:version="0.92.3 (2405546, 2018-03-11)">
  <metadata
     id="metadata8">
    <rdf:RDF>
      <cc:Work
         rdf:about="">
        <dc:format>image/svg+xml</dc:format>
        <dc:type
           rdf:resource="http://purl.org/dc/dcmitype/StillImage" />
        <dc:title />
      </cc:Work>
    </rdf:RDF>
  </metadata>
  <defs
     id="defs6" />
  <sodipodi:namedview
     pagecolor="#ffffff"
     bordercolor="#666666"
     borderopacity="1"
     objecttolerance="10"
     gridtolerance="10"
     guidetolerance="10"
     inkscape:pageopacity="0"
     inkscape:pageshadow="2"
     inkscape:window-width="1920"
     inkscape:window-height="1027"
     id="namedview4"
     showgrid="false"
     inkscape:zoom="2.5460326"
     inkscape:cx="40.068557"
     inkscape:cy="59.154731"
     inkscape:window-x="-8"
     inkscape:window-y="-8"
     inkscape:window-maximized="1"
     inkscape:current-layer="svg2" />
  <g
     id="g821"
     transform="matrix(0.37995358,0,0,0.37995358,-1.8895699,-3.0396286)"
     style="fill:#dedede;fill-opacity:1"
     inkscape:export-xdpi="96"
     inkscape:export-ydpi="96">
    <path
       style="fill:#dedede;fill-opacity:1"
       d="m 605.21831,243.52925 c -6.57248,-2.05226 -7.48271,-3.11728 -5.66629,-6.62984 1.73851,-3.36192 1.78962,-3.37689 4.79812,-1.40564 3.6698,2.40454 10.96266,3.03918 12.57665,1.09444 1.97763,-2.3829 -0.68689,-4.89233 -6.88005,-6.47959 -9.30585,-2.38502 -12.79401,-7.62427 -9.58223,-14.39259 3.02434,-6.37332 12.06787,-8.47279 20.33498,-4.7208 3.64388,1.65376 4.14457,2.22223 3.28349,3.72804 -2.50379,4.37849 -2.58307,4.41789 -5.66061,2.81301 C 614.6862,215.58794 609.60156,215.57024 608,217.5 c -1.8888,2.27587 0.29875,4.24027 6.83932,6.14167 3.23716,0.94107 6.80157,2.84537 8.49437,4.53817 2.52894,2.52895 2.84485,3.45238 2.37625,6.94605 -0.66411,4.9513 -2.89916,7.55438 -7.60985,8.86292 -4.65141,1.29207 -7.61012,1.18652 -12.88178,-0.45956 z M 11.686177,227.29883 c -3.685478,-9.23936 -6.6975631,-17.16349 -6.6935229,-17.6092 0.00404,-0.4457 1.6948459,-0.6707 3.7573459,-0.5 L 12.5,209.5 17,221.74145 c 2.475,6.73279 4.728547,12.24529 5.007882,12.25 0.279335,0.005 1.219629,-1.97074 2.089542,-4.38986 1.503227,-4.1803 1.472751,-4.68859 -0.614577,-10.25 C 19.41008,208.50023 19.416386,209 23.352246,209 c 3.315567,0 3.572202,0.25646 5.219445,5.21584 l 1.732424,5.21584 1.981864,-5.21584 C 34.025619,209.63748 34.610922,209 37.074904,209 c 1.543884,0 3.008254,0.3375 3.254155,0.75 0.245902,0.4125 -0.828399,4.05482 -2.387334,8.09405 l -2.834427,7.34405 1.807074,4.60045 c 2.159507,5.49767 2.044099,5.65079 7.566284,-10.03855 L 48.264339,209 h 3.867831 c 2.127306,0 3.869236,0.3375 3.870955,0.75 0.0017,0.4125 -3.035781,8.27872 -6.75,17.4805 L 42.5,243.96099 l -3.285537,0.0195 c -3.478936,0.0206 -3.005643,0.69158 -8.051101,-11.41311 -0.657235,-1.57679 -1.278181,-0.74828 -3.372644,4.5 -2.397248,6.007 -2.793264,6.45238 -5.985385,6.73144 l -3.418288,0.29883 -6.700868,-16.79883 z M 93.06621,242.75 c 0.03642,-0.6875 2.876613,-8.45 6.311551,-17.25 l 6.245339,-16 h 3.28527 3.28527 l 5.90904,15.5 c 3.24997,8.525 6.16173,16.2875 6.47057,17.25 0.46972,1.46389 -0.0773,1.75 -3.3458,1.75 -3.67187,0 -3.98688,-0.24105 -5.22745,-4 l -1.32012,-4 h -5.73136 -5.73136 l -1.60048,4 c -1.44139,3.60237 -1.949217,4 -5.108583,4 -2.175123,0 -3.482939,-0.47496 -3.441887,-1.25 z M 111.21719,225 c -0.87942,-2.75 -1.92074,-5 -2.31406,-5 C 108.34177,220 105,228.28619 105,229.67814 105,229.85516 106.75863,230 108.90806,230 h 3.90806 z M 173,230 v -14 h -5.5 -5.5 v -3.5 -3.5 h 14.5 14.5 v 3.5 3.5 h -5.5 -5.5 v 14 14 H 176.5 173 Z M 234.22639,226.75 234.5,209.5 246.25,209.21826 258,208.93653 V 212.46826 216 h -8 -8 v 3.5 3.5 h 7 7 v 3.5 3.5 h -7 -7 v 4 4 h 8.5 8.5 v 3 3 H 246.47639 233.95277 Z M 303,226.5 V 209 l 8.75,0.004 c 6.96985,0.003 9.41383,0.40847 12.01291,1.99315 6.60967,4.02995 7.98364,12.98384 2.78941,18.17806 l -2.39911,2.39911 3.40081,5.46297 c 1.87044,3.00463 3.41097,5.80047 3.42339,6.21297 0.0124,0.4125 -1.75218,0.75 -3.92135,0.75 -3.71511,0 -4.1348,-0.31911 -7.23363,-5.5 -2.72054,-4.54844 -3.7683,-5.5 -6.05606,-5.5 C 311.07986,233 311,233.15878 311,238.5 v 5.5 h -4 -4 z m 18.35917,-2.69723 c 0.71897,-1.14684 0.74604,-2.60614 0.0835,-4.5 -0.86262,-2.46563 -1.54966,-2.83943 -5.7116,-3.10756 L 311,215.89042 V 221 v 5.10958 l 4.64757,-0.30479 c 3.03696,-0.19917 5.0163,-0.89296 5.7116,-2.00202 z m 56.24378,3.69396 C 373.97133,218.41993 371,210.51776 371,209.93636 c 0,-0.61004 1.58591,-0.92583 3.75,-0.74673 l 3.75,0.31037 4.48803,12.28472 c 3.86316,10.57432 4.66196,12.04685 5.73728,10.57627 2.51877,-3.44463 2.47361,-7.69036 -0.15945,-14.9898 C 387.15464,213.45895 386,209.97497 386,209.62901 386,209.28306 387.37296,209 389.05103,209 c 3.11588,0 3.2363,0.15952 6.41622,8.5 0.6323,1.65841 1.05568,1.14603 2.4789,-3 1.28999,-3.75792 2.27318,-5.08175 3.95783,-5.32908 4.91453,-0.72153 5.14502,0.24745 2.00102,8.4123 -2.93492,7.62187 -2.94733,7.73908 -1.28073,12.10301 0.9256,2.42363 1.998,4.04821 2.38313,3.61019 0.38512,-0.43803 2.61508,-6.08392 4.95547,-12.54642 L 414.21811,209 h 3.89094 c 2.14002,0 3.87451,0.3375 3.85442,0.75 -0.0201,0.4125 -3.09114,8.175 -6.82455,17.25 l -6.78802,16.5 -3.42545,0.29253 c -3.37111,0.2879 -3.4663,0.18641 -6.00035,-6.39725 l -2.57489,-6.68979 -2.82513,6.64726 C 390.86816,243.60426 390.50665,244 387.45293,244 h -3.24702 z m 86.55388,0.83869 c 3.30362,-8.67473 6.43565,-16.57395 6.96006,-17.55383 1.26566,-2.3649 6.42969,-2.38706 7.3612,-0.0316 0.38064,0.9625 3.09429,8.05 6.03033,15.75 2.93605,7.7 5.64591,14.7875 6.02191,15.75 0.5828,1.49186 0.0838,1.75 -3.3832,1.75 -3.8855,0 -4.12086,-0.18029 -5.27824,-4.04327 l -1.21139,-4.04327 -5.99351,0.29327 c -5.86989,0.28722 -6.01761,0.36546 -7.16233,3.79327 -1.05266,3.15216 -1.57542,3.5302 -5.26012,3.80383 l -4.0913,0.30382 6.00659,-15.77223 z m 12.53783,-3.96782 -2.07483,-5.6324 -1.16706,3.3824 c -2.89495,8.39018 -2.98286,7.8824 1.36458,7.8824 h 3.95213 z M 539,238.07491 c 0,-5.40081 -0.5309,-6.86023 -6,-16.49369 -3.3,-5.81274 -6,-11.04861 -6,-11.63528 0,-0.62111 1.56643,-0.93703 3.75,-0.75631 3.57537,0.29592 3.93861,0.67191 7.80014,8.07399 l 4.05014,7.76362 4.26984,-8.01362 C 550.93594,209.3829 551.30384,209 554.56998,209 c 1.88651,0 3.43002,0.48459 3.43002,1.07686 0,0.59227 -2.7,5.92175 -6,11.8433 -5.35733,9.61324 -6,11.37234 -6,16.42314 V 244 H 542.5 539 Z M 5,125 V 88 h 27 27 v 6.5 6.5 H 38.5 18 v 9 9 H 36.5 55 v 6 6 H 36.5 18 v 9.5 9.5 h 21 21 v 6 6 H 32.5 5 Z m 87,0 V 88 h 6.82769 6.82769 l 10.89032,17.11775 c 9.96958,15.67052 11.00667,16.95984 12.26657,15.25 0.75694,-1.02726 5.83182,-8.75086 11.27752,-17.16354 l 9.90127,-15.295794 6.75447,0.295792 L 163.5,88.5 l 0.26232,36.75 0.26232,36.75 h -6.99515 -6.99515 L 149.76717,136.93474 149.5,111.86948 138.93704,127.62239 c -5.80963,8.66411 -10.98463,15.89077 -11.5,16.05926 C 126.92167,143.85014 121.775,136.7579 116,127.92111 L 105.5,111.85422 105.23283,136.92711 104.96566,162 H 98.482829 92 Z M 199.23768,125.25 199.5,88.5 h 27 27 v 6 6 l -20.25,0.27071 -20.25,0.2707 v 8.9793 V 119 h 18 18 v 6 6 h -18 -18 v 9.5 9.5 h 20.5 20.5 v 6 6 H 226.48768 198.97536 Z M 286,124.88497 V 87.769936 l 20.25,0.470953 c 21.42201,0.498209 25.42988,1.244569 31.74161,5.911028 1.68643,1.246831 4.23068,4.64702 5.65391,7.555973 5.45953,11.15889 1.28278,24.85176 -9.26068,30.35973 l -5.08428,2.65605 9.29899,12.88817 c 5.11444,7.08849 9.32181,13.22566 9.34972,13.63816 0.0279,0.4125 -3.44882,0.75 -7.72605,0.75 h -7.77677 l -8.5508,-12.25 -8.55079,-12.25 -7.67243,-0.29206 L 300,136.91587 V 149.45794 162 h -7 -7 z m 35.11351,-0.88018 C 328.31054,122.67506 332,118.81641 332,112.61908 c 0,-5.44602 -2.7498,-9.1777 -7.79549,-10.57906 -2.03748,-0.56588 -8.31701,-1.03138 -13.95451,-1.03444 L 300,101 v 12 12 h 7.86351 c 4.32493,0 10.28743,-0.44785 13.25,-0.99521 z m 51.16793,37.29078 c 0.25069,-0.43756 7.5512,-17.10807 16.22334,-37.04557 L 404.27232,88 h 6.25685 c 4.06618,0 6.43583,0.437654 6.76804,1.25 0.28115,0.6875 5.10335,11.825 10.716,24.75 5.61265,12.925 12.59312,29.0125 15.51216,35.75 l 5.30734,12.25 h -7.26033 -7.26033 l -3.40603,-8.49301 -3.40602,-8.493 -17.10568,-0.007 -17.10567,-0.007 -3.47587,8.25 -3.47586,8.25 -7.25564,0.29557 c -3.9906,0.16256 -7.05053,-0.0624 -6.79984,-0.5 z M 419.02919,125.25 c -1.58493,-3.7125 -4.19714,-9.82373 -5.80491,-13.58051 l -2.92322,-6.83052 -5.15724,12.01622 c -2.83649,6.60892 -5.42737,12.72015 -5.75752,13.58052 -0.52322,1.36347 0.88407,1.56429 10.96215,1.56429 h 11.56243 z M 478,125 V 88 h 6.5 6.5 v 31 31 h 19.5 19.5 v 6 6 h -26 -26 z m 81.2376,0.32662 L 559.5,88.5 577,88.538176 c 19.83682,0.04327 24.83071,1.095316 33.67789,7.094799 18.66377,12.656345 20.30684,41.406385 3.24317,56.748095 -8.63524,7.76382 -13.28631,8.99044 -35.68346,9.41071 l -19.2624,0.36146 z M 597.5,147.56623 c 8.96483,-3.74803 13.89228,-11.78896 13.83025,-22.56907 -0.0456,-7.91705 -2.48903,-13.2653 -8.35428,-18.28573 C 597.94723,102.40702 592.67069,101 581.55718,101 H 573 v 24.64361 24.64362 l 10.25,-0.52434 c 6.19624,-0.31696 11.83196,-1.18571 14.25,-2.19666 z M 278,51.064873 c -6.31598,-1.928195 -11.69136,-5.81903 -20.25042,-14.657744 -12.8638,-13.284101 -21.27903,-17.735515 -29.32728,-15.513286 -1.95067,0.538606 -3.40619,0.609042 -3.23449,0.156524 0.17171,-0.452518 3.61549,-3.573972 7.65285,-6.936564 C 239.94266,8.1987743 240.36706,8 245.89432,8 c 8.6949,0 14.38007,3.364182 26.94197,15.942812 5.86504,5.872856 12.41498,11.489629 14.55542,12.481718 5.22534,2.421932 10.77597,3.061269 14.70034,1.693226 1.77775,-0.619725 3.34702,-1.012023 3.48727,-0.871771 0.14025,0.140251 -2.87359,2.871871 -6.69742,6.070266 -9.68034,8.097009 -14.22132,9.782022 -20.8819,7.748622 z m 50,0 C 321.5851,49.106476 316.03235,45.070582 306.65729,35.55239 301.07078,29.880587 295.15,24.558188 293.5,23.724836 c -5.55326,-2.804737 -11.27913,-3.879829 -15.0777,-2.830993 -1.95067,0.538606 -3.40619,0.609042 -3.23449,0.156524 0.17171,-0.452518 3.61549,-3.573972 7.65285,-6.936564 C 289.94266,8.1987743 290.36706,8 295.89432,8 c 8.45938,0 14.46253,3.422193 24.91364,14.202427 14.03166,14.47354 21.55479,18.44851 30.43173,16.079118 2.33351,-0.622848 4.32191,-1.053275 4.41868,-0.956504 0.0968,0.09677 -2.95264,2.792815 -6.77647,5.99121 -9.68034,8.097009 -14.22132,9.782022 -20.8819,7.748622 z m 45.34266,-1.979377 c -4.61984,-2.185563 -8.73992,-5.518809 -16.5,-13.348913 C 351.1542,29.99679 345.15,24.605133 343.5,23.755123 c -5.47122,-2.81854 -11.25641,-3.91639 -15.0777,-2.86128 -1.95067,0.538606 -3.40619,0.598899 -3.23449,0.133984 0.17171,-0.464914 3.59325,-3.586368 7.60343,-6.936563 C 339.86163,8.1844958 340.25701,8 345.84489,8 c 8.39527,0 14.08101,3.237857 24.74126,14.089409 14.39973,14.658144 21.78502,18.559279 30.65354,16.192136 2.33351,-0.622848 4.32191,-1.053275 4.41868,-0.956504 0.0968,0.09677 -2.95264,2.792815 -6.77647,5.99121 -11.40117,9.536369 -15.58061,10.480494 -25.53924,5.769245 z"
       id="path835"
       inkscape:connector-curvature="0" />
    <path
       style="fill:#dedede;fill-opacity:1"
       d="m 608,244.06097 c -1.925,-0.38689 -4.9669,-1.47271 -6.75978,-2.41294 -3.2007,-1.67852 -3.23242,-1.76244 -1.74968,-4.62973 l 1.5101,-2.92023 4.24968,1.929 c 4.50631,2.04549 9.36742,2.50142 11.59807,1.08779 2.45242,-1.55417 0.79447,-4.48247 -3.35453,-5.92485 C 601.33024,226.9614 600,225.80788 600,219.48882 c 0,-7.42696 8.4771,-12.01507 17.52093,-9.48296 5.68865,1.59272 6.89175,2.99429 5.39331,6.28301 -1.10997,2.43612 -1.25103,2.46836 -4.62788,1.05742 -1.91566,-0.80041 -5.12627,-1.31827 -7.13469,-1.15079 -3.14607,0.26234 -3.65167,0.65026 -3.65167,2.80172 0,2.2065 0.79997,2.75424 6.87136,4.70484 7.9094,2.54112 10.2549,4.31984 11.16592,8.46768 1.79201,8.15897 -6.87322,14.03447 -17.53728,11.89123 z M 12,227.82948 C 8.425,218.95177 5.35,211.30834 5.1666667,210.84409 4.9833333,210.37984 6.6157737,210 8.7943119,210 H 12.75529 l 4.32717,12 c 2.379944,6.6 4.587939,12 4.906656,12 0.814348,0 4.087139,-9.0676 3.57303,-9.89945 -0.232231,-0.37575 -1.558551,-3.7021 -2.947378,-7.39187 L 20.089628,210 h 3.374819 c 3.183096,0 3.473891,0.29825 5.118728,5.25 l 1.743909,5.25 1.666727,-5 c 1.551065,-4.65302 1.916827,-5.02127 5.270711,-5.30645 l 3.603983,-0.30644 -2.963565,7.69626 c -2.926241,7.59933 -2.942593,7.75117 -1.298394,12.05644 0.915843,2.39811 1.941534,4.35414 2.279312,4.34674 0.337778,-0.007 2.567024,-5.4074 4.95388,-12 L 48.179476,210 h 3.902165 3.902165 l -1.675558,4.25 c -0.921556,2.3375 -3.995239,9.875 -6.830406,16.75 -5.115761,12.40521 -5.179677,12.5 -8.429009,12.5 -3.085351,0 -3.426003,-0.37016 -5.907312,-6.41895 l -2.633153,-6.41895 -2.938132,6.66895 c -2.707427,6.1453 -3.178881,6.6678 -6.004184,6.65434 C 18.542392,243.97097 18.410129,243.7476 12,227.82948 Z m 81,15.58143 c 0,-0.3904 2.8125,-8.08331 6.25,-17.09536 l 6.25,-16.38553 3.46146,0.28499 3.46146,0.28499 6.28854,16.48722 c 3.4587,9.06798 6.28854,16.60548 6.28854,16.75 0,0.14453 -1.72877,0.26278 -3.84171,0.26278 -3.62292,0 -3.91076,-0.23044 -5.05402,-4.04632 l -1.21231,-4.04631 -6.11074,0.29631 c -6.00333,0.29111 -6.13127,0.35784 -7.27913,3.79632 -1.01787,3.04911 -1.640774,3.53998 -4.835241,3.81037 C 94.650082,243.98107 93,243.80131 93,243.41091 Z M 111.43897,225.75 c -2.60277,-7.51321 -2.57088,-7.48257 -3.90359,-3.75 -3.00939,8.42846 -3.08184,8 1.35287,8 h 4.02303 z M 173,230 v -14 h -5.5 c -5.44444,0 -5.5,-0.0303 -5.5,-3 v -3 h 14.5 14.5 v 3 c 0,2.9697 -0.0556,3 -5.5,3 H 180 v 14 14 h -3.5 -3.5 z m 61,-3 v -17 h 12 12 v 3 3 h -8 -8 v 4 4 h 7 c 6.8,0 7,0.0714 7,2.5 0,2.42857 -0.2,2.5 -7,2.5 h -7 v 4.5 4.5 h 8.5 8.5 v 3 3 H 246.5 234 Z m 69,0 v -17 h 9.86514 c 11.27515,0 14.09568,1.32123 16.15755,7.56874 1.43687,4.35377 0.58815,8.13861 -2.57005,11.46096 l -2.40471,2.52971 3.47604,5.77037 c 1.91182,3.17371 3.47603,5.97284 3.47603,6.2203 0,0.24746 -1.76697,0.44992 -3.92661,0.44992 -3.71143,0 -4.09905,-0.3014 -7.07339,-5.5 -2.85178,-4.98439 -3.46802,-5.5 -6.57339,-5.5 L 310,233 v 5.5 5.5 h -3.5 -3.5 z m 17.8,-2.2 c 0.66,-0.66 1.2,-2.37 1.2,-3.8 0,-3.76668 -1.77598,-5 -7.2,-5 H 310 v 5 5 h 4.8 c 2.64,0 5.34,-0.54 6,-1.2 z m 57.27019,3.45 c -3.45578,-8.6625 -6.50845,-16.3125 -6.7837,-17 -0.34933,-0.87251 0.6832,-1.25 3.4191,-1.25 h 3.91957 l 4.42821,12.42588 c 2.43552,6.83423 4.64973,12.20435 4.92048,11.9336 0.27076,-0.27075 1.21116,-2.3749 2.0898,-4.67588 1.5497,-4.05839 1.51355,-4.41555 -1.20791,-11.9336 L 386.05031,210 h 3.39729 c 3.04419,0 3.52294,0.38977 4.60616,3.75 1.86743,5.79291 2.13953,5.87214 3.97552,1.15759 1.46229,-3.75495 2.17949,-4.45399 4.84358,-4.72095 1.71993,-0.17235 3.12714,0.0431 3.12714,0.47879 0,0.43568 -1.16736,3.84708 -2.59413,7.58089 -2.58912,6.77568 -2.59069,6.7983 -0.81062,11.7485 0.98093,2.72787 1.97364,4.76963 2.20602,4.53724 0.23239,-0.23238 2.34817,-5.73466 4.70175,-12.22729 l 4.27924,-11.80477 4.07505,-0.30585 4.07506,-0.30584 -6.86496,16.80584 -6.86496,16.80585 h -3.30954 c -3.13349,0 -3.44048,-0.3341 -5.77082,-6.28041 -1.3537,-3.45422 -2.77011,-5.92922 -3.14758,-5.5 -0.37748,0.42923 -1.73397,3.36791 -3.01443,6.53041 -2.13963,5.2845 -2.58225,5.75 -5.46738,5.75 -3.12018,0 -3.17745,-0.0957 -9.42251,-15.75 z m 80.91969,15 c -0.006,-0.4125 2.76902,-8.08522 6.16575,-17.05048 l 6.17589,-16.30049 3.47405,0.30049 c 3.80157,0.32881 3.3449,-0.56849 13.25797,26.05048 l 2.88615,7.75 h -3.81478 c -3.5639,0 -3.90161,-0.26307 -5.13491,-4 l -1.32012,-4 h -5.84804 -5.84803 l -1.60049,4 c -1.42673,3.56575 -1.96866,4 -4.9919,4 -1.86528,0 -3.39598,-0.3375 -3.40154,-0.75 z m 18.44909,-17.5 c -0.80977,-2.3375 -1.73137,-4.925 -2.04799,-5.75 -0.37955,-0.98897 -1.20656,0.0331 -2.42746,3 -2.67279,6.49514 -2.52911,7 1.99212,7 h 3.95564 z M 539,237.96531 c 0,-5.27766 -0.54708,-7.00254 -4.36109,-13.75 -2.3986,-4.24342 -5.11015,-9.17781 -6.02568,-10.96531 L 526.94864,210 h 3.90436 c 3.31399,0 4.07816,0.41582 5.05378,2.75 0.63218,1.5125 2.45039,4.96847 4.04047,7.67993 l 2.89106,4.92993 3.80013,-7.67993 C 550.37375,210.13101 550.50306,210 554.21929,210 c 2.07939,0 3.78071,0.24142 3.78071,0.53649 0,0.29508 -2.7,5.30184 -6,11.12615 -5.45045,9.61974 -6,11.12765 -6,16.46351 V 244 H 542.5 539 Z M 5,125.5 V 89 h 27 27 v 6 6 H 38.5 18 v 9 9 h 18 18 v 6 6 H 36 18 v 9.5 9.5 h 21 21 v 6 6 H 32.5 5 Z m 87,-0.0438 V 88.912391 l 7.158496,0.293809 7.158494,0.29381 10.24381,15.96743 c 5.63409,8.78209 10.62526,16.07268 11.0915,16.20131 0.46623,0.12862 5.52104,-7.16922 11.2329,-16.21744 L 149.2704,89 H 156.6352 164 v 36.5 36.5 h -6.98283 -6.98283 L 149.76717,136.86003 149.5,111.72007 138.71972,127.90034 c -5.92915,8.89914 -11.13586,15.9605 -11.57047,15.6919 -0.4346,-0.2686 -5.48347,-7.55853 -11.21972,-16.19986 L 105.5,111.68089 105.23283,136.84044 104.96566,162 H 98.482829 92 V 125.45619 Z M 199,125.5 V 89 h 27 27 v 6 6 H 232.5 212 v 9 9 h 18.5 18.5 v 6 6 H 230.5 212 v 9.5 9.5 h 21 21 v 6 6 H 226.5 199 Z m 87,-0.0699 V 88.86018 l 21.75,0.31992 c 20.12855,0.29607 22.05526,0.483264 25.84468,2.511006 16.77597,8.976914 16.42761,32.958004 -0.59514,40.969744 l -3.94447,1.85647 9.47247,13.41664 C 343.73739,155.3131 348,161.49671 348,161.67529 c 0,0.17859 -3.4875,0.30605 -7.75,0.28323 l -7.75,-0.0415 -8.5,-12.43132 -8.5,-12.43132 -8.25,-0.0272 L 299,137 v 12.5 12.5 h -6.5 -6.5 v -36.56992 z m 37.18572,-1.46491 C 328.41918,122.51162 332,117.91309 332,112.64578 332,103.63398 327.1445,101 310.53212,101 H 299 v 12 12 l 10.25,-0.006 c 5.6375,-0.003 11.90858,-0.46623 13.93572,-1.02925 z m 50.03042,36.33347 C 373.4773,159.30939 380.59916,142.6375 389.0425,123.25 L 404.39402,88 h 6.08188 6.08188 l 15.73814,36.25 c 8.65598,19.9375 15.73048,36.5875 15.72111,37 -0.009,0.4125 -3.05453,0.74536 -6.76703,0.73968 l -6.75,-0.0103 -3.65525,-8.73968 -3.65524,-8.73968 h -16.8091 -16.80911 l -3.74017,8.5 -3.74018,8.5 -6.67482,0.29864 c -6.01165,0.26897 -6.62765,0.11993 -6.19999,-1.5 z M 421.5724,131.25 C 418.46119,122.76376 410.4393,105.18338 409.9437,105.76513 408.95552,106.9251 399,130.71832 399,131.92007 399,132.63128 402.96291,133 410.60699,133 c 10.63202,0 11.5531,-0.147 10.96541,-1.75 z M 478,125.5 V 89 h 6.5 6.5 v 30.5 30.5 h 19 19 v 6 6 H 503.5 478 Z m 82,0.0172 V 88.847065 l 19.25,0.326463 c 18.40971,0.312211 19.49773,0.442593 24.92515,2.986869 20.74205,9.723503 27.86561,34.573143 15.33731,53.502273 -4.02116,6.07561 -7.91287,9.23704 -16.05465,13.042 -5.73764,2.68141 -6.65072,2.79721 -24.70781,3.13348 L 560,162.18733 Z m 38,22.04067 c 9.0468,-4.61697 13.42789,-11.7924 13.46785,-22.05788 0.0448,-11.49835 -5.24094,-19.51356 -15.21582,-23.07325 -2.11429,-0.75451 -8.00785,-1.35812 -13.50203,-1.38286 L 573,101 v 24.62845 24.62845 l 10.75,-0.45641 c 7.61919,-0.32349 11.76933,-0.97663 14.25,-2.24261 z M 278.5,51.062328 c -5.91615,-1.435145 -10.16526,-4.487104 -21,-15.083409 -14.15189,-13.840467 -22.18363,-17.871872 -30,-15.05803 -2.52694,0.909683 -2.05388,0.207502 3,-4.453008 8.17571,-7.5393526 10.72199,-8.7823054 16.91357,-8.2562716 7.91264,0.6722544 12.16137,3.3516016 25.15517,15.8634366 13.36654,12.870757 18.12406,15.589065 25.66952,14.666805 2.34396,-0.286495 5.16174,-0.874265 6.26174,-1.306156 2.09065,-0.82085 -11.56938,11.02043 -14.38507,12.469783 -2.64508,1.361532 -8.40587,1.935308 -11.61493,1.15685 z m 50,0 c -5.91615,-1.435145 -10.16526,-4.487104 -21,-15.083409 -14.14704,-13.83572 -22.17009,-17.864754 -30,-15.065481 -2.53635,0.906772 -2.0727,0.21452 3,-4.479158 8.09434,-7.4895468 10.68996,-8.7514257 16.91357,-8.2226706 7.90787,0.6718486 12.18337,3.3519876 24.76381,15.5234176 14.85076,14.367935 21.46723,17.463027 30.50752,14.270989 2.3886,-0.843392 2.05759,-0.298841 -2.1849,3.594332 -9.48555,8.704537 -15.12458,11.129827 -22,9.46198 z m 50,0 C 372.63374,49.639284 368.36165,46.574246 357.5,35.99572 344.31535,23.154754 339.92811,20.571638 331.37333,20.612878 l -6.12666,0.02954 6.97366,-5.826499 c 7.66475,-6.4039085 9.84493,-7.294093 16.12935,-6.5857477 7.1775,0.8090082 11.74164,3.7702707 23.06416,14.9642697 14.62337,14.457381 22.18201,18.035904 31.27106,14.804818 2.3768,-0.844933 2.03662,-0.291032 -2.1849,3.55757 -9.65821,8.805031 -15.13417,11.171022 -22,9.505503 z"
       id="path833"
       inkscape:connector-curvature="0" />
    <path
       style="fill:#dedede;fill-opacity:1"
       d="m 608.3264,243.91614 c -2.29548,-0.43217 -5.56238,-1.50393 -7.25978,-2.38169 -3.03307,-1.56846 -3.05971,-1.64713 -1.54777,-4.5709 l 1.53842,-2.97498 3.93153,2.00571 c 6.39825,3.26415 13.61448,2.37683 12.8524,-1.58034 -0.24332,-1.26348 -2.66772,-2.69987 -7.67938,-4.5498 -8.36723,-3.08855 -10.08536,-4.81704 -10.13002,-10.19106 -0.0605,-7.27633 8.14338,-12.04936 16.73428,-9.73607 6.16302,1.65953 7.61137,3.14047 6.16849,6.30725 -1.17236,2.57305 -1.31179,2.61203 -4.13016,1.15459 -1.64819,-0.8523 -4.74089,-1.3758 -7.11063,-1.2036 C 607.96835,216.46597 607.5,216.77919 607.5,219 c 0,2.20935 0.80351,2.76054 6.91131,4.74099 7.71801,2.50257 10.11164,4.22214 11.04308,7.93329 2.10788,8.39847 -6.15894,14.307 -17.12799,12.24186 z M 18.667669,243.25 C 18.173507,242.42706 10.25809,223.26584 7.047499,215.12051 L 5.0291841,210 h 3.7855697 3.7855692 l 4.604413,12.75 4.604412,12.75 2.141079,-4.93941 2.141079,-4.93941 -2.545653,-6.8678 C 22.145544,214.97609 21,211.46132 21,210.94279 21,210.42426 22.313835,210 23.919633,210 c 2.628724,0 3.090943,0.51577 4.638939,5.17634 l 1.719305,5.17635 1.930948,-5.17635 C 33.931513,210.55829 34.455797,210 37.069887,210 38.681449,210 40,210.32795 40,210.72879 c 0,0.40083 -1.167356,3.78372 -2.594125,7.51753 -2.592326,6.78404 -2.592882,6.79221 -0.801806,11.77302 0.985775,2.74135 2.104308,4.64596 2.485628,4.23247 0.381319,-0.4135 2.603271,-6.03931 4.93767,-12.50181 L 48.271729,210 h 3.799805 3.799806 l -6.79026,16.75 c -6.540096,16.1329 -6.901163,16.76117 -9.800508,17.05328 -2.84,0.28612 -3.16861,-0.0693 -5.810336,-6.28508 -1.540048,-3.62359 -3.105705,-6.23507 -3.479237,-5.80327 -0.373533,0.43179 -1.701581,3.37257 -2.951218,6.53507 -2.017904,5.10678 -2.588067,5.75 -5.096907,5.75 -1.553662,0 -3.027504,-0.3375 -3.275205,-0.75 z m 74.58039,-0.5 c 0.254119,-0.6875 3.114764,-8.34792 6.356988,-17.02315 L 105.5,209.9537 l 3.38981,0.27315 c 3.7018,0.29829 3.29263,-0.50997 13.17373,26.02315 l 2.88615,7.75 h -3.48294 c -3.13002,0 -3.64512,-0.40532 -5.08343,-4 l -1.60048,-4 h -5.89952 -5.89951 l -1.60049,4 c -1.4402,3.59942 -1.950825,4 -5.098889,4 -2.378479,0 -3.350499,-0.40016 -3.036372,-1.25 z m 19.199541,-15 c -0.37795,-1.2375 -1.3475,-3.825 -2.15456,-5.75 l -1.46738,-3.5 -1.85696,4.5 c -2.68991,6.51852 -2.54556,7 2.09869,7 3.75497,0 4.0146,-0.17282 3.38021,-2.25 z M 173,230 v -14 h -5.5 c -5.44444,0 -5.5,-0.0303 -5.5,-3 v -3 h 14.5 14.5 v 3 c 0,2.9697 -0.0556,3 -5.5,3 H 180 v 14 14 h -3.5 -3.5 z m 61,-3 v -17 h 12 12 v 3 3 h -8 -8 v 4 4 h 7 c 6.8,0 7,0.0714 7,2.5 0,2.42857 -0.2,2.5 -7,2.5 h -7 v 4.5 4.5 h 8.5 8.5 v 3 3 H 246.5 234 Z m 69,0 v -17 h 9.86514 c 8.37646,0 10.25183,0.30417 12.42761,2.01564 5.36656,4.22134 5.64409,12.22933 0.60956,17.58835 l -2.05743,2.19003 2.41994,3.85299 c 5.27482,8.3985 5.26947,8.35299 0.98165,8.35299 -3.56432,0 -4.05017,-0.37336 -7.15724,-5.5 -2.98385,-4.92333 -3.68753,-5.5 -6.71129,-5.5 H 310 v 5.5 5.5 h -3.5 -3.5 z m 18.81823,-4.81532 C 322.27023,217.47578 320.61405,216 314.87756,216 H 310 v 5.0499 5.04991 l 5.75,-0.29991 c 5.70966,-0.2978 5.75223,-0.32316 6.06823,-3.61522 z M 378,227.82948 c -3.575,-8.87771 -6.65,-16.52114 -6.83333,-16.98539 -0.18334,-0.46425 1.39166,-0.84189 3.5,-0.8392 l 3.83333,0.005 4.44072,12.50438 c 2.4424,6.87742 4.73723,12.16272 5.09962,11.74512 1.20048,-1.38337 4.00425,-9.37811 3.54789,-10.11652 -0.24658,-0.39897 -1.58464,-3.74431 -2.97346,-7.43408 L 386.08963,210 h 3.22046 c 2.97941,0 3.36132,0.39298 5.1021,5.25 l 1.88162,5.25 1.68307,-5 c 1.52012,-4.51592 2.00306,-5.03131 4.98827,-5.32344 2.40964,-0.2358 3.17475,0.0352 2.82377,1 -5.38512,14.80396 -5.25353,14.04002 -3.29971,19.15603 0.99988,2.61813 2.12044,4.40185 2.49014,3.96383 0.3697,-0.43803 2.59982,-6.08392 4.95582,-12.54642 L 414.21881,210 h 3.77599 3.77599 l -4.39227,10.75 c -10.25695,25.1037 -9.31793,23.39018 -12.63334,23.05328 -2.63092,-0.26735 -3.28545,-1.03897 -5.52496,-6.51334 -1.39726,-3.41553 -2.85997,-6.01259 -3.25047,-5.77124 -0.3905,0.24134 -1.72332,3.14837 -2.9618,6.46005 -2.09644,5.60583 -2.46761,6.02024 -5.37988,6.00664 -3.10383,-0.0145 -3.17845,-0.13972 -9.62807,-16.15591 z m 81,15.52107 c 0,-0.3572 2.8125,-8.02295 6.25,-17.035 l 6.25,-16.38553 3.35426,0.28499 c 3.34446,0.28416 3.36972,0.32591 8.64083,14.28499 2.90762,7.7 5.77456,15.2375 6.37099,16.75 1.06829,2.70909 1.02764,2.75 -2.73254,2.75 -3.58672,0 -3.88926,-0.24129 -5.01539,-4 l -1.19843,-4 h -6.30157 -6.30157 l -1.19843,4 c -1.09807,3.665 -1.48819,4 -4.65829,4 C 460.55694,244 459,243.70775 459,243.35055 Z M 477.30639,225.25 c -0.86472,-2.6125 -1.89171,-5.1068 -2.28219,-5.54289 -0.39049,-0.43609 -1.62881,1.70141 -2.75183,4.75 L 470.23052,230 h 4.32404 4.32404 z M 539,237.887 c 0,-5.45638 -0.52092,-7.04072 -4.84971,-14.75 C 525.9934,208.61013 526.35086,210 530.77162,210 c 3.77203,0 3.90443,0.12905 7.27005,7.08614 1.88543,3.89737 3.76512,7.29445 4.1771,7.54907 0.41197,0.25461 2.42996,-2.93415 4.48442,-7.08614 3.66604,-7.40893 3.80556,-7.54907 7.5161,-7.54907 2.07939,0 3.78071,0.19129 3.78071,0.42509 0,0.23379 -2.7,5.18096 -6,10.99369 -5.49431,9.67787 -6,11.07483 -6,16.57492 V 244 H 542.5 539 Z M 5,125.51607 V 89 h 27 27 v 6 6 H 38.5 18 v 9 9 h 18 18 v 6 6 H 36 18 v 9.47971 9.47971 L 38.75,150.22971 59.5,150.5 v 5.5 5.5 L 32.25,161.76607 5,162.03214 Z M 92,125.5 V 89 h 6.973724 6.973726 l 4.77627,7.518688 c 2.62696,4.135282 7.52379,11.786222 10.88186,17.002092 l 6.10558,9.4834 10.81673,-17.00209 L 149.34462,89 h 7.34016 7.34017 L 163.76247,125.25 163.5,161.5 h -6.5 -6.5 l -0.26763,-25.46872 -0.26763,-25.46871 -10.60568,15.96871 c -5.83312,8.7828 -10.97281,16.36884 -11.42153,16.85788 -0.44872,0.48905 -5.79324,-6.66 -11.87669,-15.88677 L 105,110.72644 V 136.36322 162 H 98.5 92 Z m 107.66667,35.83333 C 199.3,160.96667 199,144.54167 199,124.83333 V 89 h 27 27 v 6 6 H 232.5 212 v 9 9 h 18.5 18.5 v 6 6 H 230.5 212 v 9.5 9.5 h 21 21 v 6 6 h -26.83333 c -14.75834,0 -27.13334,-0.3 -27.5,-0.66667 z M 286,125.5 V 89 h 19.96249 c 17.7166,0 20.58277,0.232077 25.47584,2.062809 11.64843,4.358238 17.2922,16.946601 13.02282,29.047291 -1.88153,5.33283 -5.57871,9.36623 -11.24376,12.26629 l -4.28261,2.19235 9.59472,13.46563 9.59471,13.46563 -6.71289,0.29913 c -3.69209,0.16452 -7.26342,0.0879 -7.93629,-0.17034 -0.67287,-0.2582 -4.99252,-5.90099 -9.59922,-12.53952 L 315.5,137.01922 l -8.25,-0.01 -8.25,-0.01 v 12.5 12.5 h -6.5 -6.5 v -36.5 z m 38.92031,-2.08479 C 329.90234,121.4218 332,118.26405 332,112.75769 332,103.51901 327.51151,101 311.04966,101 H 299 v 12 12 h 10.97976 c 7.68805,0 12.1672,-0.47512 14.94055,-1.58479 z M 372.99823,161.25 c -9.8e-4,-0.4125 7.08652,-17.06164 15.75,-36.99809 L 404.5,88.003813 l 6,0.01373 6,0.01373 15.5,35.675417 c 8.525,19.62147 15.64962,36.28584 15.83249,37.03193 0.26044,1.06262 -1.13723,1.29206 -6.4509,1.05896 l -6.78337,-0.29757 -3.6583,-8.5 -3.6583,-8.5 -16.92098,-0.27267 -16.92098,-0.27267 -3.82057,9.02267 -3.82056,9.02267 h -6.39927 c -3.51959,0 -6.40006,-0.3375 -6.40103,-0.75 z m 49.00293,-29 c 0.003,-2.03931 -11.45018,-27.19429 -12.07709,-26.52496 -0.61957,0.66149 -3.0169,6.10567 -10.57932,24.02496 l -1.37159,3.25 h 12.01342 c 6.60738,0 12.01394,-0.3375 12.01458,-0.75 z M 478,125.5 V 89 h 6.5 6.5 v 30.5 30.5 h 19 19 v 6 6 H 503.5 478 Z m 82,0.0175 V 88.844211 l 18.75,0.364631 c 22.9152,0.445632 27.38112,1.762322 36.33,10.711198 7.22229,7.22229 10.21753,14.50311 10.31759,25.08 0.1511,15.97044 -8.22232,28.23262 -23.34974,34.19377 -4.80469,1.89335 -7.99251,2.2405 -23.79785,2.59159 L 560,162.19079 Z m 39.70847,21.06963 c 16.53294,-9.07751 16.19831,-34.08769 -0.57266,-42.80035 C 594.27394,101.26096 592.79905,101 583.38581,101 H 573 v 24.61062 24.61063 l 10.75,-0.38721 c 9.54181,-0.34369 11.33538,-0.70862 15.95847,-3.24695 z M 278.7175,50.897681 C 272.09954,49.358128 268.75023,46.963964 257.90313,36.019073 245.50966,23.513875 240.41639,20.5 231.67681,20.5 h -5.82319 l 3.82319,-3.32329 c 8.92156,-7.7550281 11.43828,-9.1771028 16.22323,-9.1669411 7.9162,0.016812 14.40345,3.9043541 25.62705,15.3572441 C 282.74714,34.816267 289.50058,39 296.76209,39 c 2.40316,0 5.29411,-0.494896 6.42433,-1.099768 3.43974,-1.840892 1.21177,0.548831 -5.91396,6.343315 -8.38134,6.815527 -12.11127,8.153144 -18.55496,6.654134 z m 49.07483,-0.309059 C 321.39254,48.878519 317.08196,45.685602 306.4519,34.781422 295.61321,23.663228 290.1213,20.5 281.65691,20.5 h -5.84308 l 3.84308,-3.376949 c 8.53133,-7.4965411 11.43115,-9.1235013 16.24313,-9.1132821 7.9162,0.016812 14.40345,3.9043541 25.62705,15.3572441 C 332.74714,34.816267 339.50058,39 346.76209,39 c 2.40316,0 5.29411,-0.494896 6.42433,-1.099768 3.43974,-1.840892 1.21177,0.548831 -5.91396,6.343315 -6.08342,4.946909 -8.1732,6.089866 -13.27246,7.259084 -0.825,0.189166 -3.61845,-0.222138 -6.20767,-0.914009 z m 50.15823,0.04018 C 371.1746,48.815042 367.47947,46.118933 356.95076,35.306535 345.58638,23.635938 340.22928,20.5 331.65691,20.5 h -5.84308 l 3.84308,-3.376949 c 8.53133,-7.4965411 11.43115,-9.1235013 16.24313,-9.1132821 7.9588,0.016902 14.35505,3.8798041 25.81036,15.5877121 7.19945,7.358201 11.81872,11.206514 15.51995,12.929649 5.57914,2.597419 12.3867,3.200082 16.08539,1.424016 1.3523,-0.649359 0.85115,0.144839 -1.31574,2.085123 -7.39568,6.622254 -11.59142,9.745414 -14,10.421096 -4.86667,1.365253 -5.54617,1.376844 -10.04944,0.171433 z"
       id="path831"
       inkscape:connector-curvature="0" />
    <path
       style="fill:#dedede;fill-opacity:1"
       d="m 18.648061,243.23957 c -0.258485,-0.41824 -2.724031,-6.38074 -5.478992,-13.25 C 10.414109,223.12031 7.443,215.8125 6.5666051,213.75 L 4.97316,210 l 3.76342,7.3e-4 3.76342,7.3e-4 4.661483,12.74927 4.661483,12.74927 2.13417,-4.93941 2.13417,-4.93941 -2.545653,-6.8678 C 22.145544,214.97609 21,211.46132 21,210.94279 21,210.42426 22.313835,210 23.919633,210 c 2.631572,0 3.090561,0.51461 4.652058,5.21584 l 1.732424,5.21584 1.981864,-5.21584 C 34.038994,210.60228 34.598793,210 37.133921,210 38.710265,210 40,210.32795 40,210.72879 c 0,0.40083 -1.167356,3.78372 -2.594125,7.51753 -2.592326,6.78404 -2.592882,6.79221 -0.801806,11.77302 0.985775,2.74135 2.108718,4.64596 2.495427,4.23247 0.38671,-0.4135 2.620874,-6.03931 4.964809,-12.50181 l 4.2617,-11.75 h 3.775548 3.775548 l -6.854826,16.75 c -6.516581,15.92349 -6.998525,16.76483 -9.76704,17.05057 -2.72061,0.28079 -3.097104,-0.13446 -5.722335,-6.31139 -1.545566,-3.63658 -3.132901,-6.24683 -3.527413,-5.80057 -0.394511,0.44626 -1.764943,3.39889 -3.045404,6.56139 -2.04332,5.04662 -2.665362,5.75 -5.08508,5.75 -1.516333,0 -2.968457,-0.34219 -3.226942,-0.76043 z M 93.438842,242.25 c 0.31549,-0.9625 3.170544,-8.5 6.344565,-16.75 l 5.770943,-15 h 3.35932 3.35931 l 4.37076,11.5 c 2.40392,6.325 5.26118,13.8625 6.34948,16.75 l 1.97871,5.25 h -3.43917 c -3.11449,0 -3.62709,-0.42483 -5.42974,-4.5 l -1.99056,-4.5 h -5.42037 -5.42037 l -1.71857,4.5 c -1.582469,4.14364 -1.994523,4.5 -5.203245,4.5 -2.870598,0 -3.383595,-0.30839 -2.911063,-1.75 z m 19.101668,-13.94463 c -0.37197,-1.48204 -1.35998,-4.29454 -2.19558,-6.25 L 108.82566,218.5 106.9687,223 c -2.90815,7.04737 -2.65335,8 2.13971,8 3.96209,0 4.08432,-0.096 3.4321,-2.69463 z M 173,230 v -14 h -5.5 c -5.44444,0 -5.5,-0.0303 -5.5,-3 v -3 h 14.5 14.5 v 3 c 0,2.9697 -0.0556,3 -5.5,3 H 180 v 14 14 h -3.5 -3.5 z m 62,-3 v -17 h 11.5 11.5 v 3 3 h -8.56037 -8.56036 l 0.31036,3.75 0.31037,3.75 7.25,0.29381 c 6.91525,0.28024 7.25,0.40519 7.25,2.70619 0,2.301 -0.33475,2.42595 -7.25,2.70619 L 241.5,229.5 241.1925,233.75 240.885,238 H 249.4425 258 v 3 3 H 246.5 235 Z m 68,0 v -17 h 9.92308 c 9.74743,0 9.97754,0.0545 13,3.07692 4.14856,4.14856 4.38637,11.21344 0.53165,15.79451 l -2.54527,3.02489 2.38765,3.80184 c 5.23244,8.33159 5.22905,8.30317 0.98807,8.29083 -3.54696,-0.0103 -4.02108,-0.39212 -7.53345,-6.06659 -3.28434,-5.30606 -4.08887,-6.01639 -6.5,-5.73899 -2.6054,0.29976 -2.76768,0.62235 -3.05163,6.06659 L 309.90019,244 H 306.4501 303 Z m 15.82672,-0.65035 c 3.29179,-0.88146 4.65893,-4.95951 2.6768,-7.98463 C 320.21775,216.4027 319.10646,216 314.97695,216 H 310 v 4.83333 c 0,2.65834 0.3,5.13334 0.66667,5.5 0.83234,0.83234 5.08092,0.84084 8.16005,0.0163 z m 60.24934,3.89231 c -2.98316,-7.55808 -6.0267,-15.20446 -6.76342,-16.99196 l -1.33948,-3.25 3.76342,0.005 3.76342,0.005 4.44072,12.50438 c 2.4424,6.87742 4.73723,12.16272 5.09962,11.74512 1.20048,-1.38337 4.00425,-9.37811 3.54789,-10.11652 -0.24658,-0.39897 -1.58464,-3.74431 -2.97346,-7.43408 L 386.08963,210 h 3.22046 c 2.97941,0 3.36132,0.39298 5.1021,5.25 l 1.88162,5.25 1.68307,-5 c 1.52012,-4.51592 2.00306,-5.03131 4.98827,-5.32344 2.40964,-0.2358 3.17475,0.0352 2.82377,1 -5.38512,14.80396 -5.25353,14.04002 -3.29971,19.15603 0.99988,2.61813 2.13306,4.40185 2.51819,3.96383 0.38512,-0.43803 2.61508,-6.08392 4.95547,-12.54642 L 414.21811,210 h 3.39094 c 1.86502,0 3.39095,0.38521 3.39095,0.85603 0,0.47082 -2.74602,7.55832 -6.10226,15.75 -3.35624,8.19168 -6.33869,15.4807 -6.62765,16.19781 -0.31058,0.77075 -1.74566,1.17961 -3.50999,1 -2.64142,-0.2689 -3.27109,-1.02191 -5.47615,-6.54871 -1.37034,-3.43468 -2.81905,-6.04245 -3.21934,-5.79506 -0.4003,0.2474 -1.8083,3.17009 -3.1289,6.49487 -2.19719,5.53171 -2.65732,6.04438 -5.4184,6.03702 -2.94538,-0.008 -3.14662,-0.33565 -8.44125,-13.75 z M 459.21359,242.75 c 0.23516,-0.6875 3.09525,-8.3375 6.35575,-17 l 5.9282,-15.75 h 3.1736 c 3.48602,0 2.45251,-2.05391 13.2087,26.25 l 2.94519,7.75 h -3.44805 c -3.1398,0 -3.62243,-0.4068 -5.39855,-4.55032 l -1.9505,-4.55032 -5.68496,0.30032 -5.68496,0.30032 -1.41234,4.25 c -1.30556,3.9287 -1.67872,4.25 -4.93599,4.25 -2.38029,0 -3.38492,-0.4056 -3.09609,-1.25 z m 19.53906,-13 c -0.25374,-0.6875 -1.26735,-3.70073 -2.25248,-6.69607 l -1.79115,-5.44606 -2.17614,5.94606 c -1.19687,3.27034 -2.00484,6.28357 -1.79549,6.69607 0.20935,0.4125 2.20223,0.75 4.42862,0.75 2.81775,0 3.90776,-0.37989 3.58664,-1.25 z M 539,237.8461 c 0,-6.33274 -0.51013,-7.56831 -9.74206,-23.5961 L 526.80996,210 h 3.90183 c 3.84617,0 3.95072,0.10108 7.32988,7.08614 1.88543,3.89737 3.74331,7.28097 4.12862,7.51911 0.38531,0.23813 2.38374,-2.77011 4.44095,-6.68499 3.983,-7.57966 4.74968,-8.25339 8.81329,-7.74483 l 2.59348,0.32457 -6.009,10.67367 c -5.515,9.79616 -6.00901,11.1732 -6.00901,16.75 V 244 h -3.5 -3.5 z m 63.75,4.49542 c -4.11162,-1.70542 -4.28193,-2.07995 -2.61225,-5.74451 l 1.13776,-2.4971 3.92874,2.00429 c 5.36702,2.73805 12.16505,2.31391 12.60643,-0.78654 0.356,-2.5006 -1.49855,-3.73883 -8.88529,-5.93246 C 602.55218,227.49256 600,224.73299 600,219.73452 c 0,-2.96433 0.69464,-4.58301 2.92308,-6.81144 2.59461,-2.59462 3.6115,-2.92308 9.04966,-2.92308 5.75425,0 12.02726,1.99997 12.02726,3.83455 0,0.43076 -0.60361,1.60868 -1.34136,2.61761 -1.28087,1.7517 -1.54196,1.75782 -5.78926,0.13576 -3.45428,-1.3192 -5.06893,-1.46255 -7.22798,-0.64168 -4.20823,1.59996 -3.26333,5.09049 1.8586,6.86577 12.27748,4.25543 13.5,5.34514 13.5,12.03335 0,3.21313 -0.59086,4.47403 -3.07673,6.56575 -2.60435,2.19141 -4.02452,2.58098 -9.25,2.53736 -3.3953,-0.0283 -7.86077,-0.75147 -9.92327,-1.60695 z M 5,125.5 V 89 h 27 27 v 5.5 5.5 H 38.5 18 v 9.5 9.5 h 18 18 v 6 6 H 36 18 v 9.5 9.5 H 38.5 59 v 6 6 H 32 5 Z m 87,0 V 89 h 6.898897 6.898893 l 9.75936,15.25 c 5.36764,8.3875 10.30244,16.05098 10.96622,17.02995 1.05822,1.56069 2.54765,-0.31724 12.09175,-15.24574 L 149.5,89.008535 156.25,89.004268 163,89 v 36.5 36.5 h -6 -6 v -25.5 c 0,-14.025 -0.3375,-25.49012 -0.75,-25.47804 -0.4125,0.0121 -5.66285,7.45173 -11.66744,16.53256 -6.0046,9.08082 -11.23661,16.15844 -11.6267,15.72804 -0.39009,-0.43041 -5.48974,-7.98037 -11.33255,-16.77769 L 105,110.50974 V 136.25487 162 H 98.5 92 Z m 108,0 V 89 h 26.5 26.5 v 5.479295 5.479294 l -20.25,0.270701 -20.25,0.27071 -0.28753,9.25 -0.28752,9.25 H 230.46247 249 v 6 6 H 230.5 212 v 9.5 9.5 h 21 21 v 6 6 h -27 -27 z m 86,0 V 89 h 19.3185 c 21.27413,0 27.17545,1.020415 32.67793,5.650449 12.0983,10.180051 9.59401,30.437221 -4.65824,37.680421 l -4.46561,2.26948 8.87371,12.4879 c 4.88055,6.86834 9.21077,13.03326 9.62273,13.69982 0.56135,0.90829 -1.13919,1.21193 -6.78744,1.21193 h -7.53645 l -9.2241,-13.03844 -9.22409,-13.03843 -7.54847,0.28843 L 299.5,136.5 299.22012,149.25 298.94025,162 H 292.47012 286 Z m 39.78764,-2.48992 c 7.69882,-3.4942 9.21579,-12.75533 3.05682,-18.66198 -2.9202,-2.80058 -3.19396,-2.85356 -16.40711,-3.17558 L 299,100.84504 V 112.92252 125 l 11.25,-0.022 c 8.97696,-0.0175 12.11631,-0.41515 15.53764,-1.96796 z M 373,161.30909 c 0,-0.83381 27.4879,-64.215418 30.18806,-69.607648 l 1.90213,-3.798559 5.69564,0.298559 5.69564,0.298558 15.74608,36 c 8.66034,19.8 15.75201,36.35806 15.75926,36.79569 0.007,0.43763 -3.00445,0.66263 -6.69269,0.5 l -6.70587,-0.29569 -3.59108,-8.5 -3.59107,-8.5 -17.05637,-0.27298 -17.05638,-0.27299 -3.78371,9.02299 L 385.72592,162 h -6.36296 C 375.86333,162 373,161.68909 373,161.30909 Z M 422.00116,132.25 c 0.003,-2.09264 -11.46057,-27.18918 -12.11628,-26.52496 -0.63038,0.63854 -7.47078,16.28296 -10.94197,25.02496 L 398.0495,133 h 11.97525 c 6.58639,0 11.97577,-0.3375 11.97641,-0.75 z M 478,125.5 V 89 h 6.5 6.5 v 30.5 30.5 h 19 19 v 6 6 H 503.5 478 Z m 82,-0.0779 V 88.844181 l 18.75,0.364631 c 22.9152,0.445632 27.38112,1.762322 36.33,10.711198 7.94177,7.94177 10.24442,14.36859 9.70245,27.08 -0.33621,7.88544 -0.86781,10.39806 -3.1279,14.78415 -5.26676,10.22103 -14.54863,16.92001 -26.6142,19.2082 C 592.11802,161.54656 583.03844,162 574.86351,162 H 560 v -36.57791 z m 35.70227,23.07369 c 20.05287,-5.95507 22.00806,-36.20329 2.91476,-45.09362 -4.3369,-2.01938 -6.67971,-2.38411 -15.36703,-2.39239 L 573,101 v 24.5 24.5 h 8.8185 c 4.93809,0 11.04737,-0.6619 13.88377,-1.50422 z M 273,48.865181 C 270.48031,47.60837 263.83664,41.935197 257.90313,35.973633 245.53993,23.551997 240.38153,20.5 231.75,20.5 c -3.1625,0 -5.75,-0.06144 -5.75,-0.136541 0,-0.0751 3.17077,-2.73065 7.04617,-5.901228 5.94729,-4.8656647 7.80355,-5.8374631 11.90265,-6.2313347 8.13441,-0.7816142 14.64899,2.9547277 26.82712,15.3863007 7.17537,7.3247 11.87173,11.241783 15.50812,12.934817 5.56666,2.591736 12.48315,3.178122 15.90236,1.348218 3.46923,-1.856679 1.19539,0.560477 -6.28212,6.678063 -6.74406,5.517527 -7.48116,5.861113 -13.27246,6.186717 C 278.80106,51.036613 276.54518,50.633504 273,48.865181 Z m 50,-0.05247 C 320.39646,47.548136 314.00475,42.124432 307.83348,35.943118 295.41682,23.506251 290.33902,20.5 281.74881,20.5 h -5.7512 l 5.2512,-4.703712 c 6.48375,-5.8077691 10.42287,-7.7991576 15.40232,-7.7865191 7.0544,0.017905 13.71602,4.1651401 24.97696,15.5495761 7.21522,7.294343 12.07226,11.324126 15.66483,12.996776 5.53046,2.574903 12.3582,3.163713 16.02282,1.381773 3.08981,-1.502431 -5.91349,6.59248 -11.26152,10.1253 -5.61579,3.709692 -12.40954,3.976931 -19.05422,0.749517 z m 50,-0.0074 C 370.435,47.555184 363.85925,41.995049 357.70754,35.874719 345.16884,23.399972 340.2604,20.5 331.68455,20.5 h -5.81544 l 5.31544,-4.716709 c 6.54985,-5.8120674 10.47765,-7.7861846 15.46658,-7.7735221 7.07605,0.01796 13.81443,4.2026091 24.76095,15.3769841 C 382.86171,35.074703 389.17718,39 396.5325,39 c 2.52944,0 5.5819,-0.477948 6.78324,-1.062106 2.9434,-1.431239 -5.69832,6.308307 -11.23718,10.06405 -5.58057,3.78402 -12.37558,4.070135 -19.07856,0.803334 z"
       id="path829"
       inkscape:connector-curvature="0" />
    <path
       style="fill:#dedede;fill-opacity:1"
       d="m 18.073746,241.75 c -0.482215,-1.2375 -3.594643,-8.8875 -6.916509,-17 L 5.117481,210 h 3.7132966 3.7132964 l 4.416123,12.5 c 2.428868,6.875 4.692556,12.5 5.030419,12.5 0.337862,0 1.395993,-2.17383 2.351401,-4.83073 1.717032,-4.7749 1.707759,-4.91208 -0.802455,-11.87098 C 22.142803,214.42614 21,210.97497 21,210.62901 c 0,-1.23021 6.000728,-0.61674 6.074164,0.62099 0.04079,0.6875 0.867663,3.04878 1.837496,5.24729 l 1.763333,3.99729 1.74287,-5.24729 C 34.008851,210.45728 34.424489,210 37.187355,210 c 1.996357,0 2.872341,0.4255 2.573387,1.25 -5.367914,14.80441 -5.223832,13.97055 -3.289254,19.03617 0.990125,2.59261 2.076592,4.71163 2.41437,4.70894 0.337778,-0.003 2.610981,-5.62769 5.051561,-12.5 L 48.374839,210 h 3.31258 C 53.509339,210 55,210.40896 55,210.9088 c 0,0.77873 -2.127413,6.12529 -11.67497,29.3412 -1.264455,3.07466 -2.046993,3.75 -4.34524,3.75 -2.547638,0 -3.058482,-0.65105 -5.606304,-7.14502 l -2.803252,-7.14502 -2.708523,5.89502 c -1.489687,3.24226 -2.74299,6.45752 -2.785116,7.14502 -0.04336,0.70761 -1.389062,1.25 -3.101346,1.25 -2.210333,0 -3.260817,-0.60581 -3.901503,-2.25 z m 75.412927,0.5 c 0.385358,-0.9625 2.856694,-7.375 5.491858,-14.25 2.635169,-6.875 5.281879,-13.7375 5.881589,-15.25 0.8443,-2.12937 1.75404,-2.75 4.03106,-2.75 2.83672,0 3.10796,0.43308 7.67204,12.25 2.60224,6.7375 5.56931,14.41492 6.59349,17.06093 l 1.86214,4.81092 -3.68213,-0.31092 c -3.35829,-0.28358 -3.80751,-0.68868 -5.10781,-4.60609 l -1.42569,-4.29517 -6.07224,0.29517 -6.07224,0.29516 -1.4127,4.25 c -1.305883,3.92863 -1.679152,4.25 -4.936362,4.25 -2.95611,0 -3.410804,-0.28187 -2.823005,-1.75 z M 113,230.33789 C 113,228.58087 109.54499,219 108.91138,219 c -0.39786,0 -1.39308,1.9125 -2.2116,4.25 -0.81853,2.3375 -1.80897,5.0375 -2.20099,6 -0.61769,1.51657 -0.0982,1.75 3.89422,1.75 C 110.92686,231 113,230.70205 113,230.33789 Z M 173,230 v -14 h -5.5 c -5.44444,0 -5.5,-0.0303 -5.5,-3 v -3 h 14.56642 14.56642 l -0.31642,2.75 c -0.29513,2.56493 -0.66973,2.77034 -5.56642,3.05226 L 180,216.10452 V 230.05226 244 h -3.5 -3.5 z m 62,-3 v -17 h 11.5 11.5 v 3 3 h -8.5 -8.5 v 4 4 h 7.5 c 7.29766,0 7.5,0.0663 7.5,2.45619 0,2.35538 -0.29756,2.46825 -7.25,2.75 L 241.5,229.5 241.1925,233.75 240.885,238 H 249.4425 258 v 3 3 H 246.5 235 Z m 68,0 v -17 h 9.04966 C 325.24361,210 329,212.67984 329,222.09251 c 0,2.99345 -0.66702,4.66542 -2.65387,6.65227 -2.93456,2.93456 -3.17044,1.89095 2.60049,11.50522 l 2.25093,3.75 -3.84877,-0.0452 c -3.60159,-0.0423 -4.08758,-0.42766 -7.56699,-6 -3.21322,-5.14605 -4.12998,-5.9548 -6.75,-5.9548 H 310 v 6 6 h -3.5 -3.5 z m 18,-2 c 2.40692,-2.40692 2.50067,-3.84018 0.4433,-6.77749 -1.25167,-1.787 -2.52536,-2.22251 -6.5,-2.22251 H 310 v 5.5 5.5 h 4.5 c 3.16667,0 5.09259,-0.59259 6.5,-2 z m 62.9556,16.75 c -0.55084,-1.2375 -3.64857,-8.775 -6.88385,-16.75 l -5.88232,-14.5 3.03244,-0.32284 c 1.66785,-0.17757 3.37364,0.0474 3.79066,0.5 0.41701,0.45256 2.63294,5.98349 4.92428,12.29095 2.29134,6.30746 4.35661,11.65865 4.5895,11.89153 0.23288,0.23289 1.35528,-1.7505 2.49421,-4.40751 l 2.07079,-4.83095 -2.54566,-6.8678 C 388.14554,214.97609 387,211.46132 387,210.94279 387,210.42426 388.29152,210 389.87004,210 c 2.55063,0 3.01106,0.50368 4.13717,4.52576 0.69693,2.48917 1.57486,4.71595 1.95098,4.9484 0.37611,0.23245 1.48457,-1.80415 2.46325,-4.52576 1.59638,-4.43939 2.08869,-4.9484 4.78598,-4.9484 2.45271,0 2.88277,0.32237 2.33459,1.75 -4.82896,12.57591 -5.01886,13.71286 -3.12065,18.68326 0.99489,2.60507 2.15826,4.3608 2.58527,3.90162 0.427,-0.45919 2.68634,-6.12238 5.02074,-12.58488 L 414.27173,210 h 3.36413 c 1.85028,0 3.36414,0.28371 3.36414,0.63046 0,0.34676 -2.9824,7.99676 -6.62755,17 C 408.11444,243.08727 407.595,244 405.0564,244 c -2.35188,0 -3.06958,-0.84516 -5.73202,-6.75 l -3.04351,-6.75 -3.09861,6.75 c -2.64959,5.77185 -3.47006,6.75 -5.66188,6.75 -1.69478,0 -2.90259,-0.76234 -3.56478,-2.25 z m 75.07959,1.5 c 0.0193,-0.4125 2.84502,-7.95 6.27927,-16.75 6.1609,-15.78685 6.28699,-16.00417 9.46481,-16.31336 1.7714,-0.17235 3.22073,-0.11137 3.22073,0.13549 0,0.24687 2.87207,7.92538 6.38239,17.06336 L 490.76477,244 h -3.33559 c -2.99726,0 -3.53978,-0.46161 -5.34867,-4.55091 l -2.01309,-4.55091 -5.6952,0.30091 -5.69519,0.30091 -1.54517,4.25 c -1.39134,3.82689 -1.87304,4.25 -4.83851,4.25 -1.81134,0 -3.27752,-0.3375 -3.25816,-0.75 z M 479,230.03751 c 0,-0.52937 -0.95988,-3.528 -2.13307,-6.66363 l -2.13307,-5.70115 -1.87217,4.91364 C 469.44842,231.54473 469.34671,231 474.43261,231 476.94468,231 479,230.56688 479,230.03751 Z m 60,7.80859 c 0,-6.33274 -0.51013,-7.56831 -9.74206,-23.5961 L 526.80996,210 h 3.90183 c 3.84617,0 3.95072,0.10108 7.32988,7.08614 1.88543,3.89737 3.75279,7.28683 4.1497,7.53213 0.39691,0.24531 2.58189,-2.94346 4.85553,-7.08613 C 550.97178,210.3808 551.3575,210 554.67645,210 h 3.49568 l -3.49861,6.25 c -1.92423,3.4375 -4.65754,8.275 -6.07402,10.75 -2.00641,3.50579 -2.57807,5.88084 -2.58745,10.75 L 546,244 h -3.5 -3.5 z m 64.67559,4.75516 c -5.0212,-1.8601 -5.1487,-2.04485 -3.74689,-5.42912 l 1.1979,-2.892 3.64814,1.85993 c 4.66285,2.37726 12.04041,2.50521 12.91579,0.22401 1.05939,-2.76071 -1.134,-4.76479 -7.25413,-6.62803 -3.22184,-0.98087 -6.88806,-2.75119 -8.14715,-3.93404 -3.14178,-2.95154 -3.1064,-8.74049 0.076,-12.44027 2.02939,-2.35931 3.28523,-2.80837 8.84364,-3.16231 4.69046,-0.29866 7.34945,0.0379 9.63473,1.21971 3.53065,1.82577 3.73858,2.40237 1.815,5.03302 -1.29481,1.77076 -1.50407,1.77229 -6.02944,0.044 -5.73524,-2.1903 -9.98,-0.96313 -9.44748,2.73129 0.2513,1.74346 1.89657,2.78981 7.81828,4.97224 4.125,1.52026 8.0625,3.53325 8.75,4.47332 0.6875,0.94007 1.25,3.56977 1.25,5.84378 0,6.16393 -3.2376,8.80308 -11.28231,9.19685 -3.65397,0.17885 -7.79459,-0.27982 -10.0421,-1.11241 z M 5,125.5 V 89 h 27 27 v 5.5 5.5 H 38.5 18 v 9.5 9.5 h 18 18 v 6 6 H 36 18 v 9.5 9.5 H 38.5 59 v 6 6 H 32 5 Z m 87,0.0477 V 89 h 6.883172 6.883168 l 8.77709,13.75 c 4.8274,7.5625 9.77479,15.23576 10.99421,17.05168 l 2.21712,3.30169 10.87262,-17.03601 L 149.5,89.031354 156.25,89.015677 163,89 v 36.5 36.5 h -6 -6 v -25.5 c 0,-14.025 -0.3375,-25.49012 -0.75,-25.47804 -0.4125,0.0121 -5.66285,7.45173 -11.66744,16.53256 -6.0046,9.08082 -11.23661,16.15844 -11.6267,15.72804 -0.39009,-0.43041 -5.4818,-7.96848 -11.31492,-16.75128 L 105.03526,110.56257 104.76763,136.03128 104.5,161.5 98.25,161.79772 92,162.09543 v -36.54771 z m 108,-0.0314 V 89 h 26.5 26.5 v 5.5 5.5 H 232.5 212 v 9.47744 9.47744 l 18.25,0.27256 18.25,0.27256 v 5.5 5.5 l -18.25,0.27256 -18.25,0.27256 v 9.45715 9.45715 l 20.75,0.27029 20.75,0.27029 v 5.5 5.5 l -26.75,0.26633 -26.75,0.26634 z m 86.66667,35.817 C 286.3,160.96667 286,144.54167 286,124.83333 V 89 h 19.34107 c 21.1424,0 26.15323,0.851435 32.21325,5.473634 5.2287,3.988128 7.80549,9.771176 7.80932,17.526366 0.005,9.57583 -3.86364,16.16903 -11.86364,20.22024 -2.2,1.11408 -4.15253,2.16031 -4.33895,2.32497 -0.18643,0.16465 1.41114,2.69684 3.55016,5.62708 2.13901,2.93024 6.48503,9.04021 9.65783,13.57771 l 5.76871,8.25 h -7.5093 -7.5093 l -9.15703,-13 -9.15702,-13 H 306.90255 299 v 13 13 h -5.83333 c -3.20834,0 -6.13334,-0.3 -6.5,-0.66667 z m 36.24403,-36.96547 c 7.51745,-1.50349 11.83686,-9.8829 8.60508,-16.69337 C 328.92044,102.20522 325.23374,101 311.09887,101 H 299 v 12 12 h 10.375 c 5.70625,0 11.79732,-0.28446 13.5357,-0.63214 z M 373,161.56002 c 0,-0.55287 12.24999,-29.07144 23.22117,-54.06002 l 8.34191,-19 h 5.90787 5.90786 l 9.38923,21.5 C 440.63654,144.04673 448,161.15005 448,161.63883 c 0,0.2489 -2.98306,0.31949 -6.62901,0.15686 l -6.62902,-0.29569 -3.63064,-8.5 -3.63064,-8.5 -17.14271,-0.27319 -17.14271,-0.2732 -3.74006,9.0232 L 385.71515,162 h -6.35757 C 375.86091,162 373,161.80201 373,161.56002 Z m 49,-29.48536 c 0,-1.55942 -11.19451,-27.07613 -11.86841,-27.05279 -0.48032,0.0166 -6.87224,14.52153 -11.96492,27.15146 C 397.98333,132.628 403.27083,133 409.91667,133 416.65559,133 422,132.59073 422,132.07466 Z m 56.66667,29.25867 C 478.3,160.96667 478,144.54167 478,124.83333 V 89 h 6.5 6.5 v 30.5 30.5 h 19 19 v 6 6 h -24.83333 c -13.65834,0 -25.13334,-0.3 -25.5,-0.66667 z M 560,125.5 V 89 l 16.25,0.02445 c 8.9375,0.01345 18.18113,0.469899 20.54141,1.014342 10.96722,2.529799 20.44119,9.661884 24.90244,18.746768 2.53388,5.15998 2.80615,6.73323 2.80615,16.21444 0,9.2218 -0.31582,11.16953 -2.59433,16 -4.94803,10.48988 -15.27831,18.02 -27.45682,20.01427 -3.27187,0.53578 -12.36135,0.97675 -20.19885,0.97994 L 560,162 Z m 40.55486,20.97179 c 13.69652,-8.46791 15.44135,-29.47149 3.31086,-39.85473 C 598.7216,102.21388 594.13328,101 582.63398,101 H 573 v 24.60793 24.60792 l 11.3313,-0.3597 c 10.55268,-0.33499 11.66745,-0.56754 16.22356,-3.38436 z M 272.5,48.324121 C 269.54838,46.799457 263.60808,41.760815 258,36.025014 245.89203,23.641303 240.82675,20.593742 232.26251,20.539893 L 225.91778,20.5 l 2.4044,-2 c 1.32243,-1.1 4.56341,-3.8 7.2022,-6 4.46951,-3.7263145 5.21439,-3.9963218 10.8867,-3.9462419 8.60613,0.075982 13.0347,2.7412079 25.51338,15.3545959 12.7955,12.933626 17.36394,15.528167 26.21456,14.887971 l 6.02765,-0.436001 -3.83333,3.312056 c -2.10834,1.821631 -5.82299,4.665558 -8.25478,6.319838 -5.79884,3.94478 -12.36872,4.056155 -19.57856,0.331903 z m 50.02759,-0.0029 c -2.8825,-1.498893 -9.2147,-6.874455 -15.0659,-12.789817 C 295.38168,23.318931 288.98331,19.602629 280.98113,20.150962 L 275.8874,20.5 l 2.4196,-2 c 1.33077,-1.1 4.50762,-3.742947 7.05966,-5.873216 6.0136,-5.01975 10.84076,-5.6718228 19.07077,-2.576159 5.00133,1.881217 7.60804,3.925271 16.53377,12.964931 13.03425,13.200642 18.55738,16.403592 27.20727,15.777916 C 351.38031,38.561871 354,38.447212 354,38.538674 c 0,0.368552 -12.487,10.045075 -14.42185,11.175891 -3.60528,2.107087 -11.57072,1.456173 -17.05056,-1.393324 z M 372,47.968133 C 368.71562,46.179259 362.87444,41.219384 357.5,35.655862 345.94681,23.69621 340.77616,20.593525 332.30911,20.539893 c -3.46398,-0.02194 -6.30061,-0.101336 -6.30363,-0.176434 -0.003,-0.0751 3.22097,-2.775097 7.16441,-6 7.01067,-5.7332504 7.30518,-5.8631137 13.26208,-5.847911 8.30456,0.021194 13.47109,3.184584 26.06803,15.961064 12.11682,12.289523 16.86237,14.954559 25.5147,14.328706 l 5.90333,-0.427008 -4.09853,3.560845 c -8.38957,7.288943 -11.76618,9.062104 -17.21998,9.04273 C 378.84963,50.968564 376.04438,50.170951 372,47.968133 Z"
       id="path827"
       inkscape:connector-curvature="0" />
    <path
       style="fill:#dedede;fill-opacity:1"
       d="m 18.087258,241.75 c -0.474783,-1.2375 -3.388645,-8.53399 -6.47525,-16.21443 C 8.5254038,217.85514 6,211.18913 6,210.72221 c 0,-0.46691 1.4354009,-0.70792 3.1897797,-0.53557 3.1110643,0.30563 3.3002653,0.61566 7.6670083,12.56336 2.462476,6.7375 4.81591,12.25 5.229854,12.25 0.413943,0 1.492657,-2.22803 2.397141,-4.95118 1.609157,-4.84471 1.589383,-5.10401 -0.919633,-12.05959 C 22.153867,214.0796 21,210.68262 21,210.4404 21,210.19818 22.291518,210 23.870039,210 c 2.550626,0 3.011061,0.50368 4.137174,4.52576 0.696924,2.48917 1.618082,4.74266 2.047018,5.00776 0.428936,0.26509 1.528373,-1.7715 2.443193,-4.52576 C 34.005676,210.46683 34.442882,210 37.187355,210 c 2.005745,0 2.867809,0.42162 2.555785,1.25 -5.269623,13.99002 -5.176979,13.42934 -3.186557,19.28507 1.019696,2.99989 2.150978,5.11923 2.51396,4.70964 0.362982,-0.40959 2.633102,-6.25628 5.044712,-12.99264 L 48.5,210.00414 l 3.25,-0.002 c 1.7875,-0.001 3.25,0.32679 3.25,0.72873 0,0.40193 -2.987605,8.05193 -6.639122,17 C 42.086548,243.10608 41.573244,244 39.018865,244 c -2.426973,0 -2.993391,-0.7401 -5.548604,-7.25 l -2.845711,-7.25 -2.763034,6 c -1.519668,3.3 -2.785192,6.5625 -2.812275,7.25 -0.02811,0.71364 -1.34712,1.25 -3.073992,1.25 -2.214337,0 -3.256037,-0.60284 -3.887991,-2.25 z m 76.915092,-3 c 10.5341,-28.01224 10.64033,-28.23224 13.78885,-28.55464 2.47999,-0.25395 3.14318,0.16206 3.9854,2.5 0.55569,1.54255 3.49176,9.21714 6.5246,17.05464 l 5.51425,14.25 h -3.32502 c -3.02423,0 -3.48199,-0.41103 -5.06029,-4.54376 l -1.73528,-4.54375 -6.01806,0.29375 -6.01806,0.29376 -1.4127,4.25 C 99.952823,243.64052 99.545531,244 96.430702,244 H 93.028071 Z M 113,229.62212 c 0,-0.75783 -0.60856,-2.89533 -1.35236,-4.75 -0.7438,-1.85466 -1.6809,-4.27212 -2.08245,-5.37212 -0.60639,-1.66117 -1.05582,-1.15294 -2.65287,3 -3.47633,9.03978 -3.57288,8.5 1.52029,8.5 C 111.64593,231 113,230.59151 113,229.62212 Z M 173,229.5 V 215 h -5.5 c -5.2,0 -5.5,-0.13636 -5.5,-2.5 V 210 h 14 14 v 2.44774 c 0,2.24778 -0.42888,2.47243 -5.25,2.75 L 179.5,215.5 179.22254,229.75 178.94509,244 H 175.97254 173 Z m 62,-2.5 v -17 h 11.5 11.5 v 2.45956 c 0,2.39052 -0.23157,2.46771 -8.25,2.75 l -8.25,0.29044 -0.3075,4.25 -0.3075,4.25 h 7.0575 c 6.86133,0 7.0575,0.0695 7.0575,2.5 0,2.42857 -0.2,2.5 -7,2.5 h -7 v 4.5 4.5 h 8.5 8.5 v 3 3 H 246.5 235 Z m 69,0 v -17 h 9.1 c 9.01569,0 9.1315,0.0315 12.5,3.4 2.62454,2.62454 3.4,4.2324 3.4,7.04966 0,4.16725 -2.19414,9.02713 -4.46984,9.90039 -1.26678,0.48611 -0.82675,1.76396 2.45223,7.12118 l 3.99605,6.52877 -3.73922,-0.0108 c -3.51527,-0.0102 -3.94574,-0.36954 -7.18731,-6 -3.11665,-5.41351 -3.76548,-5.9892 -6.75,-5.9892 H 310 v 6 6 h -3 -3 z m 17,-2 c 4.39622,-4.39622 1.61959,-9.04188 -5.83213,-9.75789 L 310,214.74554 V 220.87277 227 h 4.5 c 3.16667,0 5.09259,-0.59259 6.5,-2 z m 63.02461,16.81561 c -0.54576,-1.27359 -3.68383,-8.97934 -6.97349,-17.12389 l -5.9812,-14.80828 3.56343,0.30828 3.56343,0.30828 4.77761,13 4.77761,13 1.50491,-3.5871 c 2.8334,-6.75369 2.84929,-7.58509 0.27572,-14.42244 -3.1434,-8.35125 -3.13947,-8.69639 0.0946,-8.30688 2.03696,0.24533 2.99181,1.25262 4.25,4.48342 2.33466,5.99497 2.7308,6.02922 4.60126,0.39778 C 399.9839,210.53241 400.465,210 403.05521,210 h 2.89448 l -2.82239,7.75 -2.8224,7.75 2.20462,5.39505 2.20463,5.39505 2.98349,-7.89505 c 1.64092,-4.34228 3.81913,-10.25755 4.84047,-13.14505 1.74863,-4.94367 2.05592,-5.25 5.26642,-5.25 2.82178,0 3.30024,0.30164 2.77589,1.75 -0.34846,0.9625 -3.41612,8.6125 -6.81704,17 -5.82972,14.37755 -6.33803,15.25 -8.88506,15.25 -2.41682,0 -2.99132,-0.73849 -5.45038,-7.00623 -1.51184,-3.85343 -2.99413,-6.76091 -3.29397,-6.46107 -0.29984,0.29984 -1.72857,3.34014 -3.17495,6.75623 -2.18456,5.15953 -3.07948,6.2645 -5.28595,6.52668 -1.99414,0.23694 -2.90348,-0.26154 -3.64846,-2 z m 74.97966,1.93439 c 0.002,-0.1375 2.83925,-7.675 6.30421,-16.75 6.12915,-16.05269 6.38252,-16.50819 9.34648,-16.80223 l 3.04655,-0.30222 6.14925,16.36643 c 3.38208,9.00154 6.14924,16.70355 6.14924,17.11558 0,0.41204 -1.42784,0.60815 -3.17299,0.4358 -2.75319,-0.2719 -3.36157,-0.88162 -4.59839,-4.60852 l -1.4254,-4.29517 -6.15161,0.29517 L 468.5,235.5 l -1.46917,4.25 c -1.32669,3.83786 -1.78732,4.25 -4.75,4.25 -1.80445,0 -3.27891,-0.1125 -3.27656,-0.25 z M 479,230.17814 c 0,-1.40152 -3.22353,-10.63121 -4.02272,-11.51794 -0.41629,-0.4619 -1.54702,1.5631 -2.51274,4.5 -0.96572,2.93689 -1.96345,5.9023 -2.21719,6.5898 -0.32694,0.88587 0.88069,1.25 4.14566,1.25 2.53385,0 4.60699,-0.36984 4.60699,-0.82186 z m 61,8.32339 c 0,-4.90368 -0.6962,-6.74264 -6.43592,-17 L 527.12816,210 h 3.41907 c 3.10032,0 3.65629,0.46812 5.9635,5.02118 1.39943,2.76165 3.3965,6.4223 4.43792,8.13478 l 1.8935,3.1136 4.09008,-8.13478 C 550.90017,210.24294 551.12871,210 554.58455,210 h 3.56223 l -3.29369,5.75 c -8.67562,15.14559 -8.81612,15.49546 -8.83497,22 L 546,244 h -3 c -2.9696,0 -3,-0.0557 -3,-5.49847 z m 64.29408,4.22511 c -4.82329,-1.84547 -5.59717,-2.96732 -4.185,-6.0667 0.91463,-2.00739 1.51713,-2.38512 2.50141,-1.56824 0.71312,0.59184 3.35774,1.69639 5.87693,2.45455 5.3709,1.6164 9.51258,0.57188 9.51258,-2.39905 0,-2.53481 -1.45623,-3.55538 -8,-5.60663 -8.77556,-2.75084 -11.77701,-7.54635 -8.80531,-14.06851 2.36506,-5.19076 11.83073,-7.15959 19.33895,-4.02245 3.25694,1.36083 3.39716,1.60816 2.28976,4.03864 -0.81921,1.79796 -1.65992,2.38243 -2.75152,1.91287 -7.67529,-3.3016 -12.24937,-2.84366 -12.87014,1.28851 -0.39297,2.61586 1.17015,3.74566 7.81776,5.65058 3.03572,0.8699 6.52322,2.51676 7.75,3.65967 3.10264,2.89055 3.03803,8.94979 -0.13477,12.63838 -2.05358,2.38743 -3.20665,2.78704 -8.75,3.03241 -3.5116,0.15544 -7.8274,-0.26937 -9.59065,-0.94403 z M 5,125 V 89 h 27 27 v 5.5 5.5 H 38.5 18 v 10 10 h 18 18 v 5 5 H 36 18 V 140.5 151 H 38.5 59 v 5 5 H 32 5 Z m 87,0 V 89 h 6.80918 6.80918 l 10.8495,17.04132 c 6.02364,9.46134 11.23058,16.66024 11.70624,16.18458 0.47122,-0.47122 5.46616,-8.02731 11.09989,-16.79133 L 149.51712,89.5 156.25856,89.20431 163,88.90862 V 124.95431 161 h -5.98312 -5.98312 L 150.76688,135.25 150.5,109.5 138.92549,126.73257 127.35097,143.96515 116.5036,127.48257 C 110.53755,118.41716 105.28358,111 104.82812,111 104.37265,111 104,122.25 104,136 v 25 h -6 -6 z m 108,0 V 89 h 26.5 26.5 v 5.5 5.5 h -20.53621 -20.53621 l 0.28621,9.75 0.28621,9.75 17.75,0.27307 17.75,0.27308 V 125 129.95385 L 230.25,130.22693 212.5,130.5 212.21502,140.75 211.93003,151 H 232.46502 253 v 5 5 H 226.5 200 Z m 87,-0.0889 V 88.822213 l 20.25,0.338884 c 19.48535,0.326087 20.46437,0.439375 25.92712,3.000194 8.32203,3.901188 11.21664,8.681559 11.66488,19.264209 0.32864,7.75915 0.21149,8.26752 -3,13.01748 -2.08755,3.08759 -5.0038,5.81291 -7.7692,7.26053 -2.43496,1.27464 -4.61721,2.50755 -4.84945,2.73979 -0.23225,0.23224 3.35276,5.74001 7.96667,12.23947 4.61392,6.49947 8.73523,12.37971 9.15848,13.06721 0.58884,0.95648 -0.95877,1.25 -6.59073,1.25 h -7.36027 l -8.46255,-12.25 -8.46255,-12.25 -8.2362,-0.29044 L 299,135.9191 v 12.54044 12.54044 h -6 -6 z m 38.51022,-1.35094 c 6.38482,-2.66775 9.1711,-10.40818 5.97285,-16.59291 -2.64972,-5.124 -6.51122,-6.36435 -19.98307,-6.41878 l -12,-0.0485 -0.28078,12.25 -0.28078,12.25 h 11.5629 c 7.80113,0 12.68398,-0.46842 15.00888,-1.43982 z m 50.03494,31.74179 c 1.40828,-3.18437 8.47667,-19.40501 15.70753,-36.04587 L 404.39972,89 h 6.09451 6.09451 l 7.64979,17.75 c 4.20739,9.7625 11.24581,25.9625 15.64094,36 l 7.99114,18.25 -6.6853,-0.007 -6.68531,-0.007 -3.41506,-8.51541 -3.41506,-8.5154 -17.4122,0.2724 -17.41221,0.2724 -3.31181,8 -3.31181,8 -6.6186,0.29586 -6.6186,0.29587 2.56051,-5.78976 z M 419.372,124.75 c -1.95367,-4.5375 -4.71942,-11.06968 -6.1461,-14.51596 -1.42669,-3.44628 -2.88968,-5.92128 -3.25111,-5.5 -0.54371,0.63377 -9.53736,21.3565 -11.58849,26.70167 -0.52492,1.36792 0.97753,1.56429 11.96878,1.56429 h 12.56906 z M 479,125 V 89 h 6 6 v 30.5 30.5 h 19 19 v 5.5 5.5 h -25 -25 z m 81,0.0751 V 89 h 15.45078 c 17.7229,0 23.72693,0.993326 31.83444,5.266801 6.6079,3.483028 10.53312,7.558429 14.46664,15.020119 2.49205,4.72728 2.74814,6.19156 2.74814,15.71308 0,8.65141 -0.38044,11.32318 -2.16089,15.17567 -3.06863,6.63981 -9.77679,13.49376 -16.80249,17.16765 L 599.5,160.5 579.75,160.82506 560,161.15012 v -36.07506 z m 39.5,22.23175 c 7.81744,-4.12794 12.44046,-11.97898 12.47804,-21.19079 0.0441,-10.8226 -4.71088,-18.87066 -13.73071,-23.23973 -4.00721,-1.94103 -6.3843,-2.30551 -15.24733,-2.33791 l -10.5,-0.0384 -0.2677,24.85585 -0.2677,24.85585 11.7677,-0.39636 c 9.52869,-0.32095 12.52877,-0.79824 15.7677,-2.50853 z M 272.96601,48.295773 c -3.58995,-1.788949 -8.87584,-6.195446 -15.61737,-13.019167 -11.93377,-12.079278 -18.22261,-15.688686 -26.34451,-15.12014 -2.69913,0.188944 -4.59174,0.0851 -4.20582,-0.230755 0.38593,-0.31586 3.55732,-3.00836 7.04754,-5.983334 6.05955,-5.1650136 6.60093,-5.4085772 12,-5.3987032 8.64464,0.015809 13.87964,3.1225092 26.11575,15.4983502 5.79612,5.86231 11.8884,11.353901 13.5384,12.203535 5.54001,2.852719 11.24879,3.917811 15.18044,2.832229 2.00719,-0.554209 3.23771,-0.664716 2.73449,-0.245571 C 289.60711,50.333289 288.44091,51 282.13124,51 c -2.05859,0 -6.17709,-1.215176 -9.16523,-2.704227 z m 50.13174,0.169926 c -3.8877,-1.809738 -8.2332,-5.43551 -15.5,-12.932801 -11.868,-12.244431 -18.29702,-15.954865 -26.64255,-15.376432 -2.72604,0.188944 -4.95616,0.320783 -4.95582,0.292977 3.4e-4,-0.02781 3.24585,-2.720307 7.21224,-5.983334 6.88955,-5.6678148 7.45897,-5.9323139 12.75,-5.9224352 8.48174,0.015836 13.71274,3.1363892 25.94151,15.4753992 5.82828,5.880824 11.94687,11.385152 13.59687,12.231842 5.55439,2.850206 11.25279,3.911351 15.18044,2.826873 2.00719,-0.554209 3.23771,-0.654063 2.73449,-0.221897 -15.53628,13.342778 -19.55886,14.617838 -30.31718,9.609808 z m 50.1326,0.06143 c -3.70287,-1.723903 -8.32287,-5.57387 -15.5387,-12.948818 -12.03179,-12.297102 -18.43844,-15.999295 -26.68752,-15.421846 -2.69913,0.188944 -4.59174,0.0851 -4.20582,-0.230755 0.38593,-0.31586 3.55732,-3.00836 7.04754,-5.983334 6.0638,-5.1686348 6.59715,-5.4082864 12,-5.3920065 8.42445,0.025385 13.73347,3.1923735 26.07085,15.5520585 12.06691,12.088717 17.06226,15.144966 24.94017,15.25884 l 5.38085,0.07778 -4.86886,4.350852 c -8.73584,7.806415 -14.93348,9.022713 -24.13851,4.737229 z"
       id="path825"
       inkscape:connector-curvature="0" />
    <path
       style="fill:#dedede;fill-opacity:1"
       d="M 12.624714,227.55111 C 8.9811211,218.4444 6,210.74141 6,210.43337 c 0,-0.30805 1.4001813,-0.41908 3.1115141,-0.24673 3.0189889,0.30404 3.2494459,0.69248 7.7499999,13.06263 2.551167,7.0121 4.902896,12.7496 5.226064,12.75 0.323168,4e-4 1.402834,-2.39771 2.399257,-5.32914 1.773839,-5.21855 1.769042,-5.45353 -0.229676,-11.25 -1.122746,-3.25607 -2.363057,-6.70763 -2.756246,-7.67013 -0.576464,-1.41114 -0.191963,-1.75 1.985718,-1.75 1.729871,0 2.866174,0.62904 3.161216,1.75 0.253335,0.9625 1.267452,3.55 2.253594,5.75 l 1.792985,4 1.835409,-5.75 c 1.656312,-5.18892 2.107872,-5.75 4.627634,-5.75 h 2.792225 l -2.846683,7.75 -2.846682,7.75 2.005757,5.25 c 1.103166,2.8875 2.282992,5.24562 2.621835,5.24027 0.338844,-0.005 2.665484,-5.74285 5.170311,-12.75 4.51963,-12.64347 4.579541,-12.74273 7.885171,-13.06371 2.871333,-0.27881 3.234883,-0.0718 2.634792,1.5 -0.38288,1.00289 -3.468154,8.70623 -6.856164,17.11854 -5.79052,14.37764 -6.310188,15.27739 -8.663538,15 -2.034243,-0.23979 -2.996054,-1.47821 -5.131119,-6.60681 -1.44518,-3.47144 -3.031649,-6.31683 -3.525487,-6.3231 -0.493838,-0.006 -2.05239,2.83401 -3.463448,6.31171 -2.115826,5.21468 -3.014274,6.37646 -5.125287,6.62749 -2.435276,0.28959 -2.881806,-0.50062 -9.184438,-16.25328 z M 96.921396,234.25 c 2.073826,-5.3625 5.004234,-13.0125 6.512024,-17 2.48038,-6.55962 3.00134,-7.25 5.4709,-7.25 2.61058,0 2.99881,0.71487 8.91258,16.4112 3.4007,9.02616 6.1831,16.67616 6.1831,17 0,0.32384 -1.3125,0.5888 -2.91667,0.5888 -2.54305,0 -3.09767,-0.54441 -4.32969,-4.25 l -1.41303,-4.25 -6.52846,-0.29246 -6.52845,-0.29245 -1.27181,4.54245 C 99.832199,243.67097 99.501436,244 96.44544,244 h -3.294637 z m 17.078104,-3.5 c -4.3e-4,-0.21234 -2.75508,-7.76592 -4.64969,-12.75 -0.35597,-0.93644 -1.22524,0.37855 -2.3137,3.5 -3.62248,10.38854 -3.79986,9.5 1.8965,9.5 2.78707,0 5.06716,-0.1125 5.06689,-0.25 z M 173,229.5 V 215 h -5.5 c -5.2,0 -5.5,-0.13636 -5.5,-2.5 V 210 h 14 14 v 2.5 c 0,2.36364 -0.3,2.5 -5.5,2.5 H 179 v 14.5 14.5 h -3 -3 z m 62,-2.5 v -17 h 11.5 11.5 v 2.5 c 0,2.47059 -0.1,2.5 -8.5,2.5 H 241 v 4.5 4.5 h 7 c 6.8,0 7,0.0714 7,2.5 0,2.42857 -0.2,2.5 -7,2.5 h -7 v 4.5 4.5 h 8.5 8.5 v 3 3 H 246.5 235 Z m 69,-0.0965 v -17.09653 l 9.47887,0.34653 c 8.67224,0.31704 9.70274,0.57053 12.10957,2.97883 1.78391,1.78499 2.79236,4.06649 3.13291,7.08789 0.44035,3.9068 0.12871,4.88099 -2.53016,7.90928 l -3.03237,3.45368 3.398,5.45842 c 1.86891,3.00214 3.40817,5.82444 3.42059,6.27179 0.0124,0.44735 -1.41387,0.67235 -3.16954,0.5 -2.70566,-0.2656 -3.70304,-1.18965 -6.54451,-6.06336 -3.0573,-5.24388 -3.65653,-5.75 -6.80787,-5.75 L 310,232 v 6 6 h -3 -3 v -17.09653 z m 17.17126,-1.55846 c 2.55435,-2.31166 2.35028,-6.8663 -0.39377,-8.78831 -1.22237,-0.85618 -4.14737,-1.5567 -6.5,-1.5567 L 310,215 v 6 6 h 4.67126 c 2.94333,0 5.34772,-0.61219 6.5,-1.65499 z m 62.52898,14.9546 C 379.88342,231.50094 372,211.67115 372,210.86909 372,210.39109 373.30553,210 374.90118,210 c 2.81126,0 3.04926,0.40652 7.67885,13.11565 5.15003,14.13789 5.59175,14.45395 8.38245,5.99803 1.20647,-3.65562 1.09633,-4.58018 -1.32324,-11.10781 C 388.18766,214.08971 387,210.65643 387,210.37637 c 0,-0.28007 1.20147,-0.36682 2.66993,-0.19279 2.18774,0.25927 2.95529,1.1615 4.25,4.9957 0.86904,2.57361 1.844,4.93754 2.16657,5.25317 0.32258,0.31564 1.42827,-1.90254 2.45709,-4.92928 C 400.20306,210.62109 400.72432,210 403.16227,210 h 2.7481 l -2.52514,6.70868 c -1.38882,3.68977 -2.72474,7.03164 -2.9687,7.42637 -0.64297,1.04035 3.60204,11.97151 4.44637,11.44968 0.39068,-0.24145 2.71885,-6.09459 5.17371,-13.00698 l 4.46339,-12.56797 3.33333,-0.005 c 1.83334,-0.003 3.18334,0.37495 3,0.8392 -11.89347,30.11759 -13.33121,33.12667 -15.83333,33.13804 -2.16023,0.01 -2.89317,-0.9473 -5.39293,-7.04246 -1.59111,-3.8796 -3.26931,-6.67743 -3.72933,-6.21741 -0.46003,0.46003 -1.92623,3.52321 -3.25823,6.80708 -1.92383,4.74296 -2.92036,6.03227 -4.84642,6.27027 -1.97169,0.24364 -2.73249,-0.41014 -4.07285,-3.5 z m 77.93668,-2.98786 C 463.06349,233.56529 465.93081,226 468.00873,220.5 c 3.48891,-9.23468 3.99667,-10.02137 6.63466,-10.27921 2.97915,-0.29118 3.56482,0.96939 15.11319,32.52921 0.30084,0.82216 -0.55955,1.25 -2.51373,1.25 -2.60007,0 -3.18576,-0.562 -4.6897,-4.5 l -1.71857,-4.5 h -6.21063 -6.21064 l -1.54309,4.25 c -1.31847,3.63136 -2.00044,4.29538 -4.68508,4.56175 l -3.142,0.31175 2.59378,-6.81175 z m 16.28643,-12.03454 c -1.08291,-3.14753 -2.3386,-6.09246 -2.79041,-6.54427 C 474.40618,218.00618 470,227.75436 470,230.08898 470,230.59004 472.22576,231 474.94614,231 h 4.94614 l -1.96893,-5.72279 z M 539.99307,238.25 c -0.006,-5.15481 -0.62728,-6.86602 -6,-16.53161 C 530.69688,215.7885 528,210.726 528,210.46839 528,210.21077 529.34498,210 530.98884,210 c 2.73419,0 3.33154,0.6816 7.01116,8 2.21228,4.4 4.21081,8 4.44118,8 0.23038,0 2.33703,-3.6 4.68145,-8 3.77666,-7.08803 4.58261,-8 7.06997,-8 1.54407,0 2.8074,0.29872 2.8074,0.66383 0,0.36511 -2.475,5.09486 -5.5,10.51056 -5.09008,9.11285 -5.5,10.3304 -5.5,16.33617 V 244 h -3 c -2.9847,0 -3.00004,-0.0293 -3.00693,-5.75 z m 65.94853,4.80177 c -1.40712,-0.42697 -3.53106,-1.29687 -4.71988,-1.93311 -1.88433,-1.00846 -2.01428,-1.47985 -1.01348,-3.67636 0.79239,-1.7391 1.63491,-2.311 2.71988,-1.84624 8.5241,3.6514 14.2592,3.96412 15.45696,0.84283 0.99863,-2.60241 -0.49451,-4.31704 -5.22325,-5.99802 -2.56401,-0.91146 -5.91725,-2.12054 -7.45166,-2.68685 -9.58761,-3.53854 -6.25158,-16.26238 4.58401,-17.48371 3.18087,-0.35853 6.19633,0.0272 9.21002,1.17814 4.12004,1.57346 4.38993,1.8859 3.35281,3.88138 -0.62036,1.19359 -1.22287,2.28858 -1.33892,2.4333 -0.11606,0.14472 -1.84065,-0.41778 -3.83243,-1.25 C 615.69388,215.68091 612.95693,215 611.60355,215 609.2024,215 606,217.28598 606,219 c 0,1.85517 3.2584,3.9332 8.60413,5.48725 3.08154,0.89583 6.68125,2.70722 7.99934,4.02531 2.59297,2.59297 3.16161,7.18936 1.31604,10.63784 -2.13724,3.99346 -11.19596,5.95929 -17.97791,3.90137 z M 5,125 V 89 h 27 27 v 5.5 5.5 H 38.5 18 v 10 10 h 18 18 v 5 5 H 36 18 V 140.5 151 H 38.5 59 v 5 5 H 32 5 Z m 87,0 V 89 l 6.75,0.04773 6.75,0.04773 10.59008,16.64897 c 5.82455,9.15693 10.99955,16.77173 11.5,16.92177 0.50046,0.15005 3.80234,-4.32596 7.33752,-9.94669 3.53518,-5.62072 8.36361,-13.257004 10.72983,-16.969504 l 4.30223,-6.75 H 156.47983 163 v 36.000004 36 h -6 -6 v -25.5 c 0,-14.025 -0.3375,-25.49378 -0.75,-25.48618 -0.4125,0.008 -5.67033,7.49471 -11.68408,16.63802 l -10.93407,16.62421 -2.06593,-2.63625 C 124.42967,139.18986 119.45,131.73154 114.5,124.06575 109.55,116.39996 105.1625,110.09916 104.75,110.06398 104.3375,110.02879 104,121.475 104,135.5 V 161 h -6 -6 z m 108,0 V 89 h 26.5 26.5 v 5.5 5.5 H 232.5 212 v 10 10 h 18 18 v 5 5 h -18 -18 v 10.5 10.5 h 20.5 20.5 v 5 5 H 226.5 200 Z m 87,-0.0889 V 88.822213 l 20.25,0.370613 c 16.63871,0.304519 20.96334,0.6865 24.25,2.141931 5.01054,2.218817 9.12397,6.078097 11.59158,10.875383 2.29399,4.45975 2.56678,14.31975 0.52766,19.07196 -1.79522,4.18379 -7.13528,9.20611 -11.90297,11.19471 l -3.78372,1.57819 5.07499,7.22249 c 2.79125,3.97237 7.10788,10.03499 9.59251,13.47249 l 4.5175,6.25 h -7.01297 -7.01297 l -3.2958,-4.4289 C 327.98311,154.13521 324.025,148.52628 321,144.10682 l -5.5,-8.03539 -8.25,-0.0357 L 299,136 v 12.5 12.5 h -6 -6 v -36.08888 z m 42.69584,-4.27348 c 3.26328,-3.56345 3.50044,-4.24316 3.06425,-8.78264 C 331.87595,102.65356 326.57042,100 309.05718,100 H 299 v 12.57748 12.57748 l 13.5794,-0.32748 13.57941,-0.32748 3.53703,-3.86236 z m 44.3012,39.61236 c -0.002,-0.4125 6.86087,-16.61767 15.25,-36.01149 L 404.5,88.977021 l 5.99136,0.26149 5.99137,0.261489 15.23789,35 c 8.38085,19.25 15.24723,35.35897 15.25864,35.79772 0.0114,0.43874 -2.75536,0.66374 -6.14838,0.5 l -6.16912,-0.29772 -3.48467,-8.27245 -3.48467,-8.27245 -17.51209,0.27245 -17.51209,0.27245 -3.47844,8.25 -3.47845,8.25 h -5.85567 c -3.22063,0 -5.85701,-0.3375 -5.85864,-0.75 z m 48.7117,-28.5 C 417.37705,118.55901 410.53326,104.07139 409.92727,104.69294 409.00285,105.6411 398,131.01065 398,132.19396 398,132.63728 403.67314,133 410.60699,133 c 9.68838,0 12.49002,-0.28938 12.10175,-1.25 z M 479,125 V 89 h 6 6 v 30.5 30.5 h 19 19 v 5.5 5.5 h -25 -25 z m 81,-0.0332 V 88.780694 l 18.25,0.44023 c 15.87008,0.382822 18.9994,0.732343 23.99666,2.680242 7.56675,2.949473 15.86209,10.583894 19.4591,17.908724 2.46359,5.01677 2.79424,6.81424 2.79424,15.19009 0,8.17481 -0.36759,10.28396 -2.63517,15.12001 -3.70457,7.90075 -8.99574,13.32638 -16.69601,17.12031 L 598.55287,160.5 579.27644,160.82646 560,161.15292 v -36.1861 z m 37.12427,23.49031 c 2.40665,-0.84858 6.0595,-3.18626 8.11744,-5.19485 5.26869,-5.14234 7.06772,-10.46359 6.60897,-19.54825 -0.49201,-9.74307 -3.95159,-15.65248 -11.72228,-20.02317 -5.04524,-2.83774 -6.04773,-3.02645 -16.5,-3.10608 L 572.5,100.5 572.23253,125.25 571.96506,150 h 10.39174 c 6.80804,0 11.90077,-0.53208 14.76747,-1.54287 z M 276.5,49.788585 c -4.97763,-1.748012 -11.8963,-7.206675 -20.52186,-16.191258 -9.529,-9.92563 -15.79997,-13.576653 -23.42448,-13.637968 L 227.5,19.918719 231,16.871794 C 239.76594,9.2406038 241.02969,8.5648173 246.38953,8.6422928 253.95053,8.7515856 259.05211,11.871739 271.5,24 c 12.58971,12.266439 17.59728,15.323105 25.27478,15.42796 l 5.27479,0.07204 -4.77479,4.209248 c -8.04583,7.092867 -13.41476,8.66398 -20.77478,6.079337 z m 49,-0.392983 C 320.2985,47.492539 315.28162,43.423697 305.70421,33.34064 296.53598,23.688351 290.15034,20.005551 282.55366,19.988968 L 277.5,19.977937 283,15.016275 c 12.08973,-10.9063867 21.04741,-8.7620746 38.89767,9.311416 11.14234,11.281681 17.32904,15.051446 24.8184,15.12269 l 5.21607,0.04962 -4.21607,3.763131 c -8.49632,7.583545 -14.05562,9.118122 -22.21607,6.132471 z m 50.24797,0.177645 C 370.61174,47.740308 366.63787,44.542643 356.37608,33.985221 346.4002,23.721947 340.0436,20.019313 332.31193,19.968172 L 327.5,19.936343 333,14.983523 c 6.59787,-5.9414666 11.21445,-7.5312683 17.25,-5.9403432 6.91194,1.8219352 11.70695,5.2443052 21.58556,15.4063932 10.97628,11.291249 17.01058,14.90067 24.98976,14.947646 l 5.32532,0.03135 -3.32532,2.85099 c -9.96058,8.539777 -15.06494,10.153031 -23.07735,7.293686 z"
       id="path823"
       inkscape:connector-curvature="0" />
  </g>
  <path
     style="fill:#000000"
     d=""
     id="path819"
     inkscape:connector-curvature="0" />
  <path
     style="fill:#000000"
     d=""
     id="path817"
     inkscape:connector-curvature="0" />
</svg>
