<?xml version="1.0" encoding="UTF-8" standalone="no"?>
<svg
   xmlns:dc="http://purl.org/dc/elements/1.1/"
   xmlns:cc="http://creativecommons.org/ns#"
   xmlns:rdf="http://www.w3.org/1999/02/22-rdf-syntax-ns#"
   xmlns:svg="http://www.w3.org/2000/svg"
   xmlns="http://www.w3.org/2000/svg"
   xmlns:sodipodi="http://sodipodi.sourceforge.net/DTD/sodipodi-0.dtd"
   xmlns:inkscape="http://www.inkscape.org/namespaces/inkscape"
   width="250"
   viewBox="0 0 125.80509 48.922195"
   version="1.1"
   id="svg30"
   sodipodi:docname="Strasbourg.svg"
   height="48.922195"
   inkscape:version="0.92.3 (2405546, 2018-03-11)">
  <metadata
     id="metadata36">
    <rdf:RDF>
      <cc:Work
         rdf:about="">
        <dc:format>image/svg+xml</dc:format>
        <dc:type
           rdf:resource="http://purl.org/dc/dcmitype/StillImage" />
      </cc:Work>
    </rdf:RDF>
  </metadata>
  <defs
     id="defs34" />
  <sodipodi:namedview
     pagecolor="#ffffff"
     bordercolor="#666666"
     borderopacity="1"
     objecttolerance="10"
     gridtolerance="10"
     guidetolerance="10"
     inkscape:pageopacity="0"
     inkscape:pageshadow="2"
     inkscape:window-width="1920"
     inkscape:window-height="1027"
     id="namedview32"
     showgrid="false"
     inkscape:zoom="2.7229603"
     inkscape:cx="156.4003"
     inkscape:cy="17.061161"
     inkscape:window-x="-8"
     inkscape:window-y="-8"
     inkscape:window-maximized="1"
     inkscape:current-layer="svg30" />
  <g
     id="g28"
     style="fill:#dedede;fill-opacity:1"
     transform="matrix(0.84203436,0,0,0.84203436,-62.097454,0)"
     inkscape:export-xdpi="96"
     inkscape:export-ydpi="96">
    <path
       d="m 195.9,48.2 c 0,-0.2 0.1,-0.4 0.2,-0.7 0.1,-0.2 0.2,-0.4 0.4,-0.5 0.2,-0.2 0.4,-0.3 0.6,-0.4 0.2,-0.1 0.5,-0.2 0.8,-0.2 0.5,0 0.9,0.2 1.3,0.5 0.3,0.3 0.5,0.7 0.5,1.2 h -3.8 z m 4.2,2.6 c -0.2,0.3 -0.5,0.6 -0.8,0.8 -0.3,0.2 -0.7,0.3 -1.2,0.3 -0.6,0 -1,-0.2 -1.4,-0.5 -0.4,-0.3 -0.6,-0.8 -0.7,-1.3 h 6.6 v -0.9 c 0,-0.7 -0.1,-1.4 -0.3,-2 -0.2,-0.6 -0.5,-1.1 -0.9,-1.5 -0.4,-0.4 -0.8,-0.7 -1.4,-1 -0.5,-0.2 -1.1,-0.3 -1.8,-0.3 -0.7,0 -1.4,0.1 -2,0.3 -0.6,0.2 -1.2,0.6 -1.6,1 -0.5,0.4 -0.8,0.9 -1.1,1.5 -0.3,0.6 -0.4,1.3 -0.4,2 0,0.7 0.1,1.4 0.4,2 0.3,0.6 0.6,1.1 1.1,1.5 0.5,0.4 1,0.7 1.6,1 0.6,0.2 1.3,0.3 2,0.3 0.7,0 1.5,-0.2 2.2,-0.5 0.7,-0.3 1.3,-0.8 1.7,-1.3 z m -11.4,3 h 2.8 V 40.3 h -2.8 z m -8.4,-6.3 c 0.4,-0.4 1,-0.6 1.7,-0.6 0.7,0 1.3,0.2 1.7,0.6 0.4,0.4 0.6,1 0.6,1.7 0,0.7 -0.2,1.3 -0.6,1.7 -0.4,0.4 -1,0.6 -1.7,0.6 -0.7,0 -1.3,-0.2 -1.7,-0.6 -0.4,-0.4 -0.6,-1 -0.6,-1.7 0,-0.7 0.2,-1.2 0.6,-1.7 m -3,3.7 c 0.3,0.6 0.6,1.1 1.1,1.5 0.5,0.4 1,0.7 1.6,1 0.6,0.2 1.3,0.3 2,0.3 0.7,0 1.4,-0.1 2,-0.3 0.6,-0.2 1.2,-0.5 1.6,-1 0.4,-0.5 0.8,-0.9 1.1,-1.5 0.3,-0.6 0.4,-1.3 0.4,-2 0,-0.7 -0.1,-1.4 -0.4,-2 -0.3,-0.6 -0.6,-1.1 -1.1,-1.5 -0.5,-0.4 -1,-0.7 -1.6,-1 -0.6,-0.2 -1.3,-0.3 -2,-0.3 -0.7,0 -1.4,0.1 -2,0.3 -0.6,0.2 -1.2,0.6 -1.6,1 -0.4,0.4 -0.8,0.9 -1.1,1.5 -0.3,0.6 -0.4,1.3 -0.4,2 0,0.7 0.1,1.4 0.4,2 M 169,47.5 c 0.4,-0.4 1,-0.6 1.7,-0.6 0.7,0 1.3,0.2 1.7,0.6 0.4,0.4 0.6,1 0.6,1.7 0,0.7 -0.2,1.3 -0.6,1.7 -0.4,0.4 -1,0.6 -1.7,0.6 -0.7,0 -1.3,-0.2 -1.7,-0.6 -0.4,-0.4 -0.6,-1 -0.6,-1.7 0,-0.7 0.2,-1.2 0.6,-1.7 m -3.2,10.6 h 2.8 v -5.3 0 c 0.3,0.4 0.7,0.8 1.3,0.9 0.5,0.2 1.1,0.3 1.7,0.3 0.7,0 1.2,-0.1 1.8,-0.4 0.5,-0.3 1,-0.6 1.3,-1.1 0.3,-0.5 0.6,-1 0.8,-1.6 0.2,-0.6 0.3,-1.2 0.3,-1.8 0,-0.7 -0.1,-1.3 -0.3,-1.9 -0.2,-0.6 -0.5,-1.1 -0.9,-1.5 -0.4,-0.4 -0.9,-0.7 -1.4,-1 -0.6,-0.2 -1.2,-0.3 -1.8,-0.3 -0.3,0 -0.6,0 -0.9,0.1 -0.3,0.1 -0.6,0.2 -0.8,0.3 -0.2,0.1 -0.5,0.3 -0.6,0.5 -0.2,0.2 -0.3,0.3 -0.4,0.5 v 0 -1.2 h -2.6 v 13.5 z m -8.4,-10.6 c 0.4,-0.4 1,-0.6 1.7,-0.6 0.7,0 1.3,0.2 1.7,0.6 0.4,0.4 0.6,1 0.6,1.7 0,0.7 -0.2,1.3 -0.6,1.7 -0.4,0.4 -1,0.6 -1.7,0.6 -0.7,0 -1.3,-0.2 -1.7,-0.6 -0.4,-0.4 -0.6,-1 -0.6,-1.7 0,-0.7 0.2,-1.2 0.6,-1.7 m -3.1,3.7 c 0.3,0.6 0.6,1.1 1.1,1.5 0.5,0.4 1,0.7 1.6,1 0.6,0.2 1.3,0.3 2,0.3 0.7,0 1.4,-0.1 2,-0.3 0.6,-0.2 1.2,-0.5 1.6,-1 0.4,-0.5 0.8,-0.9 1.1,-1.5 0.3,-0.6 0.4,-1.3 0.4,-2 0,-0.7 -0.1,-1.4 -0.4,-2 -0.3,-0.6 -0.6,-1.1 -1.1,-1.5 -0.5,-0.4 -1,-0.7 -1.6,-1 -0.6,-0.2 -1.3,-0.3 -2,-0.3 -0.7,0 -1.4,0.1 -2,0.3 -0.6,0.2 -1.2,0.6 -1.6,1 -0.5,0.4 -0.8,0.9 -1.1,1.5 -0.3,0.6 -0.4,1.3 -0.4,2 0,0.7 0.2,1.4 0.4,2 m -7.5,2.6 h 2.8 V 50 c 0,-0.5 0,-0.9 0.1,-1.2 0.1,-0.4 0.2,-0.7 0.3,-1 0.2,-0.3 0.4,-0.5 0.7,-0.6 0.3,-0.2 0.7,-0.2 1.3,-0.2 0.2,0 0.4,0 0.6,0 0.2,0 0.4,0.1 0.6,0.1 v -2.6 c -0.1,0 -0.3,-0.1 -0.5,-0.1 -0.2,0 -0.3,0 -0.5,0 -0.6,0 -1.1,0.1 -1.6,0.4 -0.4,0.3 -0.8,0.7 -1.1,1.3 v 0 -1.5 h -2.8 v 9.2 z m -1.6,-9.2 h -2.5 v -2.7 h -2.8 v 2.7 h -1.8 v 2.3 h 1.8 v 4.4 c 0,0.5 0.1,0.9 0.3,1.3 0.2,0.4 0.4,0.6 0.7,0.9 0.3,0.2 0.7,0.4 1.1,0.5 0.4,0.1 0.8,0.1 1.3,0.1 0.3,0 0.7,0 1,-0.1 0.3,0 0.7,-0.1 1,-0.2 v -2.4 c -0.1,0.1 -0.3,0.2 -0.6,0.2 -0.2,0 -0.4,0 -0.6,0 -0.3,0 -0.5,0 -0.7,-0.1 -0.2,-0.1 -0.3,-0.2 -0.4,-0.3 -0.1,-0.2 -0.1,-0.3 -0.2,-0.5 0,-0.2 0,-0.4 0,-0.7 v -3.1 h 2.5 v -2.3 z m -14.4,3.6 c 0,-0.2 0.1,-0.4 0.2,-0.7 0.1,-0.2 0.2,-0.4 0.4,-0.5 0.2,-0.2 0.4,-0.3 0.6,-0.4 0.2,-0.1 0.5,-0.2 0.8,-0.2 0.5,0 0.9,0.2 1.3,0.5 0.3,0.3 0.5,0.7 0.5,1.2 h -3.8 z m 4.2,2.6 c -0.2,0.3 -0.5,0.6 -0.8,0.8 -0.3,0.2 -0.7,0.3 -1.2,0.3 -0.6,0 -1,-0.2 -1.4,-0.5 -0.4,-0.3 -0.6,-0.8 -0.7,-1.3 h 6.6 v -0.9 c 0,-0.7 -0.1,-1.4 -0.3,-2 -0.2,-0.6 -0.5,-1.1 -0.9,-1.5 -0.4,-0.4 -0.8,-0.7 -1.4,-1 -0.5,-0.2 -1.1,-0.3 -1.8,-0.3 -0.7,0 -1.4,0.1 -2,0.3 -0.6,0.2 -1.2,0.6 -1.6,1 -0.4,0.4 -0.8,0.9 -1.1,1.5 -0.3,0.6 -0.4,1.3 -0.4,2 0,0.7 0.1,1.4 0.4,2 0.3,0.6 0.6,1.1 1.1,1.5 0.5,0.4 1,0.7 1.6,1 0.6,0.2 1.3,0.3 2,0.3 0.7,0 1.5,-0.2 2.2,-0.5 0.7,-0.3 1.3,-0.8 1.7,-1.3 z m -22.9,3 h 2.8 v -4.6 c 0,-0.3 0,-0.6 0.1,-0.9 0,-0.3 0.1,-0.5 0.2,-0.7 0.1,-0.2 0.3,-0.4 0.5,-0.5 0.2,-0.1 0.5,-0.2 0.9,-0.2 0.3,0 0.6,0.1 0.7,0.2 0.2,0.2 0.3,0.3 0.4,0.5 0.1,0.2 0.1,0.4 0.1,0.7 0,0.2 0,0.4 0,0.6 v 4.8 h 2.8 v -4.8 c 0,-0.3 0,-0.5 0.1,-0.8 0.1,-0.3 0.2,-0.5 0.3,-0.7 0.1,-0.2 0.3,-0.3 0.5,-0.4 0.2,-0.1 0.5,-0.2 0.8,-0.2 0.5,0 0.8,0.2 1,0.5 0.2,0.3 0.3,0.7 0.3,1.1 v 5.3 h 2.8 v -5.4 c 0,-0.6 -0.1,-1.1 -0.2,-1.6 -0.1,-0.5 -0.3,-0.9 -0.5,-1.3 -0.2,-0.4 -0.6,-0.6 -1,-0.8 -0.4,-0.2 -0.9,-0.3 -1.6,-0.3 -0.7,0 -1.3,0.1 -1.7,0.4 -0.5,0.3 -0.9,0.7 -1.2,1.3 -0.3,-0.6 -0.6,-1 -1.1,-1.2 -0.5,-0.3 -1.1,-0.4 -1.7,-0.4 -0.3,0 -0.7,0 -0.9,0.1 -0.3,0.1 -0.5,0.2 -0.8,0.3 -0.2,0.1 -0.4,0.3 -0.6,0.5 -0.2,0.2 -0.3,0.4 -0.4,0.5 v 0 -1.2 H 112 v 9.2 z m -2,-6.3 c -0.2,-0.6 -0.6,-1.1 -1,-1.5 -0.4,-0.4 -0.9,-0.7 -1.5,-1 -0.6,-0.2 -1.2,-0.3 -1.9,-0.3 -0.7,0 -1.3,0.1 -1.9,0.4 -0.6,0.2 -1.1,0.6 -1.5,1 -0.4,0.4 -0.7,0.9 -1,1.5 -0.2,0.6 -0.3,1.2 -0.3,1.8 0,0.7 0.1,1.3 0.3,1.8 0.2,0.6 0.6,1.1 1,1.5 0.4,0.4 0.9,0.7 1.5,1 0.6,0.2 1.2,0.3 1.9,0.3 0.7,0 1.3,-0.1 1.9,-0.3 0.6,-0.2 1.1,-0.6 1.5,-1 0.4,-0.4 0.7,-0.9 1,-1.5 0.2,-0.6 0.3,-1.2 0.3,-1.8 0.1,-0.7 0,-1.3 -0.3,-1.9 m -1.2,3.3 c -0.2,0.4 -0.4,0.8 -0.7,1.1 -0.3,0.3 -0.6,0.6 -1,0.7 -0.4,0.2 -0.9,0.3 -1.4,0.3 -0.5,0 -1,-0.1 -1.4,-0.3 -0.4,-0.2 -0.8,-0.4 -1,-0.7 -0.3,-0.3 -0.5,-0.7 -0.7,-1.1 -0.2,-0.4 -0.2,-0.9 -0.2,-1.4 0,-0.5 0.1,-0.9 0.2,-1.4 0.2,-0.4 0.4,-0.8 0.7,-1.1 0.3,-0.3 0.6,-0.6 1,-0.7 0.4,-0.2 0.9,-0.3 1.4,-0.3 0.5,0 1,0.1 1.4,0.3 0.4,0.2 0.8,0.4 1,0.7 0.3,0.3 0.5,0.7 0.7,1.1 0.2,0.4 0.2,0.9 0.2,1.4 0,0.5 0,0.9 -0.2,1.4 m -13,3 h 1.2 v -5 c 0,-0.3 0.1,-0.6 0.2,-0.9 0.1,-0.3 0.3,-0.6 0.5,-0.9 0.2,-0.3 0.5,-0.5 0.8,-0.7 0.3,-0.2 0.7,-0.3 1.2,-0.3 0.3,0 0.6,0 0.7,0.1 l 0.2,-1.2 c -0.3,-0.1 -0.6,-0.1 -0.9,-0.1 -0.4,0 -0.7,0.1 -1,0.2 -0.3,0.1 -0.6,0.2 -0.8,0.4 -0.2,0.2 -0.4,0.4 -0.6,0.6 -0.2,0.2 -0.3,0.5 -0.4,0.7 v 0 -1.6 h -1.2 c 0,0.6 0,1.2 0,1.6 0,0.4 0,0.8 0,1.2 v 5.9 z m -2.1,0 c 0,-0.3 0,-0.7 -0.1,-1 0,-0.4 0,-0.7 0,-0.9 V 45 h -1.2 v 4.5 c 0,0.8 -0.1,1.4 -0.4,1.9 -0.3,0.5 -0.5,0.8 -0.9,1 -0.3,0.2 -0.6,0.4 -0.9,0.4 -0.3,0.1 -0.5,0.1 -0.5,0.1 -0.5,0 -0.9,-0.1 -1.2,-0.2 -0.3,-0.1 -0.6,-0.3 -0.7,-0.6 -0.2,-0.3 -0.3,-0.6 -0.4,-1 -0.1,-0.4 -0.1,-0.8 -0.1,-1.3 v -4.9 h -1.2 v 5.6 c 0,1.1 0.3,2 0.8,2.6 0.5,0.6 1.4,0.9 2.5,0.9 0.3,0 0.6,0 0.9,-0.1 0.3,-0.1 0.6,-0.2 0.8,-0.3 0.3,-0.1 0.5,-0.3 0.7,-0.5 0.2,-0.2 0.4,-0.4 0.5,-0.7 v 0 c 0,0.2 0,0.5 0,0.7 0,0.2 0,0.5 0,0.7 z m -9.5,-4.1 v -0.6 c 0,-0.6 -0.1,-1.2 -0.3,-1.7 -0.2,-0.5 -0.5,-1 -0.8,-1.4 -0.4,-0.4 -0.8,-0.7 -1.3,-1 -0.5,-0.3 -1.4,-0.4 -2,-0.4 -0.6,0 -1,0.1 -1.5,0.4 -0.5,0.2 -1,0.6 -1.4,1 -0.4,0.4 -0.7,0.9 -0.9,1.5 -0.2,0.6 -0.3,1.2 -0.3,1.8 0,0.7 0.1,1.3 0.3,1.8 0.2,0.6 0.6,1.1 1,1.5 0.4,0.4 0.9,0.7 1.4,1 0.6,0.2 1.2,0.3 1.8,0.3 0.7,0 1.4,-0.1 2,-0.4 0.6,-0.3 1.2,-0.8 1.7,-1.4 l -1,-0.8 c -0.3,0.4 -0.6,0.8 -1.1,1.1 -0.5,0.3 -1.1,0.5 -1.7,0.5 -0.4,0 -0.8,-0.1 -1.2,-0.2 C 78.6,52.5 78.3,52.3 78,52 77.7,51.7 77.5,51.4 77.3,51 77.1,50.6 77,50.2 77,49.8 h 7.3 z m -7.3,-1 c 0,-0.4 0.1,-0.7 0.3,-1.1 0.2,-0.3 0.4,-0.6 0.7,-0.9 0.3,-0.3 0.6,-0.5 1,-0.6 0.4,-0.2 0.8,-0.2 1.2,-0.2 0.9,0 1.6,0.3 2.1,0.8 0.5,0.5 0.8,1.2 0.8,2 z"
       id="path2"
       style="fill:#dedede;fill-opacity:1"
       inkscape:connector-curvature="0" />
    <polygon
       points="129.6,43.3 135.4,40.7 134.7,39.1 128.9,41.7 "
       id="polygon4"
       style="fill:#dedede;fill-opacity:1" />
    <path
       d="M 19.5,9.9 C 18.2,8 15.8,7.1 13.4,7.1 c -2.9,0 -5.7,1.3 -5.7,4.5 0,7 16.6,3 16.6,15.5 0,7.5 -5.9,11.2 -12.8,11.2 C 7.2,38.3 2.9,37 0,33.6 l 4.7,-4.5 c 1.5,2.3 4.2,3.7 6.9,3.7 2.9,0 6.1,-1.6 6.1,-4.8 C 17.7,20.3 1.1,24.7 1.1,12.2 1.1,5 7.5,1.6 14,1.6 c 3.7,0 7.3,1 10,3.6 z"
       id="path6"
       style="fill:#dedede;fill-opacity:1"
       inkscape:connector-curvature="0" />
    <path
       d="m 24.3,18.7 v -5.1 h 4.9 V 5.7 h 5.9 v 8 h 6.5 v 5 H 35.1 V 29 c 0,2.4 0.7,3.9 3.3,3.9 1,0 2.5,-0.2 3.2,-0.7 v 5 C 40.4,37.8 38.3,38 36.9,38 30.6,38 29.1,35.2 29.1,29.6 V 18.7 Z"
       id="path8"
       style="fill:#dedede;fill-opacity:1"
       inkscape:connector-curvature="0" />
    <path
       d="M 45.1,13.6 H 51 v 3.8 h 0.1 c 1.3,-2.7 3.9,-4.3 7,-4.3 0.7,0 1.4,0.1 2.1,0.3 v 5.7 c -1,-0.2 -1.9,-0.4 -2.9,-0.4 -5.6,0 -6.4,4.7 -6.4,6 V 37.4 H 45 V 13.6 Z"
       id="path10"
       style="fill:#dedede;fill-opacity:1"
       inkscape:connector-curvature="0" />
    <path
       d="m 83.7,33 c 0,1.7 0.3,2.7 1.2,2.7 1.3,0 1.9,-1.6 1.9,-3 h 1 c 0,3.2 -2.3,5.3 -5.8,5.3 -2.4,0 -4.4,-1.1 -5.4,-3.4 -1.4,2.6 -5.1,3.4 -7.3,3.4 -4.2,0 -8.4,-1.9 -8.4,-6.6 0,-5.6 5.4,-6.9 10.3,-7.3 l 5.3,-0.4 V 19.2 C 76.5,16 76,14 71.9,14 c -1.8,0 -5,0.4 -4.9,1.6 0.1,0.9 2.8,0.8 2.8,3.4 0,1.9 -1.2,3.2 -3.3,3.2 -2.4,0 -3.5,-1.6 -3.5,-3.5 0,-3 4,-5.7 9.4,-5.7 5.6,0 11.4,1.5 11.4,7.7 V 33 Z M 76.5,24.6 72.2,25 c -3.5,0.4 -3.8,2.3 -3.8,5.1 0,2.8 0.2,6.2 3.8,6.2 2.5,0 4.2,-2.6 4.3,-5.5 z"
       id="path12"
       style="fill:#dedede;fill-opacity:1"
       inkscape:connector-curvature="0" />
    <path
       d="m 104.3,20.2 c -1.1,-1.6 -2.6,-2.4 -4.6,-2.4 -1.6,0 -3.5,0.7 -3.5,2.5 0,4.2 12.8,0.8 12.8,10 0,5.6 -5.4,7.6 -10.2,7.6 -3.7,0 -6.8,-0.9 -9.2,-3.7 l 3.9,-3.7 c 1.5,1.7 3.1,2.9 5.6,2.9 1.7,0 4,-0.8 4,-2.7 0,-4.9 -12.8,-1 -12.8,-10.1 0,-5.3 4.7,-7.7 9.5,-7.7 3.2,0 6.5,1 8.4,3.6 z"
       id="path14"
       style="fill:#dedede;fill-opacity:1"
       inkscape:connector-curvature="0" />
    <path
       d="m 112.1,0 h 5.9 v 16.6 h 0.2 c 1.2,-1.5 3.6,-3.6 8,-3.6 6.8,0 11.5,5.4 11.5,12.4 0,7 -4.4,12.4 -11.7,12.4 -3.3,0 -6.4,-1.3 -8.2,-4.1 h -0.1 v 3.6 h -5.6 z m 12.7,18.4 c -4.3,0 -7,3.4 -7,7.1 0,3.7 2.6,7.1 7,7.1 4.3,0 7,-3.4 7,-7.1 -0.1,-3.7 -2.7,-7.1 -7,-7.1"
       id="path16"
       style="fill:#dedede;fill-opacity:1"
       inkscape:connector-curvature="0" />
    <path
       d="m 153.6,13 c 7.2,0 12.9,5 12.9,12.4 0,7.5 -5.7,12.4 -12.9,12.4 -7.2,0 -12.9,-5 -12.9,-12.4 C 140.8,18 146.5,13 153.6,13 m 0,19.6 c 4.3,0 7,-3.4 7,-7.1 0,-3.7 -2.6,-7.1 -7,-7.1 -4.3,0 -7,3.4 -7,7.1 0.1,3.7 2.7,7.1 7,7.1"
       id="path18"
       style="fill:#dedede;fill-opacity:1"
       inkscape:connector-curvature="0" />
    <path
       d="m 191.5,37.3 h -5.6 v -3.8 h -0.1 c -1.1,2.4 -3.3,4.4 -7.3,4.4 -6.4,0 -8.6,-4.5 -8.6,-9.3 v -15 h 5.9 v 12 c 0,2.6 0.2,7 4.3,7 3.9,0 5.4,-2.9 5.4,-6 V 13.7 h 5.9 v 23.6 z"
       id="path20"
       style="fill:#dedede;fill-opacity:1"
       inkscape:connector-curvature="0" />
    <path
       d="m 195.5,13.6 h 5.9 v 3.8 h 0.1 c 1.3,-2.7 3.9,-4.3 7,-4.3 0.7,0 1.4,0.1 2.1,0.3 v 5.7 c -1,-0.2 -1.9,-0.4 -2.9,-0.4 -5.6,0 -6.4,4.7 -6.4,6 v 12.7 h -5.9 V 13.6 Z"
       id="path22"
       style="fill:#dedede;fill-opacity:1"
       inkscape:connector-curvature="0" />
    <path
       d="m 228,34.5 c 6,-0.1 9,2.6 9,8.5 0,7.5 -5.6,13.3 -14.1,13.3 -6.8,0 -12.2,-3.5 -12.2,-8 0,-2.9 2.8,-5.4 5.3,-6.1 v -0.1 c -2.6,-0.7 -4,-3.1 -4,-6.1 0,-5.1 3.7,-6.8 6.1,-7.1 v -0.1 c -3.3,-1.5 -5.1,-4.1 -5.1,-7.5 0,-5.6 5.5,-9 10.7,-9 3.4,0 5.9,0.9 7.7,2.2 1.2,-1.4 2.7,-2.7 4.7,-2.7 1.8,0 4.2,1.1 4.2,3.3 0,1.7 -1.1,3.1 -3.1,3.1 -1.8,0 -2.8,-1.4 -2.8,-2.8 0,-1.2 0.4,-2 1.7,-2.7 v -0.1 c -2.4,0.3 -2.9,1.7 -4.1,2.8 1.7,1.5 2.6,4.2 2.6,6.2 0,5.8 -5.7,8.8 -10.9,8.8 -1,0 -1.8,-0.1 -2.5,-0.4 -0.7,-0.2 -1.3,-0.4 -2,-0.4 -2.3,0 -5,1.7 -5,3.2 0,1.7 2.1,1.7 3.6,1.7 z m -11.1,7.7 c -1.7,1.8 -2.6,3.6 -2.6,6.3 0.1,2.9 3.1,6.7 8.7,6.7 6.2,0 11.7,-4.2 11.7,-8.7 0,-3.7 -2,-4.3 -8.2,-4.3 z m 10.7,-21 c -0.1,-7.1 -1,-7.9 -3.9,-7.9 -3.2,0 -3.7,2.7 -3.7,7.7 0,7.4 1.3,8.2 3.7,8.2 2.2,0 3.8,-0.5 3.9,-8"
       id="path24"
       style="fill:#dedede;fill-opacity:1"
       inkscape:connector-curvature="0" />
    <path
       d="m 261.2,13 c -7,0 -12.2,5.1 -12.2,12.5 0,6.9 4.6,12.5 12,12.5 4.4,0 7.8,-1.3 10.5,-4.9 l -3,-2.3 c -1.9,2.4 -4.2,3.6 -7.6,3.6 -4.3,0 -7.5,-3.5 -7.8,-7.6 h 19.2 V 25.5 C 272.4,17.6 267.9,13 261.2,13 m -7.9,10.4 c 0.5,-4 3.4,-6.7 7.8,-6.7 4.4,0 7,2.7 7.1,6.7 z m 43.4,-9.7 h -3.9 v 11.5 c 0,5.4 -2.2,9.1 -7.4,9.1 -3.7,0 -5.4,-2.5 -5.4,-6.4 V 13.7 h -3.9 v 14.7 c 0,5.7 2.8,9.7 9,9.7 3.9,0 6.8,-2.2 7.9,-4.5 h 0.1 c 0,1.3 0.1,2.6 0.1,3.9 h 3.7 c 0,-1.6 -0.2,-3.4 -0.2,-5.6 z m -53.5,17.9 c -1.7,0 -3,1.4 -3,3 0,1.7 1.5,3 3,3 1.5,0 3,-1.4 3,-3 0,-1.6 -1.3,-3 -3,-3"
       id="path26"
       style="fill:#dedede;fill-opacity:1"
       inkscape:connector-curvature="0" />
  </g>
</svg>
