<?xml version="1.0" encoding="UTF-8" standalone="no"?>
<!-- Generator: Adobe Illustrator 17.0.0, SVG Export Plug-In . SVG Version: 6.00 Build 0)  -->

<svg
   xmlns:dc="http://purl.org/dc/elements/1.1/"
   xmlns:cc="http://creativecommons.org/ns#"
   xmlns:rdf="http://www.w3.org/1999/02/22-rdf-syntax-ns#"
   xmlns:svg="http://www.w3.org/2000/svg"
   xmlns="http://www.w3.org/2000/svg"
   xmlns:sodipodi="http://sodipodi.sourceforge.net/DTD/sodipodi-0.dtd"
   xmlns:inkscape="http://www.inkscape.org/namespaces/inkscape"
   version="1.1"
   id="Calque_1"
   x="0px"
   y="0px"
   width="250.00124"
   height="95.139"
   viewBox="0 0 250.00124 95.138998"
   enable-background="new 0 0 306.142 116.371"
   xml:space="preserve"
   sodipodi:docname="Unistra.svg"
   inkscape:version="0.92.3 (2405546, 2018-03-11)"
   inkscape:export-filename="C:\Users\ChristopheM\Documents\MEGA\4. Job\Saber\Hola10\Hola10\images\logos\agencies\Unistra.png"
   inkscape:export-xdpi="96"
   inkscape:export-ydpi="96"><metadata
   id="metadata39"><rdf:RDF><cc:Work
       rdf:about=""><dc:format>image/svg+xml</dc:format><dc:type
         rdf:resource="http://purl.org/dc/dcmitype/StillImage" /><dc:title /></cc:Work></rdf:RDF></metadata><defs
   id="defs37" /><sodipodi:namedview
   pagecolor="#ffffff"
   bordercolor="#666666"
   borderopacity="1"
   objecttolerance="10"
   gridtolerance="10"
   guidetolerance="10"
   inkscape:pageopacity="0"
   inkscape:pageshadow="2"
   inkscape:window-width="1920"
   inkscape:window-height="1027"
   id="namedview35"
   showgrid="false"
   inkscape:zoom="3.7106964"
   inkscape:cx="114.65807"
   inkscape:cy="60.147751"
   inkscape:window-x="-8"
   inkscape:window-y="-8"
   inkscape:window-maximized="1"
   inkscape:current-layer="Calque_1" />

<path
   style="fill:#dedede;fill-opacity:1;stroke-width:0.13068543"
   d="M 30.548076,71.648295 30.51505,48.157583 15.257525,48.124369 0,48.091156 V 24.045577 0 h 106.37795 106.37794 v 23.523378 23.523379 h 18.62268 18.62267 V 71.092873 95.139 H 140.29117 30.581105 Z M 47.046757,71.092873 V 48.222925 h -7.645098 -7.645098 v 22.869948 22.869961 h 7.645098 7.645098 z m 8.88661,0 V 48.222925 H 52.14349 48.353611 v 22.869948 22.869961 h 3.789879 3.789877 z M 248.82508,71.027512 V 48.222925 H 152.9673 57.109535 v 22.804606 22.80462 h 95.857765 95.85778 z m -25.02627,13.589856 c -1.32988,-0.316194 -1.57032,-0.410858 -1.52763,-0.601468 0.0224,-0.09967 0.16435,-0.52436 0.3156,-0.94377 0.2553,-0.707853 0.29924,-0.756954 0.61284,-0.684553 1.84546,0.42607 2.57778,0.50573 3.38237,0.367902 1.08049,-0.185074 1.73956,-0.625976 2.13437,-1.427865 0.30951,-0.62865 0.3099,-0.63589 0.34773,-6.262763 0.0366,-5.453881 0.0291,-5.656795 -0.23692,-6.367758 -0.49965,-1.335457 -1.61287,-1.99419 -3.19934,-1.893171 -1.06528,0.06783 -1.73369,0.434662 -2.22107,1.218949 l -0.39206,0.630886 -0.0416,2.988687 c -0.0483,3.473326 0.0437,3.96215 0.88954,4.726306 0.80396,0.726339 1.85578,0.912345 3.07838,0.544405 0.34949,-0.105176 0.64579,-0.17869 0.65846,-0.163354 0.0738,0.08924 0.70793,1.404509 0.70793,1.468299 0,0.04234 -0.33815,0.234328 -0.75144,0.426708 -0.64693,0.301153 -0.92411,0.350121 -1.99296,0.352157 -1.598,0.0029 -2.37856,-0.259377 -3.31371,-1.114049 -1.27151,-1.162104 -1.64981,-2.55746 -1.64598,-6.071286 0.003,-2.973122 0.36043,-4.408256 1.3791,-5.541267 1.65518,-1.840968 5.02555,-2.003066 6.7534,-0.324795 l 0.48283,0.468969 0.13142,-0.345649 c 0.0723,-0.190117 0.16767,-0.49009 0.21197,-0.666611 0.0758,-0.301971 0.13382,-0.320951 0.98119,-0.320951 h 0.90063 l -0.003,7.089692 c -0.002,3.922714 -0.06,7.498323 -0.1311,8.004482 -0.21062,1.4994 -0.60403,2.384126 -1.42883,3.213205 -1.02388,1.029214 -1.82982,1.321034 -3.79558,1.374341 -0.98339,0.02664 -1.77393,-0.02369 -2.287,-0.145677 z M 77.526541,78.862076 c -0.942373,-0.253707 -1.390311,-0.504198 -2.010202,-1.124086 -0.657092,-0.657087 -1.110636,-1.661241 -1.299171,-2.876375 -0.215444,-1.388572 -0.08772,-5.997439 0.190124,-6.86035 0.472298,-1.466863 1.599831,-2.576916 3.043895,-2.996718 1.257725,-0.365628 3.874416,-0.182818 4.053235,0.283172 0.03582,0.09333 -7.84e-4,0.487026 -0.08124,0.874822 l -0.146376,0.705085 -1.344801,-0.05984 c -1.574184,-0.07002 -2.302191,0.160337 -2.858266,0.904372 -0.615321,0.823323 -0.688097,1.277631 -0.688097,4.295478 v 2.809741 l 0.369082,0.751617 c 0.526875,1.072949 1.222568,1.468518 2.570294,1.461449 1.139152,-0.0057 1.80612,-0.284722 2.458161,-1.027358 0.798519,-0.909463 0.810021,-1.04163 0.810021,-9.311921 v -7.490698 h 1.110824 1.110824 v 9.736064 9.736069 h -0.838955 -0.838955 l -0.220303,-0.66328 c -0.217983,-0.656298 -0.222873,-0.660531 -0.464079,-0.40162 -1.164524,1.249965 -3.105988,1.744336 -4.926011,1.254341 z m 15.32546,0.06679 c -1.468052,-0.300944 -2.565233,-0.963178 -3.1781,-1.91825 -0.68618,-1.069323 -0.807806,-1.834451 -0.807806,-5.082002 0,-2.518301 0.03397,-3.009047 0.258245,-3.735291 0.700937,-2.269379 2.363805,-3.385255 5.044667,-3.385255 1.83094,0 2.83514,0.34153 3.90571,1.32835 0.62059,0.572042 1.17613,1.676093 1.3774,2.737387 0.14484,0.763805 0.17138,2.80193 0.0463,3.55857 l -0.081,0.490071 h -4.16483 -4.164838 l 7.8e-4,0.816787 c 0.0019,2.315788 0.988847,3.288118 3.331748,3.282952 0.97657,-0.0019 1.38441,-0.07364 2.4032,-0.421199 0.67486,-0.230227 1.24674,-0.39889 1.27084,-0.374791 0.16429,0.164305 0.79605,1.745049 0.72589,1.816308 -0.18454,0.187434 -1.46643,0.620963 -2.41611,0.817121 -1.04865,0.216604 -2.67821,0.24837 -3.552042,0.06926 z m 4.466866,-8.914784 c -0.13583,-1.606812 -0.58586,-2.492632 -1.5044,-2.961239 -1.13227,-0.577637 -2.80033,-0.44841 -3.631455,0.281327 -0.701993,0.616358 -0.986649,1.296564 -1.064444,2.543531 l -0.06764,1.084461 h 3.174039 3.17405 z m 14.155823,8.919892 c -1.08978,-0.185198 -2.76533,-0.686599 -2.82642,-0.845786 -0.0585,-0.152498 0.41909,-1.605367 0.59052,-1.796358 0.0463,-0.05157 0.5536,0.06184 1.12736,0.251976 0.91202,0.302285 1.26501,0.346943 2.80745,0.355154 1.60608,0.0086 1.82103,-0.01855 2.39776,-0.302494 0.8104,-0.398948 1.12961,-0.912469 1.13026,-1.81824 9e-4,-1.336285 -0.56826,-1.897471 -3.73792,-3.685382 -3.57031,-2.013883 -4.33308,-2.970609 -4.20596,-5.27538 0.0713,-1.2941 0.44639,-2.115769 1.34277,-2.942022 0.84204,-0.776163 1.61849,-1.092976 2.8586,-1.166375 1.86837,-0.110601 3.0199,0.317355 5.18053,1.925298 0.68283,0.508167 1.55246,1.041611 1.93251,1.185442 0.82294,0.311437 1.97935,0.340302 2.51599,0.06279 0.47249,-0.244326 0.88101,-1.017408 1.09583,-2.073735 l 0.16243,-0.798654 0.80581,-0.03891 0.80581,-0.03891 v 1.574465 1.574456 h 1.3722 1.37219 v 0.980141 0.980141 h -1.38426 -1.38427 l 0.0469,4.279952 c 0.0411,3.749742 0.0749,4.331582 0.27269,4.696746 0.34862,0.643453 0.70403,0.824712 1.6171,0.824712 h 0.80888 l 0.0734,0.490071 c 0.0403,0.269538 0.0889,0.725302 0.10788,1.012812 l 0.0345,0.522741 -1.17454,-0.0057 c -0.646,-0.0029 -1.40482,-0.08458 -1.68628,-0.18064 -0.768,-0.262079 -1.58638,-1.088458 -1.93031,-1.949179 -0.28281,-0.707758 -0.29732,-0.929109 -0.34059,-5.197397 l -0.0452,-4.458147 -1.46115,-0.06831 c -1.872,-0.08762 -2.51726,-0.330798 -4.3799,-1.650842 -0.79174,-0.561101 -1.73575,-1.147624 -2.0978,-1.303376 -1.48413,-0.638449 -3.08605,-0.415643 -3.84851,0.535281 -0.78115,0.974261 -0.5513,2.620537 0.47509,3.40276 0.22998,0.175275 1.21206,0.746708 2.1824,1.269859 3.15475,1.700847 3.94891,2.336642 4.5474,3.640532 0.45971,1.001557 0.47429,2.504544 0.0341,3.51217 -0.34742,0.795191 -1.21098,1.645753 -2.04585,2.015063 -1.26668,0.560311 -3.51936,0.780635 -5.14931,0.503637 z m 32.27005,-0.04804 c -1.65238,-0.445527 -2.60115,-1.512768 -2.87908,-3.238561 -0.15737,-0.977107 0.039,-2.184857 0.4782,-2.940908 0.80125,-1.379354 2.81974,-2.144443 6.19908,-2.349686 l 1.43846,-0.08734 -9.6e-4,-0.666459 c -0.002,-1.394594 -0.48839,-2.246516 -1.50599,-2.635141 -0.83071,-0.317251 -2.66656,-0.198145 -3.97229,0.257722 -0.53369,0.18632 -0.98284,0.338771 -0.99809,0.338771 -0.0153,0 -0.19109,-0.384314 -0.39073,-0.854034 -0.21848,-0.514055 -0.31537,-0.900738 -0.2434,-0.971351 0.29056,-0.285084 2.26534,-0.814475 3.3664,-0.902441 1.60524,-0.128255 2.71986,0.02493 3.7041,0.508938 0.9219,0.453394 1.37489,0.930507 1.85854,1.957522 l 0.3385,0.718766 0.0382,5.331533 0.0382,5.331523 -0.87443,-0.03872 -0.87442,-0.03872 -0.18525,-0.636908 -0.18525,-0.636909 -0.35073,0.321837 c -1.34009,1.229747 -3.25471,1.701076 -4.99928,1.23068 z m 3.38494,-2.179292 c 1.32474,-0.586 1.74973,-1.33716 1.8268,-3.228819 l 0.0545,-1.339519 -1.09296,0.0048 c -2.29553,0.0096 -3.91067,0.520544 -4.52956,1.432984 -0.2702,0.398347 -0.3043,0.579083 -0.26415,1.39997 0.0422,0.863872 0.0828,0.980427 0.48549,1.395889 0.24166,0.249331 0.65229,0.513551 0.91251,0.58717 0.65794,0.18612 1.8846,0.06745 2.60732,-0.252233 z m 9.64486,2.155097 c -0.9998,-0.198679 -2.17876,-0.558161 -2.35252,-0.717329 -0.0628,-0.05756 0.0418,-0.510231 0.23416,-1.013811 l 0.34766,-0.909824 1.00736,0.331303 c 1.17808,0.387453 3.40303,0.547848 4.21693,0.304007 0.68801,-0.206138 1.16838,-0.809348 1.16838,-1.467167 0,-1.116104 -0.40811,-1.476263 -3.39782,-2.998544 -2.75775,-1.404166 -3.52851,-2.262034 -3.52851,-3.92729 0,-1.643955 1.07137,-2.947407 2.8469,-3.463564 0.81601,-0.23722 2.52852,-0.259064 3.69715,-0.04709 0.70019,0.126963 2.47325,0.734111 2.47325,0.846899 0,0.02026 -0.18446,0.430951 -0.40991,0.912725 -0.45941,0.981759 -0.36566,0.957641 -1.7464,0.449218 -1.09061,-0.401601 -2.75068,-0.488995 -3.54271,-0.18652 -1.03785,0.396359 -1.39213,1.41759 -0.79854,2.301869 0.229,0.341159 0.7675,0.686285 2.32409,1.489535 2.942,1.518142 3.82667,2.253957 4.17649,3.473677 0.19141,0.667457 0.15387,1.895245 -0.0748,2.444035 -0.25273,0.606673 -1.01683,1.409209 -1.65575,1.739018 -1.19093,0.614769 -3.20718,0.79227 -4.98547,0.438904 z m 14.46952,-0.05794 c -0.52924,-0.173372 -1.02317,-0.460815 -1.44762,-0.842437 l -0.64428,-0.579263 -0.16537,0.645214 -0.16535,0.645223 h -0.90273 -0.90273 v -9.73597 -9.736064 h 1.10494 1.10493 l 0.0404,7.61243 c 0.0362,6.82335 0.0636,7.670896 0.26451,8.176474 0.3342,0.841267 0.70104,1.289828 1.38055,1.688051 1.11126,0.651227 3.07117,0.425538 3.83198,-0.441273 0.66995,-0.763282 0.70186,-0.961447 0.70186,-4.359193 0,-3.023585 -0.0156,-3.230892 -0.28014,-3.724531 -0.58156,-1.085222 -1.2791,-1.427646 -2.71584,-1.33323 -0.5804,0.03815 -1.18364,0.109609 -1.34055,0.158824 -0.24487,0.07678 -0.33279,-0.0048 -0.62075,-0.572556 -0.18451,-0.364116 -0.33548,-0.71556 -0.33548,-0.780968 0,-0.198307 1.24626,-0.669455 2.05213,-0.775801 2.40227,-0.317013 4.35845,0.704438 5.16389,2.69642 0.28514,0.705227 0.29839,0.89463 0.29839,4.266499 0,3.388128 -0.012,3.558389 -0.30326,4.279514 -0.42498,1.05238 -1.38381,2.060435 -2.38883,2.511461 -1.10339,0.49517 -2.58893,0.575315 -3.7307,0.201276 z m 13.87186,0.07944 c -1.58057,-0.384875 -2.79036,-1.392901 -3.35812,-2.798076 -0.28799,-0.712724 -0.30107,-0.895658 -0.30107,-4.208285 0,-3.335507 0.0111,-3.487252 0.30015,-4.116588 0.95305,-2.07483 2.42521,-2.949014 4.9704,-2.951479 2.17832,-0.0019 3.63498,0.643245 4.56232,2.021295 0.71978,1.069658 0.84915,1.701029 0.91568,4.46945 0.0886,3.685352 -0.17162,4.920532 -1.29267,6.136723 -0.30483,0.330703 -0.79364,0.741589 -1.08626,0.913068 -1.10323,0.646536 -3.24903,0.889749 -4.71043,0.533892 z m 2.7772,-1.931522 c 0.74525,-0.187653 1.5958,-0.993252 1.83959,-1.742357 0.22775,-0.699747 0.34212,-4.318616 0.17699,-5.599244 -0.24763,-1.920276 -1.06544,-2.717198 -2.88445,-2.81073 -1.57523,-0.08096 -2.45643,0.341787 -3.05855,1.467414 -0.27385,0.511934 -0.28832,0.693202 -0.28832,3.61357 0,3.025173 0.005,3.084825 0.32753,3.71103 0.18013,0.350045 0.47758,0.748478 0.66098,0.885411 0.79,0.589814 2.03946,0.773737 3.22623,0.474906 z m 11.46752,1.922198 c -0.35939,-0.104425 -0.68745,-0.192457 -0.72905,-0.195625 -0.0416,-0.0029 -0.35213,-0.188937 -0.69012,-0.412808 -0.72236,-0.478473 -1.29717,-1.265216 -1.68544,-2.306893 -0.26389,-0.707967 -0.28198,-1.028395 -0.32845,-5.818521 l -0.0492,-5.069282 1.15303,0.03787 1.15303,0.03786 0.0654,5.031388 c 0.0509,3.916055 0.10504,5.103808 0.24439,5.358096 1.00546,1.834812 3.67194,2.079538 5.08782,0.466942 0.75081,-0.855129 0.81002,-1.321176 0.81002,-6.376587 v -4.55536 l 1.14349,0.03777 1.1435,0.03777 0.0339,6.762966 0.0339,6.762975 h -0.90583 -0.90585 l -0.15075,-0.490071 c -0.0829,-0.269538 -0.17513,-0.566952 -0.20492,-0.660911 -0.0355,-0.111836 -0.22389,-0.0038 -0.5455,0.312417 -1.0638,1.046396 -3.09519,1.498449 -4.67322,1.039955 z m -67.76041,-6.996922 v -6.795646 h 0.89337 0.89338 l 0.22406,0.805884 0.22405,0.805885 0.39507,-0.479301 c 0.42989,-0.521524 1.27727,-1.070076 1.96571,-1.272522 0.67013,-0.197062 2.12169,-0.162631 2.9193,0.06926 0.39503,0.114842 0.71825,0.240416 0.71825,0.279061 0,0.03863 -0.19977,0.50262 -0.44393,1.031069 l -0.44391,0.960809 -0.50356,-0.179526 c -0.67908,-0.24211 -1.906,-0.236392 -2.50069,0.0117 -0.60563,0.252604 -1.28217,0.89131 -1.60275,1.513148 -0.41429,0.803544 -0.51467,1.989708 -0.51569,6.092654 l -9.5e-4,3.953235 h -1.11082 -1.11082 z m 79.45675,-0.0057 v -6.801611 l 0.87182,0.03863 0.87181,0.03863 0.19427,0.718775 c 0.10685,0.395322 0.20364,0.732513 0.21511,0.749315 0.0115,0.01684 0.34034,-0.277235 0.73084,-0.653424 0.88579,-0.853311 1.69551,-1.16296 3.02308,-1.156025 0.82161,0.0038 1.76943,0.208678 2.19905,0.474202 0.0658,0.04072 -0.0943,0.506529 -0.35589,1.035188 l -0.47562,0.961199 -0.51721,-0.182486 c -1.94005,-0.684497 -3.96527,0.438153 -4.39363,2.43553 -0.0856,0.399393 -0.14197,2.344225 -0.14197,4.902827 v 4.240849 h -1.11084 -1.11081 z M 155.12361,24.046119 V 1.1761693 H 78.149892 1.1761693 V 24.046119 46.916071 H 78.149892 155.12361 Z M 23.32735,32.00768 c -1.769491,-0.211574 -3.137367,-0.8853 -4.026711,-1.983294 -0.611624,-0.75512 -0.844349,-1.246561 -1.142658,-2.412937 -0.233097,-0.911403 -0.254076,-1.477281 -0.254076,-6.85337 v -5.859938 h 1.951738 1.951739 l 0.05018,5.782829 c 0.03534,4.07379 0.09729,5.926466 0.209592,6.268843 0.17945,0.54707 0.690908,1.208159 1.110943,1.435957 0.790582,0.428758 2.386951,0.342673 3.103202,-0.167341 0.21145,-0.150567 0.515443,-0.518741 0.675539,-0.818164 0.285683,-0.534309 0.292296,-0.654717 0.356426,-6.490596 l 0.06534,-5.946187 1.992953,-0.03608 1.992953,-0.03608 -0.0023,5.720891 c -0.0025,6.273694 -0.05258,6.817207 -0.76958,8.349387 -0.675721,1.443982 -1.950475,2.442672 -3.640792,2.852331 -1.014431,0.245856 -2.516945,0.326168 -3.624514,0.193738 z m 53.646372,0.0021 c -1.696794,-0.208815 -2.83346,-0.733595 -3.75544,-1.733826 -1.139288,-1.235982 -1.467439,-2.439138 -1.467439,-5.380327 0,-2.97103 0.331322,-4.162284 1.507324,-5.419524 1.094123,-1.16971 2.5438,-1.702835 4.630353,-1.702835 3.239036,0 5.318174,1.488316 6.02461,4.312619 0.188632,0.754129 0.238713,3.880253 0.0666,4.158696 -0.06974,0.112799 -1.187363,0.153924 -4.18329,0.153924 h -4.088161 l 0.08671,0.555414 c 0.131584,0.8428 0.46828,1.36935 1.083384,1.694268 0.46374,0.244964 0.742065,0.289145 1.728889,0.274441 1.054197,-0.01571 1.730939,-0.151513 3.209159,-0.644011 0.302644,-0.100833 1.55933,2.661651 1.289982,2.835679 -0.469283,0.303204 -2.377988,0.795729 -3.511153,0.906022 -1.39548,0.135824 -1.433443,0.135672 -2.621556,-0.01054 z m 3.099837,-9.290471 c -0.111404,-1.228586 -0.763121,-1.929912 -1.89441,-2.038615 -0.964332,-0.09266 -1.741569,0.290777 -2.087631,1.029898 -0.147123,0.31423 -0.295634,0.850666 -0.330021,1.192082 l -0.06252,0.620755 h 2.223752 2.22375 z m 20.684911,9.348438 c -1.394273,-0.115348 -3.920573,-0.750478 -3.920573,-0.985663 0,-0.05519 0.2442,-0.754454 0.54266,-1.55393 0.48231,-1.291953 0.57314,-1.446597 0.81678,-1.390658 0.15077,0.03461 0.7446,0.18912 1.31962,0.343343 1.340623,0.359566 2.919023,0.399713 3.397193,0.08641 0.28345,-0.18572 0.3353,-0.306984 0.30209,-0.706404 l -0.04,-0.482197 -2.26616,-1.176168 c -3.222383,-1.67247 -3.856553,-2.369339 -3.865073,-4.247277 -0.006,-1.176416 0.33973,-2.069314 1.07525,-2.782285 0.56071,-0.54353 1.55288,-1.067838 2.382453,-1.25901 0.87097,-0.200712 2.87982,-0.167789 4.01034,0.06573 0.91254,0.188492 2.64909,0.791925 2.64909,0.920535 0,0.02949 -0.32692,0.705486 -0.72649,1.502207 -0.57412,1.144767 -0.77284,1.433383 -0.94747,1.376097 -0.12154,-0.03986 -0.57383,-0.20109 -1.00508,-0.358271 -1.07126,-0.390434 -2.68827,-0.489449 -3.14166,-0.192373 -0.26554,0.173982 -0.32833,0.308957 -0.29652,0.637405 0.0382,0.394622 0.14413,0.47076 2.00064,1.438108 2.2001,1.146394 2.97249,1.691841 3.49462,2.467864 0.64926,0.964983 0.81436,2.368407 0.41612,3.537194 -0.6518,1.912953 -3.12403,3.013633 -6.19774,2.759348 z m 31.12577,-0.05952 c -2.12186,-0.275343 -3.64537,-1.203626 -4.4306,-2.699576 -0.626,-1.192593 -0.75411,-1.942281 -0.75411,-4.41303 0,-1.445551 0.0626,-2.472745 0.17921,-2.940423 0.43961,-1.763207 1.55691,-3.09119 3.14741,-3.740867 0.69961,-0.285775 1.12598,-0.36083 2.34212,-0.412301 0.93592,-0.03961 1.75909,-0.0029 2.22166,0.09919 2.28383,0.503842 3.78766,2.01721 4.27115,4.298222 0.18492,0.872422 0.25231,3.358517 0.10585,3.905021 l -0.0788,0.294043 h -4.10134 -4.10136 v 0.364364 c 0,0.545198 0.53095,1.490508 1.01942,1.814981 0.4993,0.33168 1.58185,0.500165 2.39893,0.373361 0.56996,-0.08846 2.20557,-0.500663 2.61779,-0.659742 0.17861,-0.06893 0.34704,0.182822 0.88421,1.321616 0.48348,1.02499 0.62032,1.433486 0.50422,1.505242 -0.49356,0.305033 -2.3204,0.771924 -3.48998,0.891946 -1.4847,0.15236 -1.54625,0.152314 -2.73578,-0.0021 z m 3.18737,-9.169331 c -0.20317,-1.531493 -0.81342,-2.124375 -2.18714,-2.124885 -0.68272,-2.6e-4 -0.95231,0.0594 -1.24151,0.274707 -0.53604,0.399058 -0.8343,0.986454 -0.91935,1.810555 l -0.0748,0.724151 h 2.25677 2.25678 z m -12.727,9.039248 c -2.06085,-0.405558 -3.45463,-1.890064 -3.80563,-4.053356 -0.0748,-0.46101 -0.13645,-2.117282 -0.13699,-3.680608 l -9.2e-4,-2.842409 h -1.17616 -1.17617 v -1.619284 -1.619283 l 0.97188,-0.04908 c 0.81536,-0.04118 1.02787,-0.101351 1.31958,-0.373669 0.48492,-0.452696 0.8285,-1.1749 0.94506,-1.986512 l 0.0992,-0.690416 1.53397,-0.03682 1.53394,-0.03682 v 1.567468 1.56747 l 1.20885,0.03757 1.20883,0.03758 0.0367,1.600896 0.0367,1.600897 h -1.24552 -1.24554 l 0.008,2.907751 c 0.008,3.148655 0.0981,3.704135 0.64605,3.980572 0.17969,0.09066 0.63546,0.165704 1.01281,0.166764 0.45597,0.0013 0.68905,0.05672 0.6949,0.165283 0.005,0.08985 0.0809,0.878045 0.16892,1.751553 l 0.16011,1.588196 -0.46296,0.07661 c -0.61918,0.102455 -1.64189,0.07602 -2.33486,-0.06035 z M 34.63164,24.895575 V 18.03459 h 1.493609 1.49361 l 0.211528,0.727628 0.211527,0.727626 0.483845,-0.471347 c 0.266114,-0.259241 0.80729,-0.630779 1.202614,-0.82564 0.660667,-0.325655 0.845541,-0.354295 2.286995,-0.354295 1.405694,0 1.635947,0.03354 2.221653,0.323595 0.826742,0.409427 1.626797,1.204876 2.011832,2.000254 0.664807,1.373306 0.700023,1.686759 0.763021,6.79146 l 0.05927,4.802689 h -2.030192 -2.03019 l -0.0403,-4.606661 c -0.03599,-4.113713 -0.06507,-4.651979 -0.271719,-5.030158 -0.279067,-0.510694 -0.650391,-0.759987 -1.302198,-0.874247 -1.08107,-0.189512 -2.314925,0.521125 -2.583523,1.487974 -0.07232,0.260343 -0.128999,2.337591 -0.129408,4.743145 l -7.84e-4,4.279947 h -2.025623 -2.025624 z m 15.682253,0 V 18.03459 h 2.025624 2.025624 v 6.860985 6.860985 h -2.025624 -2.025624 z m 8.300568,0.163357 c -1.215666,-3.683696 -2.23431,-6.771139 -2.263652,-6.860984 -0.04117,-0.12607 0.420447,-0.163358 2.022281,-0.163358 h 2.075631 l 1.488144,4.802689 c 0.818479,2.641481 1.495568,4.814794 1.504643,4.829585 0.009,0.01479 0.686615,-2.146419 1.505648,-4.802691 l 1.48915,-4.829583 h 2.080897 c 1.610939,0 2.066776,0.03689 2.018375,0.163358 -0.03438,0.08985 -1.051845,3.177288 -2.261015,6.860984 L 66.076069,31.75656 H 63.450417 60.824765 Z M 86.905813,24.895575 V 18.03459 h 1.440348 c 1.638255,0 1.495204,-0.102815 1.906243,1.37006 l 0.21822,0.781976 0.210552,-0.321487 c 0.956813,-1.460971 2.581178,-2.218709 4.335651,-2.022511 1.1211,0.125372 1.09538,0.06511 0.78498,1.839402 -0.14956,0.854895 -0.30218,1.686672 -0.33917,1.848395 -0.0625,0.273302 -0.13744,0.294043 -1.06241,0.294043 -1.287146,0 -1.952595,0.208345 -2.539261,0.795013 -0.862625,0.862621 -0.940667,1.286198 -1.003202,5.445216 l -0.05547,3.691863 h -1.948228 -1.948219 z m 23.000647,0 V 18.03459 h 1.96028 1.96028 v 6.860985 6.860985 h -1.96028 -1.96028 z m -59.070484,-9.802067 -1.499364,-1.50363 1.468797,-1.468797 1.468797,-1.468796 1.503585,1.503585 1.503588,1.503587 -1.47302,1.46884 -1.473019,1.468839 z m 59.558314,0.09654 c -0.77144,-0.773852 -1.40263,-1.465855 -1.40263,-1.537782 0,-0.07193 0.64688,-0.775668 1.43754,-1.563863 l 1.43753,-1.433081 1.43754,1.433081 c 0.79065,0.788195 1.43754,1.493896 1.43754,1.568226 0,0.132082 -2.7501,2.940421 -2.87944,2.940421 -0.036,0 -0.69663,-0.633151 -1.46808,-1.407002 z m 20.1121,0.115711 c -0.40466,-0.638333 -0.73576,-1.192366 -0.73576,-1.231185 0,-0.06904 4.79783,-3.489054 4.8947,-3.489054 0.0839,0 1.77048,2.692859 1.76636,2.82016 -0.004,0.128538 -4.85696,3.060684 -5.06552,3.060684 -0.0682,0 -0.45512,-0.522272 -0.85978,-1.160605 z m 33.7652,8.74036 V 1.1761693 h -3.92056 -3.92056 V 24.046119 46.916071 h 3.92056 3.92056 z m 8.88662,0 V 1.1761693 h -3.78989 -3.78988 V 24.046119 46.916071 h 3.78988 3.78989 z m 21.17103,0 V 1.1761693 h -9.99743 -9.99744 V 24.046119 46.916071 h 9.99744 9.99743 z m 17.25048,0 V 1.1761693 h -7.97181 -7.97181 V 24.046119 46.916071 h 7.97181 7.97181 z"
   id="path857"
   inkscape:connector-curvature="0"
   inkscape:export-xdpi="96.000008"
   inkscape:export-ydpi="96.000008" /></svg>