<svg xmlns="http://www.w3.org/2000/svg" xml:space="preserve" viewBox="0 0 112.271 100">
  <path d="M76.912 199.89c-.168-.012-.232-.04-.289-.127a.227.227 0 0 0-.203-.111c-.12 0-.131-.014-.131-.161v-.16l-.175.14c-.419.336-1.193.457-1.774.276-.363-.113-.868-.42-1.163-.71-.933-.91-.91-2.765.047-3.724.45-.451.937-.65 1.593-.652.608 0 1.068.176 1.434.552.12.124.22.198.22.165 0-.032.041-.61.09-1.285.049-.673.09-1.27.09-1.327 0-.093.022-.102.239-.102.131 0 .344.014.474.03.23.027.235.03.21.157-.022.109-.007.136.093.174.09.034.12.077.119.171 0 .07-.092 1.421-.204 3.005-.112 1.583-.204 3.044-.204 3.246 0 .375-.042.485-.18.469a15.087 15.087 0 0 0-.286-.025zm-1.413-1.073c.297-.138.546-.388.682-.684.085-.187.117-.37.157-.911.058-.764.035-.922-.182-1.248-.216-.326-.353-.383-.913-.383-.466 0-.485.004-.742.159-.304.183-.565.514-.71.902-.126.332-.166.978-.089 1.39.07.37.262.613.613.777.323.15.859.15 1.184-.002zm5.01.989c-.968-.26-1.69-.96-1.926-1.866-.091-.353-.092-1.089-.002-1.443.235-.92.904-1.577 1.778-1.747.155-.03.474-.047.71-.036.382.016.464.036.77.187.535.265.882.718 1.146 1.494.125.365.185.884.115.987-.036.054-.378.087-1.714.17-.918.056-1.695.112-1.727.124-.086.033-.07.38.028.595.12.263.423.504.768.61.499.155 1.307.099 1.912-.131.135-.052.25-.09.253-.084.052.077.295.63.317.718.027.11.01.125-.235.217-.68.254-1.666.346-2.193.205zm.4-3.084c.615-.04 1.128-.08 1.14-.092.045-.046-.092-.538-.202-.726-.166-.284-.323-.351-.816-.351-.35 0-.441.017-.636.117a1.519 1.519 0 0 0-.677.715c-.143.307-.148.408-.023.408.052 0 .597-.032 1.213-.071zm-10.179 2.499a2.354 2.354 0 0 0-.21-.043c-.109-.018-.173-.056-.188-.112-.013-.05-.08-.098-.164-.116-.077-.017-.141-.045-.142-.062-.001-.094.79-4.618.813-4.642.015-.016.221.006.458.048l.431.077-.014.145c-.008.08.002.145.022.145.164.003.159.059-.21 2.205-.202 1.17-.379 2.184-.392 2.253-.022.11-.045.124-.192.121a1.152 1.152 0 0 1-.212-.019zm16.676-.374c-.23-.08-.69-.378-.856-.553-.352-.373-.452-1.062-.226-1.551.28-.606 1.16-1.161 2.292-1.446.18-.046.188-.055.153-.175a1.233 1.233 0 0 0-.283-.505c-.079-.074-.16-.093-.4-.093-.462 0-1.03.204-1.451.52l-.16.12-.094-.11c-.061-.07-.118-.098-.16-.076-.045.025-.11-.04-.231-.231l-.168-.266.281-.2a3.22 3.22 0 0 1 1.017-.507c.968-.318 1.786-.132 2.258.513.35.478.47.8.796 2.122.172.698.344 1.358.383 1.468.1.282.091.314-.102.366-.413.111-.466.112-.493.009-.019-.07-.061-.097-.154-.097-.074 0-.147-.033-.172-.077-.037-.066-.077-.04-.28.183-.131.143-.327.312-.435.376-.46.27-1.094.358-1.515.21zm.92-.92c.325-.121.611-.374.742-.655.126-.27.134-.469.034-.866-.084-.334-.096-.34-.475-.209-.616.212-1.064.515-1.224.828-.094.185-.117.548-.046.733.094.25.545.328.97.17zm-20.197.779c-.133-.041-.266-.107-.295-.147a.451.451 0 0 0-.19-.117c-.107-.035-.138-.075-.15-.189a.44.44 0 0 0-.027-.144c-.007 0-.13.04-.273.09-.4.138-.65.156-.982.074-.686-.172-1.337-.63-1.572-1.108-.117-.24-.126-.299-.126-.803v-.544l.404-1.452c.223-.799.418-1.467.433-1.486.016-.018.216.02.446.086.406.116.418.123.418.253 0 .096.026.14.091.158.05.013.09.055.09.094s-.12.501-.268 1.027c-.427 1.52-.457 1.659-.457 2.106 0 .371.01.422.114.546.252.299.87.388 1.325.19.245-.106.573-.416.647-.612.023-.06.219-.749.435-1.53.217-.783.4-1.428.405-1.435a3.61 3.61 0 0 1 .45.108c.439.122.44.122.412.25-.025.11-.012.132.088.157.064.016.117.044.117.061 0 .018-.205.766-.456 1.663-.25.897-.515 1.87-.588 2.164a6.5 6.5 0 0 1-.159.579c-.033.054-.03.055-.332-.04zm-7.855-.555c-.85-.167-1.935-.77-2.444-1.36l-.138-.16.227-.26.228-.26.362.34c.586.552 1.344.863 1.898.78.436-.066.912-.474 1.112-.953l.071-.17-.172.036c-.438.093-.983-.036-1.533-.362-.986-.586-1.387-1.52-1.113-2.591.38-1.483 1.761-2.337 3.06-1.89.564.194.907.464 1.213.953.109.174.21.318.225.318.015 0 .065-.081.11-.182a.75.75 0 0 1 .124-.21c.022-.013.194.042.381.124.298.13.339.162.322.25-.014.074.01.115.087.15.136.063.134.089-.032.419-.077.15-.453.986-.837 1.855-.83 1.88-.903 2.027-1.177 2.392-.48.637-1.217.929-1.974.78zm1.336-2.878c.346-.169.526-.406.83-1.093.234-.532.281-.68.281-.89 0-.47-.224-.885-.562-1.038-.291-.133-.886-.12-1.2.026-.485.226-.97.893-1.099 1.509-.074.357-.03.877.09 1.072.102.166.373.364.633.463.234.09.797.062 1.027-.05zm30.447 2.184c-.055-.083-.118-.12-.21-.12h-.13v-.68h.399c.675 0 1.222-.204 1.449-.541.141-.21.142-.543.001-.706-.099-.115-.126-.12-.805-.158-.787-.044-1.073-.118-1.475-.385-.466-.31-.633-.6-.63-1.097.002-.522.368-1.029.957-1.326.425-.215 1.088-.357 1.395-.3.144.028.16.046.16.174 0 .105.028.155.103.188.076.033.106.09.116.218.008.095-.007.2-.034.231-.029.035-.207.07-.445.085-.752.05-1.191.362-1.191.846 0 .29.101.33.926.37.979.048 1.275.142 1.601.513.23.261.46.719.496.985.037.28-.075.65-.275.913-.344.45-1.201.84-1.954.886-.367.023-.377.021-.454-.096zm35.824-.714c0-.147-.022-.152-.238-.063-.1.04-.1.067.012-.794.05-.387.09-.765.09-.84 0-.134-.117-.275-1.099-1.321l-.133-.142.892-.172.893-.172.102-.163a23.9 23.9 0 0 0 .438-.785c.185-.343.347-.624.36-.624.013 0 .074.08.136.18.061.1.125.182.142.182.017 0 .167.25.333.556.167.305.327.58.357.612.045.046.8.217 1.543.35.163.028.17.035.102.11-.1.11-.093.126.064.157.074.015.136.044.136.064 0 .02-.255.31-.567.647-.399.43-.567.645-.567.722 0 .06.042.444.094.854s.083.756.069.77c-.015.015-.36-.13-.766-.32-.407-.191-.772-.348-.811-.348-.04 0-.402.154-.804.34-.403.188-.742.341-.755.341-.012 0-.022-.064-.022-.141zm-31.705-.903a.301.301 0 0 0-.201-.09c-.113 0-.126-.019-.152-.216a8.121 8.121 0 0 0-.052-.34c-.023-.124-.02-.125.219-.126.476 0 1.064-.201 1.384-.47.295-.249.356-.642.141-.915l-.098-.125-.706.027c-.837.031-1.135-.02-1.614-.278-.235-.127-.355-.227-.462-.385-.57-.844.023-1.93 1.27-2.324.195-.062.463-.112.595-.112.231 0 .243.006.269.132.015.077.064.145.115.161.116.037.182.37.09.453-.034.03-.21.079-.393.108-.303.05-.655.192-.827.336-.194.162-.271.322-.271.562 0 .377.027.386 1.117.37.868-.012.911-.007 1.143.097.45.203.912.854.951 1.337.061.757-.716 1.505-1.868 1.798-.45.114-.553.114-.65 0zm-24.642-2.177c-.167-.071-.468-.33-.536-.464a.511.511 0 0 1 .027-.525c.152-.249.527-.316.808-.145.197.12.439.615.396.809-.06.27-.423.44-.695.325zm-16.692-.47c-1.136-.613-1.433-1.196-1.044-2.047.058-.127.44-.73.846-1.34.407-.61.748-1.14.758-1.18.012-.045-.086-.147-.279-.289-.181-.133-.286-.239-.267-.271.033-.056.292-.449.317-.48.008-.01.158.077.332.193.175.116.326.211.336.211.01 0 .123-.16.252-.357l.234-.357.44.138c.243.076.45.145.46.154.012.009-.004.04-.033.07-.086.085-.063.159.06.19.062.015.113.046.113.069 0 .022-.113.205-.252.406l-.25.365.175.126c.097.07.281.198.41.285.146.099.231.187.224.233-.007.041.034.113.09.16l.102.084-.116.193c-.064.106-.141.193-.173.193-.03 0-.277-.144-.548-.32-.27-.177-.518-.31-.551-.298-.066.026-1.448 2.077-1.601 2.377a.981.981 0 0 0-.097.39c0 .19.012.208.22.342.12.077.245.14.277.14.039 0 .049.037.03.112-.021.083-.005.124.063.16.05.027.091.082.091.122 0 .118-.183.378-.265.377-.041 0-.2-.069-.354-.151zm45.592.08c-.376-.101-.586-.209-.983-.505-.746-.555-1.2-1.4-1.2-2.237 0-.659.24-1.206.743-1.702.821-.808 1.943-1.023 2.872-.552.656.334 1.295 1.23 1.531 2.147.096.374.09.599-.025 1.03-.336 1.244-1.772 2.133-2.938 1.819zm1.164-1.064c.995-.498 1.102-1.788.227-2.746-.294-.323-.58-.444-1.056-.446-.319-.002-.396.015-.637.14-.31.16-.622.473-.75.753-.097.216-.12.885-.04 1.174.072.262.383.69.653.897.338.261.614.36 1.005.363.27.002.366-.02.598-.135zm-50.191-1.653c-.656-.231-1.47-.896-1.81-1.479-.094-.16-.17-.311-.17-.337 0-.045.54-.407.565-.378.006.008.047.09.091.184s.097.17.119.17c.021 0 .079.077.127.17.116.225.48.588.708.705.511.264 1.047-.03 1.041-.572-.002-.2-.047-.32-.303-.802-.165-.312-.334-.688-.377-.836-.24-.838.297-1.541 1.182-1.545.718-.003 1.437.488 1.997 1.364.2.313.2.394-.003.514-.204.12-.279.12-.317 0-.022-.069-.056-.088-.127-.07-.082.019-.125-.023-.255-.25-.293-.507-.623-.702-1-.589a.809.809 0 0 0-.314.212c-.118.134-.14.197-.14.393 0 .198.043.314.292.788.161.306.337.703.392.883.088.288.093.354.046.565-.104.464-.404.802-.84.947-.306.102-.538.092-.904-.037zm53.8-.772c-1.017-.226-2.013-1.147-2.258-2.09a2.836 2.836 0 0 1-.002-1.215c.198-.76.821-1.5 1.61-1.91.461-.239.473-.24.568-.028.045.1.098.182.118.182.036 0 .223.384.223.457 0 .02-.148.115-.328.21-.429.225-.843.616-1.035.977-.128.238-.155.344-.172.652-.03.577.063.832.44 1.202.407.402.686.512 1.23.485.435-.021.673-.118 1.08-.44.2-.158.65-.72.702-.877.009-.027.14.038.293.146.174.122.269.219.254.257-.013.035.024.102.083.15l.107.088-.112.214c-.156.298-.721.885-1.085 1.126-.328.219-.845.412-1.208.451a1.885 1.885 0 0 1-.507-.037zm-56.823-1.814c-.032-.039-.082-.07-.11-.07-.03 0-.198-.148-.377-.33l-.323-.328 1.672-1.702 1.673-1.702.32.317c.176.174.32.336.32.36 0 .024.044.09.097.148l.098.104-1.59 1.623c-.873.893-1.618 1.629-1.655 1.636-.037.007-.093-.018-.125-.056zm60.78-.979a.262.262 0 0 0-.114-.082c-.108-.04-3.502-3.274-3.484-3.32.04-.102.593-.64.64-.62.098.04 3.412 3.227 3.412 3.281 0 .03.04.096.087.148.085.094.084.097-.142.356-.23.264-.342.33-.4.237zm28.105-.033a.916.916 0 0 1 .004-.14c.01-.109-.016-.11-.26-.02-.07.027-.072.063.052-.918l.103-.817-.366-.4c-.202-.22-.483-.527-.625-.684l-.258-.284.9-.172.899-.171.389-.71c.525-.958.486-.915.613-.69.057.102.12.185.141.185.022 0 .186.27.366.601.18.33.333.607.34.615.005.007.39.086.853.175l.843.162-.068.104c-.066.1-.063.105.07.135.076.016.139.051.139.077 0 .026-.168.224-.374.44-.205.214-.464.487-.574.604l-.202.214.104.843c.057.464.091.857.076.872-.016.015-.365-.129-.777-.32-.413-.191-.778-.348-.812-.348-.034 0-.383.154-.775.34-.713.34-.791.37-.8.307zm-91.62-1.792a4.403 4.403 0 0 1-.392-.414l-.179-.222 1.46-1.27a75.65 75.65 0 0 0 1.78-1.586l.323-.316.277.307c.152.169.265.325.252.347-.014.022.011.08.055.128.077.086.076.094-.041.216-.14.147-.12.19.09.19.368 0 .951.35 1.089.654.034.077.088.175.118.218.048.068.025.107-.17.282-.256.229-.309.244-.399.116-.034-.05-.074-.08-.087-.067-.012.013-.103-.057-.201-.155-.221-.22-.478-.298-.872-.261-.43.04-.695.213-1.796 1.175-.536.468-1.001.85-1.034.85-.033 0-.156-.086-.274-.192zm64.763-.29c-.293-.076-.813-.417-1.004-.659a1.63 1.63 0 0 1-.338-.813c-.059-.52.222-1.31.726-2.042.139-.202.253-.385.253-.407 0-.154-.672-.187-.944-.047-.287.148-.616.555-.83 1.025-.073.161-.132.312-.132.336 0 .024-.02.095-.044.158-.043.114-.043.114-.25.044-.113-.039-.205-.098-.205-.13 0-.034-.072-.085-.16-.114-.154-.05-.16-.06-.131-.219.053-.303.293-.84.544-1.218.577-.867 1.287-1.206 2.044-.975.4.122.548.218 1.708 1.114.53.409 1.08.813 1.221.899.198.119.248.17.216.22-.06.097-.052.125.048.157.05.016.09.048.09.073 0 .054-.362.54-.402.539-.015 0-.119-.052-.229-.115-.276-.158-.34-.124-.303.16.065.492-.198 1.179-.609 1.59-.388.388-.834.537-1.27.424zm.573-1.134c.185-.088.386-.321.523-.606.138-.285.14-.766.003-1.028-.088-.17-.588-.606-.695-.606-.073 0-.456.561-.64.938-.206.423-.275.844-.17 1.04.154.288.647.42.98.262zm-58.723.165c-.216-.094-.544-.395-.605-.555-.079-.207-.045-.356.126-.546.114-.128.16-.147.35-.147a.6.6 0 0 1 .56.325c.035.07.105.175.156.233.06.068.092.169.092.288 0 .328-.36.54-.679.402zm-8.207-.731c-.037-.053-.086-.084-.11-.07-.04.026-.463-.562-.463-.643 0-.022.084-.107.187-.19l.188-.15-.267-.097c-.508-.184-1.104-.725-1.353-1.23-.108-.219-.137-.346-.153-.665-.018-.367-.01-.415.12-.692.076-.164.245-.41.375-.548.272-.287 2.842-2.051 2.897-1.989.186.212.592.879.592.974 0 .02-.526.392-1.168.827-1.207.818-1.535 1.093-1.69 1.414-.108.223-.12.606-.025.79.223.431.894.69 1.39.536.123-.038.73-.416 1.46-.91.688-.466 1.268-.846 1.289-.846.037.001.535.708.538.764.001.016.026.073.055.126.045.08.04.108-.024.163-.043.037-.772.534-1.62 1.103a80.885 80.885 0 0 0-1.8 1.232c-.142.108-.28.196-.305.196-.025 0-.076-.043-.113-.096zm60.839-.144c-.267-.156-.473-.313-.515-.392a.836.836 0 0 1-.048-.3c0-.18.023-.235.152-.364.26-.26.618-.268.81-.018l.218.279a.5.5 0 0 1 .113.343c0 .172-.023.22-.169.354-.183.168-.383.203-.561.098zm8.852-2.934c-.339-.12-.52-.221-1.7-.937-.594-.36-1.11-.654-1.15-.654-.038 0-.132.11-.21.244-.226.396-.22.395-.662.099-.248-.167-.373-.278-.352-.313.171-.275.331-.552.331-.573 0-.015-.153-.128-.34-.252-.187-.125-.34-.256-.34-.291 0-.055.143-.62.205-.808.011-.036.19.048.505.236l.487.293.332-.554c.183-.305.357-.548.387-.54.03.008.16.078.288.155.17.101.228.161.213.22-.013.049.015.099.074.13.052.028.095.08.095.116 0 .035-.122.262-.27.504-.15.242-.261.456-.249.477.058.094 2.157 1.31 2.34 1.356.169.043.237.04.37-.016.175-.073.404-.352.494-.602.03-.085.074-.154.097-.154.023 0 .16.063.303.14.203.108.257.159.24.224-.013.053.014.106.074.143.132.083.12.193-.062.572-.19.397-.486.7-.78.8-.268.091-.432.088-.72-.015zm-72.064-2.506c-1.159-.18-2.203-1.277-2.376-2.499-.172-1.213.658-2.314 1.998-2.65.4-.1 1.057-.066 1.421.073.568.217 1.101.75 1.433 1.433.465.954.479 1.729.045 2.451-.453.755-1.658 1.325-2.52 1.192zm.28-1.15c.663-.14 1.281-.591 1.541-1.126.295-.607.044-1.479-.493-1.71-.877-.379-2.243.164-2.685 1.066-.116.237-.133.323-.132.658 0 .348.014.405.13.578.235.35.684.57 1.208.595.062.003.256-.024.43-.061zm72.095.07c-1.052-.52-2.036-1.02-2.187-1.113l-.274-.17.202-.403c.112-.222.211-.403.222-.403.01 0 .965.47 2.12 1.045 1.638.814 2.106 1.066 2.117 1.137.008.05.044.103.08.117.095.037.08.117-.082.445-.088.179-.173.295-.215.293-.038-.002-.93-.428-1.983-.948zm-3.532-1.636c-.294-.155-.476-.377-.476-.578 0-.237.135-.467.336-.571.328-.17.655.035.89.56.037.081.038.159.003.275-.104.349-.43.485-.753.314zm4.855-.179c-.5-.132-.783-.26-1.158-.525-.79-.556-1.139-1.179-1.144-2.04-.005-.745.273-1.46.759-1.956.48-.49.988-.677 1.744-.643.398.017.542.045.843.163.86.337 1.396.908 1.686 1.8.37 1.134-.174 2.527-1.177 3.015-.574.279-1.005.33-1.553.186zm1.069-1.178c.45-.172.744-.496.884-.978.094-.324.068-.616-.085-.95-.282-.618-1.027-.98-1.896-.921-.612.04-1.05.332-1.291.86-.108.237-.13.344-.13.647.001.413.06.559.326.819.222.216.508.382.874.507.392.134.988.141 1.318.016zm26.452.268v-.137l-.16.067-.161.067.024-.145c.014-.08.067-.481.118-.89.09-.73.09-.746.007-.84l-.615-.662c-.29-.312-.529-.58-.529-.593 0-.014.363-.094.806-.177.443-.082.847-.166.898-.185.057-.021.24-.305.487-.754.517-.94.464-.872.55-.704.04.077.112.177.159.222.046.044.22.326.387.625.166.3.332.567.369.595.036.028.418.118.849.199.43.081.79.155.8.164.01.01-.017.057-.061.106-.078.085-.076.09.063.125.08.02.143.058.14.082-.001.025-.222.278-.49.564-.268.285-.522.563-.565.618-.074.094-.073.141.026.926.078.616.091.832.051.847-.029.012-.383-.133-.786-.322a11.237 11.237 0 0 0-.773-.342c-.023 0-.365.153-.76.34-.397.187-.746.34-.777.34-.033 0-.057-.057-.057-.136zm-104.386-1.084c-.018-.055-.069-.095-.121-.095-.069 0-.128-.081-.242-.33-.35-.76-.307-1.374.12-1.736.255-.215.649-.369 1.989-.774.71-.216 1.307-.405 1.325-.422.018-.016-.019-.19-.08-.387a2.474 2.474 0 0 1-.102-.367c.007-.006.15-.05.318-.101l.305-.092.052.165c.03.09.08.195.112.232a.562.562 0 0 1 .09.193c.037.15.045.15.475.018l.34-.105.242.344c.233.333.391.634.353.672-.01.01-.218.083-.462.163-.243.08-.463.177-.487.217-.032.051.002.227.12.615.092.3.166.558.166.576 0 .037-.145.096-.346.14-.118.026-.145.015-.166-.063-.016-.061-.061-.093-.134-.093-.1 0-.123-.042-.254-.474-.08-.26-.162-.484-.182-.497-.06-.038-2.413.695-2.658.828a.951.951 0 0 0-.306.257c-.101.166-.108.485-.015.748.094.267.087.313-.057.368-.267.102-.363.102-.395 0zm59.917-2c-2.246-.114-4.225-.576-5.83-1.36-1.769-.864-3.312-2.259-4.278-3.866-1.635-2.721-2.116-6.292-1.299-9.65.39-1.601 1.13-3.126 2.106-4.337 1.818-2.254 4.672-3.758 8.053-4.244 2.727-.392 6.169-.113 8.463.686.393.137.432.161.446.275.01.088.046.132.124.152.069.017.11.06.11.113 0 .118-.997 4.003-1.039 4.046-.018.02-.182-.026-.363-.101-1.302-.537-2.736-.777-4.7-.786-1.164-.006-1.605.035-2.473.225-2.602.57-4.519 2.397-5.151 4.911-.337 1.34-.337 3.274.002 4.656.28 1.138.832 2.183 1.529 2.886.983.993 2.173 1.586 3.733 1.86 1.03.182 2.983.125 3.792-.11l.201-.057.012-2.279.012-2.278h-1.557c-1.618 0-1.666-.005-1.666-.19 0-.063-.036-.082-.158-.082h-.16v-4.038h8.532v.158c0 .123.018.16.081.16a.22.22 0 0 1 .136.054c.081.08.08 11.848-.002 11.914-.142.116-1.794.562-2.96.8-1.964.4-3.966.569-5.695.481zm-46.456-.237a.221.221 0 0 1-.054-.136c0-.06-.036-.082-.136-.082h-.136v-22.96H65.625v.148c0 .11.027.16.102.193l.103.045.011 2.024c.01 1.66.001 2.034-.05 2.076-.044.037-1.263.054-4.39.063l-4.329.011-.012 2.485-.012 2.484h7.987v.13c0 .09.036.155.114.206l.113.074v1.99c0 1.613-.011 2-.06 2.041-.044.036-1.207.054-4.096.062l-4.034.012-.012 4.533c-.008 3.258-.025 4.55-.062 4.594-.07.085-4.937.092-5.022.007zm17.924 0a.221.221 0 0 1-.055-.136c0-.06-.035-.082-.136-.082h-.136v-22.96h14.112v.148c0 .11.026.16.102.193l.102.045.012 2.024c.01 1.66 0 2.034-.05 2.076-.044.037-1.281.054-4.458.063l-4.397.011-.012 2.235-.012 2.235h8.214v.148c0 .11.026.16.102.193l.102.045.012 2.001c.01 1.641 0 2.012-.05 2.054-.044.036-1.217.054-4.209.062l-4.148.012-.011 2.575-.012 2.575 4.595.011 4.594.012.014.137c.009.09.048.153.113.182l.1.044.012 2.014c.009 1.449-.003 2.031-.04 2.076-.07.086-14.374.093-14.46.007zm47.613-1.651a84.119 84.119 0 0 0-2.02-.338c-.885-.128-.861-.122-.861-.226 0-.063-.031-.09-.102-.09-.208-.003-.223-.045-.149-.434.038-.198.07-.368.07-.378 0-.01.176-.003.393.015l.394.032-.172-.19a2.164 2.164 0 0 1-.291-.446c-.109-.231-.12-.306-.12-.8.001-.653.09-.93.415-1.292.27-.3.519-.441.93-.528.414-.088.529-.077 2.194.21 1.756.302 1.58.255 1.547.417-.022.11-.01.14.064.16.105.027.112.114.038.485-.029.144-.08.272-.112.284-.033.013-.617-.075-1.298-.196-1.851-.328-2.324-.307-2.686.123-.18.216-.248.371-.28.647-.065.542.114.912.537 1.112.12.057.708.18 1.554.323.75.127 1.418.243 1.486.257.107.021.125.047.125.18 0 .114.02.155.075.155.064 0 .07.039.046.273-.05.474-.063.5-.25.493-.091-.003-.778-.115-1.527-.248zm-74.031-2.265c-.035-.092-.074-.113-.208-.113h-.166l.031-.206c.044-.288-.047-.68-.196-.846-.114-.128-.148-.138-.506-.158a3.246 3.246 0 0 0-.589.017c-.192.035-.205.047-.217.195-.007.087.015.347.05.578.07.48.064.494-.241.518-.175.013-.21 0-.248-.085-.029-.065-.092-.105-.18-.113-.137-.014-.137-.014-.194-.442-.031-.235-.073-.441-.092-.458-.02-.017-.821.078-1.782.21-.96.132-1.793.241-1.85.243-.07.002-.117-.035-.148-.115-.038-.1-.064-.113-.174-.088l-.13.028-.057-.436c-.034-.253-.041-.452-.018-.473.022-.02.934-.156 2.026-.301l1.985-.265-.004-.115a4.184 4.184 0 0 0-.036-.35l-.034-.235.207-.028a7.27 7.27 0 0 0 .326-.051c.108-.022.12-.008.147.155.02.123.055.185.116.201.054.014.093.07.102.149l.015.126.522.008c.836.012 1.246.225 1.674.869.274.41.432.873.434 1.268.002.349-.057.427-.322.427-.172 0-.206-.016-.243-.114zm-4.833-3.16c-.894-.11-1.84-.757-2.197-1.506-.61-1.28-.172-2.833.955-3.382.47-.23.804-.293 1.378-.266.697.034 1.133.198 1.599.599.294.253.714.916.857 1.351.308.94.052 2.04-.612 2.626-.493.435-1.275.663-1.98.577zm.483-1.193c.585-.124 1.034-.438 1.245-.869.096-.194.12-.313.122-.574.004-.587-.209-.984-.645-1.201-.218-.11-.31-.125-.794-.141-.47-.016-.588-.004-.842.08-.334.11-.708.348-.847.536-.256.347-.31.513-.31.963 0 .506.07.66.404.9.451.324 1.057.435 1.667.306zm80.46.953a.92.92 0 0 1-.233-.154.549.549 0 0 0-.23-.12.435.435 0 0 1-.141-.045c0-.007.05-.123.111-.257.339-.74.309-1.657-.057-1.749-.173-.043-.416.018-.587.149-.115.088-.218.246-.363.558-.11.24-.255.547-.32.685-.172.364-.514.685-.839.786-.247.077-.278.077-.522.007-.307-.088-.818-.42-.986-.639a2.808 2.808 0 0 1-.24-.416c-.113-.24-.122-.305-.122-.85 0-.496.016-.637.102-.885.155-.444.134-.431.48-.293.274.11.3.13.275.229-.022.088-.004.117.095.155.094.035.115.065.09.125-.153.351-.2.566-.201.923-.002.443.045.524.332.57.352.058.562-.14.85-.804.372-.858.546-1.104.912-1.286.426-.213 1.047-.142 1.415.161.227.187.54.673.67 1.037.086.244.104.384.102.817-.002.453-.02.575-.136.93-.148.448-.191.483-.456.366zm24.716-3.434c0-.147-.022-.152-.242-.062-.073.03-.08.016-.056-.12.014-.084.067-.486.118-.892l.092-.74-.612-.666c-.39-.424-.593-.678-.558-.696.03-.016.402-.094.827-.174.424-.08.802-.153.839-.165.038-.011.262-.377.5-.813l.43-.793.107.18c.059.1.123.182.144.182.02 0 .186.275.37.611.383.705.277.637 1.262.817.842.153.791.133.7.272-.073.111-.072.115.033.115.059 0 .134.018.168.04.06.037.02.083-.957 1.12l-.175.186.093.722c.09.698.113 1.017.074 1.017-.01 0-.339-.153-.731-.34-.392-.187-.762-.34-.822-.34-.06 0-.435.153-.836.34-.4.187-.737.34-.748.34-.011 0-.02-.063-.02-.141zm-29.892-4.175a.202.202 0 0 1-.057-.117c0-.037-.057-.06-.152-.06h-.152l-.029-.374c-.016-.205-.03-.481-.03-.612v-.238h.16c.439 0 3.487-.186 3.747-.229.562-.092 1.02-.386 1.233-.792.147-.278.165-.957.036-1.3-.133-.353-.357-.63-.627-.777-.206-.113-.271-.124-.698-.124-.259 0-1.17.04-2.024.09-.854.049-1.582.078-1.618.064-.035-.013-.074-.064-.087-.112-.016-.062-.062-.087-.16-.087-.164 0-.172-.032-.205-.76l-.02-.466h.143c.339 0 5.124-.278 5.475-.318.554-.063.544-.065.544.086 0 .088.036.155.107.201.094.062.111.12.139.463.021.26.015.412-.018.452-.027.032-.186.073-.354.09-.501.05-.498.047-.265.296.226.241.577.767.688 1.032.115.272.247.877.247 1.128 0 .304-.148.877-.3 1.157-.155.283-.566.677-.866.83-.27.137-.83.284-1.215.32-.15.015-.865.057-1.589.094-.723.038-1.469.08-1.656.094-.245.019-.356.01-.397-.031zm-74.976-1.765c-.956-.162-1.731-.576-2.36-1.262a3.14 3.14 0 0 1-.705-1.375c-.086-.405-.062-1.194.05-1.603.202-.748.642-1.292 1.294-1.602.538-.256.787-.307 1.452-.3.693.008.839.045.842.213a.26.26 0 0 0 .087.183c.083.061.08.117-.129 2.122a112.228 112.228 0 0 1-.237 2.168c-.023.109-.022.109.285.083.834-.07 1.484-.603 1.739-1.428.14-.452.2-1.241.138-1.778a5.774 5.774 0 0 0-.091-.586l-.04-.137.326-.053c.498-.08.493-.082.533.063.02.071.065.163.1.204.165.189.269 1.153.208 1.922-.12 1.506-.796 2.58-1.878 2.983-.542.201-1.12.267-1.614.183zm-.535-3.097c.095-.88.173-1.624.174-1.655 0-.041-.072-.048-.282-.027-.826.082-1.386.611-1.49 1.408-.085.655.04 1.067.423 1.398.258.222.917.553.984.493.01-.01.097-.737.191-1.617zm76.316-2.526a2.94 2.94 0 0 1-1.128-.52c-1.489-1.05-2.05-2.96-1.314-4.474.503-1.034 1.718-1.727 3.025-1.724.985.002 1.9.477 2.477 1.286.567.794.947 1.991.865 2.723-.048.426-.273 1.076-.48 1.385-.672 1.007-2.275 1.623-3.445 1.324zm.876-1.436c.779-.171 1.54-.717 1.828-1.312.122-.25.133-.313.133-.772 0-.47-.01-.517-.15-.816-.187-.395-.412-.635-.735-.785-.214-.099-.33-.118-.817-.135-.693-.024-1.034.046-1.56.317-.456.236-.866.629-1.078 1.035-.15.288-.153.305-.153.86 0 .537.007.58.124.78.423.719 1.39 1.052 2.408.828zm-74.249.023a4.845 4.845 0 0 1-.532-.105c-.547-.145-3.666-1.22-3.715-1.281a.693.693 0 0 0-.212-.13l-.163-.067.185-.557c.101-.306.191-.564.2-.574.008-.01.806.25 1.774.577 1.854.626 2.218.718 2.656.672.49-.051.848-.314 1.063-.782.24-.521.234-1.057-.016-1.55-.232-.459-.257-.472-2.227-1.135-1.071-.361-1.816-.636-1.87-.69a.525.525 0 0 0-.204-.118c-.064-.016-.115-.052-.115-.08 0-.07.321-1.043.358-1.083.016-.018 1.172.352 2.57.823 1.397.47 2.707.9 2.912.955.363.098.372.104.348.223-.02.1-.003.133.09.175l.116.053-.135.397c-.073.218-.15.411-.168.43-.018.017-.225-.02-.458-.082-.26-.07-.442-.097-.468-.071-.025.025.028.172.139.378.389.726.43 1.36.144 2.19-.116.333-.24.537-.5.818-.269.289-.466.41-.847.52-.385.112-.603.134-.925.094zm100.721-.57c-.016-.017-.017-.08-.002-.14l.028-.11-.165.07c-.202.084-.198.13-.074-.835.05-.387.091-.75.091-.807 0-.068-.144-.256-.428-.555-.469-.496-.774-.855-.747-.879.01-.008.314-.07.676-.138.362-.067.752-.143.867-.167l.21-.045.42-.769c.23-.423.436-.769.458-.769.022 0 .069.058.105.128.037.07.099.155.138.187.04.033.216.322.393.643.37.671.246.596 1.306.792.648.12.787.179.64.27-.067.04-.008.113.091.113.047 0 .099.02.115.046.015.026-.228.317-.541.647-.466.491-.57.625-.57.736-.001.075.039.453.089.84.05.386.09.718.09.737 0 .075-.155.02-.856-.306-.402-.188-.74-.34-.751-.34-.012 0-.348.152-.749.34-.743.347-.783.362-.834.31zm-31.122-4.596c-.032-.052-.095-.094-.14-.094-.057 0-.149-.148-.33-.53-.137-.292-.234-.545-.214-.563.05-.048 5.448-2.628 5.497-2.628.05 0 .64 1.173.64 1.272 0 .046-.856.48-2.62 1.324-1.441.69-2.655 1.269-2.697 1.285-.05.019-.097-.004-.136-.066zm-67.625-2.095a160.694 160.694 0 0 0-2.609-1.429 24.157 24.157 0 0 1-.821-.441l-.164-.1.257-.46.256-.462.559.268c.446.214.544.247.484.166a4.416 4.416 0 0 1-.242-.44c-.147-.299-.169-.387-.184-.749-.015-.329 0-.465.076-.69.107-.316.265-.605.332-.605.024 0 .237.107.473.239.332.183.425.256.41.318-.013.047.014.098.064.125.08.043.076.064-.084.369-.163.313-.168.337-.168.805 0 .443.01.498.125.694.068.116.214.29.323.385.109.096.9.564 1.758 1.042.898.5 1.554.893 1.547.925-.007.03.023.096.067.145.079.086.075.102-.117.46-.197.366-.311.532-.364.525a130.1 130.1 0 0 1-1.978-1.09zm66.327-.202c-.323-.292-.684-.81-.828-1.187-.153-.398-.146-.87.018-1.186.264-.51.428-.638 2.434-1.89.711-.444 1.319-.83 1.35-.86.045-.04-.001-.143-.214-.48l-.27-.428.327-.215c.18-.117.347-.215.372-.216.025 0 .166.182.313.406.147.225.281.409.297.409.017 0 .213-.115.436-.255.224-.14.432-.265.463-.277.083-.033.964.77.913.832-.025.032-.015.072.028.108.038.03.069.081.069.111s-.245.207-.543.392c-.3.185-.544.362-.545.394 0 .031.148.296.331.59.332.532.484.808.484.878 0 .046-.48.358-.551.358-.028 0-.077-.036-.11-.08-.031-.043-.083-.08-.114-.08-.032 0-.222-.258-.424-.574-.201-.316-.38-.588-.396-.605-.038-.038-2.91 1.765-3.138 1.97-.222.2-.349.45-.349.686 0 .214.043.31.256.573.084.104.153.22.153.256 0 .036.03.091.068.122.037.032.068.072.068.09 0 .041-.52.41-.578.41-.023 0-.167-.114-.32-.252zm7.964-.856c-.467-.253-.74-.648-.703-1.022.055-.58.688-.823 1.122-.43.23.208.476.74.44.957-.067.417-.52.678-.859.495zm-71.275-2.025a3.564 3.564 0 0 1-.567-.134c-1.07-.352-1.936-1.076-2.363-1.974-.24-.505-.304-.827-.279-1.406.041-.924.374-1.64 1.097-2.364.346-.347.48-.447.843-.625.468-.231.912-.346 1.339-.346 1.083 0 2.285.743 2.923 1.807.427.713.59 1.355.501 1.976a3.694 3.694 0 0 1-.987 2.032c-.522.546-.955.8-1.643.967-.345.084-.57.101-.864.067zm.778-1.315a1.945 1.945 0 0 0 1.367-1.075c.194-.415.227-.947.087-1.405-.246-.802-1.027-1.533-1.812-1.696-.41-.085-1.028-.036-1.303.104-.48.244-.89.692-1.07 1.169-.081.211-.093.326-.079.748.015.463.028.52.167.778.155.289.58.745.884.951.263.178.629.334.947.403.355.077.503.081.812.023zm60.314.534a.133.133 0 0 0-.1-.057c-.034 0-.215-.178-.401-.395l-.339-.395.164-.2c.09-.11.163-.217.163-.24 0-.023-.107-.067-.238-.097-.59-.137-1.413-.695-1.775-1.203-.497-.696-.598-1.367-.3-2.002.258-.546.862-.96 1.474-1.01.853-.069 1.773.412 2.858 1.492l.5.497.207-.226c.302-.329.382-.516.381-.895 0-.244-.026-.37-.112-.544-.154-.312-.854-1.005-1.217-1.204l-.423-.233a1.293 1.293 0 0 1-.161-.1c-.04-.04.318-.664.382-.664.084 0 .576.252.874.448.364.238 1.048.915 1.29 1.276.36.538.616 1.19.616 1.573 0 .24-.212.837-.392 1.102-.213.316-.366.463-1.627 1.568a36.189 36.189 0 0 0-1.361 1.24c-.32.328-.397.373-.464.269zm.323-2.191c.2-.095 1.051-.838 1.035-.903-.007-.027-.233-.264-.502-.528-.624-.612-.909-.768-1.401-.768-.473 0-.817.192-1.048.585-.102.173-.122.261-.12.515.002.264.021.332.138.498.186.266.533.519.858.626.32.107.787.095 1.04-.025zm-54.425.138c-.033-.04-.095-.066-.138-.059-.054.01-.44-.427-1.271-1.439l-2.238-2.722c-.934-1.136-1.709-2.056-2.01-2.384l-.105-.116.426-.348.426-.347.368.382.367.383v-.357c0-.635.242-1.222.712-1.73.608-.657 1.336-.994 2.148-.996.445 0 .787.089 1.298.34.863.423 1.712 1.449 2.065 2.495.088.261.107.411.107.84 0 .451-.017.571-.125.885-.165.48-.415.853-.834 1.244-.593.554-1.421.86-1.998.74-.272-.057-.389-.023-.302.09l.883 1.08c1 1.217 1.083 1.326 1.083 1.415 0 .064-.614.603-.744.653-.032.013-.085-.01-.118-.049zm-.657-4.132a2 2 0 0 0 .892-.51c.736-.688.822-1.634.236-2.607-.208-.344-.685-.83-.993-1.01-.21-.123-.269-.135-.749-.15l-.522-.016-.367.185c-.458.23-.736.516-.962.992-.159.332-.167.374-.167.804.001.398.017.487.126.722.124.268.457.713.846 1.132.426.458 1.026.623 1.66.458zm84.134 3.444c-.016-.016-.017-.079-.002-.139l.028-.11-.165.07c-.2.083-.194.147-.073-.79.05-.386.09-.758.09-.825 0-.091-.117-.246-.48-.635-.497-.53-.725-.801-.694-.824.01-.007.375-.08.812-.16.436-.082.826-.158.866-.169.04-.01.263-.367.495-.79.233-.424.44-.771.46-.771.02 0 .066.057.103.128.036.07.098.155.138.187.039.033.214.32.39.64.368.673.261.608 1.303.799.508.093.687.142.67.185l-.051.125c-.02.048 0 .069.064.069.267 0 .242.048-.355.679-.476.504-.59.649-.59.755 0 .072.041.447.091.834.05.387.091.719.091.738 0 .076-.164.018-.868-.31l-.738-.342-.735.343c-.745.347-.797.366-.85.313zm-34.774-2.774c-.079-.043-.328-.24-.553-.44-.35-.308-.401-.372-.352-.43.032-.039.697-.823 1.48-1.743.78-.92 1.637-1.943 1.901-2.273.265-.33.498-.606.519-.612.068-.02.75.59.822.733.093.187.091.2-.058.393-.228.293-.233.284.161.251.42-.034.73.022 1.087.196.272.133.664.453.628.511-.012.02.008.062.045.092.104.087.087.126-.19.449l-.275.32c-.009.012-.055-.003-.104-.033a.357.357 0 0 0-.138-.055c-.028 0-.151-.09-.273-.2-.277-.249-.548-.324-1.028-.283a1.454 1.454 0 0 0-.66.198c-.402.21-.541.353-1.779 1.82-.549.65-1.019 1.183-1.044 1.183a.684.684 0 0 1-.189-.077zm-2.38-2.003c-1.34-.451-2.502-1.253-2.981-2.057-.522-.876-.541-1.834-.057-2.824.479-.977 1.28-1.663 2.227-1.907.471-.122 1.23-.075 1.713.105.486.18.858.41 1.223.751.755.706 1.096 1.532.967 2.337-.031.191-.117.515-.191.72-.129.356-.421.873-.533.942-.085.052-.346-.096-2.225-1.263-1.322-.82-1.806-1.1-1.848-1.065a1.443 1.443 0 0 0-.18.303c-.11.224-.127.324-.143.785-.017.498-.01.545.106.804.131.293.478.663.824.882.395.25 1.015.533 1.373.63.348.092.37.105.345.204-.017.069-.006.106.031.106.16.002.18.07.101.344-.074.26-.137.382-.196.38-.016 0-.266-.08-.556-.177zm1.698-3.622c.133-.28.145-.344.145-.76 0-.388-.015-.482-.105-.652a1.852 1.852 0 0 0-.72-.69c-.29-.14-.921-.144-1.272-.008-.247.096-.741.427-.897.6-.077.085-.08.105-.022.141l1.36.855c.711.447 1.31.814 1.33.816.02.002.101-.134.181-.302zm-43.62 1.94c-1.309-.353-2.265-1.346-2.586-2.686-.11-.458-.12-1.13-.023-1.513.248-.978 1.007-1.79 2.033-2.175 1.188-.446 2.3-.057 3.184 1.115.404.536.605.932.516 1.018-.034.032-.94.532-2.012 1.112-1.073.58-1.969 1.07-1.99 1.088-.127.115.32.59.74.786.373.176.877.214 1.32.101.564-.144 1.34-.607 1.887-1.127l.324-.308.368.394c.203.216.368.408.368.426 0 .085-.779.762-1.18 1.024-1.089.714-2.109.972-2.949.745zm.144-3.822c.794-.43 1.444-.802 1.444-.828 0-.097-.349-.5-.566-.656-.22-.158-.236-.162-.64-.16-.387.002-.439.013-.758.17-.425.21-.708.48-.898.856-.12.238-.15.356-.168.68-.024.433.012.72.091.72.028 0 .701-.352 1.495-.782zm36.248 2.376c-.3-.123-.817-.37-.817-.391 0-.006.03-.099.068-.205.127-.36.117-.369-.284-.241-.646.206-1.307.126-2.11-.255-.92-.438-1.5-1.145-1.687-2.054-.118-.582-.083-1.085.12-1.715.381-1.19 1.226-2.044 2.287-2.316 1.145-.293 2.442.179 3.138 1.14.142.198.272.359.287.359.015 0 .298-.7.628-1.554.33-.855.617-1.572.638-1.594.021-.022.28.055.588.175.477.185.547.225.523.3-.02.065.003.098.094.132.067.026.11.071.098.103-.424 1.062-2.92 7.571-3.011 7.85-.089.271-.15.394-.197.391a2.375 2.375 0 0 1-.363-.125zm-1.078-1.818c.3-.115.708-.465.872-.747.06-.102.227-.493.371-.867.25-.646.263-.702.264-1.089.001-.33-.018-.451-.101-.632-.238-.517-.647-.847-1.159-.936-.958-.165-1.772.313-2.288 1.346-.267.536-.35.924-.321 1.51.022.455.155.797.404 1.042.172.169.588.394.847.46.27.068.819.025 1.11-.087zm-29.547.81c-.59-.193-1.092-.602-1.303-1.062-.615-1.343.33-2.637 2.535-3.473.53-.2.521-.182.288-.612-.216-.399-.355-.476-.852-.476-.287 0-.484.027-.685.094-.38.127-.97.462-1.26.714-.2.177-.247.198-.32.153a.367.367 0 0 0-.142-.055c-.032-.001-.165-.143-.296-.315l-.24-.313.33-.279c.954-.806 2.278-1.256 3.156-1.071.431.09.746.263 1.054.577.416.426.62.857 1.196 2.537.286.836.595 1.692.685 1.902.09.21.155.405.145.433-.01.027-.207.11-.437.183-.387.123-.42.128-.461.056a.167.167 0 0 0-.131-.078c-.053 0-.117-.058-.162-.148-.14-.276-.159-.279-.268-.044-.426.92-1.897 1.583-2.832 1.277zm1.366-1.193c.37-.177.689-.481.852-.814.218-.447.222-.617.026-1.206-.093-.277-.186-.515-.209-.528-.06-.037-.829.291-1.222.522a3.29 3.29 0 0 0-.574.437c-.303.31-.395.55-.372.967.02.366.103.51.383.675.249.147.746.123 1.116-.053zm20.995-.324c-1.427-.233-2.532-.938-3.001-1.914a2.907 2.907 0 0 1-.27-1.674c.184-1.453.954-2.487 2.165-2.905.32-.111.429-.126.93-.126.452 0 .64.02.928.102 1.006.284 1.658.913 2.003 1.935.103.305.123.445.127.884.004.487-.058.937-.15 1.085-.034.052-.418-.008-2.274-.36-1.654-.313-2.252-.41-2.307-.375-.062.04-.074.133-.072.563.002.447.017.544.108.72.138.271.476.586.794.742.553.27 1.568.43 2.254.353.407-.046.447-.031.448.165 0 .057.03.102.064.102.089 0 .119.102.119.407 0 .208-.017.271-.08.298-.153.065-1.382.064-1.786-.002zm1.57-4.224c-.002-.445-.014-.518-.122-.724-.274-.526-.686-.724-1.438-.693-.387.016-.467.035-.713.167-.152.081-.36.234-.462.338-.205.21-.519.705-.494.779.015.044 3.087.66 3.184.639.027-.006.045-.211.044-.506zM69.8 122.263c-.038-.1-.07-.12-.16-.102-.062.012-.112.014-.112.004 0-.107-.756-5.003-.842-5.454a6.481 6.481 0 0 1-.102-.618c.039-.032 1.001-.158 1.037-.136.024.015.043.062.043.105s.036.128.08.19c.043.061.1.202.124.313l.045.201.119-.178c.292-.441.782-.816 1.316-1.006.264-.094.443-.124.84-.139.711-.026 1.11.096 1.577.48.402.333.745.92.933 1.6.122.44.654 3.948.606 3.996-.033.033-.81.176-.956.177-.032 0-.078-.052-.102-.115-.035-.093-.064-.109-.157-.086-.063.016-.114.015-.114-.003 0-.103-.558-3.709-.597-3.857-.075-.286-.294-.681-.447-.81-.2-.168-.46-.226-.908-.2-.67.037-1.2.379-1.499.967-.236.466-.232.613.09 2.733.152 1.007.267 1.846.254 1.867-.013.02-.192.062-.398.092-.206.03-.43.065-.499.079-.104.02-.131.004-.17-.1zm10.629-.692c-.314-.012-.385-.03-.431-.104-.037-.059-.106-.089-.204-.089-.13 0-.147-.014-.147-.125 0-.068.06-1.135.136-2.37.075-1.236.136-2.344.136-2.462v-.216h-.17c-.232-.001-.375-.044-.375-.113 0-.031-.083-.07-.187-.086-.18-.03-.185-.035-.158-.17.015-.078.028-.264.028-.414v-.273l.47.024.47.024.03-.37c.1-1.223.625-2.038 1.512-2.35.553-.194 1.21-.197 1.817-.009.2.063.238.092.238.183 0 .074.036.122.115.152.123.047.123.016-.001.498-.06.23-.03.222-.566.14-.414-.063-.683-.029-.965.122-.25.134-.504.472-.605.808-.086.285-.137.86-.08.895.025.015.334.041.687.059l.644.032v.118c0 .08.034.134.102.164.093.041.101.072.09.339-.006.166-.037.319-.07.352-.049.048-.194.05-.759.013-.55-.037-.71-.035-.75.01-.034.037-.104.95-.2 2.598-.082 1.408-.168 2.566-.193 2.598-.025.03-.09.052-.143.047a15.37 15.37 0 0 0-.471-.024zm48.754-.45c-.016-.015-.017-.078-.002-.138l.028-.11-.165.069c-.202.084-.198.13-.074-.834.05-.387.091-.747.091-.8 0-.062-.214-.326-.589-.727-.324-.346-.582-.649-.575-.674.008-.025.398-.118.866-.208.527-.102.867-.188.893-.228.023-.035.218-.385.435-.778.216-.393.405-.714.419-.713.052.004.307.39.638.969l.34.595.814.16c.746.145.929.212.8.292-.085.053-.05.115.063.115.06 0 .124.021.14.047.016.026-.228.32-.542.653-.66.701-.62.562-.482 1.613.047.361.076.672.064.692-.04.064-.109.039-.847-.307l-.731-.343-.73.343c-.73.342-.8.368-.854.313zm-64.434-8.711c-.016-.017-.017-.08-.002-.14l.028-.11-.165.07c-.202.084-.198.13-.074-.835.05-.386.091-.75.091-.806 0-.067-.15-.262-.436-.567-.49-.52-.765-.845-.739-.868.01-.009.314-.07.676-.138.362-.068.75-.143.865-.167l.206-.044.423-.77c.233-.423.44-.769.462-.769.02 0 .068.058.104.128.037.07.099.155.138.188.04.032.216.321.393.642.37.67.244.594 1.3.79.655.122.794.18.646.272-.067.041-.009.113.091.113.047 0 .099.02.114.046.016.025-.228.316-.54.647-.468.492-.57.624-.571.736 0 .075.04.453.09.84.05.386.09.718.09.737 0 .076-.16.019-.853-.306-.399-.188-.736-.34-.75-.34-.013 0-.353.152-.756.34-.755.35-.781.36-.831.31zm53.983-.13a.228.228 0 0 1 .002-.141c.02-.054.009-.066-.045-.045-.04.015-.118.04-.174.053l-.1.026.11-.886.11-.886-.5-.535a26.362 26.362 0 0 1-.616-.675l-.115-.14.78-.148c.43-.08.832-.162.895-.18.088-.026.208-.206.544-.815.413-.75.434-.778.5-.684.037.054.112.146.166.204.054.059.243.372.42.695l.323.588.305.067c.168.037.555.114.86.171.508.096.55.11.488.179-.094.103-.087.12.078.176l.144.05-.158.17-.576.614c-.487.518-.47.442-.33 1.507.046.35.067.653.047.675-.021.023-.362-.112-.778-.307-.407-.19-.764-.346-.792-.346-.03 0-.38.154-.779.34-.4.188-.739.341-.754.341-.016 0-.04-.03-.055-.068zm-12.682-5.139a.945.945 0 0 1 .004-.142c.007-.09-.006-.103-.074-.075-.181.075-.242.08-.242.018 0-.034.04-.378.09-.765.05-.387.091-.76.091-.831 0-.101-.128-.268-.612-.794l-.612-.666.899-.175.899-.174.402-.733c.22-.404.421-.76.446-.792.033-.044.071-.013.153.125.06.1.125.183.144.183.019 0 .185.274.368.61.385.7.227.605 1.369.823.664.127.664.127.6.227-.062.094-.058.102.072.148.076.026.138.06.138.073 0 .014-.255.296-.567.627-.41.436-.566.631-.567.714 0 .062.04.43.09.817.105.815.105.816.045.816-.025 0-.375-.153-.777-.34-.402-.187-.755-.34-.783-.34-.028 0-.375.153-.772.34-.726.343-.794.369-.804.306zm-26.055-.766c-.016-.017-.017-.08-.002-.14l.028-.11-.165.07c-.202.084-.198.13-.073-.835.05-.387.09-.75.09-.807 0-.067-.13-.24-.375-.499-.575-.606-.804-.864-.804-.904 0-.02.372-.105.828-.19.455-.086.85-.163.878-.173.028-.01.24-.364.473-.787.232-.423.434-.768.449-.766.06.006.335.42.636.958.373.665.266.6 1.307.794.5.092.686.144.67.185-.013.031-.036.087-.05.125-.021.05.002.068.087.068.064 0 .129.02.145.047.016.025-.228.319-.542.652-.459.486-.57.63-.57.736 0 .071.04.447.09.834.05.386.09.718.09.737 0 .078-.175.016-.87-.31l-.734-.342-.736.343c-.746.347-.797.366-.85.314zm13.673-1.332c0-.146-.043-.165-.189-.087-.05.027-.1.04-.11.03-.01-.01.033-.411.094-.893l.112-.876-.493-.528c-.673-.72-.752-.818-.677-.842.033-.01.418-.084.854-.164.594-.108.813-.166.87-.23.04-.047.253-.411.47-.81l.397-.726.126.198c.069.109.145.21.17.225.024.015.183.283.354.595.355.653.259.592 1.22.771.859.16.81.142.72.277-.07.107-.068.11.044.11.203 0 .183.089-.09.387l-.574.63-.309.338.103.841c.057.462.091.852.077.866-.014.014-.353-.128-.753-.316-.4-.187-.773-.34-.828-.34-.055 0-.426.152-.826.34-.399.187-.734.34-.744.34-.01 0-.018-.062-.018-.136z" style="fill:#0053b5;stroke-width:.535939" transform="translate(-36.176 -99.917)"/>
</svg>
