<svg xmlns="http://www.w3.org/2000/svg" viewBox="0 0 76.43 90">
  <path d="M27.638 87.138C.166 75.84-8.787 40.112 9.752 15.761c4.034-5.3 14.036-11.754 21.591-13.934C43.311-1.627 59.845.077 59.845 4.763c0 2.055-.85 2.312-7.653 2.312-11.257 0-19.816 3.595-27.952 11.739-7.858 7.866-10.579 14.636-10.579 26.323 0 15.55 8.563 29.467 22.26 36.182 5.564 2.727 8.318 3.311 15.635 3.316 4.885.003 10.147-.45 11.694-1.01 1.883-.679 2.56-.606 2.05.22-.42.68-3.704 2.335-7.298 3.68-9.188 3.437-21.446 3.281-30.364-.387zM41.49 73.51c-19.117-8.87-23.702-37.348-8.203-50.955 5.345-4.694 15.706-7.748 21.59-6.365 4.131.971 4.397 1.317 4.748 6.179.33 4.573.13 5.053-1.776 4.286-3.792-1.526-10.758-2.13-15.125-1.31-5.154.966-12.258 6.954-14.436 12.168-3.577 8.56-.173 20.63 7.07 25.072 5.231 3.21 13.786 4.322 16.686 2.171 3.661-2.715 1.607-5.575-4.003-5.575h-4.774V40.233h25.952l3.246 5.54c4.29 7.32 5.303 18.23 2.032 21.907-6.587 7.408-23.258 10.353-33.007 5.83z" style="fill:#0053b8;fill-opacity:1;stroke-width:1.1842"/>
</svg>
