<svg xmlns="http://www.w3.org/2000/svg" xml:space="preserve" viewBox="0 0 123.072 100">
  <path d="M60.746 0c-27.61.001-49.998 22.39-49.998 50 .008 4.502.637 7.93 1.838 12.18L0 68.662 8.412 79.57 6.7 97.88l23.434-8.124C39.077 97.195 49.119 99.983 60.748 100h.002c11.527-.023 22.672-4.056 31.58-11.36l24.32 9.415-2.644-18.112 9.068-11.562-13.945-6.195c1.03-3.981 1.592-8.07 1.62-12.182V50c0-27.608-22.392-49.999-50.001-50h-.002zm0 .969h.002c27.085 0 49.03 21.946 49.031 49.029a49.004 49.004 0 0 1-1.668 12.348l-.107.398 13.539 6.018-8.555 10.91 2.465 16.88-22.978-8.894.19.572-.636-.556A49.029 49.029 0 0 1 60.75 99.03c-11.579-.017-21.416-2.75-30.236-10.183l-.21-.178-22.5 7.8 1.608-17.189L1.48 68.992l12.24-6.305-.11-.382C12.342 57.903 11.725 54.56 11.717 50v-.002C11.717 22.913 33.66.97 60.747.968zm.35 4.832c-24.67 0-44.717 20.047-44.717 44.717 0 5.275.923 10.337 2.605 15.039a143.082 143.082 0 0 0-12.252 4.74l6.514 8.5-2.1 13.23c7.035-2.961 14.17-5.355 21.375-7.132 7.753 6.453 17.715 10.34 28.575 10.34 11.066 0 21.193-4.042 29.006-10.717 7.183 1.738 14.373 4.172 21.546 7.363l-2.427-13.096 6.705-8.78a152.105 152.105 0 0 0-12.637-4.698 44.548 44.548 0 0 0 2.522-14.79c0-24.67-20.045-44.716-44.715-44.716zm0 4.416c22.284 0 40.3 18.016 40.3 40.3 0 4.739-.821 9.28-2.318 13.5-26.1-7.556-51.819-7.021-75.896.206a40.298 40.298 0 0 1-2.389-13.705c0-22.285 18.018-40.301 40.303-40.301zm.074 3.045c-.36 0-.452.018-.647.113v.002h-.002c-.277.151-.509.378-.666.652v.002h-.001c-.33.649-.303 1.64.068 2.217.204.344.54.588.932.674.23.054.47.048.697-.018.67-.171 1.088-.774 1.16-1.636.068-.833-.284-1.59-.897-1.893-.196-.095-.284-.113-.644-.113zm-2.006.07-.02.002-.07.006-.261.021-.848.076-.86.079c-.112.01-.205.02-.271.025l-.078.006-.03.002a.106.106 0 0 0-.078.04.156.156 0 0 0-.027.061.688.688 0 0 0-.016.166v.276l.284-.03a13.304 13.304 0 0 1 .783-.062c.075.928.159 1.856.25 2.783v.002l.033.276.285-.036c.077-.007.152-.019.227-.035l.033-.008.016-.029.005-.021.002-.006V16.908c0-.006 0-.015-.002-.025l-.007-.092-.028-.328c-.024-.277-.06-.657-.097-1.074a52.598 52.598 0 0 1-.094-1.139 6.262 6.262 0 0 1-.014-.318c.102-.013.204-.024.307-.03.176-.012.391-.03.484-.045l.229-.03-.031-.247-.026-.209-.017-.017-.041-.022h-.022zm4.488.037-.025.002-.018.018-.011.015-.006.01a.156.156 0 0 0-.006.016c-.003.009-.004.018-.006.029l-.016.082c-.01.067-.02.158-.033.268a37.183 37.183 0 0 0-.168 1.939 1.319 1.319 0 0 0-.002.172c.034.311.11.554.248.742.139.188.339.315.602.4l.01-.072h.002l-.008.074c.005.002.01.001.015.002h.004c.17.037.346.053.52.041a1.86 1.86 0 0 0 .35-.029.74.74 0 0 0 .236-.105l.002-.002c.267-.185.457-.46.537-.774a4.29 4.29 0 0 0 .088-.508 32.81 32.81 0 0 0 .178-1.623c.008-.107.015-.197.017-.263a1.08 1.08 0 0 0 0-.082c0-.011-.002-.02-.004-.03 0-.005-.001-.012-.004-.02a.164.164 0 0 0-.006-.013l-.015-.017-.01-.01-.014-.006a.731.731 0 0 0-.226-.043h-.004a.45.45 0 0 0-.178.006.138.138 0 0 0-.068.05c-.016.024-.02.046-.024.067a1.436 1.436 0 0 0-.015.113l-.028.24-.074.737c-.06.595-.094.922-.133 1.123a.854.854 0 0 1-.146.38c-.315.477-1.09.351-1.229-.194a1.299 1.299 0 0 1-.035-.413c.007-.201.035-.508.088-1.033.065-.632.101-.918.088-1.076a.288.288 0 0 0-.025-.103.154.154 0 0 0-.069-.069c-.053-.026-.097-.023-.148-.03a.695.695 0 0 0-.23-.01zm-2.644.418a.84.84 0 0 1 .324 0 .917.917 0 0 1 .008.002.844.844 0 0 1 .31.13h.002c.325.218.485.737.461 1.249-.023.51-.23.997-.568 1.162h-.002a.91.91 0 0 1-.777-.023c-.347-.188-.53-.594-.53-1.221 0-.428.066-.688.227-.928v-.002a.85.85 0 0 1 .545-.37zm6.346.03a.126.126 0 0 0-.063.015.145.145 0 0 0-.053.057.88.88 0 0 0-.072.216c-.055.221-.138.636-.295 1.432l.002-.002c-.12.562-.22 1.129-.303 1.697l-.007.055.05.022c.078.032.16.051.244.056l.254.035.145-.763.121-.637.047.004c.056.006.193.028.297.049l.15.029.248.738c.08.278.18.55.299.813l.012.023.023.012a.685.685 0 0 0 .178.06l.084.016v-.006c.045.008.095.02.13.022.03 0 .056 0 .083-.008a.114.114 0 0 0 .045-.022.093.093 0 0 0 .03-.066l-.001-.018c0-.003-.001-.003-.002-.005l-.004-.018-.014-.047-.052-.16a40.677 40.677 0 0 0-.172-.506l-.266-.783c.006 0 .02-.005.072-.014l.002-.002c.522-.084.858-.526.858-1.113a.903.903 0 0 0-.07-.365c-.112-.237-.387-.446-.694-.543a11.873 11.873 0 0 0-1.074-.242 1.604 1.604 0 0 0-.232-.032zm-12.516.017-.09.02-.215.044c-.175.036-.408.082-.656.131a13.22 13.22 0 0 0-.738.159.719.719 0 0 0-.149.052.153.153 0 0 0-.049.035.11.11 0 0 0-.025.067v.008l.002.005c.1.56.207 1.12.322 1.676.09.442.17.845.229 1.139l.068.351.02.096.004.026.002.005v.022l.019.021h.002v.002l.002.002.01.008c.003.002.005.005.008.006.01.006.017.007.025.01a.184.184 0 0 0 .055.008c.022 0 .027-.001.045-.004l.068-.014.228-.043a93.448 93.448 0 0 0 1.323-.266c.09-.018.165-.033.218-.045.027-.005.048-.011.063-.015l.02-.004c.002 0 .004 0 .007-.002l.008-.004.008-.004.01-.008.017-.02.006-.013a.079.079 0 0 0 .004-.017v-.024a1.877 1.877 0 0 0-.064-.334l-.008-.021-.006-.012a.179.179 0 0 0-.012-.016l-.025-.017-.014-.004a.101.101 0 0 0-.016-.002l-.021.002a.754.754 0 0 0-.053.006 23.548 23.548 0 0 0-.707.133l-.002.001c-.205.044-.393.078-.533.1-.07.011-.127.018-.166.022h-.014V17.1a11.343 11.343 0 0 1-.115-.506 32.311 32.311 0 0 0-.078-.389c-.01-.052-.022-.096-.03-.129l-.001-.008a.96.96 0 0 1 .09-.029c.1-.028.255-.063.455-.103.22-.038.44-.088.654-.15l.025-.009.016-.023a.187.187 0 0 0 .012-.035.169.169 0 0 0 .002-.024c0-.014-.002-.028-.004-.045a1.255 1.255 0 0 0-.045-.224c-.005-.017-.01-.033-.016-.047-.006-.014-.008-.026-.027-.045a2.466 2.466 0 0 0-.035-.02.268.268 0 0 0-.037-.002 3.767 3.767 0 0 0-.186.025c-.115.02-.27.047-.437.079h-.002l-.002.002a4.804 4.804 0 0 1-.567.094 11.279 11.279 0 0 1-.17-.875l.008-.002c.038-.01.092-.022.158-.037a41.812 41.812 0 0 1 1.018-.223l.16-.037a1.108 1.108 0 0 0 .066-.02c.003 0 .006-.002.01-.004a.986.986 0 0 0 .021-.014l.018-.019.002-.025a.738.738 0 0 0-.011-.213.418.418 0 0 0-.043-.156.122.122 0 0 0-.063-.053.123.123 0 0 0-.072 0h-.004zm12.867.566c.107.012.214.028.318.053h.002c.32.065.532.142.653.233.12.09.16.188.156.343v.002a.618.618 0 0 1-.246.5l-.006.004a.342.342 0 0 1-.121.053c-.05.01-.119.013-.229.012a3.09 3.09 0 0 1-.523-.059 1.593 1.593 0 0 1-.195-.049c-.014-.005-.02-.01-.028-.013l.004-.028.026-.14a28.293 28.293 0 0 1 .19-.91zm2.602.047-.446 1.696a161.342 161.342 0 0 0-.394 1.529l-.026.105-.005.032-.002.01a.358.358 0 0 0-.002.017c0 .032.014.052.027.066a.185.185 0 0 0 .041.035c.03.02.067.038.107.05.066.018.117.032.164.038a.216.216 0 0 0 .137-.02.209.209 0 0 0 .088-.105c.019-.043.034-.095.05-.16v-.002l.438-1.644.389-1.469-.156-.064-.004-.002a1.083 1.083 0 0 0-.223-.073h-.002l-.181-.039zm-19.623.385a.313.313 0 0 0-.065.006.87.87 0 0 0-.328.137.1.1 0 0 0-.037.078v.008l.002.01c.286 1.07.583 2.138.892 3.202v.004l.002.002a.148.148 0 0 0 .131.096h.004l.014-.002.01-.002.021-.004.065-.015.21-.057a68.304 68.304 0 0 0 1.225-.348c.084-.024.153-.047.203-.062l.06-.02c.008-.002.014-.003.02-.006.003 0 .006-.002.01-.004l.008-.003.008-.006.004-.004a.38.38 0 0 0 .011-.014l.006-.014.006-.015.002-.016-.002-.021-.008-.045a3.242 3.242 0 0 0-.072-.297l-.008-.02a.2.2 0 0 0-.01-.015l-.013-.016-.016-.008-.027-.006-.012.002h-.006l-.006.002-.011.004-.045.012-.157.043-.511.146a37.458 37.458 0 0 1-.657.184l-.013-.05a92.612 92.612 0 0 1-.09-.315l-.29-1.022a96.779 96.779 0 0 0-.392-1.347l-.029-.09a.804.804 0 0 0-.01-.028l-.004-.011a.097.097 0 0 0-.004-.008c0-.002-.003-.006-.004-.006l-.01-.01v-.002l-.003-.002c-.03-.025-.053-.024-.074-.025zm21.578.238c-.401.047-.72.292-.832.68a.795.795 0 0 0 .05.615c.105.203.297.414.6.686.159.137.308.286.445.445.139.198.075.498-.14.635-.089.054-.129.061-.309.049a1.136 1.136 0 0 1-.863-.512l-.174-.254-.227.135a1.443 1.443 0 0 0-.166.117l-.015.02a.097.097 0 0 0-.01.015l-.006.014-.004.021v.018l.01.017c.051.093.11.178.176.26.276.373.692.618 1.152.68.58.08 1.073-.208 1.225-.725v-.002a.897.897 0 0 0-.055-.68h.002c-.016-.033-.039-.06-.074-.1a4.292 4.292 0 0 0-.135-.151 12.166 12.166 0 0 0-.392-.4l-.51-.493v-.162c0-.185.07-.295.19-.355.118-.06.304-.065.534.011a.965.965 0 0 1 .38.268l.001.002.26.265.182-.109a.865.865 0 0 0 .101-.072.307.307 0 0 0 .037-.037.136.136 0 0 0 .016-.024c.003-.004.006-.009.008-.015a.164.164 0 0 0 .004-.026c0-.03-.01-.043-.018-.06-.008-.017-.017-.036-.03-.055a2.143 2.143 0 0 0-.332-.385c-.198-.175-.359-.251-.657-.314a1.33 1.33 0 0 0-.424-.022zm-23.293.483a1.056 1.056 0 0 0-.393.006h-.002a6.9 6.9 0 0 0-.71.218c-.149.052-.294.104-.41.149a1.683 1.683 0 0 0-.245.107.119.119 0 0 0-.049.074.251.251 0 0 0 .01.088c.016.07.05.18.121.38.14.398.422 1.15.957 2.581.02.055.028.097.053.14a.153.153 0 0 0 .06.061c.028.015.06.018.09.016.12-.008.281-.081.67-.227.578-.216.92-.404 1.09-.628a1.04 1.04 0 0 0 .146-1.03.868.868 0 0 0-.81-.55l-.068-.002c.198-.278.25-.64.087-.944a.96.96 0 0 0-.22-.293l-.006-.004-.004-.004a1.057 1.057 0 0 0-.367-.138zm25.82.34a.153.153 0 0 0-.035.002c-.007 0-.015 0-.024.003l-.013.008a.175.175 0 0 0-.016.012l-.01.012-.004.006-.005.011-.014.03c-.012.023-.028.055-.047.097l-.154.342a183.944 183.944 0 0 0-1.117 2.54c-.012.027-.019.042-.024.058v.004a.15.15 0 0 0 .043.136.51.51 0 0 0 .147.084v.002a.936.936 0 0 0 .191.055c.01 0 .02.002.031 0a.273.273 0 0 0 .033-.012l.014-.012.008-.007.004-.008.008-.01.011-.023.038-.077c.029-.061.067-.147.113-.25a73.064 73.064 0 0 0 .666-1.547c.062-.149.086-.22.12-.31l-.007.113-.058.838a207.755 207.755 0 0 0-.073 1.133c-.004.075-.008.122-.008.145l.004.02.004.013a.09.09 0 0 0 .012.017c.007.009.014.013.02.018a.93.93 0 0 0 .146.082h.002l.19.078.167-.185c.11-.121 1.006-1.07 1.412-1.495-.129.252-.357.748-.572 1.237-.114.26-.22.506-.297.691a6.571 6.571 0 0 0-.111.293l-.008.027v.018l.002.02.006.013.012.018.006.006.007.006c.055.035.113.065.172.091l.045.022.004-.004c.04.018.08.038.123.053l.063.021.027-.058a103.68 103.68 0 0 0 1.353-3.036l.08-.193-.273-.12-.006-.001a.867.867 0 0 0-.285-.09l-.014-.002-.013.004-.014.004-.008.006-.01.006-.017.013-.043.04c-.035.032-.08.08-.137.136a53.03 53.03 0 0 0-1.432 1.52c-.052.058-.06.063-.09.093l.018-.308.055-.79c.04-.569.082-1.151.092-1.243v-.002l.03-.211-.284-.12a1.237 1.237 0 0 0-.186-.07.398.398 0 0 0-.07-.013zm-26.156.175c.368-.046.62.36.42.68h-.002v.002c-.08.13-.22.219-.637.379l-.215.082-.039.016-.017-.045a19.603 19.603 0 0 1-.258-.694 1.739 1.739 0 0 1-.047-.16l-.002-.008.004-.002a5.292 5.292 0 0 1 .334-.123c.185-.06.392-.118.459-.127zm-2.485.438a.333.333 0 0 0-.06.012 1.153 1.153 0 0 0-.14.052 1.1 1.1 0 0 0-.134.067.339.339 0 0 0-.05.037c-.016.014-.04.027-.04.076v.014l.003.01c0 .004.002.007.003.011l.012.033.047.112c.042.098.107.25.205.472.197.446.521 1.175 1.037 2.327a.869.869 0 0 0 .098.167.131.131 0 0 0 .021.02.954.954 0 0 0 .031.016l.018.002h.01l.01-.004c.075-.02.148-.047.218-.08l.24-.108-.08-.185c-.092-.221-.423-.965-.736-1.659-.156-.347-.308-.68-.422-.93l-.136-.3-.041-.086-.012-.025-.004-.008c0-.002-.003-.004-.004-.006a.156.156 0 0 0-.008-.01l-.002-.002-.002-.002a.12.12 0 0 0-.013-.011l-.014-.006a.092.092 0 0 0-.021-.006.128.128 0 0 0-.034 0zm-1.502.81c-.618.006-1.176.346-1.34.868a.917.917 0 0 0 .452 1.091h.002a.892.892 0 0 0 .38.098c.178.012.438.009.895-.004.149-.004.266-.004.352.002a.557.557 0 0 1 .16.027.39.39 0 0 1 .195.258.518.518 0 0 1-.031.365c-.058.112-.29.286-.516.362a1.798 1.798 0 0 1-.754.013.114.114 0 0 0-.078.01.142.142 0 0 0-.049.053.527.527 0 0 0-.056.146c-.025.1-.046.172-.008.243.019.035.05.06.084.076a.666.666 0 0 0 .117.039l.09.023v-.029c.288.03.58.016.857-.072h.002c.622-.236 1.017-.742.948-1.256a1.15 1.15 0 0 0-.137-.377.949.949 0 0 0-.236-.297.767.767 0 0 0-.387-.172c-.165-.024-.385-.02-.75-.006-.377.015-.6.014-.729-.011-.128-.025-.159-.056-.203-.143v-.002a.444.444 0 0 1-.062-.262.427.427 0 0 1 .12-.234.88.88 0 0 1 .745-.28h.006c.075.004.129.007.176.007.046-.001.09-.005.129-.03a.188.188 0 0 0 .072-.107c.012-.04.02-.086.031-.147v-.002c.006-.03.013-.054.014-.082a.13.13 0 0 0-.035-.091.159.159 0 0 0-.082-.041c-.03-.007-.061-.012-.104-.018h-.002a1.716 1.716 0 0 0-.268-.018zm4.58.082a.57.57 0 0 1 .395.073.529.529 0 0 1 .217.322c.05.192.023.299-.131.467v.002c-.145.163-.27.234-.705.392H49c-.083.032-.161.06-.219.08l-.047.016c-.004-.01-.006-.01-.013-.03-.035-.085-.1-.26-.23-.607a6.686 6.686 0 0 1-.145-.431c.027-.013.057-.025.117-.047a8.016 8.016 0 0 1 .764-.237zm30.221.717-.004.002-.029.008a1.174 1.174 0 0 0-.02.016l-.01.011a116.94 116.94 0 0 0-1.674 2.76l-.058.104-.017.033c-.005.01-.007.012-.012.031v.033c0 .001.003.016.006.022a.27.27 0 0 0 .049.057c.025.022.058.046.1.076.082.058.194.131.314.205.24.147.503.295.644.345h.002c.118.041.24.07.364.088a.552.552 0 0 0 .312-.062c.238-.017.453-.102.664-.258a.55.55 0 0 0 .285-.147c.439-.438.706-1.012.715-1.543.004-.257-.017-.354-.123-.57-.17-.34-.475-.623-1.012-.945-.117-.07-.228-.135-.312-.182-.042-.023-.077-.04-.104-.054-.013-.007-.025-.014-.035-.018l-.013-.006c-.003 0-.006 0-.01-.002l-.008-.002-.012-.002h-.002zm-37.279.592a1.094 1.094 0 0 0-.586.125c-.278.108-.511.31-.656.57-.21.384-.18.765.084 1.075h.002a.85.85 0 0 0 .5.306c.208.041.464.026.832-.031.365-.056.606-.066.756-.03.149.037.213.107.263.253a.428.428 0 0 1 .022.273.595.595 0 0 1-.174.258c-.225.22-.475.309-.856.299l-.367-.01-.035.168a.668.668 0 0 0-.025.25.158.158 0 0 0 .049.09.177.177 0 0 0 .086.039l.007.002h.008l-.01-.002c.261.038.527.026.784-.035.272-.07.522-.21.724-.407.234-.217.366-.476.389-.742a1.046 1.046 0 0 0-.262-.767h-.002a.818.818 0 0 0-.51-.276c-.219-.036-.49-.02-.847.037h-.002a2.915 2.915 0 0 1-.574.057c-.129-.006-.2-.033-.254-.078a.38.38 0 0 1-.15-.268.435.435 0 0 1 .091-.285c.135-.185.413-.34.756-.344l.338-.005.017-.235-.002.008a.583.583 0 0 0 0-.215l-.002-.016-.007-.011-.02-.02-.014-.008-.017-.005c-.01-.003-.019-.007-.03-.008-.02-.003-.047-.004-.078-.006a3.872 3.872 0 0 0-.224-.006h-.004zm37.49.113c.008.003.013.003.024.008a2.426 2.426 0 0 1 .516.357l.001.002h.002c.2.164.307.417.285.674v.006c0 .26-.008.288-.154.584-.182.367-.47.69-.693.807l-.004.002c-.348.174-.657.14-1.114-.13l-.197-.118.645-1.065a139.19 139.19 0 0 1 .646-1.058l.043-.069zm2.674 1.121-.023.004a.571.571 0 0 0-.024.014l-.012.01-.02.023-.056.07a48.225 48.225 0 0 0-.771 1.082l-.953 1.376-.02.027-.205.293.242.16.205.13h.022l.039-.01.01-.007.005-.008a.823.823 0 0 0 .027-.035c.015-.018.035-.046.057-.078l.008-.01.219-.31.66-.945c.24-.346.48-.692.662-.957l.221-.327.064-.097.02-.03.006-.011.008-.014c.016-.043-.002-.068-.012-.086a.258.258 0 0 0-.035-.047 1.052 1.052 0 0 0-.223-.174c-.039-.022-.07-.043-.121-.043zm-42.596.133c-.017.007-.028.015-.045.026-.017.01-.039.025-.064.043a34.597 34.597 0 0 0-1.234.924c-.07.054-.126.1-.166.134l-.05.043c-.005.006-.01.01-.015.018-.003.003-.007.007-.012.015a.148.148 0 0 0-.005.018l-.002.017.003.024.006.016.004.007.012.018.037.053.129.181c.107.15.253.352.412.569.32.433.77 1.04.994 1.35l.13.179v-.01c.059.08.125.17.171.229a3.91 3.91 0 0 0 .133.16l.015.014.014.01.012.003.025.006.014-.002.01-.002a.085.085 0 0 0 .01-.004l.013-.008a3.355 3.355 0 0 0 .123-.08c.078-.053.185-.132.317-.226.262-.19.617-.447.996-.729l.26-.195-.149-.195-.113-.155h-.002l-.026-.021-.023-.008-.024.002-.017.006c-.008.003-.012.006-.018.01a5.408 5.408 0 0 0-.188.125c-.119.084-.282.202-.46.334l-.586.433-.295-.4h.002l-.246-.338-.096-.135a.664.664 0 0 1 .063-.06 5.17 5.17 0 0 1 .353-.274l.524-.383.002-.002a.1.1 0 0 0 .03-.09.222.222 0 0 0-.017-.064.681.681 0 0 0-.074-.127.64.64 0 0 0-.096-.11.202.202 0 0 0-.056-.036c-.023-.01-.065-.016-.098.01a29.762 29.762 0 0 1-.914.654c-.021.014-.036.021-.05.031a12.95 12.95 0 0 1-.458-.629l-.058-.084v-.002c.02-.02.052-.053.097-.092a7.61 7.61 0 0 1 .403-.314l.61-.451a.128.128 0 0 0 .046-.057.135.135 0 0 0 .002-.08.476.476 0 0 0-.082-.146.703.703 0 0 0-.096-.11.232.232 0 0 0-.05-.035.096.096 0 0 0-.085-.008h-.002zm43.848.762-.018.002-.015.008s-.012.007-.014.01l-.006.003-.008.01-.021.024c-.017.02-.04.046-.068.082a111.259 111.259 0 0 0-.986 1.236l-1.093 1.387.237.183v-.002c.082.066.123.104.181.121.03.009.07.003.096-.013a.177.177 0 0 0 .053-.053v-.002l.15-.191.297-.377.356-.451.103.08c.08.06.158.124.234.189v-.002l.05.045-.116.79c-.068.454-.117.833-.117.833l-.006.04.031.024c.059.049.118.098.178.145l.117.09v-.012c.03.02.057.043.088.06l.084.05.022-.096c.057-.249.1-.5.128-.754v-.004c.074-.527.107-.778.131-.86.01.006.012.007.04.018l.001.002h.004c.24.08.498.073.733-.017l.004-.002.005-.002c.248-.146.45-.36.58-.616v-.003c.146-.316.076-.662-.189-.998a2.145 2.145 0 0 0-.246-.237 12.748 12.748 0 0 0-.772-.615 2.257 2.257 0 0 0-.13-.09.403.403 0 0 0-.05-.025.113.113 0 0 0-.048-.01zm.15.693.276.221c.193.155.324.28.402.387a.436.436 0 0 1 .102.273.675.675 0 0 1-.293.473.62.62 0 0 1-.54.004 3.088 3.088 0 0 1-.603-.45l-.027-.03c.119-.16.24-.317.363-.471l.32-.407zm-45.972.53-.362.025c-.52.05-.971.38-1.175.861-.09.193-.108.293-.106.606v.004c-.017.363.092.718.313 1.008.316.472.791.857 1.24.98h.002c.86.221 1.725-.35 1.861-1.227v-.002a.87.87 0 0 0 .012-.193.127.127 0 0 0-.03-.072.109.109 0 0 0-.078-.033h.01c-.036-.005-.119-.014-.19-.026l-.21-.033-.035.272c-.055.473-.544.861-.98.794-.373-.056-.754-.327-1.016-.671-.263-.345-.402-.758-.325-1.077a.896.896 0 0 1 .819-.677h.25v-.54zm48.29.795-.032.01-.002.001-.012.01-.01.008-.021.021-.077.078-.26.276c-.214.229-.502.539-.816.879l-1.191 1.289.33.306.71.66v.003l.024.021a19.725 19.725 0 0 0 .436.393l.035.027.014.01.01.006.011.003.022.004h.021l.018-.011a.753.753 0 0 0 .156-.137l.004-.004.17-.176-.291-.277h-.002c-.134-.13-.397-.373-.588-.549l-.297-.27.373-.396.373-.396.094.078c.076.066.296.264.48.435l.389.36.168-.17.002-.002a.732.732 0 0 0 .13-.162l.01-.018v-.02l-.001-.023-.006-.012-.006-.01a.195.195 0 0 0-.012-.015c-.008-.01-.019-.02-.031-.033a18.746 18.746 0 0 0-.438-.42l-.416-.387.3-.33v-.002c.1-.117.209-.227.32-.334.182.15.36.305.53.469l.612.566.168-.168a.418.418 0 0 0 .104-.133.163.163 0 0 0-.016-.14c-.02-.032-.049-.061-.094-.108a22.897 22.897 0 0 0-1.117-1.023 4.504 4.504 0 0 0-.16-.13.715.715 0 0 0-.078-.052.205.205 0 0 0-.02-.005h-.02zm-50.657 1.21c-.054-.013-.097-.002-.178.01-.305.035-.59.17-.813.381h-.002a1.55 1.55 0 0 0-.44 1.39v.003c.146.67.783 1.374 1.46 1.609.376.13.788.112 1.152-.047l.002-.002h.002c.49-.251.796-.684.832-1.181v-.002c.009-.124.016-.186 0-.246a.146.146 0 0 0-.053-.08c-.025-.018-.05-.024-.072-.03a.921.921 0 0 0-.207-.03c-.025 0-.049.001-.078.01a.136.136 0 0 0-.074.065c-.028.058-.03.117-.04.232v.006a.747.747 0 0 1-.251.551l-.002.002-.002.002c-.209.217-.298.254-.615.254-.248 0-.292-.008-.516-.12-.345-.168-.72-.545-.873-.868-.149-.314-.16-.662-.043-.885.168-.292.467-.483.803-.512.017 0 .035 0 .056-.008a.116.116 0 0 0 .06-.058c.022-.052.008-.087-.003-.14a1.245 1.245 0 0 1-.021-.177c0-.02 0-.042-.012-.07a.12.12 0 0 0-.072-.059zm52.6 1.258c-.431.039-.873.261-1.27.653-.385.378-.6.806-.635 1.226-.034.42.115.829.445 1.16h.002v.002c.175.193.406.325.66.381.105.029.214.044.323.045h.003c.03-.002.054-.002.08-.01a.142.142 0 0 0 .077-.052c.036-.054.033-.105.039-.19l.017-.242-.248-.035c-.35-.053-.6-.235-.73-.48s-.137-.557.013-.878a2.31 2.31 0 0 1 .846-.861l.002-.002c.25-.122.467-.17.658-.148a.87.87 0 0 1 .532.277c.193.191.26.342.26.57 0 .032-.002.058.003.086a.135.135 0 0 0 .053.086c.06.04.113.027.21.027h.276l-.033-.332v-.001a1.267 1.267 0 0 0-.404-.84 1.457 1.457 0 0 0-1.18-.442zm-55.663 1.442-.18.209a2.14 2.14 0 0 0-.107.134c-.014.02-.028.037-.037.053-.005.008-.008.017-.012.026l-.006.015a.202.202 0 0 0-.004.024.93.93 0 0 0 .004.023l.002.008.006.012.016.03c.013.025.03.057.054.098a100.608 100.608 0 0 0 .852 1.438 154.391 154.391 0 0 0 .861 1.408l.059.092.017.025.008.01a.14.14 0 0 0 .008.008l.012.008.011.008.026.003h.03l.019-.017c.107-.098.2-.211.279-.334l.012-.018v-.021a.953.953 0 0 0-.004-.024c-.001-.004-.003-.005-.004-.007l-.006-.014c-.005-.01-.01-.022-.018-.035l-.062-.106a24.93 24.93 0 0 0-.203-.332l-.26-.412.375-.435c.11-.131.216-.249.295-.33.04-.041.073-.073.096-.092.002-.003.003-.002.006-.004l.472.201c.158.073.32.136.487.188l.064.019.021-.053.002-.004.002-.003.002-.002.028-.034c.022-.027.053-.064.086-.101l.004-.004a.79.79 0 0 0 .13-.19l.008-.013V28.2l-.004-.021-.006-.014-.01-.014-.011-.01-.014-.01-.031-.015a17.393 17.393 0 0 0-.46-.2 79.44 79.44 0 0 0-1.19-.474l-1.725-.68zm57.758.162a.202.202 0 0 0-.059.021.662.662 0 0 0-.115.078.688.688 0 0 0-.1.098.25.25 0 0 0-.035.053.105.105 0 0 0-.006.084l.002.008.006.007c.096.142.2.28.309.41.078.097.15.187.201.254l.047.065-.043.037a99.534 99.534 0 0 1-1.041.844l-.815.65c-.107.086-.195.16-.26.211-.063.052-.095.077-.113.094a.146.146 0 0 0-.043.062.132.132 0 0 0 .002.084c.018.051.052.097.108.172.044.062.092.12.142.176l.014.016.018.005.03.002a.696.696 0 0 0 .024-.005l.008-.004.008-.006.021-.016.073-.056.26-.206c.217-.172.515-.408.841-.67a121.46 121.46 0 0 1 1.108-.874l.045-.034c.1.112.198.224.289.344v.002l.359.455.19-.142a.85.85 0 0 0 .136-.135c.01-.015.024-.024.024-.063l-.004-.02-.002-.007-.004-.008-.006-.012-.014-.02-.043-.06-.156-.205a82.53 82.53 0 0 0-1.314-1.662h-.002a.098.098 0 0 0-.09-.027zm-57.436.512.69.296v.002c.202.078.396.175.584.282-.012.017-.022.033-.04.056a6.03 6.03 0 0 1-.2.258l-.065.076-.033.04-.115.13-.041.043-.073-.105a38.645 38.645 0 0 1-.707-1.078zm9.487 1.314c-1.54-.015-3.07.09-3.94.324-1.563.418-1.985.659-2.238 1.264-.31.756-.067.867 1.103.502 3.205-.998 7.97-.693 10.727.687 1.437.72 2.413 1.506 3.078 2.48.505.742.574.97.572 1.858-.002.805-.103 1.2-.496 1.922-1.004 1.852-3.228 3.656-7.42 6.02-1.076.605-1.99 1.103-2.027 1.103-.036 0-.086-2.812-.11-6.248-.048-6.937-.025-6.818-1.097-5.916l-.518.436v12.482L37 46.975c-1.525.717-2.901 1.424-3.059 1.566-.392.361-.456 1.06-.1 1.135.154.034 1.532-.536 3.063-1.262l2.787-1.318.045 3.709.045 3.71h.389c.212 0 .584-.152.824-.343l.434-.342v-7.38l2.527-1.493c4.487-2.654 6.98-4.839 8.09-7.092.82-1.664.869-3.024.164-4.457-.956-1.94-3.111-3.455-6.06-4.258-.917-.25-2.468-.383-4.008-.398zm-11.881.605-.592.875-.594.875.178.125 1.412.971h.002a185.094 185.094 0 0 0 1.201.815 4.8 4.8 0 0 0 .082.052l.024.016.01.006c.001 0 .004 0 .007.002l.008.004.02.002h.037l.021-.03c.392-.546.772-1.101 1.137-1.666l.004-.006.002-.01.004-.034a.167.167 0 0 0-.006-.024.268.268 0 0 0-.049-.063 1.171 1.171 0 0 0-.248-.162c-.016-.006-.029-.011-.055-.011l-.02.002a1.11 1.11 0 0 0-.023.011l-.01.008-.013.014a.714.714 0 0 0-.028.033l-.085.115c-.07.095-.162.225-.26.364-.184.26-.374.538-.479.703a6.977 6.977 0 0 1-.465-.295l-.453-.31.313-.462a17.482 17.482 0 0 0 .33-.504c.01-.015.016-.028.021-.039l.008-.015.004-.012.004-.008v-.015l-.002-.016s0-.01-.002-.014a.094.094 0 0 0-.008-.015c-.005-.009-.01-.014-.015-.02-.01-.011-.023-.022-.036-.033a1.24 1.24 0 0 0-.234-.164c-.014-.007-.024-.014-.055-.014l-.02.002a1.024 1.024 0 0 0-.023.012l-.01.01c-.004.004-.01.007-.013.011l-.027.036a17.848 17.848 0 0 0-.348.492l-.326.47-.365-.25-.385-.26c.118-.196.243-.39.377-.577.23-.336.345-.496.383-.622a.192.192 0 0 0-.032-.175c-.037-.044-.084-.066-.138-.098l-.17-.102zm61.43.498a1.305 1.305 0 0 0-.63.106c-.638.268-1.091.66-1.328 1.156-.13.273-.148.36-.148.635v.002c-.014.188.023.376.105.545.21.442.475.698.885.844h.004l.002.002c.372.1.767.079 1.127-.06h.002c.595-.24 1.076-.643 1.305-1.11.12-.246.136-.322.136-.659 0-.32-.018-.414-.113-.609-.156-.317-.43-.602-.726-.738-.204-.094-.302-.113-.616-.114h-.006zm.039.569h.001a.846.846 0 0 1 .79 1.234v.002c-.151.325-.668.756-1.092.897-.282.093-.53.102-.733.035a.836.836 0 0 1-.482-.43.963.963 0 0 1 .012-.744v-.002c.122-.249.366-.497.646-.682.281-.185.598-.306.858-.31zM28.533 32.03a.172.172 0 0 0-.062.043.73.73 0 0 0-.104.153l-.137.253.688.391.562.322-.359.621c-.108.188-.209.356-.285.477-.038.06-.071.109-.094.14-.001.003-.002.003-.004.005l-.004-.002-.13-.07c-.109-.06-.254-.144-.41-.233-.157-.09-.305-.17-.417-.23-.055-.03-.101-.056-.136-.073a1.031 1.031 0 0 0-.045-.021l-.018-.006-.01-.004-.007-.002h-.012c-.045 0-.06.02-.074.033a.345.345 0 0 0-.041.047 1.102 1.102 0 0 0-.143.26.317.317 0 0 0-.016.06c-.001.01-.003.02-.002.034l.006.023.006.014a.176.176 0 0 0 .012.015l.006.008.01.004a220.256 220.256 0 0 0 2.518 1.445c.133.076.241.138.317.18l.09.049.026.013.01.004.005.002.008.002.02.004h.033l.021-.025a.89.89 0 0 0 .131-.2l.002-.003.135-.244-.744-.424c-.189-.106-.36-.207-.487-.282-.063-.037-.114-.067-.15-.09l-.004-.001c.217-.427.448-.845.695-1.254l.09.047a28.972 28.972 0 0 1 1.139.645l.182.107.142-.256a.843.843 0 0 0 .07-.158.294.294 0 0 0 .014-.067c.002-.022.009-.052-.03-.086l-.01-.01-.01-.005-.028-.018a9.26 9.26 0 0 0-.096-.057c-.08-.047-.193-.114-.328-.191a247.091 247.091 0 0 0-2.304-1.307l-.1-.056-.031-.016-.024-.01a.123.123 0 0 0-.082 0zm65.567.547-.018.008a162.325 162.325 0 0 0-2.994 1.658l-.05.027.017.055c.023.078.06.154.105.22l.143.249.537-.3c.26-.147.543-.307.633-.36l.095-.055.12.207.126.236-.412.682-.455.76.123.215.012.023c0 .002.003.002.004.004.039.075.083.146.135.213l.062.082.057-.086c.152-.238.297-.481.437-.727v-.002l.305-.507.094-.15c.048.029.098.058.144.091.108.075.226.132.352.168h.006l.004.002c.226.033.459.003.67-.086l.002-.002h.001c.27-.137.454-.318.541-.54.088-.224.073-.484-.03-.768a8.012 8.012 0 0 0-.364-.739c-.077-.143-.152-.28-.211-.38a2.328 2.328 0 0 0-.105-.16.149.149 0 0 0-.018-.018c-.004-.003-.006-.006-.014-.01l-.013-.006-.024-.004H94.1zm-.108.736c.08.111.154.228.211.352v.002c.084.161.134.265.16.344a.586.586 0 0 1 .032.213c0 .223-.087.348-.317.455-.186.085-.253.085-.44-.002h-.001a.583.583 0 0 1-.225-.176 2.7 2.7 0 0 1-.267-.424l-.133-.24.47-.264a8.226 8.226 0 0 1 .51-.26zm-25.83.012c-.111-.04-.257.072-.463.299-.248.274-.274.743-.234 4.098.025 2.087-.018 4.502-.092 5.373l-.135 1.576-1.261.41c-1.45.47-2.1 1.079-1.684 1.58.185.223.438.26 1.352.193l1.126-.078-.107.598c-.242 1.346-.751 3.107-1.146 3.97-.453.99-1.163 2.012-1.397 2.012-.223 0-.455-.902-.744-2.898-.573-3.947-.959-5.137-1.936-5.957-.433-.367-.646-.436-1.107-.361-.314.05-.754.264-.977.474-.59.55-1.611 2.78-2.14 4.66-.25.899-.487 1.542-.526 1.432-.036-.11.064-1.578.223-3.26.21-2.223.237-3.108.106-3.242-.31-.308-.81.32-1.198 1.512a70.91 70.91 0 0 1-1.156 3.115c-1.745 4.404-2.553 5.367-2.676 3.2-.023-.41-.045-2.312-.045-4.223V44.33l-1.16.014c-1.444.015-2.412.42-3.558 1.494-1.542 1.442-2.44 4.164-2.024 6.142.348 1.665 1.392 2.73 2.422 2.473.909-.23 1.872-1.42 2.688-3.32l.357-.828.107 1.154c.168 1.769.42 2.711.772 2.9.728.391 1.5-.527 3-3.57 1.047-2.128 1.131-2.25 1.025-1.494-.193 1.363-.15 3.937.076 4.6.247.724.707.83 1.079.248.131-.204.512-1.266.845-2.36l1.02-3.312c1-3.226 1.592-3.616 2.539-1.68.374.764.58 1.574.83 3.254.403 2.71.752 3.886 1.27 4.295.222.176.533.272.724.22.446-.116 1.32-1.158 1.953-2.326.32-.588.517-.823.522-.617.012.601.784 2.013 1.306 2.385 1.584 1.13 3.698.346 4.256-1.578.276-.954.229-1.556-.213-2.588-.329-.773-.767-.813-1.135-.102-.248.48-.247.564.018 1.155.257.57.263.705.05 1.261a1.741 1.741 0 0 1-.849.955c-.562.304-.652.312-1.062.084-.924-.516-1.125-1.173-1.125-3.642 0-2.608.071-2.917.617-2.637a4.204 4.204 0 0 1 .738.526c.433.392.81.294 1.072-.288.166-.363.14-.476-.205-.843-.218-.234-.715-.51-1.103-.612-.784-.21-.971-.68-.334-.84.902-.218 4.749-.463 5.74-.36 1.881.192 1.876.188 1.3.804-.617.654-1.525 2.526-1.858 3.83-.323 1.248-.329 2.772-.01 3.834.58 1.95 2.247 2.232 3.722.63 1.122-1.216 1.992-3.57 1.997-5.392v-.886l1.199-.383c.658-.21 1.293-.422 1.41-.47.138-.059.087.21-.149.794-.77 1.91-1.47 4.307-1.47 5.037 0 1.448.719 2.305 1.908 2.273 1.1-.031 1.946-.812 3.012-2.78l.539-.995.004 1.523c.004 1.372.043 1.566.408 1.987l.402.463.615-.33a3.786 3.786 0 0 0 1.022-.868c.365-.477.379-.547.133-.642-.18-.068-.453.06-.774.367-.416.401-.52.434-.662.23-.276-.416-.07-4.365.34-6.433.389-1.966.337-2.362-.264-2.041-.203.108-.548.897-1.011 2.299-.74 2.24-1.973 4.526-2.797 5.174a1.72 1.72 0 0 1-.893.341c-.977 0-.887-1.053.412-4.875.586-1.724 1.027-3.195.983-3.27-.149-.24-.483-.146-1.069.292-.81.61-1.98 1.185-2.666 1.312-.56.107-.607.078-1.02-.627-.258-.44-.66-.844-.993-1.004-.956-.454-4.224-.66-7.01-.443-1.342.106-2.513.236-2.6.29-.102.06-.119-.328-.049-1.046.209-2.146.32-6.936.198-8.554-.08-1.057-.165-1.542-.35-1.608zm-41.232 1.59a.087.087 0 0 0-.022.004.189.189 0 0 0-.015.006l-.016.011c-.013.013-.015.018-.02.026l-.015.027c-.012.02-.026.047-.043.08-.034.067-.078.159-.13.266a54.376 54.376 0 0 0-.706 1.539c-.046.105-.082.194-.108.258-.012.032-.024.056-.03.076a.295.295 0 0 0-.009.027l-.002.016v.018l.004.015.014.026.008.005.006.006a.953.953 0 0 0 .185.092h-.004l.205.086.248-.52c.058-.124.114-.238.159-.318.02-.036.037-.064.05-.084l.07.031.296.135c.245.113.576.27.937.442l.016.005a95.457 95.457 0 0 0 1.226.569l.088.037.028.012.011.004.008.001.012.002c.038.003.057-.015.072-.027a.248.248 0 0 0 .04-.039 1.048 1.048 0 0 0 .135-.234.299.299 0 0 0 .028-.118v-.005l-.004-.02a.677.677 0 0 0-.015-.025.29.29 0 0 0-.041-.033 1.6 1.6 0 0 0-.084-.05 9.63 9.63 0 0 0-.291-.15 37.434 37.434 0 0 0-.948-.457c-.368-.172-.706-.333-.955-.451l-.298-.143-.073-.035c.007-.021.016-.048.03-.084.031-.083.082-.198.14-.32.059-.123.11-.235.149-.318l.047-.1.013-.031.004-.012.002-.006.002-.006.002-.015-.004-.022a.176.176 0 0 0-.018-.033.126.126 0 0 0-.02-.02c-.013-.01-.027-.017-.044-.027a1.322 1.322 0 0 0-.24-.103c-.018-.006-.034-.011-.051-.014a.135.135 0 0 0-.03-.002zm68.486.02-.021.003a1.532 1.532 0 0 0-.022.01 11.392 11.392 0 0 0-.244.277c-.137.165-.322.392-.522.641l-.718.89-.559.26c-.16.073-.306.143-.414.198-.054.027-.098.052-.13.07a.94.94 0 0 0-.042.024l-.014.01-.01.005a.166.166 0 0 0-.02.03c-.003.004-.004.007-.005.011a.105.105 0 0 0-.002.053c.003.02.01.039.016.06.014.044.034.096.059.149l.002.002v.006l.005.006c.022.048.043.09.063.123a.308.308 0 0 0 .035.047c.006.006.011.013.025.021l.014.006.018.004.025-.002.016-.006.613-.285.576-.268 1.153.028 1.285.029-.135-.309-.108-.246-1.007-.012-.805-.007.156-.176c.248-.278.807-.937.92-1.084a.193.193 0 0 0 .037-.14.754.754 0 0 0-.062-.186v-.002a1.457 1.457 0 0 0-.07-.147c-.012-.02-.02-.036-.032-.05a.146.146 0 0 0-.021-.022c-.005-.004-.01-.01-.018-.014l-.016-.005-.021-.002zM66.863 45.154c.147.002.235.05.235.149 0 .127-.168.278-.373.332a3.977 3.977 0 0 1-.87.095l-.496-.005.414-.217c.44-.232.846-.357 1.09-.354zm9.537.53.256.53c.274.566.947 1.18 1.29 1.18.503 0 .615.452.41 1.663-.255 1.518-1.179 3.387-1.88 3.816-.643.39-.816.397-1.136.03-1.132-1.302-.956-4.103.39-6.186l.67-1.033zm-25.93.082c.327.012.234.323-.105 1.683-.53 2.116-1.306 4.355-1.672 4.824-.64.815-1.208.841-1.882.092-.287-.318-.329-.6-.329-2.049 0-1.399.059-1.79.356-2.341.667-1.236 1.635-1.896 3.16-2.149.208-.034.364-.065.473-.06zm7.176 20.033a2.336 2.336 0 0 1 .915.14c.522.18 1.162.599 1.162.758 0 .07-.498.739-.655.881-.089.08-.11.078-.373-.092a1.932 1.932 0 0 0-1.056-.332c-.535 0-.891.265-.815.614.058.263.332.435 1.235.775 1.03.386 1.427.643 1.695 1.1.185.318.232.509.232.976 0 .571-.13.91-.521 1.328-.556.595-1.474.88-2.408.752a3.86 3.86 0 0 1-1.24-.398c-.404-.213-.774-.514-.75-.615.031-.15.734-.989.828-.99.053 0 .179.063.283.144.276.219.66.397 1.004.467.81.17 1.449-.245 1.205-.78-.081-.176-.312-.313-1.008-.6-.979-.4-1.287-.568-1.578-.853a1.527 1.527 0 0 1-.53-1.203c-.025-.584.107-.938.489-1.34.492-.516 1.065-.739 1.886-.732zm3.323.072h.734c.654 0 .737.01.76.09.013.049.007.944-.012 1.986-.042 2.102-.017 2.535.149 2.88.284.592 1.177.714 1.642.228.331-.349.357-.527.41-2.9.028-1.158.06-2.133.073-2.169.027-.076 1.287-.092 1.404-.017.104.063 0 4.221-.117 4.746-.16.709-.526 1.307-.989 1.613-.48.319-1.343.47-2.056.361-.841-.127-1.412-.535-1.758-1.257-.276-.57-.31-.904-.309-2.637 0-.862.016-1.87.036-2.244l.033-.68zm7.119.174c.636.008 1.91.086 2.375.164 1.22.202 1.89.83 1.967 1.836.095 1.244-.537 2.144-1.692 2.418a5.43 5.43 0 0 1-1.05.076c-.725 0-.731 0-.731.117 0 .457-.128 2.025-.168 2.076-.028.037-.122.06-.21.055l-.68-.037h-.003a2.378 2.378 0 0 1-.56-.07c-.055-.056.32-6.554.38-6.618.018-.015.16-.02.372-.017zm-18.904.232c.764 0 1.082.063 1.666.348.68.331 1.144.923 1.386 1.762.157.552.2 1.725.078 2.258a2.847 2.847 0 0 1-2.1 2.175c-.579.149-2.705.296-2.769.192-.063-.102-.467-6.52-.414-6.573.064-.065 1.31-.16 2.153-.162zm24.6.145c.14-.014.478.012 1.247.09 1.741.178 2.201.31 2.713.79a1.61 1.61 0 0 1 .557 1.02c.078.461.001 1.07-.186 1.48a2.336 2.336 0 0 1-.902.928c-.482.234-.829.288-1.678.254l-.783-.03v.112c-.002.257-.197 2.038-.227 2.086-.038.062-.003.064-.814-.021a3.032 3.032 0 0 1-.648-.106c-.064-.065.556-6.49.636-6.578.012-.012.037-.02.084-.025zm-28.274.127c.148.017.168.1.232.847.038.412.037.42-.082.446-.066.017-.646.086-1.289.154a15.94 15.94 0 0 0-1.197.149c-.015.014 0 .292.037.619l.062.59.135-.022c.072-.013.488-.06.928-.102.437-.042.854-.089.926-.1a.378.378 0 0 1 .197.02c.074.045.212 1.147.154 1.239-.017.03-.51.106-1.09.17-.581.061-1.067.122-1.082.134-.02.022.117 1.395.145 1.422.008.009.608-.05 1.332-.127.839-.089 1.334-.12 1.363-.09.079.081.181 1.21.114 1.25-.032.02-.883.123-1.891.229-1.009.106-1.934.21-2.053.225-.189.025-.218.013-.262-.092a74.466 74.466 0 0 1-.365-3.149 232.52 232.52 0 0 0-.34-3.156c-.008-.07-.001-.157.022-.191.042-.068 3.738-.497 4.004-.465zm34.396.496c.408.033 1.174.157 1.21.215.02.036.028.137.013.224a214.457 214.457 0 0 0-.688 5.055c.056 0 2.293.315 2.397.336.06.013.12.052.133.088a3.61 3.61 0 0 1-.057.629l-.084.562-.23.01c-.128.004-1.027-.106-2-.244h-.002c-.976-.142-1.795-.282-1.828-.318-.047-.047.042-.801.394-3.286.248-1.775.473-3.244.496-3.267.016-.015.11-.015.246-.004zm-39.552.057c.11 0 .13.033.181.324.03.178.069.462.088.636.038.372.128.326-.93.481a13.26 13.26 0 0 0-.787.127c-.01.008.158 1.195.377 2.637.219 1.441.388 2.633.371 2.65a13.18 13.18 0 0 1-1.384.223c-.051 0-.103-.027-.116-.063a171.111 171.111 0 0 1-.41-2.625c-.212-1.41-.394-2.57-.402-2.58a10.67 10.67 0 0 0-.854.115c-.565.09-.854.114-.89.08-.09-.09-.238-1.148-.17-1.22.053-.055 4.628-.785 4.926-.785zm28.812.28-.025.182c-.013.1-.044.52-.06.936l-.034.756h.584c.456 0 .627-.022.79-.096.322-.148.454-.368.475-.799.015-.31 0-.384-.101-.539-.164-.24-.505-.36-1.13-.402l-.499-.037zm-20.584.169.03.199c.014.108.079 1.007.138 1.994.06.987.118 1.827.13 1.87.03.097.577.041.946-.096a1.953 1.953 0 0 0 .467-.26c.733-.605.723-2.526-.014-3.278-.276-.28-.558-.378-1.166-.406l-.531-.023zm36.244.256c.1-.039 1.38.211 1.422.275.017.036.028.09.018.12-.011.029-.264 1.442-.56 3.134-.3 1.692-.556 3.113-.571 3.162-.04.132-.108.135-.785.01v.002a3.461 3.461 0 0 1-.688-.17c-.038-.038.112-.994.496-3.17.633-3.559.59-3.334.668-3.363zm-9.75.004-.06.607-.092.926-.03.318.198.018c.613.063 1.025.036 1.252-.078v.003c.526-.267.64-1.194.183-1.496-.176-.114-.6-.219-1.064-.263l-.387-.035zm-41.842.42c.46-.007.923.086 1.336.285.431.21.433.213.147.796-.138.279-.277.517-.309.53-.034.01-.153-.022-.267-.072a1.88 1.88 0 0 0-1.448-.067c-.288.117-.412.263-.412.488 0 .389.227.501 1.496.735.387.07.826.175.977.232.786.302 1.22.943 1.22 1.799 0 .792-.462 1.477-1.275 1.889-.639.325-1.74.41-2.469.191v-.004c-.513-.155-.924-.366-.921-.48 0-.05.12-.32.27-.602.311-.592.311-.591.855-.351.297.131.393.148.873.148s.562-.016.761-.129c.461-.265.496-.777.067-.998a8.634 8.634 0 0 0-1.028-.258 11.407 11.407 0 0 1-1.14-.287c-.716-.282-1.104-.738-1.227-1.447-.1-.582.062-1.1.504-1.582.475-.519 1.226-.805 1.99-.817zm54.668.136c.218.021.762.133 1.838.373 1.053.236 1.964.462 2.026.498.106.066.11.077.035.39-.043.177-.1.433-.127.57-.03.135-.09.26-.135.275-.042.017-.63-.092-1.303-.243a16.643 16.643 0 0 0-1.24-.25 9.296 9.296 0 0 0-.146.594l-.131.574.443.102 1.065.24c.346.079.637.17.65.201.023.064-.187 1.057-.246 1.15-.055.09-.213.071-1.158-.148a15.095 15.095 0 0 0-.973-.205c-.064 0-.115.148-.238.692-.138.611-.147.695-.075.718.045.013.63.148 1.301.301.671.151 1.235.292 1.252.31.034.033-.079.663-.19 1.071-.042.149-.078.19-.17.186-.059-.002-.99-.207-2.06-.454v.002c-1.62-.373-1.954-.462-1.966-.539-.017-.1 1.37-6.296 1.433-6.4.008-.012.043-.015.115-.008zm-58.986.924a.087.087 0 0 1 .057.027c.057.064 1.72 6.196 1.72 6.336 0 .062-.11.1-.923.32-.48.132-.505.133-.567-.01-.138-.326-1.689-6.267-1.646-6.312.027-.025.342-.129.7-.226.404-.109.577-.146.659-.135zm64.514.404c.042-.046 1.633.444 2.525.778.758.282 1.356.81 1.541 1.363.219.65-.022 1.604-.549 2.18a2.123 2.123 0 0 1-1.021.558c-.166.028-.19.045-.166.139.127.505.566 2.74.547 2.79-.034.103-.2.074-.903-.157-.492-.162-.671-.244-.697-.319a30.76 30.76 0 0 1-.254-1.332c-.12-.677-.247-1.257-.28-1.289-.059-.06-.593-.248-.614-.217-.007.009-.172.51-.368 1.114-.203.626-.389 1.11-.43 1.127-.114.042-1.39-.396-1.39-.48 0-.11 2.003-6.2 2.059-6.255zm-69.694 1.186a.092.092 0 0 1 .059.025c.034.038.448 1.166.92 2.506.473 1.34.865 2.44.87 2.45.007.006.541-.172 1.185-.4.645-.226 1.203-.406 1.244-.398.042.009.158.256.273.577.16.45.188.574.137.625-.064.06-3.685 1.351-3.79 1.351-.029 0-.084-.073-.122-.166a319.25 319.25 0 0 1-2.13-6.062c0-.039.033-.081.071-.096l.674-.24c.373-.132.53-.18.61-.172zm70.75.482c-.07.092-.498 1.556-.465 1.588.026.024.23.1.456.172.48.153.942.174 1.146.053h.002a.913.913 0 0 0 .402-.71c.028-.326-.026-.444-.302-.644-.191-.138-1.198-.51-1.239-.459zm-30.765 9.838c6.91.082 13.852.777 20.806 2.112a40.13 40.13 0 0 1-23.431 7.507 40.134 40.134 0 0 1-22.965-7.175c7.482-1.504 15.035-2.34 22.63-2.442.986-.013 1.973-.014 2.96-.002z" style="color:#0053b5;fill:#0053b5;-inkscape-stroke:none"/>
</svg>
