<svg xmlns="http://www.w3.org/2000/svg" xml:space="preserve" viewBox="0 0 149.383 90">
  <path d="M28.378 89.802c-1.637-.404-3.177-2.007-3.555-3.701-.437-1.951.514-4.183 2.235-5.242 1.135-.7 2.995-.87 4.253-.389 3.11 1.188 4.144 5.081 2.054 7.722-1.035 1.305-3.281 2.03-4.987 1.61zm3.072-2.23c.865-.66 1.26-1.463 1.267-2.57.014-2.704-3.079-4.075-5.185-2.302-1.714 1.442-1.259 4.26.846 5.238.854.396 2.298.225 3.072-.367zm6.821-2.474v-4.901h3.104c2.488 0 3.228.058 3.726.294 1.351.642 1.903 2.421 1.186 3.826l-.376.735.368.704c.45.862.384 2.219-.142 2.941-.194.268-.713.67-1.153.894-.732.374-1.047.409-3.756.409H38.27zm6.203 2.786c.339-.306.438-1.069.19-1.458-.262-.412-1.162-.601-2.865-.601h-1.712v2.36h2.027c1.633 0 2.094-.06 2.36-.301zm-.07-3.976c.28-.198.402-.468.402-.898 0-.983-.46-1.179-2.763-1.179h-1.956v2.36h1.956c1.476 0 2.056-.07 2.36-.283zm6.03 1.19v-4.901h8.351v1.633h-6.717v2.361h4.902v1.623l-2.406.051-2.405.05-.054 1.134-.054 1.135h6.734V90h-8.351zm11.982 0v-4.901h2.821c2.448 0 2.914.047 3.522.358 2.277 1.161 2.783 4.18 1.006 5.999l-.657.673.83 1.282c.455.705.829 1.329.829 1.386 0 .058-.441.105-.98.105h-.978l-.7-1.088-.7-1.088-1.59-.001-1.588-.002v2.178h-1.815zm5.593.663c1.02-.566 1.393-1.876.814-2.855-.473-.801-1.246-1.076-3.03-1.076H64.23v4.176l1.68-.006c1.015-.004 1.845-.099 2.098-.24zm6.57-.663v-4.901h2.73c2.904 0 3.63.155 4.508.962.659.606 1.105 1.735 1.109 2.813.005 1.08-.317 1.845-1.136 2.71l-.553.583.635.959c1.22 1.842 1.219 1.776.06 1.776h-1.01l-.675-1.08-.675-1.082-1.589-.01-1.588-.006V90h-1.816zm5.994.264c.765-.765.878-1.622.324-2.439-.612-.903-1.104-1.086-2.914-1.09l-1.588-.003v4.21l1.811-.062c1.742-.06 1.835-.084 2.367-.616zm6.17-.365v-5.002l.861.056.862.055.052 2.047.051 2.048 2.4-.05 2.399-.05.051-2.044.052-2.042h1.622V90h-1.622l-.052-2.043-.051-2.042-2.405-.05-2.406-.051V90h-1.815zm12.162.101v-4.901h8.35v1.633h-6.716v2.361h4.902v1.623l-2.406.051-2.405.05-.054 1.134-.054 1.135h6.734V90h-8.351zm12.024-.045.048-4.947.863-.055.862-.056V90h-1.82zm5.585-.045v-4.993l.682.003c1.296.004 1.361.072 3.606 3.618l2.157 3.407.09-3.468.091-3.47.863-.054.862-.056V90h-2.112l-2.166-3.442c-1.192-1.893-2.228-3.445-2.302-3.449-.075-.004-.136 1.545-.136 3.442V90h-1.635zM.512 68.215v-4.901h2.82c2.45 0 2.914.046 3.523.358 2.276 1.16 2.782 4.18 1.005 6l-.657.672.83 1.282c.455.705.829 1.33.829 1.386 0 .058-.441.104-.978.104h-.979l-.7-1.087-.702-1.088-1.588-.002-1.588-.001v2.178H.51Zm5.592.662c1.02-.566 1.393-1.875.815-2.854-.474-.801-1.247-1.076-3.031-1.076H2.327v4.176l1.678-.006c1.016-.005 1.845-.1 2.1-.24zm6.613-.707.048-4.947.862-.055.863-.056v4.195h4.901v-4.194l.862.054.862.056.049 4.947.049 4.946h-1.811l-.051-2.042-.052-2.043h-4.72l-.05 2.043-.052 2.043h-1.809zm12.12-.056v-5.002l.863.056.862.055.048 4.947.049 4.946h-1.822zm5.447.01v-4.991h.887c.585 0 1.013.108 1.253.317.202.175 1.293 1.787 2.426 3.582l2.06 3.265.05-3.582.048-3.582h1.626v10.002l-1.04-.054-1.039-.055-2.182-3.434-2.183-3.433-.05 3.479-.049 3.478h-1.807zM51.89 72.71c-.915-.468-1.401-1.06-1.567-1.906l-.116-.59h.93c.659 0 .931.071.931.243 0 .625.626.846 2.392.846 1.89 0 2.33-.21 2.325-1.104-.006-.97-.662-1.257-2.87-1.257-1.888 0-2.643-.32-3.25-1.38-.784-1.366-.298-3.2 1.037-3.91.862-.46 4.443-.487 5.38-.042a2.725 2.725 0 0 1 1.455 1.868l.112.56h-.93c-.69 0-.93-.068-.93-.262 0-.562-.757-.828-2.36-.828-1.863 0-2.36.247-2.36 1.168 0 .935.345 1.09 2.645 1.193 2.207.097 2.616.257 3.424 1.34.525.703.525 2.422.001 3.14-.692.949-1.753 1.328-3.71 1.328-1.446 0-1.875-.068-2.539-.407zm13.703.245c-.882-.225-1.647-.69-2.184-1.328-.911-1.08-.993-1.502-.993-5.13v-3.363h1.633v3c0 2.138.072 3.17.25 3.586.798 1.874 3.268 2.127 4.296.44.317-.52.355-.929.356-3.804v-3.222h1.816v3.143c0 2.376-.07 3.348-.284 3.978-.323.947-1.322 2.068-2.151 2.413-.764.318-2.08.456-2.74.287zm8.805-4.739v-4.901h2.82c2.45 0 2.914.047 3.523.358a3.755 3.755 0 0 1 .877 6.104c-.928.877-1.922 1.162-4.052 1.162h-1.353v2.178h-1.815zm5.634.633c1.001-.519 1.36-1.83.773-2.826-.474-.8-1.247-1.074-3.031-1.074h-1.561v4.175h1.642c1.114 0 1.815-.089 2.176-.275zm6.528-.633v-4.901h8.351v1.634h-6.535v2.36h4.72v1.633h-4.72v2.36h6.535v1.815h-8.35zm12.164 0v-4.901h2.784c2.565 0 2.85.033 3.586.422 1.104.582 1.81 1.676 1.929 2.991.11 1.215-.164 2.008-1.039 3.005l-.591.673.534.857c.293.471.68 1.081.86 1.356l.33.498h-2.13l-.682-1.089-.682-1.089h-3.084v2.178h-1.815zm5.897.358c.99-.99.875-2.453-.251-3.211-.527-.354-.85-.414-2.223-.414h-1.608v4.21l1.812-.064c1.653-.056 1.851-.102 2.27-.522zm6.266-.449v-4.991h1.634v9.983h-1.634zm5.445.091v-4.901h8.352v1.634h-6.717v2.36h4.901v1.623l-2.405.05-2.405.051-.054 1.134-.054 1.135h6.734v1.816h-8.352zm15.341 4.739c-1.387-.355-2.574-1.409-3.019-2.68-.167-.48-.244-1.692-.246-3.874l-.003-3.177.862-.055.862-.056v3.145c0 2.699.048 3.232.332 3.763.628 1.17 2.09 1.593 3.288.95 1.131-.607 1.282-1.161 1.282-4.713v-3.145l.863.056.862.055-.005 3.359c-.005 3.647-.084 3.995-1.15 5.145-.933 1.005-2.671 1.548-3.928 1.227zm8.805-4.739v-4.901h2.729c2.905 0 3.63.154 4.509.962.658.606 1.104 1.735 1.108 2.814.005 1.078-.316 1.845-1.135 2.708l-.554.583.636.96c1.22 1.842 1.218 1.775.06 1.775h-1.01l-.676-1.08-.675-1.081-1.588-.008-1.589-.009v2.178h-1.815zm5.993.264c.765-.765.878-1.622.324-2.44-.611-.902-1.103-1.086-2.913-1.088l-1.589-.003v4.21l1.812-.064c1.741-.059 1.834-.083 2.366-.615zm-56.577-7.301c.063-.752.116-1.601.116-1.886 0-.491.04-.516.816-.516h.817v1.256c0 1.075-.065 1.335-.451 1.794-.249.295-.668.579-.933.629l-.48.092zm-78.062-5.019c-1.705-.325-2.44-.573-3.97-1.337C-.68 50.552-2.664 39.225 3.91 32.254c4.38-4.643 11.29-5.817 16.93-2.878 1.342.7 3.452 2.223 3.452 2.492 0 .076-.805.94-1.79 1.92l-1.792 1.786-.868-.664c-1.714-1.307-3.465-1.913-5.534-1.913-2.48 0-4.545.877-6.372 2.704-1.852 1.85-2.705 3.862-2.705 6.372 0 2.513.855 4.528 2.703 6.366 1.99 1.98 4.215 2.838 6.912 2.668 1.357-.086 3.101-.59 3.938-1.139.43-.28.435-.322.386-2.773l-.05-2.489-2.225-.051-2.224-.05v-5.073h9.803v16.884h-2.619c-2.577 0-2.621-.008-2.682-.41-.036-.235-.17-.384-.317-.351-.14.03-.71.174-1.267.32-1.49.388-4.233.476-5.757.184zm27.39.059c-2.597-.396-4.881-1.574-6.874-3.544-1.045-1.035-1.47-1.631-2.128-2.996-1.343-2.783-1.389-3.222-1.389-13.224v-8.721h5.252l.052 9.126.051 9.126.589 1.195c.71 1.441 2.01 2.716 3.456 3.39.893.415 1.28.484 2.763.486 1.565.003 1.838-.05 2.941-.572 1.356-.643 2.65-1.825 3.22-2.941.873-1.713.92-2.274.92-11.317v-8.493h5.264l-.002 8.033c-.001 10.195-.11 11.21-1.508 14.115-.833 1.732-3.38 4.235-5.207 5.117-2.368 1.145-5.025 1.583-7.4 1.22zm18.474-14.145v-14.34h5.264v28.683h-5.263zm9.621.018V27.733h5.423c6.008 0 7.617.173 9.918 1.066 3.159 1.227 5.93 3.775 7.533 6.929 1.086 2.135 1.362 3.453 1.352 6.437-.01 2.458-.059 2.865-.499 4.176-.961 2.86-2.904 5.569-5.21 7.262-1.236.907-3.273 1.872-4.876 2.309-1.242.34-2.023.387-7.514.459l-6.127.081zm12.247 8.782c4.537-1.182 7.508-5.585 6.826-10.116-.559-3.72-3.564-6.889-7.182-7.574-.617-.117-2.308-.182-3.903-.151l-2.814.056-.047 8.805c-.026 4.842-.008 8.906.04 9.03.134.351 5.694.31 7.08-.05zm16.618-8.8v-14.34h24.507v5.265h-19.242v6.534h13.796v5.083h-13.797v6.536h19.243v5.264H96.182Zm35.448 14.068c-3.06-.666-5.502-3.03-6.325-6.126-.14-.524-.255-1.22-.256-1.548l-.002-.594 2.58.05 2.579.05.114.558a3.364 3.364 0 0 0 1.401 2.084c.643.44.705.446 5.264.499 4.398.051 4.65.036 5.412-.333 1.385-.67 2.095-2.2 1.701-3.663-.26-.968-1.311-2.036-2.263-2.3-.437-.121-2.492-.201-5.196-.202-3.966 0-4.608-.042-5.655-.365-4.908-1.517-7.316-7.05-5.103-11.73 1.053-2.223 3.58-4.151 6.044-4.607 1.28-.238 9.312-.234 10.57.003 2.198.418 4.66 2.112 5.736 3.95.57.972 1.142 2.775 1.142 3.601v.625l-2.58-.05-2.58-.05-.116-.57c-.175-.857-.864-1.702-1.695-2.08-.66-.3-1.248-.339-5.18-.342-4.137-.004-4.489.021-5.222.377-1.804.873-2.286 3.554-.905 5.037.918.985 1.098 1.015 6.75 1.115l5.265.093 1.413.675c1.866.89 3.19 2.21 4.063 4.045 1.216 2.563 1.03 5.723-.475 8.038-1.314 2.02-3.135 3.285-5.431 3.773-1.63.346-9.441.336-11.05-.013zm-53.3-33.175c2.772-9.365 10.344-16.163 19.899-17.863 2.311-.41 6.422-.401 8.664.02 3.672.69 8.714 2.772 8.714 3.6 0 .168-.423.132-1.77-.154l-.59-.126V23.92h-2.36V7.79l-.954-.187c-1.557-.304-3.658-.432-4.839-.295l-1.106.129v16.483h-2.356l-.047-8.032c-.047-7.915-.053-8.033-.41-7.984-.837.112-3.49 1.075-4.87 1.764l-1.484.742-.048 6.755-.048 6.755H92.37v-5.707c0-3.14-.07-5.751-.157-5.805-.25-.154-3.673 3.487-4.592 4.887a24.72 24.72 0 0 0-2.605 5.22l-.499 1.405h-6.468zm4.53-.848.656.405-.111-.391-.21-.735c-.067-.242.081-.486.5-.816l.596-.47-.765-.001c-.733-.002-.772-.032-.98-.73-.12-.398-.274-.725-.343-.725-.068 0-.22.323-.338.716-.202.672-.261.72-.981.772l-.768.055.603.364c.619.372.666.638.285 1.623-.128.33-.093.326.53-.06l.67-.413zm1.52-4.725c.446-.342.46-.342 1.044.018.658.407.675.394.397-.332-.177-.465-.14-.558.402-1.011l.596-.499h-.75c-.707 0-.765-.04-.976-.681l-.225-.68-.212.635c-.186.553-.299.643-.88.692-.778.066-.842.241-.211.579.497.265.544.465.277 1.168-.21.553-.074.58.538.11zm3.86-3.919c.578.406.685.347.473-.26-.167-.482-.133-.588.328-.993l.514-.453-.654-.006c-.577-.004-.676-.075-.84-.596l-.184-.59-.222.59c-.18.48-.322.59-.75.59-.617 0-.686.265-.146.554.32.171.36.309.258.853l-.121.65.472-.31c.428-.28.51-.282.872-.029zm31.905 3.105v-7.34l-1.498-1.095c-2.94-2.15-6.525-3.73-10.436-4.599-1.456-.324-2.354-.393-5.04-.393-4.507 0-7.445.584-10.938 2.175-.749.342-1.57.621-1.823.621h-.464l.423-.45c.948-1.009 4.537-2.865 7.548-3.903 7.186-2.478 15.21-2.054 22.137 1.17 6.282 2.921 11.275 7.894 14.322 14.259.882 1.843 2.29 5.92 2.29 6.634 0 .22-.612.261-3.795.261h-3.794l-.222-.953c-.58-2.493-2.296-6.153-3.979-8.491-1.041-1.447-2.106-2.718-2.274-2.718-.054 0-.096 2.736-.096 6.081v6.081h-2.36zm12.672 5.126.055-.852.853-.055.852-.056v-1.451l-.852-.055-.853-.055-.054-.853-.056-.853h-1.453l-.054.863-.056.862h-1.816l.055.771.056.772.862.055.863.055v.777c0 .953.09 1.051.9.983.629-.053.644-.074.698-.908z" style="fill:#0053b5;stroke-width:.68613"/>
</svg>
