<svg xmlns="http://www.w3.org/2000/svg" xml:space="preserve" viewBox="0 0 185.928 76">
  <path d="M-54.33 10.128c-3.75-.038-7.53 1.928-9.1 5.905-3.753 6.708-8.439 12.842-12.343 19.464-4.213 5.15-6.68 11.366-10.696 16.604-3.914 7.1-9.261 13.424-12.832 20.669.289 7.752 10.316 9.553 15.216 14.062 1.318.31 2.612-.386 3.483-1.33 4.424-5.569 7.254-12.2 11.21-18.093 3.447-5.634 6.369-11.742 9.931-17.202 3.324-4.833 5.572-10.36 9.136-14.99 2.304-6.228 8.963-11.922 4.913-18.975-1.449-4.034-5.169-6.075-8.918-6.114zm331.943 17.395c-3.506 0-4.908.02-10.98.02h-15.471c-3.74 0-7.174.829-10.01 2.493-2.837 1.664-5.399 4.573-5.399 8.384v30.499c0 3.81 2.562 6.716 5.398 8.38 2.837 1.664 6.272 2.491 10.01 2.491h15.472c5.702 0 8.093 0 10.947.021l.066-8.86c-2.89-.023-5.31-.021-11.013-.021h-15.471c-2.344 0-4.394-.611-5.528-1.275a5.34 5.34 0 0 1-.64-.431 2.232 2.232 0 0 1-.297-.276c-.056-.066-.077-.107-.084-.113v-11.57l32.929.034.03-7.213-32.959.016V38.5c.007-.005.028-.043.084-.109.09-.102.19-.196.297-.28.148-.119.357-.263.64-.43 1.133-.664 3.183-1.276 5.528-1.276h15.47c6.095 0 7.514-.02 10.981-.02v-8.861zm-215.266.02c-3.74 0-7.173.829-10.01 2.493-2.837 1.664-5.399 4.573-5.399 8.384v30.499c0 3.81 2.562 6.716 5.399 8.38 2.837 1.664 6.27 2.491 10.01 2.491h15.471c3.74 0 7.173-.828 10.01-2.492 2.837-1.664 5.398-4.568 5.398-8.38v-18.71h-8.86v18.628c-.022.017-.171.322-1.02.82-1.133.665-3.183 1.275-5.528 1.275H62.347c-2.345 0-4.395-.611-5.528-1.275-.849-.498-.999-.803-1.02-.82V38.5c.021-.018.171-.321 1.02-.82 1.133-.664 3.183-1.275 5.528-1.275h26.899v-8.86h-26.9zm93.416.36v51.724h10.224V27.904h-10.224zm21.133.193v51.87h4.428c10.61 0 15.261-.176 26.451-.176 3.738 0 7.178-.828 10.015-2.492 2.837-1.664 5.398-4.568 5.398-8.38V38.42c0-3.811-2.766-6.746-5.628-8.208-2.861-1.462-6.192-2.066-9.785-2.066-10.62 0-12.126-.05-26.451-.05zm-203.345.293v7.355h13.97v43.532h9.044V35.744h14.493v-7.355zm212.205 8.576c8.846.013 13.152.041 22.02.041 2.49 0 4.646.535 5.753 1.1.534.273.73.408.799.452v30.277c-.022.017-.176.322-1.025.82-1.133.665-3.183 1.275-5.528 1.275-9.39 0-14.61.102-22.019.142zm-81.152 3.37v28.78c0 3.428 2.042 6.302 4.574 8.041 2.532 1.74 5.678 2.634 9.074 2.634h13.376c3.397 0 6.542-.895 9.074-2.634 2.532-1.739 4.578-4.613 4.578-8.04V40.861h-8.295v28.253c0 .187-.077.58-.979 1.2s-2.507 1.18-4.374 1.18h-13.38c-1.867 0-3.476-.56-4.378-1.18-.902-.62-.974-1.013-.974-1.2v-28.78h-8.296zM14.796 55.45v7.339H38.25V55.45Zm-80.663 15.505c-1.417-.085-2.79.448-4.068 1.944-2.102 6.156-7.888 10.77-8.572 17.316 3.008 5.142 7.945 9.39 11.996 13.806 4.772 1.063 4.793-6.033 7.51-8.45 1.426-5.473 9.129-11.154 5.695-16.583-3.659-1.971-8.309-7.779-12.56-8.033zm-35.136 11.524c-2.703-.049-5.246.815-7.134 3.328-4.187 6.35-8.372 13.056-9.93 20.606-3.438 10.64-3.073 22.353.949 32.782 3.599 7.484 9.06 14.1 16.002 18.745 6.332 5.47 14.438 8.254 22.592 9.722 6.235.354 12.98 1.162 18.87-1.442 6.68-1.996 11.817-7.595 15.69-12.369 4.974-6.578.358-4.205-3.145-4.533-7.872-.214-15.135-3.906-21.35-8.417-4.685-3.273-8.257-7.89-12.645-11.528-4.713-4.802-10.29-8.628-16.144-11.971-3.502-.632-10.318-6.765-3.91-7.518 4.44 5.915 11.32 10.023 18.77 10.846 7.65 1.911 13.985-.991 15.73-11.72.48-2.953-6.11-8.357-9.85-11.867-5.067-3.516-8.577-8.935-14.347-11.511-2.934-1.518-6.673-3.09-10.148-3.153zm54.88.782c-2.383.048-3.738 2.799-6.945 8.266-4.093 6.504-7.75 13.195-12.025 19.582-2.123 6.078-7.105 11.043-7.958 17.516 1.208 5.223 8.329 6.574 12.712 8.994 1.076.464 2.38.196 3.22-.594 4.752-4.567 6.272-11.25 9.7-16.696 2.951-5.59 6.45-10.874 9.367-16.508 6.445-10.612 5.403-12.63-2.045-17.73-2.793-1.912-4.595-2.859-6.025-2.83zm127.9 11.988c-1.56 0-2.937.327-4.135.978-1.196.652-2.118 1.649-2.76 2.994-.634 1.339-.948 2.78-.948 4.328 0 1.563.32 2.978.961 4.244a6.63 6.63 0 0 0 2.844 2.91c1.26.666 2.662 1 4.202 1 1.14 0 2.25-.207 3.332-.62 1.084-.419 2.134-1.043 3.153-1.868v-5.9l-6.636.008v1.87h4.604v2.96c-.441.397-1.089.774-1.944 1.129a6.925 6.925 0 0 1-2.63.518 6.414 6.414 0 0 1-2.927-.694c-.92-.463-1.623-1.17-2.108-2.124-.477-.955-.715-2.145-.715-3.563 0-1.15.199-2.214.598-3.198.237-.577.57-1.11.983-1.577.427-.477.99-.86 1.68-1.15.692-.297 1.511-.443 2.46-.443.79 0 1.509.14 2.157.422.648.275 1.148.645 1.497 1.108.35.463.639 1.101.874 1.911l1.873-.522c-.27-1.071-.667-1.94-1.187-2.605s-1.238-1.182-2.158-1.552c-.912-.376-1.937-.564-3.07-.564zm85.506 0c-.842 0-1.496.158-1.965.477a2.48 2.48 0 0 0-.975 1.229c-.135.376-.204.948-.204 1.723v1.229h-1.698v1.518h1.698v10.006h1.915v-10.006h2.212v-1.518h-2.212v-1.066c0-.695.121-1.169.363-1.422.243-.253.657-.38 1.242-.38.356 0 .73.036 1.13.108l.292-1.702a9.313 9.313 0 0 0-1.798-.196zm-180.594.272v1.877h5.164v14.033h2.074V97.398h5.185v-1.877zm51.544 0v2.245h1.923v-2.245zm69.198 0v2.245h1.923v-2.245zm14.095 0v5.707a3.787 3.787 0 0 0-1.305-1.137c-.534-.297-1.143-.447-1.827-.447a4.5 4.5 0 0 0-2.534.748c-.755.5-1.323 1.221-1.702 2.162-.377.933-.564 1.973-.564 3.123 0 1.18.205 2.225.619 3.136.42.904 1.009 1.61 1.764 2.116.738.5 1.61.765 2.5.761 1.397 0 2.455-.571 3.174-1.714v1.455h1.786V95.52h-1.911zm138.47 0v15.91h1.924V95.52h-1.923zm-199.69.355-1.915 1.175v2.856h-1.409v1.518h1.41v6.631c0 1.172.077 1.94.233 2.309.157.362.427.658.812.882.385.224.928.334 1.626.334.49-.006.977-.064 1.455-.171l-.28-1.727a6.22 6.22 0 0 1-.844.075c-.286 0-.504-.048-.661-.142a.86.86 0 0 1-.335-.38c-.064-.159-.096-.517-.096-1.075v-6.736h1.936v-1.522h-1.932ZM5.175 99.644c-1.403 0-2.59.426-3.567 1.279-1.168 1.027-1.752 2.608-1.752 4.742v.004c0 1.946.488 3.435 1.464 4.47.983 1.034 2.266 1.551 3.855 1.551a5.48 5.48 0 0 0 2.739-.707 4.658 4.658 0 0 0 1.915-1.973c.441-.854.66-2.021.66-3.504 0-1.83-.494-3.264-1.484-4.299-.99-1.04-2.269-1.563-3.83-1.563zm27.923 0c-.45 0-.865.132-1.242.393-.37.26-.775.796-1.217 1.614v-1.744h-1.73v11.524h1.923v-6.034c0-.824.104-1.584.318-2.279.142-.456.383-.813.719-1.066a1.79 1.79 0 0 1 1.129-.389c.47 0 .943.14 1.413.422l.665-1.81c-.67-.42-1.33-.631-1.978-.631zm15.722 0a5.68 5.68 0 0 0-1.668.238c-.514.152-.918.34-1.217.564-.399.29-.718.655-.953 1.096a3.01 3.01 0 0 0-.343 1.422c0 .564.14 1.085.418 1.555.286.463.696.828 1.238 1.096.549.26 1.528.57 2.94.932 1.046.268 1.705.487 1.969.66.377.254.564.6.564 1.042 0 .492-.212.922-.64 1.292-.427.361-1.082.543-1.965.543-.877 0-1.561-.206-2.053-.618-.485-.413-.78-1.008-.887-1.782l-1.902.306c.214 1.223.702 2.146 1.472 2.768.777.622 1.904.932 3.378.932.892 0 1.691-.157 2.396-.468.706-.319 1.244-.762 1.614-1.334a3.316 3.316 0 0 0 .565-1.844c0-.666-.154-1.225-.46-1.673a2.855 2.855 0 0 0-1.271-1.02c-.534-.238-1.482-.543-2.844-.911-.94-.261-1.505-.425-1.697-.498-.335-.137-.584-.312-.74-.523a1.08 1.08 0 0 1-.235-.681c0-.399.191-.745.57-1.041.376-.297 1.005-.448 1.89-.448.747 0 1.324.169 1.73.502.413.332.663.795.749 1.388l1.881-.26c-.12-.745-.34-1.339-.66-1.78-.321-.448-.82-.802-1.497-1.062-.67-.261-1.451-.393-2.342-.393zm84.305 0c-1.568 0-2.843.538-3.826 1.61-.983 1.07-1.472 2.572-1.472 4.511 0 1.874.483 3.333 1.451 4.374.976 1.035 2.295 1.551 3.956 1.551 1.319 0 2.4-.327 3.249-.978.847-.651 1.43-1.564 1.743-2.743l-1.99-.251c-.292.825-.688 1.426-1.187 1.802-.5.376-1.101.564-1.807.564-.947 0-1.736-.335-2.37-1.007-.634-.673-.987-1.644-1.058-2.91h8.467c.007-.232.008-.408.008-.523 0-1.902-.48-3.375-1.442-4.424-.962-1.05-2.204-1.576-3.722-1.576zm13.251 0a5.68 5.68 0 0 0-1.668.238c-.513.152-.917.34-1.217.564-.4.29-.719.655-.954 1.096-.23.439-.347.927-.342 1.422 0 .564.14 1.085.418 1.555.285.463.7.828 1.242 1.096.549.26 1.529.57 2.94.932 1.047.268 1.701.487 1.964.66.378.254.565.6.565 1.042 0 .492-.212.922-.64 1.292-.428.361-1.082.543-1.965.543-.877 0-1.562-.206-2.053-.618-.484-.413-.78-1.008-.887-1.782l-1.902.306c.214 1.223.702 2.146 1.472 2.768.776.622 1.903.932 3.378.932.89 0 1.69-.157 2.396-.468.706-.319 1.244-.762 1.614-1.334a3.316 3.316 0 0 0 .565-1.844c0-.666-.154-1.225-.46-1.673a2.858 2.858 0 0 0-1.271-1.02c-.535-.238-1.483-.543-2.844-.911-.94-.261-1.505-.425-1.697-.498-.335-.137-.584-.312-.74-.523a1.085 1.085 0 0 1-.235-.681c0-.399.192-.745.569-1.041.378-.297 1.007-.448 1.89-.448.748 0 1.325.169 1.731.502.413.332.663.795.749 1.388l1.881-.26c-.122-.745-.34-1.339-.66-1.78-.321-.448-.82-.802-1.497-1.062-.67-.261-1.45-.393-2.342-.393zm29.997 0c-1.404 0-2.594.426-3.57 1.279-1.17 1.027-1.753 2.608-1.753 4.742v.004c0 1.946.487 3.435 1.464 4.47.983 1.034 2.27 1.551 3.86 1.551.99 0 1.904-.236 2.738-.707a4.648 4.648 0 0 0 1.911-1.973c.442-.854.665-2.021.665-3.504 0-1.83-.498-3.264-1.489-4.299-.99-1.04-2.266-1.563-3.826-1.563zm13.74 0c-.449 0-.86.132-1.237.393-.37.26-.78.796-1.221 1.614v-1.744h-1.731v11.524h1.923v-6.034c0-.824.108-1.584.322-2.279.142-.456.38-.813.715-1.066.335-.26.712-.389 1.133-.389.47 0 .94.14 1.41.422l.664-1.81c-.67-.42-1.33-.631-1.978-.631zm18.256 0c-.74 0-1.37.15-1.89.447-.52.29-.987.727-1.4 1.313v-1.497h-1.753v15.94h1.924v-5.612c.328.42.745.767 1.25 1.041a3.6 3.6 0 0 0 1.731.414c.876 0 1.71-.25 2.5-.748.799-.507 1.407-1.23 1.82-2.17.42-.948.631-2.011.631-3.19 0-1.1-.19-2.11-.569-3.028-.377-.927-.935-1.643-1.676-2.15-.741-.506-1.598-.76-2.568-.76zm13.795 0c-1.568 0-2.843.538-3.826 1.61-.984 1.07-1.476 2.572-1.476 4.511 0 1.874.485 3.333 1.455 4.374.976 1.035 2.295 1.551 3.955 1.551 1.318 0 2.401-.327 3.25-.978.847-.651 1.426-1.564 1.739-2.743l-1.986-.251c-.292.825-.688 1.426-1.188 1.802-.498.376-1.1.564-1.806.564-.948 0-1.737-.335-2.371-1.007-.634-.673-.987-1.644-1.058-2.91h8.463c.007-.232.013-.408.013-.523 0-1.902-.48-3.375-1.443-4.424-.962-1.05-2.204-1.576-3.721-1.576zm14.124 0c-1.404 0-2.59.426-3.566 1.279-1.17 1.027-1.757 2.611-1.757 4.746 0 1.946.492 3.435 1.468 4.47.983 1.034 2.266 1.551 3.855 1.551.99 0 1.905-.236 2.74-.707a4.648 4.648 0 0 0 1.91-1.973c.442-.854.665-2.021.665-3.504 0-1.83-.494-3.264-1.485-4.299-.99-1.04-2.269-1.563-3.83-1.563zm14.618 0c-.74 0-1.373.15-1.894.447-.52.29-.983.727-1.396 1.313v-1.497h-1.756v15.94h1.927v-5.612c.328.42.745.767 1.25 1.041.513.276 1.09.414 1.731.414.877 0 1.71-.25 2.5-.748.799-.507 1.403-1.23 1.816-2.17.42-.948.631-2.011.631-3.19 0-1.1-.186-2.11-.564-3.028-.378-.927-.936-1.643-1.677-2.15-.741-.506-1.598-.76-2.568-.76zm20.66 0c-1.567 0-2.842.538-3.825 1.61-.983 1.07-1.476 2.572-1.476 4.511 0 1.874.486 3.333 1.455 4.374.976 1.035 2.295 1.551 3.955 1.551 1.319 0 2.401-.327 3.25-.978.847-.651 1.43-1.564 1.743-2.743l-1.99-.251c-.293.825-.689 1.426-1.188 1.802-.499.376-1.1.564-1.806.564-.948 0-1.737-.335-2.371-1.007-.634-.673-.987-1.644-1.058-2.91h8.463c.007-.232.013-.408.013-.523 0-1.902-.48-3.375-1.443-4.424-.962-1.05-2.204-1.576-3.721-1.576zm-256.862.263v7.138c0 .833.043 1.44.121 1.823.114.571.308 1.057.586 1.455.285.39.715.714 1.292.974a4.57 4.57 0 0 0 1.882.393c1.518 0 2.72-.65 3.604-1.953v1.694h1.718V99.907h-1.923v6.172c0 .984-.108 1.737-.322 2.258a2.49 2.49 0 0 1-1.066 1.229 3.172 3.172 0 0 1-1.627.443c-.577 0-1.06-.146-1.45-.435-.393-.297-.649-.703-.77-1.216-.078-.355-.117-1.042-.117-2.062v-6.389zm23.529 0v11.524h1.923V99.907Zm54.968 0v7.138c0 .833.04 1.44.117 1.823.115.571.308 1.057.586 1.455.284.39.718.714 1.296.974a4.55 4.55 0 0 0 1.877.393c1.518 0 2.72-.65 3.605-1.953v1.694h1.718V99.907h-1.923v6.172c0 .984-.104 1.737-.318 2.258-.21.518-.586.95-1.07 1.229a3.176 3.176 0 0 1-1.627.443c-.577 0-1.058-.146-1.45-.435a2.063 2.063 0 0 1-.77-1.216c-.079-.355-.121-1.042-.121-2.062v-6.389H93.2Zm14.23 0v11.524h1.923V99.907Zm100.758 1.267c.827 0 1.533.365 2.125 1.095.598.73.899 1.83.899 3.3 0 1.54-.308 2.682-.92 3.42-.606.73-1.337 1.095-2.191 1.095-.841 0-1.554-.353-2.145-1.062-.592-.709-.891-1.807-.891-3.29 0-1.484.314-2.61.94-3.383.635-.781 1.364-1.175 2.183-1.175zm42.538 0c.826 0 1.532.365 2.124 1.095.599.73.899 1.83.899 3.3 0 1.54-.307 2.682-.92 3.42-.606.73-1.336 1.095-2.191 1.095-.841 0-1.558-.353-2.15-1.062-.59-.709-.886-1.807-.886-3.29 0-1.484.314-2.61.941-3.383.634-.781 1.363-1.175 2.183-1.175zm-117.58.075c.976 0 1.774.377 2.387 1.13.399.484.638 1.213.723 2.182h-6.335c.064-1.006.392-1.808.991-2.409.606-.6 1.35-.903 2.233-.903zm89.038 0c.975 0 1.77.377 2.383 1.13.399.484.641 1.213.727 2.182h-6.339c.065-1.006.397-1.808.996-2.409.605-.6 1.349-.903 2.233-.903zm49.403 0c.976 0 1.77.377 2.383 1.13.399.484.642 1.213.728 2.182h-6.34c.065-1.006.397-1.808.996-2.409.605-.6 1.35-.903 2.233-.903zm-266.409.013c.947 0 1.737.37 2.37 1.108.643.73.963 1.807.963 3.232 0 1.512-.315 2.636-.95 3.374-.633.738-1.432 1.108-2.387 1.108-.962 0-1.758-.364-2.392-1.095-.634-.737-.953-1.85-.953-3.324 0-1.474.32-2.578.953-3.308.634-.73 1.433-1.095 2.396-1.095zm113.395 0c.877 0 1.614.37 2.212 1.108.599.738.899 1.893.899 3.47 0 1.432-.295 2.501-.887 3.203-.584.695-1.3 1.041-2.14 1.041-.834 0-1.554-.364-2.166-1.095-.613-.73-.92-1.835-.92-3.312 0-1.526.283-2.644.853-3.353.577-.709 1.294-1.062 2.149-1.062zm57.8 0c.947 0 1.736.37 2.37 1.108.642.73.966 1.807.966 3.232 0 1.512-.319 2.636-.953 3.374-.634.738-1.429 1.108-2.384 1.108-.962 0-1.761-.364-2.396-1.095-.633-.737-.948-1.85-.949-3.324 0-1.474.316-2.578.95-3.308.634-.73 1.433-1.095 2.395-1.095zm59.914 0c.948 0 1.742.37 2.375 1.108.642.73.962 1.807.962 3.232 0 1.512-.32 2.636-.953 3.374-.635.738-1.429 1.108-2.384 1.108-.962 0-1.757-.364-2.391-1.095-.634-.738-.954-1.844-.954-3.32 0-1.476.32-2.58.954-3.312.634-.73 1.43-1.095 2.391-1.095zM-36.413 111.54c-1.408-.086-2.73.236-3.705 1.07-4.123 6.974-8.315 13.851-12.28 20.911-7.409 6.482.853 12.257 7.488 13.803 4.392.933 5.812-5.473 7.594-8.334 3.43-6.143 5.906-12.522 9.023-18.703 1.118-4.585-3.897-8.49-8.12-8.747zm210.62 12.188c-1.05 0-1.921.357-2.617 1.067-.69.7-1.037 1.528-1.037 2.483 0 .478.109.975.33 1.489.22.514.662 1.182 1.326 2.007-1.166.6-2.042 1.295-2.63 2.09a4.364 4.364 0 0 0-.874 2.66c0 1.107.358 2.109 1.074 3.006.884 1.1 2.081 1.652 3.588 1.652.817 0 1.576-.176 2.279-.531.703-.362 1.352-.902 1.948-1.618.777.99 1.528 1.739 2.258 2.245l1.217-1.551a10.931 10.931 0 0 1-2.3-2.442c.55-.897.983-2.04 1.305-3.429l-1.878-.435c-.166.84-.4 1.58-.702 2.217L174.85 131c1.855-1.07 2.78-2.36 2.78-3.872 0-.934-.318-1.734-.96-2.4-.637-.666-1.46-1-2.464-1zM4.786 124v2.246h1.806V124Zm14.146 0v15.91h1.81v-6.305c0-.905.1-1.612.301-2.124.202-.515.536-.92 1.004-1.217a2.756 2.756 0 0 1 1.513-.456c.717 0 1.272.224 1.66.673.395.441.59 1.151.59 2.129v7.3h1.81v-7.3c0-1.13-.13-1.991-.384-2.585a2.811 2.811 0 0 0-1.242-1.388c-.582-.34-1.271-.51-2.061-.51-1.286 0-2.348.525-3.19 1.58V124Zm21.588 0v15.91h1.949V124Zm41.45 0v15.91h1.81V124Zm6.506 0v15.91h1.81V124Zm66.505 0v15.91h1.807V124Zm37.461 0v15.91h1.81V124Zm55.47 0v2.246h1.807V124h-1.806zm-234.5.36-1.798 1.17v2.856H10.29v1.518h1.325v6.632c0 1.172.074 1.943.222 2.312.147.362.4.654.76.878.362.225.872.335 1.527.335.402 0 .859-.056 1.367-.172l-.263-1.727c-.328.051-.59.076-.79.076-.268 0-.476-.048-.623-.142a.832.832 0 0 1-.314-.377c-.06-.16-.088-.517-.088-1.074v-6.74h1.815v-1.519h-1.815v-4.026zm49.7 0-1.794 1.17v2.856h-1.325v1.518h1.321v6.632c0 1.172.074 1.943.222 2.312.147.362.403.654.765.878.361.225.87.335 1.526.335.402 0 .859-.056 1.367-.172l-.263-1.727a5.42 5.42 0 0 1-.794.076c-.268 0-.472-.048-.62-.142a.832.832 0 0 1-.313-.377c-.06-.16-.092-.517-.092-1.074v-6.74h1.819v-1.519h-1.819zm59.635 0-1.798 1.17v2.856h-1.325v1.518h1.325v6.632c0 1.172.074 1.943.222 2.312.147.362.403.654.765.878.362.225.87.335 1.526.335.402 0 .855-.056 1.363-.172l-.26-1.727a5.396 5.396 0 0 1-.794.076c-.267 0-.475-.048-.623-.142a.823.823 0 0 1-.309-.377c-.06-.16-.092-.517-.092-1.074v-6.74h1.819v-1.519h-1.819zm51.372.978c.476 0 .868.172 1.184.519.32.34.48.782.48 1.325 0 .455-.116.87-.35 1.246-.229.376-.732.814-1.514 1.313l-.807-1.008a4.387 4.387 0 0 1-.531-.857 2.041 2.041 0 0 1-.167-.782c0-.492.16-.91.48-1.25.328-.34.737-.506 1.225-.506zm-121.485 2.785c-1.48 0-2.612.636-3.396 1.902v-1.639h-1.626v11.524h1.806v-6.293c0-1.476.276-2.478.832-3.006a2.825 2.825 0 0 1 1.999-.795c.482 0 .9.122 1.254.36.362.231.613.547.753.945.141.39.213.98.213 1.777v7.012h1.807v-7.087c0-.905-.034-1.537-.1-1.899-.108-.557-.293-1.037-.561-1.442-.268-.405-.674-.733-1.217-.979a4.064 4.064 0 0 0-1.764-.38zm20.38 0c-1.473 0-2.672.535-3.596 1.606-.924 1.07-1.384 2.576-1.384 4.516 0 1.873.456 3.332 1.367 4.373.917 1.036 2.153 1.552 3.713 1.552 1.238 0 2.256-.323 3.052-.975.797-.651 1.344-1.567 1.64-2.747l-1.87-.25c-.275.824-.647 1.425-1.116 1.801-.468.377-1.03.565-1.693.565-.89 0-1.633-.335-2.23-1.008-.596-.673-.928-1.644-.994-2.91h7.953c.006-.232.008-.404.008-.519 0-1.903-.45-3.378-1.355-4.428-.903-1.049-2.07-1.576-3.495-1.576zm26.388 0c-1.472 0-2.67.535-3.596 1.606-.923 1.07-1.384 2.576-1.384 4.516 0 1.873.453 3.332 1.363 4.373.917 1.035 2.157 1.552 3.718 1.552 1.238 0 2.256-.327 3.052-.979.797-.65 1.344-1.564 1.64-2.743l-1.87-.247c-.275.823-.648 1.423-1.116 1.798-.468.377-1.035.565-1.698.565-.89 0-1.633-.335-2.229-1.008-.596-.673-.928-1.644-.995-2.91h7.957c.007-.232.009-.404.009-.519 0-1.903-.45-3.378-1.355-4.428-.904-1.049-2.07-1.576-3.496-1.576zm13.305 0c-.917 0-1.767.236-2.55.707-.777.463-1.358 1.161-1.74 2.094-.381.933-.568 2.022-.568 3.266 0 1.925.442 3.406 1.325 4.44.89 1.028 2.062 1.54 3.52 1.54 1.166 0 2.148-.372 2.945-1.117.803-.752 1.302-1.791 1.497-3.115l-1.777-.25c-.128.976-.428 1.703-.904 2.173-.475.47-1.067.703-1.777.703-.883 0-1.6-.352-2.149-1.054-.549-.701-.824-1.826-.824-3.374 0-1.527.284-2.64.853-3.341.57-.71 1.31-1.066 2.22-1.066.603 0 1.114.198 1.535.59.43.39.728.973.895 1.747l1.756-.297c-.208-1.165-.677-2.06-1.413-2.689-.737-.636-1.685-.957-2.844-.957zm33.447 0c-.917 0-1.724.139-2.42.414-.696.268-1.23.656-1.598 1.162-.368.5-.63 1.156-.79 1.974l1.764.26c.195-.819.494-1.385.895-1.703.409-.325 1.04-.489 1.89-.489.91 0 1.596.224 2.057.665.342.325.51.885.51 1.68 0 .073-.001.244-.008.511-.69.26-1.763.485-3.224.673-.715.094-1.25.192-1.605.293a4.34 4.34 0 0 0-1.31.64 3.2 3.2 0 0 0-.932 1.129 3.363 3.363 0 0 0-.35 1.538c0 .962.316 1.757.944 2.38.63.614 1.53.92 2.701.92.71 0 1.375-.128 1.99-.381.623-.254 1.268-.686 1.937-1.3.054.542.172 1.016.36 1.421h1.89a4.688 4.688 0 0 1-.46-1.38c-.074-.485-.114-1.634-.114-3.45v-2.604c0-.869-.031-1.47-.092-1.802-.107-.536-.292-.975-.56-1.322-.267-.355-.685-.65-1.254-.882-.57-.231-1.31-.347-2.22-.347zm57.214 0c-1.473 0-2.672.535-3.596 1.606-.924 1.07-1.384 2.576-1.384 4.516 0 1.873.453 3.332 1.363 4.373.918 1.035 2.158 1.552 3.718 1.552 1.238 0 2.255-.327 3.052-.979.796-.65 1.34-1.564 1.635-2.743l-1.865-.247c-.274.823-.649 1.423-1.116 1.798-.47.377-1.035.565-1.698.565-.89 0-1.633-.335-2.229-1.008-.595-.673-.928-1.644-.995-2.91h7.957c.007-.232.009-.404.009-.519 0-1.903-.45-3.378-1.355-4.428-.904-1.049-2.07-1.576-3.496-1.576zm13.506 0c-.917 0-1.724.139-2.42.414-.697.268-1.23.656-1.598 1.162-.368.5-.634 1.156-.795 1.974l1.77.26c.193-.819.492-1.385.894-1.703.408-.325 1.035-.489 1.886-.489.91 0 1.6.224 2.061.665.341.325.51.885.51 1.68 0 .073-.002.244-.008.511-.69.26-1.764.485-3.224.673-.716.094-1.25.192-1.606.293a4.33 4.33 0 0 0-1.308.64 3.17 3.17 0 0 0-.933 1.129 3.355 3.355 0 0 0-.351 1.538c0 .962.316 1.757.945 2.38.63.614 1.53.92 2.701.92.71 0 1.37-.128 1.986-.381.623-.254 1.27-.686 1.94-1.3.054.542.173 1.016.36 1.421h1.89a4.698 4.698 0 0 1-.464-1.38c-.074-.485-.109-1.634-.109-3.45v-2.604c0-.869-.032-1.47-.092-1.802-.107-.536-.292-.975-.56-1.322-.268-.355-.69-.65-1.259-.882-.569-.231-1.305-.347-2.216-.347zm12.783 0c-.422 0-.812.132-1.167.393-.348.26-.73.797-1.146 1.614v-1.744h-1.626v11.524h1.81v-6.033c0-.825.1-1.585.301-2.28.135-.455.36-.808.674-1.061a1.617 1.617 0 0 1 1.062-.393c.44 0 .883.14 1.325.422l.623-1.81c-.63-.42-1.247-.632-1.856-.632zm9.889 0c-1.48 0-2.612.636-3.396 1.902v-1.639h-1.626v11.524h1.81v-6.293c0-1.476.276-2.478.832-3.006a2.825 2.825 0 0 1 2-.795 2.2 2.2 0 0 1 1.254.36c.361.231.612.547.752.945.14.39.213.98.213 1.777v7.012h1.807v-7.087c0-.905-.033-1.537-.1-1.899-.108-.557-.293-1.037-.56-1.442-.269-.405-.675-.733-1.218-.979a4.083 4.083 0 0 0-1.768-.38zm19.882 0c-1.48 0-2.612.636-3.395 1.902v-1.639h-1.627v11.524h1.807v-6.293c0-1.476.28-2.478.836-3.006a2.826 2.826 0 0 1 1.999-.795c.482 0 .9.122 1.254.36.362.231.613.547.753.945.14.39.209.98.209 1.777v7.012h1.81v-7.087c0-.905-.033-1.537-.1-1.899a3.926 3.926 0 0 0-.565-1.442c-.267-.405-.67-.733-1.212-.979a4.083 4.083 0 0 0-1.769-.38zm12.28.004c-.943 0-1.767.251-2.47.757-.697.507-1.23 1.228-1.598 2.162-.368.926-.552 1.936-.552 3.035 0 1.598.402 2.971 1.205 4.115.803 1.143 1.937 1.714 3.403 1.714 1.179 0 2.166-.504 2.957-1.51.006 1.274-.04 2.112-.134 2.51-.16.651-.469 1.156-.924 1.517-.455.362-1.099.544-1.936.544-.776 0-1.391-.182-1.84-.544-.335-.268-.537-.693-.61-1.279l-1.757-.284h-.004c-.026 1.244.354 2.174 1.137 2.789.784.622 1.81.932 3.082.932 1.071 0 1.97-.214 2.701-.648a3.858 3.858 0 0 0 1.61-1.781c.341-.745.51-2.015.51-3.81v-9.96h-1.668v1.389c-.817-1.1-1.853-1.648-3.111-1.648zm-285.015.26 3.262 11.523h1.89l2.157-8.868.41 1.965 1.698 6.903h1.877l3.337-11.524h-1.76l-1.828 6.661-.61 2.225-.531-2.204-1.598-6.682h-1.86l-1.698 6.75c-.186.79-.37 1.582-.552 2.374l-.631-2.471-1.698-6.653h-1.865zm18.093 0v11.523h1.806v-11.524H4.786Zm123.443 0v7.137c0 .832.039 1.44.113 1.823.107.572.29 1.058.552 1.455.268.392.67.719 1.212.979a4.062 4.062 0 0 0 1.769.389c1.426 0 2.552-.65 3.383-1.953v1.693h1.618v-11.524h-1.806v6.172c0 .984-.1 1.738-.302 2.258-.19.51-.542.942-1.003 1.23-.456.29-.985.444-1.526.443-.543 0-1-.146-1.368-.435-.368-.298-.61-.704-.723-1.217-.073-.354-.109-1.041-.109-2.061v-6.39h-1.81zm119.684 0v11.523h1.806v-11.524h-1.806zm-174.878 1.342c.917 0 1.665.376 2.24 1.129.376.485.602 1.213.682 2.182h-5.954c.06-1.005.37-1.808.932-2.408a2.78 2.78 0 0 1 2.1-.903zm26.388 0c.917 0 1.661.376 2.237 1.129.375.485.606 1.213.686 2.182h-5.954c.06-1.005.37-1.808.932-2.408a2.78 2.78 0 0 1 2.1-.903zm103.966 0c.918 0 1.662.376 2.237 1.129.375.485.606 1.213.686 2.182h-5.958c.06-1.005.374-1.808.936-2.408a2.78 2.78 0 0 1 2.1-.903zm68.45.012c.816 0 1.514.359 2.09 1.075.582.716.874 1.78.874 3.19 0 1.476-.282 2.563-.845 3.257-.562.688-1.26 1.03-2.09 1.03-.837 0-1.53-.348-2.087-1.042-.555-.694-.836-1.795-.836-3.308 0-1.389.282-2.434.845-3.136.562-.709 1.245-1.066 2.048-1.066zm-98.694 2.312 3.312 4.437a4.26 4.26 0 0 1-1.393 1.422c-.575.361-1.134.543-1.676.543-.871 0-1.548-.347-2.024-1.041-.475-.694-.71-1.363-.71-2.007 0-.528.172-1.062.513-1.597.342-.543 1-1.127 1.978-1.757zm-24.69 2.074v.715c0 .862-.1 1.512-.294 1.953a2.974 2.974 0 0 1-1.191 1.355c-.543.326-1.164.49-1.861.49-.703 0-1.237-.172-1.606-.52a1.739 1.739 0 0 1-.543-1.304c0-.34.084-.645.25-.92.169-.282.408-.495.716-.64.308-.144.833-.277 1.576-.393 1.313-.202 2.296-.446 2.952-.736zm70.719 0v.715c0 .862-.098 1.512-.293 1.953a2.976 2.976 0 0 1-1.196 1.355c-.542.326-1.16.49-1.856.49-.703 0-1.238-.172-1.606-.52a1.739 1.739 0 0 1-.543-1.304c0-.34.083-.645.25-.92.168-.282.408-.495.715-.64.308-.144.834-.277 1.577-.393 1.313-.202 2.296-.446 2.952-.736zM13.358 152.471c-.8 0-1.426.158-1.873.477-.441.31-.75.722-.925 1.23-.129.375-.192.948-.192 1.722v1.23H8.75v1.517h1.618v10.006h1.819v-10.006h2.103v-1.518h-2.103v-1.066c0-.694.117-1.168.347-1.422.23-.253.624-.38 1.18-.38.338 0 .698.036 1.078.109l.272-1.702a8.357 8.357 0 0 0-1.706-.197zm7.313 0c-.8 0-1.422.158-1.869.477-.44.31-.749.722-.924 1.23-.13.375-.197.948-.197 1.722v1.23h-1.614v1.517h1.614v10.006h1.823v-10.006h2.104v-1.518H19.5v-1.066c0-.694.117-1.168.347-1.422.231-.253.625-.38 1.18-.38.339 0 .699.036 1.078.109l.272-1.702a8.357 8.357 0 0 0-1.706-.197zm-33.982.272v15.91h5.377c.902 0 1.7-.091 2.392-.272.698-.18 1.29-.447 1.777-.794.495-.355.95-.835 1.363-1.443.413-.615.752-1.388 1.016-2.32.265-.934.397-2.008.397-3.216 0-1.418-.196-2.676-.59-3.776-.386-1.107-.97-2.012-1.755-2.722-.604-.55-1.333-.931-2.187-1.141-.61-.152-1.496-.226-2.655-.226zm16.721 0v2.245h1.828v-2.245zm21.534 0v2.245h1.832v-2.245zm32.285 0v15.91h1.827v-15.91H57.23Zm14.27 0v2.245h1.832v-2.245H71.5Zm40.025 0v2.245h1.832v-2.245zm27.974 0v15.91h11.122v-1.877h-9.149v-5.415h8.246v-1.87h-8.246v-4.87h8.802v-1.878zm-73.543.36-1.818 1.17v2.856h-1.343v1.518h1.343v6.632c0 1.171.073 1.939.221 2.308.15.361.407.658.774.882.365.224.882.335 1.547.335.406 0 .868-.057 1.384-.172l-.268-1.727a5.54 5.54 0 0 1-.803.076c-.27 0-.478-.048-.627-.143a.85.85 0 0 1-.318-.38c-.06-.16-.092-.514-.092-1.07v-6.74h1.84v-1.523h-1.84zm-77.292 1.517h3.131c1.172 0 2.022.11 2.551.327.732.303 1.353.904 1.86 1.802.516.89.774 2.166.774 3.83 0 1.2-.132 2.222-.397 3.069-.257.839-.62 1.508-1.087 2.007-.332.355-.78.629-1.342.824-.557.195-1.326.297-2.308.297h-3.182zm47.166 2.246c-.929 0-1.788.236-2.58.706-.786.463-1.374 1.162-1.76 2.095-.387.934-.582 2.021-.582 3.266 0 1.924.448 3.402 1.342 4.436.902 1.027 2.094 1.543 3.571 1.543 1.18 0 2.17-.375 2.977-1.12.814-.752 1.317-1.787 1.514-3.111l-1.798-.251c-.128.976-.435 1.7-.916 2.17-.482.47-1.08.707-1.798.707-.895 0-1.623-.352-2.178-1.054-.556-.702-.832-1.826-.832-3.374 0-1.527.289-2.64.865-3.341.576-.71 1.324-1.067 2.246-1.067.61 0 1.128.199 1.555.59.434.39.734.97.903 1.744l1.782-.293c-.21-1.165-.69-2.06-1.435-2.689-.745-.637-1.703-.957-2.876-.957zm46.626 0c-1.491 0-2.703.535-3.638 1.605-.935 1.071-1.405 2.577-1.405 4.516 0 1.875.463 3.333 1.384 4.374.929 1.035 2.184 1.551 3.764 1.551 1.253 0 2.283-.327 3.09-.978.806-.651 1.357-1.564 1.656-2.743l-1.89-.25c-.279.824-.655 1.424-1.13 1.801-.474.376-1.047.565-1.718.565-.901 0-1.655-.34-2.258-1.012-.603-.673-.94-1.64-1.008-2.906h8.054c.006-.232.012-.407.012-.523 0-1.903-.46-3.379-1.375-4.428s-2.094-1.572-3.538-1.572zm12.603 0a5.183 5.183 0 0 0-1.59.238c-.488.152-.873.34-1.157.565a3.132 3.132 0 0 0-1.23 2.517c0 .565.133 1.085.398 1.555.27.463.663.824 1.179 1.092.521.26 1.455.574 2.797.936.996.268 1.618.487 1.87.66.358.254.539.6.539 1.042 0 .492-.204.923-.61 1.292-.407.362-1.03.544-1.87.544-.834 0-1.485-.207-1.953-.62-.46-.412-.743-1.006-.844-1.78l-1.81.305c.203 1.222.672 2.146 1.404 2.768.739.622 1.809.932 3.211.932.848 0 1.608-.157 2.28-.468.67-.318 1.181-.762 1.534-1.334.36-.58.54-1.193.54-1.844 0-.666-.148-1.225-.44-1.672a2.744 2.744 0 0 0-1.208-1.02c-.509-.239-1.411-.543-2.706-.912-.894-.26-1.435-.425-1.618-.498-.319-.137-.55-.313-.698-.522a1.123 1.123 0 0 1-.226-.682c0-.398.18-.744.54-1.041.359-.296.957-.448 1.797-.448.712 0 1.261.17 1.648.502.393.334.63.796.71 1.388l1.79-.263c-.115-.745-.326-1.336-.631-1.777-.305-.448-.778-.805-1.422-1.066-.637-.26-1.377-.39-2.224-.39zm28.074 0c-1.498 0-2.644.632-3.437 1.898v-1.639h-1.648v11.528h1.832v-6.293c0-1.477.282-2.479.844-3.006a2.868 2.868 0 0 1 2.02-.795c.488 0 .912.12 1.271.36.366.231.623.543.765.94.143.392.213.986.213 1.782v7.012h1.828v-7.087c0-.905-.033-1.537-.1-1.899-.11-.557-.298-1.041-.57-1.446-.27-.405-.68-.729-1.229-.975a4.176 4.176 0 0 0-1.79-.38zm49.336 0c-.427 0-.82.128-1.18.389-.352.26-.737.801-1.158 1.618v-1.748h-1.647v11.528h1.827v-6.034c0-.824.102-1.584.305-2.278.136-.456.364-.813.682-1.067a1.66 1.66 0 0 1 1.079-.389c.447 0 .894.14 1.342.423l.631-1.81c-.636-.421-1.264-.632-1.881-.632zm9.257 0c-1.335 0-2.466.425-3.395 1.28-1.112 1.026-1.668 2.61-1.668 4.745 0 1.946.463 3.436 1.392 4.47.935 1.035 2.156 1.551 3.667 1.551a5.03 5.03 0 0 0 2.605-.706 4.56 4.56 0 0 0 1.82-1.974c.42-.854.63-2.022.63-3.504 0-1.83-.47-3.264-1.413-4.298-.942-1.042-2.153-1.564-3.638-1.564zm13.9 0c-.706 0-1.304.151-1.799.447-.494.29-.94.728-1.333 1.313v-1.501h-1.665v15.944h1.828v-5.612c.311.42.71.767 1.191 1.041.504.28 1.072.422 1.648.414.833 0 1.627-.249 2.379-.748.758-.506 1.333-1.23 1.727-2.17.4-.948.598-2.011.598-3.19 0-1.1-.177-2.11-.535-3.028-.36-.926-.893-1.643-1.598-2.15-.704-.505-1.52-.76-2.442-.76zm13.12 0c-1.49 0-2.702.535-3.637 1.605-.936 1.071-1.405 2.577-1.405 4.516 0 1.875.462 3.333 1.384 4.374.928 1.035 2.18 1.551 3.759 1.551 1.254 0 2.283-.327 3.09-.978.807-.651 1.362-1.564 1.66-2.743l-1.89-.25c-.278.824-.655 1.424-1.129 1.801-.474.376-1.047.565-1.719.565-.901 0-1.654-.34-2.257-1.012-.603-.673-.94-1.64-1.008-2.906h8.053c.007-.232.009-.407.009-.523 0-1.903-.457-3.379-1.372-4.428s-2.094-1.572-3.537-1.572zm-205.335.259v11.528h1.828v-11.528zm21.534 0v11.528h1.832v-11.528zm18.8 0v7.142c0 .832.038 1.44.113 1.823.108.572.291 1.057.556 1.455.27.39.684.714 1.233.974a4.15 4.15 0 0 0 1.786.393c1.443 0 2.588-.65 3.429-1.952v1.693h1.635v-11.528h-1.832v6.176c0 .984-.098 1.737-.301 2.258-.196.513-.539.92-1.02 1.225a2.893 2.893 0 0 1-1.543.447c-.55 0-1.012-.145-1.384-.434-.373-.297-.617-.704-.732-1.217-.075-.355-.113-1.042-.113-2.062v-6.393zm27.756 0v11.528h1.831v-11.528zm40.024 0v11.528h1.832v-11.528zm43.453 0v7.142c0 .832.038 1.44.113 1.823.108.572.292 1.057.556 1.455.271.39.681.714 1.23.974a4.17 4.17 0 0 0 1.79.393c1.443 0 2.587-.65 3.428-1.952v1.693h1.635v-11.528H161.9v6.176c0 .984-.105 1.737-.309 2.258a2.46 2.46 0 0 1-1.016 1.225 2.894 2.894 0 0 1-1.543.447c-.549 0-1.011-.145-1.384-.434-.372-.297-.616-.704-.732-1.217-.075-.355-.113-1.042-.113-2.062v-6.393h-1.827zm40.476 1.271c.786 0 1.461.366 2.024 1.096.569.73.853 1.83.853 3.299 0 1.541-.292 2.683-.874 3.42-.576.731-1.27 1.096-2.083 1.096-.8 0-1.482-.357-2.044-1.067-.562-.708-.845-1.802-.845-3.286 0-1.483.299-2.613.895-3.387.603-.781 1.294-1.17 2.074-1.17zm-112.977.075c.929 0 1.684.377 2.266 1.13.38.484.613 1.213.695 2.182h-6.03c.061-1.005.376-1.808.945-2.408a2.83 2.83 0 0 1 2.124-.904zm126.29 0c.929 0 1.684.377 2.267 1.13.38.484.608 1.213.69 2.182h-6.026c.061-1.005.376-1.808.945-2.408a2.83 2.83 0 0 1 2.124-.904zm-27.04.013c.9 0 1.65.37 2.253 1.108.61.73.916 1.807.916 3.232 0 1.512-.3 2.636-.903 3.375-.604.737-1.359 1.108-2.267 1.108-.915 0-1.675-.366-2.278-1.096-.604-.737-.908-1.844-.908-3.32 0-1.476.304-2.58.908-3.311.603-.731 1.363-1.096 2.278-1.096z" style="fill:#0053b5;fill-opacity:1;stroke:none" transform="translate(56.243 -4.731) scale(.4671)"/>
</svg>
