<svg xmlns="http://www.w3.org/2000/svg" xml:space="preserve" viewBox="0 0 97.362 100">
  <path d="M130.11 178.71c-.603-.162-1.106-.683-1.233-1.278-.057-.265-.022-.744.071-.986.162-.42.559-.815.977-.974.251-.096.731-.129.99-.068.457.106.93.472 1.136.878a1.69 1.69 0 0 1-.312 1.972 2.157 2.157 0 0 1-.393.31c-.354.19-.854.249-1.236.146zm1.09-.235a1.566 1.566 0 0 0 .269-2.67c-.93-.684-2.23-.173-2.47.97-.123.592.148 1.24.662 1.581.316.21.55.274.944.258.308-.011.367-.025.596-.139zm-1.339-1.495v-.946h.5c.274 0 .555.017.625.036.369.102.502.599.229.854l-.11.103.096.096c.087.088.096.12.096.353 0 .154.02.295.05.353l.05.096h-.44l-.023-.162a2.756 2.756 0 0 1-.022-.31c0-.218-.069-.263-.397-.263h-.269v.735h-.385zm1.05-.175c.098-.098.09-.263-.015-.37-.077-.077-.116-.086-.368-.086h-.282v.526h.298c.25 0 .309-.011.368-.07zm-18.114.679c.224-.753.821-2.343.914-2.436.015-.015.404.098.866.25a48.102 48.102 0 0 0 6.022 1.542c.327.06.6.114.604.12.019.018-1.484.3-2.241.421-1.758.28-3.48.435-5.495.495l-.795.024zm-2.702.331a43.741 43.741 0 0 1-5.473-.698c-.573-.112-2.041-.444-2.064-.467-.007-.007.987-1.036 2.21-2.287l2.223-2.274 1.062.529a48.047 48.047 0 0 0 3.62 1.628l.843.336-.155.368c-.347.823-.777 2.067-.953 2.756l-.038.15-.393-.006a23.225 23.225 0 0 1-.882-.034zm13.69-1.77c-3.26-.43-6.009-1.039-8.763-1.942l-.745-.244.147-.27c.812-1.478 2.039-3.138 3.065-4.146l.205-.2.245.196a74.976 74.976 0 0 0 6.967 4.947c.347.216.63.405.63.422 0 .016-.125.12-.28.232-.265.192-.815.636-1.12.904-.077.067-.164.121-.192.119a3.54 3.54 0 0 1-.158-.018zm2.25-2.46a69.728 69.728 0 0 1-5.308-3.603c-.788-.588-2.05-1.573-2.061-1.609-.011-.034.738-.623 1.222-.962.65-.454 1.334-.86 2.112-1.251.721-.363 1.748-.803 1.786-.764.01.01.823 1.882 1.805 4.16a1062.43 1062.43 0 0 0 1.803 4.169c.01.016-.118.099-.282.185l-.3.155zm-13.892-.522a59.6 59.6 0 0 1-1.628-.687c-.814-.361-2.409-1.131-2.513-1.213-.064-.05-.056-.058 4.6-4.822l.833-.851.518.488c.683.642 1.247 1.15 2.067 1.856l.672.58-.262.282c-1.302 1.404-2.344 2.843-3.164 4.37-.101.189-.202.342-.224.342-.023 0-.427-.156-.899-.345zm16.097-.123c-.806-1.849-3.386-7.861-3.386-7.89 0-.07 1.148-.354 2.083-.513.7-.12 1.328-.189 2.154-.236.628-.036 1.727-.024 2.155.024l.176.02-.045.566a73.582 73.582 0 0 1-.574 4.855 87.67 87.67 0 0 1-.471 2.738c-.018.085-.062.107-.514.258-.272.09-.704.247-.96.348l-.464.184zm3.456-.797c.013-.065.094-.528.179-1.028.332-1.95.578-3.867.75-5.842.037-.42.072-.77.078-.776.024-.024 1.014.165 1.553.296.308.075.796.207 1.085.294.552.166 1.723.593 1.78.65.059.06-1.075 2.136-1.884 3.452-.407.66-1.15 1.788-1.572 2.385l-.3.424-.377.042c-.376.042-1.123.162-1.25.2-.059.018-.064.007-.042-.097zm4.403-1.928c.61-.972 1.36-2.283 1.885-3.294.177-.341.336-.621.353-.621.085 0 1.644.9 1.644.948 0 .057-1.466 1.306-2.346 1.998-.51.4-1.54 1.164-1.651 1.224-.046.024-.01-.058.115-.255zm-50.051-2.108a30.388 30.388 0 0 1-.806-.711c-.12-.115-.491-.465-.824-.779-2.415-2.278-4.784-5.2-6.573-8.108-.435-.707-1.103-1.872-1.102-1.923 0-.02.213-.14.474-.263l.474-.225.2.195c.253.247.43.355.756.465.434.146.994.11 1.396-.09.103-.052 2.47-2.394 7.782-7.703 8.385-8.38 7.753-7.781 8.21-7.782.271-.001.429.06.63.242.361.325.446.703.241 1.064-.083.146-1.697 1.78-6.706 6.788-4.94 4.939-6.618 6.636-6.679 6.758-.16.319-.21.532-.21.88 0 1.03.799 1.85 1.817 1.866.342.006.59-.051.905-.209.222-.111.7-.58 7.09-6.975 4.836-4.838 6.893-6.875 6.992-6.92.608-.28 1.314.152 1.313.804 0 .444.385.03-5.834 6.251-3.11 3.111-5.686 5.705-5.723 5.765-.107.17-.207.496-.23.747-.075.844.627 1.738 1.423 1.81.723.064 1.588-.389 2.766-1.448 1.615-1.454 4.834-4.7 8.771-8.848.385-.406 1.002-1.046 1.37-1.423l.67-.686.023-.715c.012-.394.102-5.372.2-11.063.098-5.69.186-10.355.195-10.365.01-.01.413-.017.898-.016.889 0 1.268.037 1.878.175.716.164 1.53.526 2.032.904 1.135.856 1.717 2.026 1.997 4.015.067.476.278 2.484.506 4.814.068.694.133 1.33.144 1.415l.02.155 14.365-14.364 14.364-14.364.646.658c2.367 2.414 4.66 5.539 6.417 8.747.39.711 1.284 2.497 1.284 2.563 0 .025-10.353 5-10.46 5.025-.023.006-.167-.253-.338-.612-.497-1.042-1.327-2.613-1.798-3.404l-.105-.175.847-.858c.92-.931 1.053-1.108 1.232-1.628.084-.247.096-.332.096-.718 0-.386-.012-.471-.096-.718-.336-.978-1.146-1.598-2.159-1.652-.437-.024-.762.046-1.19.254l-.333.163-11.8 11.796c-6.49 6.488-11.813 11.797-11.827 11.797-.014 0-.026-.06-.026-.135 0-.347-.63-7.856-.72-8.584-.116-.934-.35-1.828-.613-2.351-.562-1.113-1.523-1.808-2.834-2.048-.315-.057-1.576-.095-1.623-.048-.013.014-.337 21.283-.34 22.375v.262l-.967.998a791.35 791.35 0 0 0-3.006 3.117c-.195.202-3.623 3.779-7.616 7.948-3.994 4.17-7.27 7.585-7.28 7.59-.011.005-.284-.218-.606-.495zm31.01-1.06c-1.063-.915-2.709-2.413-2.709-2.467 0-.027 4.509-4.653 4.535-4.653.007 0 .143.082.303.181.797.495 1.554.73 2.356.73h.29l.704 1.636c.387.9.708 1.658.714 1.683.007.028-.164.115-.463.237a21.292 21.292 0 0 0-3.327 1.764 22.97 22.97 0 0 0-1.519 1.136 2.46 2.46 0 0 1-.301.232c-.014 0-.276-.216-.582-.479zm23.337-1.056a23.453 23.453 0 0 0-1.036-.602l-.487-.261.155-.333c1.276-2.743 2.418-6.09 3.121-9.14a47.948 47.948 0 0 0 1.197-8.734c.047-.987.025-4.095-.035-4.922-.285-3.95-.884-7.288-1.923-10.715-.49-1.62-1.184-3.535-1.743-4.818-.02-.047 10.456-5.071 10.494-5.032.092.095.848 2.13 1.2 3.232 1.052 3.283 1.645 6.473 1.885 10.137.057.865.057 3.825 0 4.675-.13 1.96-.322 3.53-.638 5.217-1.372 7.327-4.728 14.108-9.749 19.697-.472.525-1.837 1.944-1.869 1.941-.013 0-.27-.155-.572-.342zm-3.066-1.549c-1.225-.511-3.187-1.053-4.38-1.209l-.185-.024.02-.179c.096-.89.131-5.012.057-6.71a90.296 90.296 0 0 0-.18-2.94c-.058-.711-.182-1.944-.197-1.96-.008-.01-.246.213-.53.494-.565.56-.81.737-1.413 1.026-.886.425-1.772.538-2.584.33-.722-.185-1.153-.515-1.637-1.255-.412-.632-.6-.793-.972-.832-.371-.038-.62.088-1.304.66-.566.474-.974.637-1.586.633-1.358-.01-2.827-1.218-3.338-2.746a2.99 2.99 0 0 1-.173-1.113c.005-.71.177-1.157.744-1.926.402-.544.495-.725.517-.997.03-.388-.013-.47-.529-.98-.729-.723-1.316-1.486-1.619-2.105-.243-.498-.338-.912-.343-1.503-.003-.29.016-.586.044-.726l.047-.235 3.154-3.144c3.768-3.755 5.237-5.224 8.31-8.308 1.276-1.28 3.312-3.319 4.523-4.53l2.204-2.2.273.485c.725 1.288 1.734 3.318 1.675 3.373-.016.016-1.724.837-3.794 1.825l-3.764 1.797-5.52 5.516c-5.473 5.47-5.52 5.519-5.648 5.786a2.197 2.197 0 0 0 .439 2.55c.401.4.967.63 1.553.63.356 0 .619-.066 1-.25l.297-.143 5.293-5.292 5.293-5.293.144-.302c.147-.308.248-.713.248-.998 0-.272-.105-.686-.251-.99a1.77 1.77 0 0 0-.411-.564l-.269-.27 2.943-1.408a177.867 177.867 0 0 1 2.978-1.408c.042 0 .374.8.75 1.808a45.816 45.816 0 0 1 2.75 12.256c.097 1.187.125 1.798.147 3.134.098 6.137-1.052 12.284-3.384 18.086-.387.96-.986 2.294-1.03 2.29a3.79 3.79 0 0 1-.362-.139zm-7.369-12.263a3.14 3.14 0 0 0 .454-.207c.256-.15 5.117-5.02 5.284-5.292.06-.1.155-.308.209-.462.089-.253.098-.323.096-.735-.002-.398-.013-.487-.093-.712a2.309 2.309 0 0 0-1.827-1.538c-.29-.048-.388-.05-.64-.014a2.388 2.388 0 0 0-.945.34c-.296.186-5.031 4.927-5.225 5.23-.232.363-.33.713-.333 1.193-.003.33.012.451.08.666a2.343 2.343 0 0 0 1.623 1.577c.372.1.962.08 1.318-.046zm-6.855-1.063c.157-.052.378-.154.491-.228.138-.089 1.999-1.928 5.687-5.62 5.357-5.362 5.485-5.494 5.619-5.76.19-.38.26-.72.239-1.164-.029-.604-.235-1.066-.68-1.514a1.702 1.702 0 0 0-.577-.41c-.42-.2-.63-.25-1.064-.245-.41.004-.78.106-1.12.31-.307.184-11.126 10.977-11.29 11.262a2.347 2.347 0 0 0-.072 2.228 2.369 2.369 0 0 0 1.656 1.232c.304.055.79.015 1.11-.091zm1.169 12.618c-.03-.062-.349-.798-.71-1.636l-.658-1.523.336-.175a6.305 6.305 0 0 0 1.017-.66c.125-.098 1.354-1.297 2.73-2.665a518.941 518.941 0 0 1 3.42-3.373l.916-.885.02.167c.028.226.117 1.426.161 2.18.134 2.292.141 5.644.016 7.565l-.022.333-.425-.03c-.526-.036-2.315-.008-2.86.045-1.244.122-2.684.4-3.721.718l-.168.051zM69.71 160.46a4.597 4.597 0 0 1-.215-.481c.001-.038 1.987-1.622 2.504-1.999.17-.124.3-.225.287-.225-.012 0-.789.198-1.726.44-.937.242-1.71.433-1.719.425-.045-.045-.433-.889-.425-.924.01-.04.594-.493 2.104-1.63.382-.288.689-.53.682-.536a.89.89 0 0 0-.222.042c-.114.03-.893.208-1.729.395l-1.52.34-.222-.457-.222-.456 2.46-.426c1.353-.234 2.471-.416 2.485-.404.013.012.11.206.216.431l.192.41-1.267.958a122.4 122.4 0 0 1-1.504 1.127c-.131.093-.231.176-.222.184.009.01.17-.025.358-.077.53-.144 3.28-.825 3.289-.815.018.022.169.33.28.573l.117.259-1.87 1.646a195.606 195.606 0 0 1-1.882 1.646c-.006 0-.11-.2-.23-.446zm84.336-.076a1.735 1.735 0 0 1-.219-.081c-.008-.008.084-.204.204-.436.194-.373.227-.418.289-.394.124.05.381.033.526-.033.272-.123.564-.548.649-.944.069-.32-.064-.594-.332-.686-.282-.096-.415 0-1.042.742-.8.948-.997 1.097-1.481 1.122-.225.011-.32 0-.477-.06-.888-.335-1.208-1.241-.793-2.244.231-.559.61-1.063.97-1.295a1.48 1.48 0 0 1 1.194-.19c.346.103.34.067.1.544-.19.38-.219.42-.288.4-.252-.071-.407-.064-.599.03-.44.216-.84 1.1-.676 1.496.076.183.282.328.463.328.22 0 .396-.144.87-.718.513-.62.843-.947 1.064-1.055.138-.069.222-.083.484-.083.296 0 .335.01.583.132.777.384 1.022 1.167.654 2.09-.237.593-.6 1.019-1.062 1.247-.24.12-.305.135-.574.145a1.308 1.308 0 0 1-.507-.057zm.968-4.742a99.207 99.207 0 0 1-2.202-.871c-.032-.032.3-.905.35-.924.02-.008.857-.14 1.858-.293 2.045-.315 2.017-.31 1.943-.35-.029-.015-.737-.291-1.575-.613-.838-.323-1.527-.59-1.531-.593-.01-.008.305-.836.324-.855.01-.01 4.463 1.698 4.487 1.722.028.028-.364.97-.409.983-.029.008-.884.138-1.9.289-1.015.15-1.846.282-1.846.292 0 .01.693.285 1.54.612.848.326 1.54.61 1.539.63-.006.104-.31.807-.352.811-.027.003-1.029-.375-2.226-.84zm-79.184-.806a40.468 40.468 0 0 1-3.726-12.733 37.49 37.49 0 0 1-.288-4.342 40.522 40.522 0 0 1 3.751-17.752 41.254 41.254 0 0 1 6.897-10.347c.525-.575 1.148-1.21 1.188-1.21.016 0 .253.101.525.224.637.288 1.183.502 1.888.742.31.105.569.196.575.202.006.006-.116.286-.272.621a47.974 47.974 0 0 0-3.065 8.676l-.2.81h-.256c-.25 0-.257.004-.283.097-.051.183-.026 1.58.033 1.863.05.243.05.287-.009.613-.267 1.487-.505 3.552-.636 5.534-.059.892-.058 4.403 0 5.287.163 2.436.44 4.594.844 6.566l.104.508-3.58 3.589c-3.306 3.313-3.59 3.607-3.691 3.818-.06.127-.134.331-.163.456-.27 1.147.626 2.275 1.807 2.273.344 0 .593-.06.903-.217.206-.104.852-.742 6.934-6.833 3.688-3.695 6.77-6.763 6.848-6.817.325-.224.752-.259 1.119-.09a.92.92 0 0 1 .506.487c.149.305.17.548.075.87l-.075.258-7.94 7.93c-7.39 7.381-7.95 7.949-8.069 8.177-.113.22-.149.326-.218.656-.022.105-.058.126-.812.483l-.425.201zm-7.912-.898a2.179 2.179 0 0 1-1.127-.49c-.422-.363-.747-1.098-.788-1.786-.025-.417.023-.654.205-1.017.314-.629.875-1.038 1.801-1.314.243-.072.413-.097.767-.11.514-.02.745.023 1.138.209.322.152.714.551.884.902.166.342.3.81.327 1.148.05.643-.243 1.287-.796 1.747-.394.327-1.191.64-1.811.711-.33.038-.32.038-.6 0zm1.033-1.102c.613-.21.985-.489 1.18-.886a.837.837 0 0 0 .112-.496c-.006-.592-.346-1.058-.886-1.216-.297-.086-.777-.05-1.194.09-.595.2-.978.486-1.18.88-.085.167-.098.23-.096.49.003.604.32 1.04.89 1.23.05.015.27.023.491.016.326-.01.456-.03.683-.108zm88.188-1.61c-1.245-.205-2.116-.874-2.332-1.79-.115-.488-.006-1.194.273-1.76.371-.756 1.125-1.16 2.076-1.114 1.407.069 2.475.812 2.7 1.879.138.655-.133 1.656-.583 2.149-.501.548-1.273.778-2.134.636zm1.198-1.097c.446-.22.667-.59.672-1.128.002-.257-.01-.324-.094-.494-.116-.236-.399-.514-.659-.645-.635-.322-1.41-.418-1.843-.227-.386.17-.577.377-.708.764-.273.81.229 1.494 1.304 1.778.264.07.391.083.708.076.356-.008.404-.018.62-.124zm-93.08-1.207c0-.005-.113-.537-.25-1.182-.209-.978-.25-1.23-.254-1.523-.003-.31.007-.372.09-.549.383-.819 1.55-1.067 2.107-.447l.15.167.041-.154c.049-.183.245-.412.436-.51.075-.038.37-.122.657-.188.568-.129.704-.183.79-.315.067-.102.142-.113.167-.026.064.224.201.965.186 1.003-.024.063-.454.214-.864.303-.408.088-.674.206-.758.334-.09.138-.077.387.055 1.01.06.289.116.53.122.537.007.007.397-.069.866-.167.47-.098.883-.182.92-.185.058-.006.079.051.163.448.054.25.087.465.074.476-.025.022-4.577.978-4.654.977-.025 0-.044-.005-.044-.01zm1.284-1.235c.321-.067.591-.13.599-.137.025-.025-.242-1.224-.305-1.369-.15-.344-.481-.434-.902-.244a.527.527 0 0 0-.326.48c-.001.213.257 1.394.305 1.394.024 0 .307-.056.629-.124zm91.49-1.884a214.12 214.12 0 0 1-2.358-.43c-.029-.021.152-.933.187-.946.042-.016 4.665.806 4.693.834.018.017-.138.932-.162.952-.008.006-1.07-.179-2.36-.41zm2.155-1.36a1.892 1.892 0 0 1-.275-.047 8.893 8.893 0 0 1 .066-.698c.043-.377.068-.696.055-.71-.013-.012-.89-.12-1.948-.238-1.059-.118-1.935-.224-1.947-.237-.036-.036.064-.94.106-.957.02-.008.887.08 1.926.196 1.038.116 1.914.21 1.946.21.049 0 .069-.103.136-.707.043-.39.082-.712.086-.717.014-.014.79.08.808.098.01.009-.077.857-.191 1.885-.115 1.029-.209 1.89-.209 1.916 0 .054-.155.056-.56.005zm-95.952-1.072c-.029-.264-.043-.49-.031-.501.011-.011.887-.112 1.947-.223 1.059-.111 1.936-.212 1.948-.224.013-.013-.034-.546-.103-1.186-.068-.64-.116-1.173-.105-1.183.016-.017.807-.121.82-.109.017.015.363 3.361.35 3.375-.01.009-1.023.124-2.252.256-1.229.131-2.299.247-2.377.257l-.144.018zm92.145-3.445c.014-.334.037-.54.062-.556a6.27 6.27 0 0 1 .486-.155l.447-.132.022-.263c.013-.146.023-.55.023-.9v-.636l-.492-.173-.492-.172.024-.508c.013-.28.027-.512.03-.516.003-.005 1.069.397 2.368.893l2.361.902v1.15l-2.416.798a453.67 453.67 0 0 1-2.43.798 4.69 4.69 0 0 1 .008-.53zm2.816-1.384c.505-.15.907-.282.893-.296-.044-.043-1.808-.655-1.837-.638-.035.022-.035 1.203 0 1.204.014 0 .439-.12.944-.27zm-95.338-.346c0-1.334.021-1.534.194-1.875.127-.252.47-.581.751-.722.407-.204.714-.265 1.348-.269.427-.003.624.013.831.061.884.207 1.449.688 1.616 1.376.036.147.057.553.074 1.405l.023 1.2h-1.237c-.68 0-1.77.01-2.42.023l-1.18.023zm3.971-.4c-.002-.687-.022-.766-.252-1.022-.166-.183-.53-.36-.858-.415a3.694 3.694 0 0 0-.672-.024c-.784.034-1.178.239-1.318.687-.022.07-.048.414-.057.766l-.017.639 1.588-.009 1.588-.009zm16.147 1.259c-.027-.078-.184-.965-.28-1.592a46.273 46.273 0 0 1-.142-13c.048-.37.087-.681.087-.691 0-.01.114.069.254.175.58.442 1.223.678 2.565.942.956.188 1.707.296 3.414.494 1.816.21 3.037.381 3.088.431.014.013.088.434.167.934.078.501.217 1.324.31 1.828l.168.917-4.806 4.807c-3.165 3.164-4.813 4.788-4.825 4.755zm72.414-3.867c-.01-.097-.025-.318-.034-.493l-.016-.316 2.212-.114c1.216-.062 2.3-.122 2.408-.133l.196-.02.025.48c.013.264.015.49.004.5-.012.012-.986.072-2.165.134l-2.378.126-.235.013zm1.058-1.753c-.506-.123-1.059-.54-1.269-.956-.216-.429-.305-1.159-.197-1.616.125-.53.533-1.043 1.036-1.304.66-.342 1.69-.467 2.38-.29.717.184 1.273.706 1.474 1.384.13.435.121 1.12-.018 1.517-.147.42-.522.823-.95 1.019-.363.166-.353.173-.423-.33-.033-.241-.061-.462-.063-.492-.002-.032.058-.082.141-.118.363-.16.556-.468.557-.886 0-.532-.244-.877-.756-1.067-.29-.107-1.058-.108-1.455 0-.52.14-.832.359-1 .701-.083.168-.098.242-.098.482 0 .245.015.311.106.488.16.312.335.42.916.559.01.003.116.828.116.9 0 .051-.028.063-.149.06a2.034 2.034 0 0 1-.348-.051zm-91-.936c-1.28-.175-2.335-.323-2.344-.33-.015-.013.407-3.228.438-3.338.014-.048.058-.048.418-.003.26.033.403.066.403.092 0 .023-.072.566-.159 1.207-.087.641-.154 1.169-.149 1.173.015.013 1.09.158 1.099.148a33.9 33.9 0 0 0 .134-.936c.069-.51.134-.983.145-1.05l.019-.124.4.05c.368.047.402.057.4.124 0 .04-.062.514-.137 1.053-.074.54-.13.986-.123.993.007.007.447.072.978.143.531.072.975.141.987.153.039.038-.097.97-.14.965l-2.369-.32zm.596-4.216a320.844 320.844 0 0 1-2.3-.548c-.009-.011.795-3.398.811-3.414.01-.01.197.026.418.079.264.062.396.109.387.136-.028.078-.54 2.282-.55 2.366-.009.08.012.088.48.199.27.063.494.111.5.106.005-.005.127-.511.271-1.124.145-.613.27-1.121.278-1.13.017-.016.75.15.776.176.009.01-.102.519-.246 1.133-.145.613-.252 1.126-.238 1.139.04.035 1.16.29 1.182.268.01-.01.154-.592.318-1.293.165-.7.302-1.276.305-1.279.013-.012.778.173.8.194.014.012-.16.81-.386 1.773-.303 1.287-.425 1.752-.462 1.756-.028.003-1.083-.239-2.344-.537zm89.728.29c-.715-.14-1.234-.53-1.52-1.143-.192-.41-.26-.733-.26-1.242 0-.379.012-.49.075-.659.36-.976 1.46-1.611 2.79-1.611.403 0 .487.01.728.093.755.26 1.224.802 1.43 1.652.097.404.104.927.017 1.225-.129.442-.463.89-.858 1.154-.647.43-1.711.665-2.402.53zm1.281-1.101c.7-.23 1.111-.639 1.173-1.167.043-.365-.125-.837-.382-1.068-.423-.382-1.071-.446-1.856-.184-.56.186-.832.395-1.025.785-.123.248-.127.272-.113.55.025.473.253.87.605 1.05.297.154.372.168.825.156.377-.01.484-.027.773-.122zm-63.55-.222c-.1-.6-.176-1.097-.17-1.103.02-.02.481.161.653.255.385.209.435.588.158 1.192-.103.224-.417.748-.449.748-.007 0-.093-.492-.193-1.092zm-26.32-3.406c-1.232-.43-2.244-.796-2.25-.814-.02-.057.723-2.149.842-2.374.32-.606.94-.924 1.722-.882.802.043 1.641.397 2.17.917.422.414.579.763.578 1.292 0 .175-.017.381-.038.458-.07.26-.745 2.189-.765 2.186-.01-.002-1.027-.354-2.259-.783zm2.004-.956c.223-.666.232-.81.076-1.123-.14-.28-.385-.495-.786-.689-.544-.264-1.134-.383-1.483-.3-.228.056-.451.25-.57.498-.098.2-.428 1.115-.41 1.13.015.012 2.946 1.032 2.971 1.034.01 0 .1-.247.202-.55zm84.729.839c-.544-.188-.937-.63-1.19-1.338-.327-.915-.232-1.65.276-2.13.175-.165.493-.352.532-.312.045.044.329.884.302.893a1.413 1.413 0 0 0-.175.116c-.295.217-.363.584-.199 1.073.112.333.228.532.402.688.172.157.337.19.543.111.335-.128.374-.303.267-1.21-.116-.993-.122-1.093-.078-1.348.053-.302.133-.457.33-.638a1.444 1.444 0 0 1 2.068.1c.222.246.44.665.545 1.045.079.289.096.816.035 1.08a1.44 1.44 0 0 1-.62.874c-.31.196-.297.203-.457-.245l-.16-.447c-.014-.036.029-.083.13-.144.196-.119.303-.33.303-.599 0-.38-.219-.875-.464-1.05-.252-.179-.638-.094-.746.164-.07.166-.065.316.04 1.216.115 1.005.088 1.304-.148 1.645-.283.41-1.03.63-1.536.456zm-85.036-4.596c-1.413-.661-2.15-1.025-2.145-1.056.009-.051 1.435-3.111 1.462-3.14.022-.02.753.312.753.344 0 .013-.237.533-.527 1.156-.29.623-.514 1.144-.499 1.158.042.039.89.426.904.412.007-.007.227-.476.49-1.044a58.81 58.81 0 0 1 .493-1.046c.014-.015.75.314.75.334 0 .007-.221.487-.49 1.068-.27.581-.487 1.059-.482 1.062.064.043 1.117.515 1.126.505.007-.008.264-.553.57-1.211l.559-1.197.382.177c.21.097.386.18.39.183.016.012-1.53 3.294-1.555 3.299-.015.003-.997-.449-2.181-1.004zm29.466.84c-2.1-.034-4.23-.063-4.734-.065l-.917-.003-.02-.149c-.097-.755-.135-5.15-.06-6.82a60.22 60.22 0 0 1 .13-2.229l.02-.18.27-.024c1.772-.152 3.31-.482 4.832-1.037a7.62 7.62 0 0 1 .653-.218c.06-.005.388.733 2.389 5.37a946.56 946.56 0 0 1 2.32 5.4c.002.033-.15.032-4.883-.045zm6.029-.074-2.418-5.609a986.269 986.269 0 0 1-2.368-5.515c0-.012.241-.144.536-.292a18.632 18.632 0 0 0 3.67-2.47l.405-.35.77.617c2.304 1.843 4.75 4.053 6.49 5.862l.432.449-2.764 2.766c-1.52 1.522-3.2 3.192-3.734 3.712l-.97.946zm-17.55-.091a333.32 333.32 0 0 1-3.406-.06c-.019-.017.377-1.532.605-2.316a46.39 46.39 0 0 1 2.555-6.771c.167-.357.314-.658.328-.67.013-.011.22.024.461.079 1.017.231 2.187.39 3.356.454.398.022.729.044.735.05.006.006-.014.425-.044.932-.153 2.572-.166 5.64-.034 7.952l.023.412-.59-.006c-.326-.003-2.12-.029-3.988-.057zm65.464-.24c-.61-.163-1.14-.78-1.412-1.643-.276-.874-.044-1.649.6-2.005l.146-.081.203.43.204.432-.112.087c-.37.288-.406.668-.12 1.25.25.507.562.74.87.647.198-.06.313-.165.357-.328.049-.18.026-.35-.152-1.113-.122-.528-.142-.672-.145-1.033-.003-.403.002-.428.102-.608.252-.455.872-.747 1.426-.67.553.077 1.005.464 1.328 1.138.202.42.252.662.232 1.12-.018.438-.095.658-.32.916-.113.13-.418.362-.476.362-.013 0-.114-.188-.226-.417l-.202-.417.141-.128c.265-.239.31-.535.148-.968-.158-.424-.465-.731-.728-.731a.52.52 0 0 0-.431.217c-.101.16-.077.434.109 1.254.12.532.148.716.151 1.033.004.335-.007.409-.078.567-.093.204-.34.456-.56.568-.337.171-.71.214-1.055.122zm-81.328-4.535a470.82 470.82 0 0 1-2.071-1.24c-.077-.05-.072-.06.576-1.139.737-1.225.904-1.439 1.241-1.592.191-.086.264-.1.536-.1.444 0 .661.09.965.396.29.291.362.44.364.747.001.13.009.236.017.236.009 0 .087-.035.175-.078a.766.766 0 0 1 .37-.078c.245.002.434.08.998.412.34.2.385.217.588.221.121.003.227.011.235.02.008.008-.113.228-.27.49l-.283.474-.144-.044c-.225-.07-.37-.138-.67-.316-.38-.225-.555-.295-.735-.295-.13 0-.174.02-.29.131-.12.118-.707 1.043-.707 1.117 0 .017.355.243.788.503.433.26.788.485.788.501 0 .017-.107.209-.238.427l-.239.398zm.487-1.521c.15-.25.312-.532.358-.628.165-.341.086-.6-.245-.804a.588.588 0 0 0-.392-.106c-.203 0-.229.009-.346.122-.07.068-.278.373-.463.679-.26.433-.324.562-.286.585l.54.326c.269.164.505.294.524.288.02-.006.159-.214.31-.462zm78.457 2.288a6.34 6.34 0 0 1-.272-.473c-.006-.025.139-.216.322-.425l.334-.38-.458-.749a52.055 52.055 0 0 0-.471-.764c-.008-.008-.236.037-.508.1-.413.096-.501.107-.538.067a6.14 6.14 0 0 1-.277-.432c-.205-.339-.225-.388-.17-.41.033-.015 1.125-.247 2.425-.517 1.3-.27 2.397-.498 2.438-.508.064-.015.116.051.37.467l.296.484-1.59 1.958c-.873 1.077-1.6 1.97-1.614 1.984-.014.014-.143-.167-.287-.402zm1.608-2.704c.348-.404.627-.739.621-.745-.016-.016-1.856.418-1.888.446-.03.027.573 1.053.612 1.04.013-.004.308-.338.655-.741zm-77.696-2.72c-.76-1.157-1.388-2.126-1.394-2.151-.006-.026.134-.241.312-.478l.33-.44a327.57 327.57 0 0 1 4.839 1.529c.028.015-.068.167-.282.446l-.324.424-.488-.17c-.383-.134-.496-.16-.527-.127a36.14 36.14 0 0 0-1.03 1.384c0 .014.126.206.28.427.154.22.28.414.28.43 0 .022-.592.831-.609.831-.003 0-.627-.947-1.387-2.105zm1.344-.845c.285-.377.329-.451.277-.471a85.466 85.466 0 0 0-1.82-.629c-.003.004.247.374.557.823.45.654.57.807.604.77.023-.025.195-.247.382-.493zm36.873 1.37a74.772 74.772 0 0 0-6.43-5.75l-.48-.38.37-.408c.88-.968 1.874-2.323 2.427-3.306.067-.119.137-.2.171-.2.032 0 .381.102.776.228a46.584 46.584 0 0 1 9.41 4.173c.313.182.576.343.585.357.009.014-1.352 1.382-3.023 3.04l-3.039 3.016zm33.453-1.538-1.145-1.398.2-.167c.934-.774 3.486-2.865 3.508-2.873.025-.01 2.209 2.618 2.235 2.689.014.038-.587.532-.63.517-.02-.006-.384-.436-.812-.956-.427-.519-.795-.944-.817-.944-.04 0-.774.58-.778.615-.001.01.328.42.732.91.404.49.734.9.733.909-.001.01-.142.132-.314.271l-.312.254-.342-.414-.737-.893c-.217-.263-.407-.479-.422-.479-.04 0-.934.74-.934.774 0 .015.37.479.823 1.03.453.55.826 1.011.829 1.025.007.03-.605.534-.644.53-.015 0-.543-.631-1.173-1.4zm-55.072-.126c-.725-.052-2.042-.24-2.652-.38l-.253-.057.091-.18c.184-.364.767-1.391 1.167-2.056a44.69 44.69 0 0 1 2.323-3.506l.423-.582.51-.106a7.8 7.8 0 0 1 .517-.099c.005.004-.022.165-.06.357-.297 1.536-.69 4.326-.84 5.984-.021.231-.046.472-.056.534l-.018.114-.497-.006a16.999 16.999 0 0 1-.655-.017zm2.45-.06c0-.107.176-1.71.266-2.42.177-1.403.415-2.913.668-4.238l.128-.665.61-.228.638-.237c.024-.01 2.873 6.557 2.873 6.621 0 .06-.859.37-1.68.605-.968.278-2.297.526-3.196.596-.272.02-.306.017-.306-.035zm-7.23-.901a28.442 28.442 0 0 1-1.833-.705l-.188-.084.398-.369a40.181 40.181 0 0 1 4.293-3.441c.755-.525 1.458-.981 1.424-.923a20.78 20.78 0 0 1-.297.43 50.8 50.8 0 0 0-2.729 4.421c-.254.467-.48.85-.503.849-.022 0-.276-.08-.565-.178zm-8.402-1.543-1.468-1.333-.195.205c-.107.113-.33.353-.493.533l-.298.327-.297-.265c-.163-.146-.297-.28-.297-.298 0-.04 2.567-2.876 2.601-2.873.014 0 .158.124.32.275l.296.275-.48.526c-.263.29-.479.534-.479.542 0 .008.66.612 1.467 1.342l1.467 1.327-.215.239-.338.375-.122.137zm21.772.715-1.434-3.332a253.42 253.42 0 0 1-1.37-3.208c.005-.005.135-.072.29-.15l.282-.14.296.177c.737.443 2.08 1.29 2.8 1.767 1.294.858 3.256 2.256 3.256 2.32 0 .034-.462.427-.91.775-.783.607-1.81 1.26-2.667 1.696a7.304 7.304 0 0 1-.466.226c-.012 0-.047-.059-.077-.131zm44.323-.905c-.416-.111-.57-.229-1.473-1.121l-.857-.847 1.676-1.702c.922-.936 1.693-1.702 1.713-1.702.02 0 .433.398.917.884.8.804.892.908 1.008 1.147.207.425.231.884.072 1.354-.23.683-1.01 1.501-1.751 1.837-.442.2-.916.255-1.305.15zm.906-1.07c.251-.123.356-.204.669-.517.298-.299.396-.423.503-.64.184-.374.195-.525.06-.814-.088-.188-.186-.306-.538-.65a7.93 7.93 0 0 0-.449-.42c-.01 0-.512.505-1.116 1.122l-1.099 1.122.412.392c.54.514.695.597 1.068.566.131-.01.288-.063.49-.162zm-65.214-1.247-1.678-1.74.36-.338.358-.34.516.531c1.353 1.39 2.805 2.904 2.805 2.925 0 .013-.154.175-.342.362l-.341.339zm40.195.108c-2.98-1.784-6.687-3.446-9.944-4.458-.328-.102-.6-.188-.605-.192-.005-.004.07-.177.168-.384.268-.574.673-1.617.878-2.265l.185-.582.23-.022c.36-.034 2.391-.025 3.223.014 3.377.158 6.496.673 9.647 1.592.65.19 2.163.683 2.52.822l.103.04-2.887 2.887c-1.588 1.588-2.903 2.886-2.922 2.885-.02 0-.288-.153-.596-.337zm20.719-.629c-.198-.166-.355-.314-.35-.33.028-.07 3.085-3.642 3.11-3.633.06.021.736.601.727.623-.022.051-3.083 3.642-3.105 3.642a4.24 4.24 0 0 1-.382-.302zm-58.09.214c-.465-.1-.87-.354-1.322-.826-.58-.608-.852-1.162-.883-1.8-.034-.708.125-1.104.653-1.628.532-.526.953-.738 1.52-.763.434-.02.703.032 1.057.203.658.318 1.34 1.094 1.62 1.85.108.287.148.914.079 1.227-.13.589-.738 1.274-1.42 1.597a1.96 1.96 0 0 1-1.305.14zm1.069-.996c.262-.124.522-.373.64-.614.073-.148.086-.225.086-.508 0-.317-.006-.346-.143-.63-.27-.56-.787-1.088-1.24-1.266a1.235 1.235 0 0 0-.455-.078c-.223-.002-.295.013-.473.1a1.73 1.73 0 0 0-.386.28c-.448.448-.482 1.044-.097 1.696.15.252.564.711.775.858.417.288.899.349 1.293.162zm20.804.78a81.265 81.265 0 0 0-4.846-3.297 71.974 71.974 0 0 1-.788-.493c-.045-.031-.04-.046.034-.098.048-.034.278-.205.512-.38l.424-.319.767.081c1.756.187 3.441.462 5.126.838.941.21 1.78.418 1.81.449.049.048-.85 1.381-1.373 2.037-.43.541-1.237 1.451-1.286 1.451-.008 0-.18-.12-.38-.269zm34.46-1.466c-.29-.076-.658-.274-.974-.524-.855-.676-1.026-1.443-.514-2.303.236-.396 1.954-2.724 1.998-2.707.043.016.785.548.785.562 0 .004-.418.582-.928 1.283s-.976 1.37-1.035 1.488c-.193.385-.135.687.188.985.457.422.894.422 1.288.002.095-.101.58-.746 1.076-1.432l.904-1.248.41.296c.278.202.4.31.382.34-.014.025-.441.615-.948 1.311-.921 1.265-1.2 1.6-1.484 1.78-.331.208-.754.27-1.149.167zm-53.33-2.488-1.305-2.013-.201-.313.408-.265c.224-.146.427-.272.45-.281.024-.01.805.377 1.737.859.931.48 1.698.87 1.704.864.006-.006-.398-.638-.898-1.405l-.908-1.394.39-.254.391-.254.392.602 1.316 2.02.924 1.418-.423.276-.423.276-.245-.128c-.135-.07-.867-.445-1.628-.832a84.965 84.965 0 0 1-1.503-.777c-.098-.058-.117-.061-.099-.016.012.031.416.663.899 1.404.483.742.885 1.37.893 1.395.01.03-.115.132-.338.275a4.453 4.453 0 0 1-.392.236c-.021.004-.534-.758-1.14-1.693zm49.977.186c-.14-.08-.254-.166-.254-.19 0-.024.04-.148.088-.277.048-.128.08-.24.072-.25-.01-.008-.092.011-.185.044a2.166 2.166 0 0 1-.455.078 1.226 1.226 0 0 1-.577-.071c-.974-.304-1.59-1.192-1.524-2.195.061-.916.695-1.93 1.495-2.39.326-.187.61-.254 1.068-.25.473.003.731.072 1.145.306.75.425 1.184 1.07 1.184 1.766 0 .222-.097.673-.144.673-.019 0-.213-.103-.433-.229l-.4-.23.021-.242c.019-.224.012-.261-.091-.47-.131-.266-.317-.44-.625-.587-.63-.3-1.287-.052-1.783.673-.157.23-.347.622-.415.855-.176.604.114 1.222.71 1.516.239.118.296.132.532.132.325 0 .618-.121.836-.344l.144-.146-.49-.275-.49-.275.084-.145.197-.346c.062-.111.123-.196.135-.19.506.272 1.72.98 1.71.997-.27.5-1.26 2.212-1.277 2.21-.014 0-.139-.067-.278-.148zm-28.46-.871a48.519 48.519 0 0 0-5.406-1.02l-.644-.08.749-.199a40.716 40.716 0 0 1 6.647-1.18c.413-.04.77-.07.795-.07.065 0-.298 1.041-.634 1.82-.293.679-.449.98-.505.975-.03-.003-.482-.114-1.002-.246zm40.545-1.642c-.268-.214-.499-.4-.514-.415-.05-.048.235-.541.55-.95.401-.522.488-.693.467-.916a.529.529 0 0 0-.12-.3c-.093-.117-1.028-.905-1.172-.989-.049-.027-.175.113-.75.833-.38.476-.7.878-.713.891-.035.041-.952-.708-.923-.755.013-.022.835-1.053 1.825-2.29 1.215-1.52 1.813-2.241 1.84-2.22.76.586 2.367 1.906 2.513 2.064.3.325.393.541.41.964.01.255-.002.405-.047.571-.197.726-.983 1.29-1.626 1.169-.103-.02-.2-.036-.214-.036-.015 0 .003.08.04.176.154.407.057.772-.35 1.3a21.36 21.36 0 0 0-.453.614c-.167.24-.185.283-.177.43.009.161-.017.247-.072.247-.016 0-.247-.175-.515-.388zm1.758-3.344c.255-.145.47-.5.47-.777 0-.279-.124-.427-.82-.986-.337-.271-.626-.492-.641-.491-.034.002-.973 1.183-.973 1.223 0 .044 1.137.944 1.295 1.025.28.145.424.146.669.006zM76.063 95.44a176.587 176.587 0 0 1-1.807-2.29c0-.01.217-.193.483-.406.381-.305.497-.38.551-.36.038.014 1.019.404 2.18.867 1.162.462 2.107.826 2.101.81a97.96 97.96 0 0 0-1.253-1.593c-.684-.858-1.24-1.569-1.235-1.577.004-.01.198-.168.431-.353.354-.28.431-.328.468-.288.1.11 3.592 4.512 3.592 4.529 0 .04-.925.756-.96.743l-2.222-.878a109.504 109.504 0 0 0-2.194-.854c-.005.006.173.239.395.518l1.274 1.6c.48.602.87 1.108.87 1.124 0 .032-.745.63-.822.66-.027.01-.743-.86-1.852-2.252zm17.154 2.088c-.816-.146-1.523-.824-1.898-1.823-.289-.77-.294-1.396-.016-2 .124-.27.283-.472.533-.677.485-.399 1.333-.686 1.843-.625.27.033.69.183.91.326.686.445 1.263 1.495 1.33 2.421.053.735-.231 1.4-.772 1.806-.57.428-1.385.67-1.93.572zm1.007-1.005c.774-.362.932-1.182.427-2.203-.482-.972-1.293-1.28-2.047-.776-.58.387-.684 1.117-.281 1.977.166.356.382.67.555.809.427.343.885.409 1.346.193zm34.263-.224c-.246-.097-.44-.187-.431-.201.052-.086 1.42-3.63 1.41-3.658-.006-.019-.296-.146-.645-.282-.348-.137-.639-.259-.646-.271-.018-.035.263-.765.295-.765.015 0 .836.316 1.826.703l1.798.704-.141.356c-.078.195-.155.37-.17.387-.017.019-.3-.074-.68-.223-.357-.14-.657-.247-.666-.238-.01.009-.336.833-.726 1.83-.39.999-.724 1.82-.743 1.824-.02.005-.236-.07-.481-.166zm-31.245-.32-.764-2.286-.747-2.243 1.597-.532a68.37 68.37 0 0 1 1.633-.532c.041 0 .302.764.267.783-.013.007-.531.182-1.153.389-.62.206-1.129.385-1.129.397 0 .082.338 1.023.368 1.023.02 0 .48-.149 1.023-.33l.987-.33.124.374c.068.205.124.384.124.396 0 .013-.437.169-.971.346-.535.178-.987.337-1.006.354-.022.02.077.368.275.962.17.512.296.943.28.958a4.22 4.22 0 0 1-.462.17c-.302.1-.435.13-.446.1zm27.58-.815c-.778-.169-1.418-.574-1.66-1.053a1.604 1.604 0 0 1-.15-.82c.04-.324-.033-.32.905-.046.05.014.061.057.061.227 0 .417.215.651.763.83.63.208 1.092.086 1.2-.315.086-.32-.083-.498-.888-.937-1.174-.64-1.425-.906-1.425-1.508 0-.697.488-1.294 1.173-1.436.418-.087 1.14.043 1.61.29.29.152.693.557.815.818.086.184.096.245.096.579 0 .205-.01.384-.023.397-.013.013-.226-.034-.473-.105l-.449-.128v-.203a.527.527 0 0 0-.099-.35c-.238-.36-.986-.603-1.365-.445-.245.103-.393.404-.303.62.068.164.261.306.899.663.722.403.858.492 1.073.697.326.311.439.709.326 1.15-.141.55-.469.896-1.008 1.064-.254.079-.742.084-1.077.011zm-42.74-.865-.667-2.95c-.357-1.579-.658-2.904-.668-2.945-.016-.064.058-.123.54-.43.307-.194.576-.354.598-.354.045 0 4.873 3.78 4.87 3.813-.001.012-.247.175-.546.362l-.544.341-.426-.355-.484-.405c-.051-.044-.157.013-.928.5-.478.303-.89.57-.915.593-.037.034-.02.146.096.606.078.31.142.586.142.612 0 .04-.973.691-1.032.691-.01 0-.026-.035-.036-.079zm1.158-3.24c.326-.208.593-.395.593-.416 0-.046-1.77-1.527-1.796-1.502-.024.024.557 2.296.587 2.296.013 0 .29-.17.616-.378zm58.879 2.102c-1.01-.65-1.834-1.197-1.83-1.216.003-.02.711-1.134 1.573-2.476.978-1.524 1.58-2.429 1.602-2.411.02.016.816.528 1.77 1.139.953.61 1.747 1.124 1.764 1.14.025.024-.483.874-.523.874-.007 0-.59-.37-1.295-.823a46.738 46.738 0 0 0-1.306-.822c-.037 0-.677 1.013-.66 1.042a41.1 41.1 0 0 0 1.19.777c1.014.65 1.17.76 1.14.813-.017.034-.139.227-.269.428l-.237.366-1.189-.764c-.654-.42-1.2-.758-1.21-.751-.064.037-.807 1.249-.78 1.272.016.016.626.41 1.354.878.858.55 1.318.865 1.307.895-.033.085-.52.821-.542.82-.013 0-.85-.532-1.86-1.181zm-20.635 1.052c-.227-.05-.412-.108-.411-.13 0-.063.97-4.644.987-4.66.009-.01.223.027.477.08.407.084.46.104.46.165-.001.039-.218 1.095-.482 2.347-.437 2.069-.487 2.276-.55 2.282a3.665 3.665 0 0 1-.481-.084zm-17.64-.07c0-.04-.736-3.874-.745-3.883-.004-.003-.321.055-.705.13-.384.074-.704.13-.71.123-.02-.02-.16-.794-.146-.807.007-.007.861-.175 1.898-.373 1.468-.28 1.89-.35 1.912-.316.04.066.154.74.129.764-.012.012-.321.08-.687.15-.366.07-.672.136-.68.144-.01.008.148.873.35 1.922.2 1.05.365 1.924.365 1.945 0 .02-.201.074-.447.118a8.57 8.57 0 0 0-.49.099c-.024.009-.044.002-.044-.015zm15.873-.286c-.234-.032-.44-.071-.455-.087-.037-.037-.029-.695.014-1.073.037-.332.007-.572-.086-.676-.113-.127-.34-.195-.915-.273-.419-.056-.577-.067-.596-.037-.013.022-.076.438-.14.924-.064.487-.12.89-.127.897a4.758 4.758 0 0 1-.488-.05l-.477-.062.018-.09c.01-.05.154-1.122.32-2.383.167-1.262.306-2.297.308-2.3.013-.015 2.346.309 2.55.354.465.103.78.344.963.738.088.188.099.248.099.577 0 .34-.01.385-.11.596-.134.28-.315.463-.559.564l-.187.078.136.1a.88.88 0 0 1 .227.281c.11.22.117.486.034 1.124-.057.446-.04.63.072.722.073.061.026.143-.081.138-.051-.002-.285-.03-.52-.062zm-.327-2.861c.17-.069.275-.225.314-.472.056-.355-.071-.605-.362-.716-.183-.069-1.362-.229-1.388-.188-.032.05-.178 1.229-.155 1.252.03.03 1.044.17 1.268.176.1.002.246-.022.323-.052zm-11.405 2.562c-.412-.079-.678-.225-1.007-.555-.556-.556-.79-1.284-.743-2.31.032-.707.22-1.162.665-1.605.37-.368.854-.548 1.566-.58.665-.032 1.067.09 1.51.456.405.333.664.807.807 1.475.025.118.046.447.046.753.001.618-.041.832-.25 1.258-.162.331-.565.748-.862.89-.46.22-1.22.315-1.732.218zm.815-.829c.723-.133 1.123-.787 1.049-1.712-.066-.812-.347-1.336-.85-1.58-.235-.114-.71-.115-.995-.001-.38.15-.675.55-.767 1.04-.049.26-.018.87.058 1.151.124.46.367.808.678.978.276.15.503.184.827.124zm4.464.668a2.36 2.36 0 0 1-.79-.26c-.221-.13-.49-.444-.575-.673-.143-.382-.155-.637-.113-2.382.022-.897.044-1.635.05-1.64a6.7 6.7 0 0 1 .513.01l.503.02-.021.265c-.012.147-.032.897-.044 1.667-.026 1.546-.013 1.673.187 1.911.18.215.597.32.966.244.272-.057.409-.159.526-.392.123-.246.147-.563.182-2.407l.025-1.274.263.022c.145.013.374.023.507.023h.244l-.024 1.059c-.039 1.758-.076 2.43-.15 2.692-.16.558-.528.913-1.111 1.068-.23.062-.852.087-1.138.047zm25.596-2.225c-.28-.142-.52-.263-.535-.269-.025-.009-.268-4.19-.27-4.63 0-.108-.012-.16-.033-.14-.018.019-.438.838-.933 1.82-.495.982-.911 1.798-.925 1.814-.014.016-.25-.083-.523-.22l-.497-.249 1.324-2.623 1.323-2.622.544.283c.298.155.553.292.566.304.012.012.075 1.065.139 2.341.063 1.276.124 2.32.135 2.32.01 0 .42-.805.911-1.789.491-.983.904-1.795.917-1.804.034-.022 1.017.473 1.002.504-.07.148-2.003 3.981-2.276 4.512l-.362.706zm-52.001-2.42c-.605-1.167-1.116-2.127-1.135-2.135-.02-.007-.37.16-.778.372-.409.212-.756.386-.771.386-.045 0-.472-.882-.44-.91.036-.032 4.1-2.135 4.146-2.146.034-.008.485.799.485.867 0 .02-.34.209-.754.42-.415.213-.761.395-.769.407-.008.011.483.979 1.09 2.15.607 1.17 1.091 2.14 1.075 2.153-.015.014-.258.144-.538.29l-.511.267zm3.07-2.051a261.707 261.707 0 0 1-1.167-2.69c-.01-.04.123-.113.534-.29.302-.131.552-.233.557-.227.063.083 2.325 5.337 2.305 5.356-.02.02-.823.383-1.042.471-.02.008-.553-1.171-1.187-2.62zm43.68 1.98a16.56 16.56 0 0 1-.55-.233c-.013-.012 2.193-5.352 2.225-5.386.037-.04 1.109.417 1.097.468-.015.063-2.142 5.211-2.19 5.302-.04.072-.05.07-.581-.15zm-1.705-.705-.6-.198.02-.635.018-.634-1.012-.337a24.72 24.72 0 0 0-1.047-.336c-.019.001-.2.23-.402.508a7.508 7.508 0 0 1-.385.505c-.01 0-.282-.087-.606-.195-.422-.141-.579-.208-.556-.237l1.88-2.421a604.284 604.284 0 0 1 1.878-2.415c.03-.033 1.234.34 1.303.403.017.015.06 1.357.095 2.98.077 3.529.073 3.217.041 3.213a22.431 22.431 0 0 1-.627-.201zm-.572-3.551c0-.563.01-1.111.022-1.217.02-.175.016-.188-.034-.14-.08.076-1.424 1.902-1.41 1.916.012.012 1.352.455 1.396.461.014.002.026-.457.026-1.02zm-37.24 3.424c-.609-.133-1.219-.57-1.616-1.157-.467-.69-.784-1.778-.732-2.509.03-.41.096-.653.284-1.035.255-.52.639-.882 1.22-1.149.603-.277 1.261-.403 1.75-.335 1.149.16 2.02 1.098 2.412 2.595.092.35.105.465.108.892.003.577-.042.783-.277 1.27-.279.578-.773.98-1.536 1.254-.593.212-1.16.273-1.614.174zm1.068-1.072c.409-.094.836-.416 1.012-.76.096-.189.178-.538.178-.765.001-.244-.089-.701-.198-1.006-.248-.695-.623-1.178-1.083-1.396-.217-.103-.273-.115-.556-.115-.73 0-1.296.396-1.506 1.052-.269.838.295 2.38 1.027 2.809.35.205.745.269 1.126.18zM99 86.369c-.083-.27-1.274-5.635-1.255-5.65.014-.012.291-.08.616-.152.49-.11.599-.124.635-.085l1.576 1.71c.843.914 1.544 1.668 1.559 1.673.031.013.056.13-.453-2.111a59.526 59.526 0 0 1-.402-1.835c.028-.032 1.048-.243 1.068-.22.033.036 1.297 5.65 1.277 5.67-.023.023-1.033.254-1.11.254-.036 0-.738-.73-1.682-1.75-.89-.962-1.625-1.744-1.631-1.738-.007.007.193.916.443 2.02.25 1.105.448 2.014.441 2.022a6.39 6.39 0 0 1-.48.116 18.88 18.88 0 0 0-.525.12c-.036.012-.066-.005-.077-.044zm27.107-.168-.657-.14v-.25c0-.139.047-.499.105-.8.117-.608.13-.838.057-1.013-.06-.142-.23-.275-.445-.347-.216-.073-1.392-.321-1.414-.3-.01.01-.125.514-.256 1.119-.184.847-.25 1.1-.29 1.094-.274-.033-1.119-.24-1.107-.27.008-.021.287-1.307.62-2.857l.61-2.826c.009-.016 2.92.624 3.083.678.751.244 1.174.802 1.173 1.547-.001.422-.103.734-.345 1.054-.173.23-.374.371-.635.448l-.193.057.181.181c.328.328.358.604.17 1.542-.144.71-.147.776-.051.964.14.274.13.276-.606.119zm-.178-3.521c.308-.117.5-.589.417-1.029-.034-.179-.202-.354-.416-.434a21.823 21.823 0 0 0-1.598-.367c-.038-.005-.09.182-.217.763-.092.423-.163.773-.158.778.005.004.33.078.725.164.725.158 1.069.192 1.247.125zm-21.682 2.55c.008-.025.325-1.384.703-3.02.38-1.638.691-2.98.694-2.983.013-.016 1.356-.16 1.369-.147.03.03 2.714 5.54 2.703 5.551-.021.022-1.227.154-1.266.14-.022-.01-.156-.27-.297-.58-.226-.496-.265-.56-.33-.547-.04.009-.515.065-1.054.126-.54.06-.99.12-1.003.132-.012.013-.078.288-.145.612a9.481 9.481 0 0 1-.137.602c-.011.012-1.143.156-1.226.157-.014 0-.019-.02-.01-.044zm2.465-2.46c.392-.046.72-.092.729-.1.013-.013-.89-2.053-.962-2.175-.01-.018-.127.487-.259 1.12-.222 1.074-.253 1.243-.23 1.241l.722-.085zm12.404 2.184a9.714 9.714 0 0 1-.547-.075c-.004-.005.116-1.08.266-2.389.15-1.309.268-2.385.262-2.391-.006-.006-.39-.055-.854-.108a12.883 12.883 0 0 1-.862-.114c-.013-.014.081-.98.098-1 .003-.002 1.06.117 2.351.265 1.904.218 2.346.279 2.346.32 0 .028-.022.259-.05.513l-.048.462-.091-.015a45.437 45.437 0 0 0-1.665-.183c-.003.005-.121 1.018-.261 2.25-.32 2.812-.282 2.54-.35 2.535-.03-.002-.299-.033-.596-.07zm-8.77-1.3c-.012-.525-.031-1.782-.041-2.793a72.026 72.026 0 0 0-.036-1.97l-.016-.131h1.217l.022 1.182.044 2.404.022 1.222 1.444-.02 1.443-.018.023.337c.012.186.022.418.022.516v.178l-1.392.023c-.765.013-1.692.024-2.06.024h-.67z" style="fill:#0053b5;stroke-width:.413575" transform="translate(-63.856 -78.76)"/>
</svg>
