<svg xmlns="http://www.w3.org/2000/svg" xml:space="preserve" viewBox="0 0 97.383 100">
  <path d="M57.549 132.932c-.459-.067-.993-.444-1.216-.858a1.798 1.798 0 0 1-.149-1.256c.211-.81 1.056-1.373 1.863-1.243.438.07.733.229 1.03.554.346.377.504.895.421 1.38a1.719 1.719 0 0 1-1.95 1.423zm.664-.155c.294-.077.516-.209.732-.435a1.48 1.48 0 0 0 .441-1.087c0-.43-.137-.77-.44-1.088-.895-.937-2.476-.434-2.675.851-.171 1.105.862 2.04 1.942 1.759zm-1.067-1.593v-.945h.544c.394 0 .577.014.665.05.133.056.25.22.284.398.027.147-.072.414-.174.468-.042.021-.08.043-.086.047-.006.005.038.057.096.116.1.1.107.123.107.365 0 .173.017.281.051.326.029.038.052.08.053.095.002.038-.412.032-.436-.007a1.736 1.736 0 0 1-.042-.316c-.03-.382-.047-.4-.393-.416l-.284-.013v.778h-.385Zm1.029-.177a.264.264 0 0 0 .022-.383c-.06-.059-.117-.07-.368-.07h-.298v.525h.276c.225 0 .292-.013.368-.072zm-20.2 1.03-.806-.048a41.478 41.478 0 0 1-4.71-.58c-.882-.16-2.556-.527-2.597-.569-.013-.013.6-.661 1.363-1.441l2.218-2.268.83-.85 1.01.505a45.988 45.988 0 0 0 3.937 1.762l.58.228-.185.433c-.324.758-.792 2.124-.942 2.755-.023.094-.028.096-.274.09a13.535 13.535 0 0 1-.425-.017zm2.032-.09c.091-.427.847-2.496.974-2.67.039-.054.095-.042.637.138 2.046.68 4.4 1.285 6.363 1.636.245.044.446.09.446.103 0 .012-.043.03-.096.04-.053.008-.436.082-.85.161-2.213.426-4.923.705-6.857.705h-.642zm10.52-1.78c-2.937-.406-5.982-1.111-8.57-1.984l-.396-.134.32-.559c.789-1.378 1.726-2.644 2.695-3.638l.406-.416.628.5a75.69 75.69 0 0 0 6.642 4.684l.62.385-.183.121c-.258.172-.837.627-1.133.89-.292.26-.263.256-1.028.15zm3.345-2.053a72.675 72.675 0 0 1-7.523-5.22l-.42-.334.12-.101a22.96 22.96 0 0 1 1.526-1.125c.985-.648 2.243-1.295 3.268-1.68l.228-.085 1.806 4.188 1.807 4.188-.283.147c-.156.081-.292.148-.301.148-.01 0-.112-.056-.228-.126zm-14.41-.848a48.895 48.895 0 0 1-3.723-1.674l-.52-.263.1-.11c.054-.06.415-.433.802-.828.387-.395 1.41-1.443 2.273-2.329.863-.885 1.739-1.783 1.947-1.993l.378-.383.466.437a75.161 75.161 0 0 0 2.175 1.955l.624.539-.242.248c-1.179 1.21-2.37 2.854-3.232 4.459a1.867 1.867 0 0 1-.172.288c-.01 0-.404-.156-.876-.346zm16.14.04c-.038-.091-.837-1.947-1.777-4.123l-1.707-3.957.111-.04c.21-.077 1.259-.326 1.748-.415a19.615 19.615 0 0 1 2.154-.266c.708-.048 2.474-.023 2.532.036.026.025.024.204-.006.588-.165 2.123-.547 4.954-.969 7.17l-.093.49-.46.15c-.254.083-.68.237-.945.342-.266.105-.492.192-.501.192a.608.608 0 0 1-.087-.167zm3.379-.968c.041-.165.336-1.943.439-2.647.2-1.38.37-2.83.49-4.214.037-.42.075-.772.084-.782.03-.03 1.03.164 1.684.327a19.975 19.975 0 0 1 2.747.907c.019.017-.565 1.134-.959 1.836a46.492 46.492 0 0 1-2.3 3.68l-.523.758-.304.024c-.167.014-.531.063-.81.11-.277.047-.519.085-.537.085-.018 0-.023-.038-.011-.084zm4.262-1.702c.643-.995 1.752-2.937 2.224-3.895l.133-.27.37.197c.539.288 1.302.748 1.29.777-.031.072-1.16 1.046-1.937 1.672a59.56 59.56 0 0 1-2.014 1.52l-.122.086zm-49.767-2.219a46.356 46.356 0 0 1-2.446-2.263 41.086 41.086 0 0 1-5.842-7.36c-.377-.605-1.163-1.967-1.163-2.015 0-.019.214-.135.476-.26l.476-.225.222.218c.256.25.611.438.955.505.413.08.979-.018 1.285-.223.058-.038 3.54-3.502 7.739-7.696l7.634-7.626.207-.06a.936.936 0 0 1 .978.253c.304.304.377.636.212.967-.074.149-1.324 1.418-6.719 6.819-7.293 7.301-6.749 6.723-6.87 7.295-.282 1.327.983 2.517 2.312 2.174.509-.131.09.269 7.458-7.113 5.479-5.489 6.859-6.853 7.002-6.925a.791.791 0 0 1 .41-.089c.65 0 1.06.581.853 1.211-.052.16-.503.62-5.758 5.88-5.279 5.285-5.71 5.725-5.806 5.93a1.683 1.683 0 0 0 .019 1.512c.17.348.447.625.787.788.23.11.285.122.552.122.375 0 .68-.075 1.036-.253.818-.411 1.307-.83 3.83-3.283 1.272-1.236 6.634-6.758 8.35-8.598l.273-.293.192-11.024c.106-6.063.199-11.043.207-11.067.019-.055 1.416-.061 1.89-.008 2.243.25 3.774 1.318 4.453 3.106.383 1.01.46 1.544.957 6.61.078.79.15 1.506.161 1.59l.02.155 14.365-14.365 14.365-14.365.664.677c2.326 2.373 4.521 5.345 6.281 8.502.469.841 1.418 2.765 1.382 2.8-.085.079-10.457 5.015-10.482 4.988a14.2 14.2 0 0 1-.351-.715 51.285 51.285 0 0 0-1.782-3.362l-.073-.124.825-.822c1.036-1.03 1.206-1.276 1.33-1.919.1-.528.034-.99-.22-1.51a1.793 1.793 0 0 0-.429-.595c-.476-.471-.92-.668-1.566-.694-.485-.02-.808.045-1.213.244l-.288.141-11.825 11.822C43.312 89.36 38.97 93.676 38.96 93.644a16.504 16.504 0 0 1-.074-.839 867.112 867.112 0 0 0-.597-7.178c-.174-1.785-.42-2.69-.955-3.497-.414-.627-1.145-1.168-1.916-1.418-.539-.174-.822-.213-1.564-.214-.379 0-.697.007-.707.017-.01.01-.092 5.108-.182 11.328l-.163 11.31-.603.613c-.894.909-1.067 1.089-9.997 10.41-4.534 4.732-8.254 8.604-8.268 8.604-.013 0-.22-.163-.458-.363zm31.187-.903-.736-.637c-1.064-.923-2.276-2.047-2.276-2.11 0-.02 1.016-1.079 2.258-2.35l2.258-2.313.14.096c.767.523 1.605.809 2.401.819l.404.005.7 1.623c.384.893.709 1.65.721 1.684.02.05-.051.09-.437.245a18.554 18.554 0 0 0-4.637 2.723c-.294.237-.539.43-.543.43-.005-.002-.119-.098-.253-.215zm23.444-1.066c-.184-.133-1.16-.711-1.559-.924a14.595 14.595 0 0 1-.363-.197c-.007-.006.13-.33.303-.721a47.958 47.958 0 0 0 3.892-14.262c.217-1.923.265-2.898.265-5.288 0-2.176-.017-2.65-.16-4.237a47.221 47.221 0 0 0-3.337-13.65l-.229-.553.428-.202 5.236-2.507c2.746-1.316 4.821-2.29 4.839-2.273.016.017.14.306.274.643 4.496 11.309 3.682 24.16-2.205 34.772-1.783 3.217-4.025 6.222-6.508 8.727l-.754.76zm-3.542-1.838a19.892 19.892 0 0 0-4-1.13 6.144 6.144 0 0 1-.492-.097 5.758 5.758 0 0 1 .017-.52c.016-.28.046-1.202.067-2.05a70.356 70.356 0 0 0-.353-8.782l-.043-.449-.511.505c-.542.536-.778.71-1.364 1.003-.725.364-1.242.48-2.012.448-.541-.022-.846-.098-1.263-.315-.404-.21-.665-.473-1.058-1.065-.45-.678-.625-.802-1.094-.776-.312.018-.532.131-.95.49-.69.589-1.053.762-1.664.791a2.576 2.576 0 0 1-1.26-.266c-1.827-.857-2.844-3.029-2.169-4.634.112-.265.255-.493.61-.974.362-.489.428-.626.448-.93.024-.37-.048-.502-.506-.938a10.69 10.69 0 0 1-1.282-1.504c-.341-.513-.55-.993-.66-1.512-.06-.283-.06-1.029 0-1.331l.05-.245 9.089-9.093 9.09-9.094.24.427c.588 1.038 1.778 3.396 1.735 3.436-.007.007-1.714.826-3.794 1.821l-3.782 1.81-5.475 5.469c-3.011 3.008-5.527 5.548-5.59 5.644-.286.439-.4 1.085-.286 1.622a2.258 2.258 0 0 0 1.511 1.65c.643.197 1.354.09 1.899-.283.203-.14 10.512-10.455 10.66-10.668.379-.542.474-1.29.247-1.946a2.091 2.091 0 0 0-.578-.889l-.223-.214 2.927-1.401c1.61-.77 2.95-1.406 2.976-1.412.14-.03 1.318 3.194 1.879 5.141.962 3.339 1.494 6.47 1.738 10.22.056.87.056 4.06 0 4.956-.347 5.499-1.454 10.383-3.458 15.254-.325.79-.851 1.97-.886 1.986-.012.006-.206-.064-.43-.155zm-7.606-12.165c.163-.03.396-.11.572-.196l.298-.145 2.558-2.56c2.367-2.37 2.566-2.58 2.671-2.798.452-.94.29-1.95-.43-2.674a2.214 2.214 0 0 0-1.125-.629c-.562-.125-1.272.002-1.732.31-.106.07-1.295 1.234-2.68 2.623-2.272 2.28-2.5 2.518-2.615 2.742-.203.397-.252.609-.25 1.086 0 .368.012.455.097.7.178.513.477.911.891 1.187.54.359 1.11.475 1.745.354zm-6.525-1.15c.129-.046.323-.138.432-.203.299-.177 11.088-10.983 11.267-11.284.22-.37.284-.633.282-1.178-.002-.432-.01-.495-.101-.734-.354-.936-1.208-1.54-2.174-1.54-.352 0-.691.08-1.033.247l-.297.144-5.52 5.52-5.52 5.52-.142.288a2.346 2.346 0 0 0 .07 2.244c.15.253.52.622.774.773.585.346 1.351.425 1.962.203zm.485 11.152a76.067 76.067 0 0 1-.692-1.639c-.012-.051.04-.09.257-.193.313-.148.743-.43 1.126-.737.146-.118 1.149-1.097 2.227-2.176a390.831 390.831 0 0 1 3.362-3.321l1.4-1.36.025.132c.057.312.185 2.332.238 3.756.063 1.68.035 4.645-.055 6.001l-.023.345-.337-.025c-.511-.039-2.059-.029-2.631.016-1.184.094-2.188.26-3.327.551-.414.106-.784.2-.823.208-.062.014-.146-.16-.747-1.558zm-53.93-1.814c-.131-.275-.211-.481-.192-.498.147-.133 2.333-1.846 2.528-1.982.138-.097.252-.186.252-.198 0-.013-.303.056-.673.153-.371.097-1.148.298-1.726.446l-1.051.27-.224-.468c-.192-.4-.217-.476-.175-.515a202.4 202.4 0 0 1 2.58-1.948c.119-.086.218-.167.218-.18 0-.012-.145.016-.323.061-.468.12-3.182.723-3.192.71-.056-.076-.429-.905-.407-.905.031 0 4.638-.792 4.807-.827.093-.019.103-.006.3.412l.203.431-1.157.878c-.637.482-1.319.994-1.516 1.136-.197.142-.352.265-.344.273.007.008.216-.04.463-.107.77-.208 3.201-.804 3.216-.79.008.009.1.196.203.417l.19.402-1.75 1.54c-.963.847-1.808 1.59-1.878 1.65l-.128.109zm84.416-.042a1.29 1.29 0 0 1-.26-.087c-.015-.014.067-.214.182-.445.158-.32.22-.414.26-.398a.782.782 0 0 0 .507 0c.277-.106.567-.491.67-.892.09-.353.012-.598-.232-.736-.326-.183-.465-.085-1.32.925-.632.748-.976.965-1.45.915-.424-.044-.892-.352-1.091-.717-.287-.527-.252-1.13.106-1.842.28-.555.632-.94 1.046-1.144a1.48 1.48 0 0 1 .998-.088c.324.096.32.072.087.542l-.206.417-.108-.03c-.466-.134-.826.089-1.115.691-.243.507-.217.894.075 1.089.172.115.371.106.57-.026.093-.061.362-.347.644-.686.671-.805.893-.99 1.276-1.059.242-.044.463-.005.772.138.586.27.914.895.808 1.538-.154.931-.839 1.768-1.573 1.921-.247.052-.365.047-.646-.026zm.936-4.753-2.238-.864c-.03-.012.273-.854.329-.913.021-.022 3.688-.609 3.87-.62.02 0-.004-.022-.052-.048-.067-.035-1.624-.64-3.035-1.178-.075-.028-.074-.033.088-.451.09-.232.172-.422.184-.422.028 0 4.37 1.675 4.426 1.708.033.018-.002.142-.135.486-.1.254-.189.47-.2.48-.01.01-.86.146-1.89.301-1.03.155-1.888.288-1.907.295-.02.007-.003.026.035.04.038.016.74.286 1.557.602.818.315 1.492.578 1.498.585.012.011-.257.738-.3.812-.016.026-.758-.244-2.23-.813zm-79.253-.88c-3.482-7.19-4.742-15.473-3.576-23.524a40.65 40.65 0 0 1 10.96-22.35l.446-.463.379.178c.5.233 1.556.652 2.148.85.31.105.469.175.461.205-.005.024-.106.25-.223.5a48.002 48.002 0 0 0-3.101 8.763l-.202.814h-.253c-.246 0-.254.003-.28.096-.05.18-.026 1.58.032 1.856.051.245.05.273-.046.84-.276 1.628-.464 3.298-.598 5.297-.059.872-.058 4.424 0 5.305.163 2.434.438 4.572.844 6.566l.103.508-3.533 3.536a453.708 453.708 0 0 0-3.599 3.625c-.2.264-.354.73-.355 1.07-.004 1.218 1.129 2.13 2.302 1.854.542-.128.024.362 7.467-7.073 6.632-6.625 6.816-6.806 7.021-6.881.412-.152.944-.033 1.21.27.19.216.292.481.294.762.004.506.756-.29-8.087 8.562-7.395 7.403-7.966 7.983-8.068 8.194a2.46 2.46 0 0 0-.16.468 1.835 1.835 0 0 1-.063.253c-.015.015-1.178.575-1.194.575-.006 0-.154-.296-.33-.657zm-8.16-.886a2.038 2.038 0 0 1-1.328-1.085c-.272-.556-.386-1.205-.292-1.656.06-.287.289-.723.5-.956.517-.564 1.461-.96 2.32-.972.459-.006.669.04 1.06.23.628.305 1.062.986 1.201 1.882.116.746-.228 1.508-.893 1.98-.748.53-1.825.772-2.569.577zm1.122-.994c.68-.172 1.152-.492 1.364-.923.103-.21.115-.264.111-.515-.005-.39-.104-.636-.36-.896-.262-.266-.496-.356-.932-.359a2.707 2.707 0 0 0-1.19.291c-.36.175-.603.391-.755.671-.112.207-.12.243-.119.537.002.372.085.622.282.853.343.4.897.52 1.599.341zm88.2-1.7c-1.188-.254-1.946-.877-2.157-1.774-.161-.683.136-1.737.632-2.237.25-.251.66-.478 1.021-.563.356-.084 1.043-.051 1.48.07 1.065.296 1.737.917 1.916 1.771.144.685-.16 1.71-.654 2.204a2.31 2.31 0 0 1-.982.544c-.303.071-.885.064-1.256-.015zm1.312-1.017c.28-.108.54-.367.65-.649.065-.163.083-.278.085-.524 0-.294-.007-.33-.12-.537a1.58 1.58 0 0 0-.292-.373c-.55-.481-1.667-.692-2.252-.425-.429.195-.68.584-.707 1.09-.011.23 0 .318.065.49.227.6 1.118 1.049 2.029 1.02.244-.008.388-.032.542-.092zm-93.023-1.245c0-.015-.112-.556-.25-1.203-.298-1.401-.322-1.703-.165-2.038.292-.625.978-.932 1.655-.742.167.047.251.098.403.245.106.102.196.186.2.186a.387.387 0 0 0 .03-.101c.012-.056.067-.173.122-.26.132-.207.413-.345.947-.464.64-.142.667-.152.814-.3.076-.078.144-.135.15-.128.008.007.063.247.123.534.105.498.108.524.048.568-.106.077-.415.18-.823.274-.872.2-.921.288-.718 1.275.07.335.13.614.135.62.005.004.418-.077.916-.182.5-.104.917-.18.928-.17.02.02.21.9.197.915-.003.004-1.03.222-2.28.484a575 575 0 0 0-2.353.495c-.043.01-.079.007-.079-.008zm1.27-1.23c.39-.08.621-.144.621-.17 0-.024-.056-.309-.125-.634-.19-.902-.288-1.046-.71-1.045-.278 0-.498.104-.629.297-.073.107-.081.152-.067.35.018.243.238 1.33.27 1.331.01 0 .298-.058.64-.128zm91.462-1.903a105.963 105.963 0 0 1-2.304-.43c-.02-.02.126-.865.158-.919.02-.035 4.665.78 4.711.827.01.011-.012.192-.05.403-.102.548-.1.54-.167.537-.033-.002-1.09-.19-2.348-.418zm2.282-1.343a1.915 1.915 0 0 1-.342-.06c-.01-.01.015-.33.057-.708.041-.379.069-.695.06-.703-.008-.008-.888-.111-1.957-.23a79.508 79.508 0 0 1-1.957-.23 3.882 3.882 0 0 1 .032-.474c.032-.328.06-.465.094-.479.04-.015 3.343.333 3.793.4l.125.018.079-.712c.043-.39.083-.716.089-.722.006-.006.195.009.42.032l.411.043-.018.107c-.01.059-.109.93-.22 1.937-.194 1.766-.203 1.83-.273 1.824-.04-.002-.217-.022-.393-.043zm-96.036-1.098a15.802 15.802 0 0 1-.05-.487c.003-.002.883-.099 1.958-.214a80.29 80.29 0 0 0 1.967-.224c.008-.007-.04-.517-.107-1.133a23.005 23.005 0 0 1-.112-1.19c.009-.063.053-.075.412-.112.22-.023.404-.039.407-.035.011.015.365 3.361.356 3.37-.012.011-4.618.506-4.71.506-.062 0-.073-.048-.12-.481zm92.148-3.425c.013-.28.03-.522.039-.536.009-.015.229-.088.488-.162l.472-.135.023-.353c.012-.194.017-.604.011-.91l-.01-.557-.473-.166-.473-.166.013-.503c.007-.276.016-.507.021-.513.005-.005 1.075.397 2.377.893l2.368.903v1.136l-.22.068c-.122.038-1.206.393-2.41.79-1.202.396-2.2.72-2.217.72-.017 0-.02-.224-.009-.51zm2.786-1.368c.494-.146.913-.28.931-.297.018-.018.025-.032.015-.032-.01 0-.417-.142-.904-.315a16.275 16.275 0 0 0-.934-.315c-.04 0-.049.113-.049.613 0 .337.01.613.022.613.011 0 .425-.12.919-.267zm-95.312-.373c0-.894.013-1.258.05-1.431.149-.702.702-1.192 1.543-1.366.464-.096 1.258-.077 1.663.039.802.23 1.322.703 1.482 1.349.038.153.058.53.076 1.387l.023 1.177-.134.022c-.073.012-1.162.022-2.419.022h-2.285zm3.478.22h.52l-.013-.622c-.013-.592-.018-.63-.106-.8-.233-.447-.726-.657-1.533-.654-.511.002-.844.068-1.11.22-.343.196-.431.474-.431 1.36v.542l1.077-.023c.592-.013 1.31-.024 1.596-.024zm16.64.661c-.036-.095-.33-1.914-.419-2.588a46.315 46.315 0 0 1-.159-10.645c.083-.808.24-2.038.262-2.06.008-.009.075.038.148.104.772.697 2.27 1.067 6.155 1.518 2.044.238 3.029.385 3.03.453 0 .147.39 2.466.57 3.402l.049.248-4.809 4.809c-3.104 3.104-4.815 4.791-4.827 4.76zm72.419-3.892c-.01-.101-.026-.322-.034-.49-.013-.267-.007-.307.043-.307.031 0 1.081-.055 2.333-.122 1.252-.068 2.31-.123 2.35-.123.07 0 .075.023.098.477.014.262.02.482.012.489-.011.011-4.518.26-4.71.26-.063 0-.076-.026-.092-.184zm1.134-1.727a2.74 2.74 0 0 1-.514-.19c-.697-.344-1.073-1.009-1.07-1.891.002-.628.191-1.067.635-1.478.465-.43 1.098-.652 1.947-.682.602-.022.889.03 1.313.239.653.32 1.038.9 1.115 1.676.075.76-.117 1.335-.585 1.754-.215.192-.658.43-.762.41-.067-.012-.064.003-.168-.8l-.02-.16.15-.072c.377-.184.55-.457.55-.872 0-.376-.077-.587-.293-.803-.291-.292-.477-.349-1.142-.35-.413 0-.598.015-.77.062-.842.23-1.232.743-1.089 1.431.085.408.374.682.812.769l.198.039.056.425c.032.234.057.453.057.487 0 .074-.097.076-.42.006zm-91.144-.961c-1.24-.17-2.262-.317-2.272-.328-.022-.022.414-3.298.445-3.348.017-.028.765.053.799.086.006.007-.061.544-.15 1.194-.089.65-.149 1.194-.134 1.207.035.031 1.096.168 1.096.141 0-.055.281-2.081.29-2.09.013-.013.772.093.79.11.006.006-.052.481-.13 1.055a31.156 31.156 0 0 0-.133 1.051c.004.005.449.067.987.139.539.072.986.135.993.14.008.007-.014.224-.048.485l-.061.474-.11-.004c-.06-.002-1.123-.142-2.362-.312zm.703-4.2c-1.793-.42-2.32-.556-2.32-.597 0-.029.176-.802.39-1.719l.391-1.667.371.086c.204.047.385.1.402.115.018.016-.091.551-.254 1.245-.156.669-.278 1.223-.27 1.23.007.008.232.066.499.128.426.1.487.108.506.06.012-.031.136-.545.277-1.143l.255-1.088.388.093c.365.087.388.098.38.175-.006.045-.12.555-.255 1.132-.157.67-.233 1.058-.21 1.072.059.036 1.16.289 1.18.27.01-.01.151-.59.315-1.29.165-.7.303-1.277.307-1.281.005-.005.192.033.417.085.328.076.406.105.393.149-.008.03-.19.803-.403 1.718-.213.915-.399 1.688-.413 1.718-.023.047-.341-.02-2.346-.49zm89.548.26a2.038 2.038 0 0 1-1.343-1.067c-.256-.523-.374-1.203-.29-1.663.066-.36.293-.766.597-1.069.219-.219.33-.297.633-.447.56-.275.952-.368 1.576-.372.448-.003.538.007.766.081.289.095.69.344.886.55.423.444.716 1.397.626 2.032-.133.935-.781 1.568-1.938 1.89-.412.115-1.18.148-1.513.064zm1.313-1.032c.577-.165.998-.462 1.18-.834.086-.173.098-.24.098-.514 0-.28-.013-.342-.11-.546a1.162 1.162 0 0 0-.604-.606c-.22-.104-.252-.109-.651-.107-.328 0-.482.019-.7.08-.592.168-1.011.458-1.201.829-.13.254-.15.66-.045.975.128.384.463.69.869.792.215.055.868.016 1.164-.069zm-63.344.341c-.149-.878-.276-1.69-.266-1.7.022-.022.604.21.725.291.41.27.325.85-.254 1.742a.48.48 0 0 1-.106.13c-.01.001-.056-.207-.099-.463zm-26.44-4.024c-1.223-.425-2.23-.778-2.237-.784-.026-.024.741-2.177.848-2.379a1.748 1.748 0 0 1 1.14-.858c.29-.068.933-.027 1.3.082 1.02.303 1.765.919 1.974 1.632.064.217.074.688.018.895-.1.377-.748 2.188-.781 2.187-.022-.001-1.04-.35-2.262-.775zm2.027-.936c.172-.505.187-.577.17-.78a1.168 1.168 0 0 0-.091-.369c-.176-.345-.644-.667-1.266-.87-.254-.084-.357-.099-.706-.1-.4-.003-.412 0-.56.103-.208.146-.342.385-.554.99-.146.416-.171.52-.133.545.04.025 2.874 1.025 2.934 1.035.01.002.102-.248.206-.554zm84.816.857c-.735-.204-1.291-.989-1.442-2.035-.107-.738.181-1.382.754-1.681.106-.056.202-.093.213-.082.011.011.09.208.175.437.138.371.148.42.098.452-.155.096-.36.317-.396.428-.144.435.19 1.34.564 1.534.155.08.422.066.563-.028.223-.15.246-.367.132-1.234-.097-.739-.104-1.236-.02-1.478.093-.267.326-.507.642-.663.222-.11.305-.132.553-.145.334-.018.563.04.835.211.378.238.723.78.871 1.364.096.378.078.924-.039 1.23-.099.258-.386.571-.655.716l-.202.108-.162-.443-.16-.444.126-.082a.906.906 0 0 0 .212-.208c.124-.18.124-.627 0-.953-.112-.295-.376-.579-.574-.615-.195-.036-.432.069-.517.229-.087.162-.084.327.025 1.283.104.913.09 1.179-.081 1.493-.262.48-.961.76-1.515.606zm-85.04-4.593-2.16-1.006-.095-.041.74-1.585c.407-.871.754-1.584.772-1.584.032 0 .725.318.725.333 0 .004-.236.516-.526 1.138-.29.622-.522 1.145-.516 1.162.008.024.876.448.916.448.006 0 .23-.472.497-1.05.268-.578.503-1.05.522-1.05.02.002.189.076.376.167l.34.165-.488 1.046c-.269.576-.482 1.058-.473 1.072.02.032 1.105.535 1.12.52.007-.007.242-.504.522-1.105.28-.602.533-1.14.563-1.198l.053-.103.358.167c.196.092.362.182.368.2.014.043-1.48 3.248-1.519 3.26-.016.005-.959-.425-2.095-.956zm28.913.807c-2.837-.043-5.168-.088-5.18-.1-.033-.033-.072-.908-.115-2.564-.064-2.444.073-6.684.218-6.777a.527.527 0 0 1 .196-.029c.214 0 1.07-.097 1.574-.177a18.67 18.67 0 0 0 3.6-.96l.403-.153.046.11c.026.062 1.073 2.493 2.328 5.403a976.848 976.848 0 0 1 2.281 5.314c0 .012-.043.02-.096.017-.053-.002-2.418-.04-5.255-.084zm4.128-5.57a671.911 671.911 0 0 1-2.412-5.631c.006-.005.263-.14.57-.299 1.393-.721 2.476-1.465 3.863-2.653l.173-.148.829.663a72.653 72.653 0 0 1 4.03 3.47c.852.788 2.82 2.73 2.82 2.781 0 .02-1.677 1.7-3.725 3.737l-3.725 3.701zm-14.735 5.415c-2.104-.032-3.833-.066-3.842-.075-.01-.01.068-.347.171-.75a46.69 46.69 0 0 1 3.095-8.57c.117-.245.217-.446.223-.446.007 0 .217.046.467.103 1.103.248 2.352.411 3.426.447l.661.021-.022.319a75.779 75.779 0 0 0-.071 8.591l.023.43-.153-.006c-.084-.003-1.874-.032-3.978-.064zm65.193-.213c-.59-.103-1.023-.471-1.375-1.171-.462-.921-.431-1.745.085-2.26.095-.096.235-.206.311-.245l.138-.07.193.408c.106.225.193.414.193.421 0 .007-.064.07-.143.141-.16.145-.223.252-.256.434-.069.383.289 1.15.63 1.35.192.113.448.114.613.004.24-.162.25-.423.048-1.284-.16-.681-.203-.986-.184-1.283.026-.413.253-.735.667-.947.855-.437 1.7-.06 2.2.985.199.412.251.66.235 1.1-.01.308-.029.404-.105.57a1.64 1.64 0 0 1-.55.628l-.154.098-.206-.425-.206-.424.128-.106c.244-.201.313-.495.203-.866-.107-.359-.324-.674-.543-.788a.646.646 0 0 0-.54.02c-.243.151-.245.37-.012 1.418.164.74.2 1.252.103 1.489-.218.536-.894.904-1.473.803zm-81.55-4.601a116.51 116.51 0 0 1-2.046-1.24c-.054-.054 1.191-2.123 1.439-2.391.114-.125.263-.24.385-.3.176-.084.24-.096.55-.097.308 0 .373.01.55.094.252.118.544.39.677.631a.708.708 0 0 1 .102.421c0 .13.009.236.018.236.01 0 .095-.04.19-.087.312-.159.618-.1 1.154.225.464.28.67.364.828.339.08-.013.144-.007.158.015.028.046-.502.944-.557.943-.08-.001-.444-.169-.814-.374-.447-.25-.604-.305-.769-.275-.17.033-.32.198-.594.656l-.303.509-.066.111.78.463c.43.255.795.475.811.49.028.023-.428.837-.468.834-.01 0-.92-.542-2.025-1.203zm.531-1.475c.367-.604.443-.77.444-.961 0-.207-.114-.376-.337-.497-.332-.18-.585-.16-.777.058-.102.116-.743 1.157-.741 1.203.002.036 1.06.667 1.102.657.019-.004.158-.212.31-.46zm78.45 2.243a7.698 7.698 0 0 1-.267-.458c0-.01.15-.192.333-.404.183-.212.327-.396.32-.41-.027-.044-.909-1.494-.916-1.503-.006-.008-.827.18-.966.221-.071.021-.617-.853-.549-.878a693.05 693.05 0 0 1 4.943-1.032c.007 0 .142.212.3.472.176.291.276.49.26.517-.038.063-3.167 3.913-3.18 3.913a7.32 7.32 0 0 1-.279-.438zm1.617-2.66c.348-.404.625-.742.617-.75-.009-.009-.448.085-.976.207-.943.219-.96.224-.919.297.163.293.606.995.624.989.012-.005.306-.339.654-.743zm-77.71-2.764a134.614 134.614 0 0 1-1.388-2.137c0-.016.456-.64.651-.89.018-.023 4.846 1.518 4.847 1.547 0 .023-.473.66-.597.805-.013.016-.247-.047-.518-.14-.486-.166-.495-.168-.544-.099-.027.039-.264.353-.526.698s-.476.646-.476.67c0 .022.028.079.063.125s.164.228.286.406l.221.323-.303.404a6.937 6.937 0 0 1-.316.403c-.006 0-.637-.951-1.4-2.115zm1.342-.787c.195-.257.35-.473.343-.48-.026-.025-1.828-.645-1.852-.637-.015.006.227.377.537.826.31.45.575.804.59.788.016-.015.188-.24.382-.497zm36.402.878a68.305 68.305 0 0 0-5.767-5.145 11.796 11.796 0 0 1-.619-.513c-.007-.016.145-.204.338-.419.997-1.11 1.988-2.478 2.547-3.515.009-.016 1.119.336 1.908.605a47.213 47.213 0 0 1 8.516 3.926l.41.243-3.036 3.035-3.036 3.035zm33.98-1.041a70.561 70.561 0 0 1-1.144-1.413c-.01-.029 3.592-3.017 3.668-3.043.031-.011 2.225 2.637 2.225 2.686 0 .052-.62.538-.642.504-.013-.019-.375-.462-.806-.985-.484-.589-.798-.942-.823-.927-.088.054-.758.616-.758.637 0 .012.317.408.704.88l.735.895c.04.048-.589.565-.63.519a233.73 233.73 0 0 1-.685-.837 58.252 58.252 0 0 0-.72-.872c-.061-.064-.076-.054-.539.327-.261.215-.475.402-.475.414 0 .011.06.093.134.181l.793.965c.362.443.68.83.706.86.041.049.006.09-.28.323l-.328.266Zm-54.868-.144c-.94-.065-1.75-.169-2.582-.332l-.57-.112.208-.392a46.485 46.485 0 0 1 2.363-3.904c.434-.644 1.318-1.892 1.42-2.006.014-.015.213-.066.443-.114l.517-.109c.087-.019.097-.013.08.044-.039.128-.3 1.657-.424 2.476a79.692 79.692 0 0 0-.438 3.456c-.04.395-.08.785-.09.867l-.02.149-.375-.006a14.316 14.316 0 0 1-.532-.017zm2.206-.066c0-.117.183-1.762.282-2.537.187-1.466.443-3.061.702-4.384l.08-.41.265-.093c.146-.052.428-.158.627-.236.255-.1.369-.13.387-.102.076.124 2.846 6.596 2.83 6.612-.043.042-.877.34-1.408.5a17.384 17.384 0 0 1-3.212.65c-.284.03-.524.054-.534.054-.01 0-.019-.024-.019-.054zm-7.406-.975a20.145 20.145 0 0 1-1.676-.652l-.171-.077.276-.254a41.529 41.529 0 0 1 5.823-4.484c.027-.016-.05.112-.171.283-1 1.416-2.273 3.487-3.028 4.926-.149.284-.281.516-.294.515a29.914 29.914 0 0 1-.759-.257zm-7.2-.556a685.974 685.974 0 0 1-2.397-2.169l-.108-.1-.488.539-.487.539-.308-.28-.308-.281.1-.109c.057-.06.564-.62 1.13-1.246a207.95 207.95 0 0 1 1.208-1.332l.182-.194.303.281.303.282-.475.521c-.26.287-.47.535-.464.551.005.016.656.614 1.445 1.33.79.715 1.44 1.311 1.446 1.326.008.02-.61.736-.636.736-.004 0-.205-.177-.446-.394zm19.647-2.767-1.437-3.334-.273-.63.287-.148.286-.15.42.251a75.142 75.142 0 0 1 4.326 2.814 79.84 79.84 0 0 1 1.62 1.172c.031.026-.675.617-1.203 1.007a18.252 18.252 0 0 1-2.435 1.506l-.425.216zm45.499 1.673c-.423-.092-.589-.214-1.515-1.115-.472-.46-.858-.848-.858-.863 0-.015.755-.795 1.68-1.734l1.679-1.705.897.905c.812.82.91.93 1.025 1.168.332.679.194 1.401-.41 2.156-.515.642-1.226 1.097-1.88 1.204a1.236 1.236 0 0 1-.618-.017zm.85-1.082c.23-.113.344-.203.65-.51.3-.302.396-.425.507-.65.114-.23.137-.311.136-.488-.002-.305-.115-.487-.624-.994l-.427-.426-1.119 1.121-1.119 1.121.402.404c.51.512.643.585 1.034.57.245-.01.319-.03.56-.148zM7.304 58.409l-1.666-1.724.351-.346c.343-.338.354-.345.415-.28l1.661 1.722c.879.911 1.598 1.669 1.598 1.683 0 .015-.156.172-.347.348l-.346.32zm40.402.23a48.786 48.786 0 0 0-5.88-2.997c-1.534-.653-2.79-1.11-4.84-1.76-.028-.008.014-.133.127-.373.27-.58.59-1.395.83-2.12.123-.37.224-.698.224-.727 0-.046.195-.053 1.55-.053.852 0 1.84.017 2.197.036 3.266.18 6.152.662 9.244 1.544.583.167 2.693.856 2.729.892.02.02-3.011 3.061-4.657 4.673l-1.141 1.116zm20.527-.738c-.202-.168-.364-.316-.36-.33.003-.012.251-.312.551-.665l1.544-1.819 1-1.177.374.316c.374.315.374.316.308.39-.037.04-.686.806-1.443 1.701a357.43 357.43 0 0 1-1.492 1.759l-.116.13zm-57.926.24c-.597-.095-1.146-.43-1.624-.992-.504-.592-.736-1.107-.762-1.69-.03-.638.13-1.058.584-1.534.282-.296.715-.605 1.01-.721.757-.298 1.595-.091 2.306.57.481.446.877 1.069 1.008 1.585.062.244.072.791.018 1.024-.152.66-.92 1.434-1.667 1.682a2.09 2.09 0 0 1-.873.075zm.907-1.027c.277-.128.556-.419.655-.681.114-.304.09-.713-.064-1.04-.244-.522-.72-1.04-1.149-1.252-.218-.107-.267-.117-.555-.117-.275 0-.342.012-.516.098-.75.368-.936 1.172-.457 1.982.165.281.583.73.821.883.415.266.867.312 1.265.127zm20.492.563c-1.579-1.163-4.052-2.819-5.244-3.51l-.166-.097.324-.23c.178-.125.412-.298.52-.382l.195-.154.522.054c1.472.151 3.201.415 4.617.705.86.175 2.509.568 2.55.606.06.055-.814 1.356-1.421 2.115-.34.424-.927 1.095-1.115 1.272l-.117.11zm34.904-1.222c-.625-.108-1.478-.734-1.76-1.292a1.921 1.921 0 0 1-.146-.45c-.05-.295.009-.584.2-.967.116-.235 1.972-2.825 2.04-2.848.017-.006.207.117.421.272l.39.283-.273.375c-1.141 1.563-1.601 2.21-1.677 2.356-.208.4-.171.681.128.98.25.25.483.364.738.363.391-.002.491-.106 1.675-1.738l.907-1.25.38.28c.21.153.387.293.393.311.016.045-1.789 2.525-2.017 2.772-.414.447-.899.639-1.4.553zm-53.644-2.79c-.71-1.089-1.295-2-1.3-2.023-.01-.037.668-.508.809-.562.047-.018 1.09.503 2.963 1.483.315.165.496.243.483.208a59.117 59.117 0 0 0-.899-1.405 62.51 62.51 0 0 1-.877-1.368c0-.011.169-.13.375-.262.335-.217.379-.236.415-.183.132.19 2.546 3.913 2.558 3.944.007.02-.172.155-.398.3l-.411.264-1.73-.886c-.952-.488-1.741-.882-1.755-.877-.013.005.392.647.899 1.426.507.78.91 1.427.896 1.44-.014.012-.187.125-.383.252l-.356.231zm50.159.456c-.15-.086-.271-.17-.271-.187 0-.017.04-.136.088-.264a2.22 2.22 0 0 0 .087-.262c0-.016-.064-.006-.143.021a2.842 2.842 0 0 1-.368.09c-.718.125-1.677-.426-2.029-1.167-.321-.677-.29-1.374.094-2.141.382-.761.877-1.242 1.527-1.484.317-.118.871-.148 1.2-.064.638.162 1.307.633 1.595 1.124.211.36.302.855.225 1.225-.084.408-.044.397-.515.133l-.413-.232v-.3c0-.35-.058-.49-.298-.728a1.285 1.285 0 0 0-.842-.389 1.208 1.208 0 0 0-.87.255c-.366.27-.82.984-.914 1.44-.095.455.027.884.34 1.197.517.517 1.297.536 1.779.042l.13-.132-.24-.139a35.324 35.324 0 0 0-.477-.27c-.13-.071-.236-.142-.236-.156 0-.048.349-.65.376-.65.056 0 1.69.943 1.69.976 0 .027-.96 1.746-1.19 2.127l-.054.092zm-27.83-.713c-1.513-.42-4.205-.946-5.9-1.153a12.337 12.337 0 0 1-.683-.095c-.07-.024 1.016-.317 2.049-.552a41.153 41.153 0 0 1 4.935-.806c.931-.095 1.105-.104 1.105-.057 0 .052-.3.911-.454 1.3-.192.484-.638 1.472-.664 1.468a15.905 15.905 0 0 1-.388-.104zm-14.944-1.732c-.836-.225-1.448-.9-1.818-2.005-.36-1.08-.032-2.107.84-2.627.914-.546 1.716-.592 2.46-.142.699.423 1.308 1.52 1.368 2.464.048.75-.254 1.4-.845 1.823-.622.444-1.433.64-2.005.487zm.921-.876c.899-.234 1.197-1.076.751-2.123-.217-.51-.522-.88-.882-1.069-.164-.086-.223-.097-.518-.097-.288 0-.36.012-.531.093-.762.357-.94 1.164-.471 2.146.237.497.492.793.835.968.27.139.508.163.816.082zm34.535-.307c-.246-.096-.447-.186-.447-.2 0-.015.317-.837.704-1.825.386-.989.705-1.813.709-1.83.003-.018-.296-.152-.664-.298l-.67-.265.145-.376c.08-.207.16-.376.18-.376.048-.001 3.53 1.363 3.564 1.396.02.021-.239.774-.267.774-.004 0-.305-.118-.67-.262a11.593 11.593 0 0 0-.672-.252c-.005.005-.326.819-.713 1.81-.388.99-.716 1.817-.729 1.839-.016.026-.17-.018-.47-.135zm-32.015-2.53c-.404-1.225-.74-2.247-.746-2.273-.007-.032.473-.207 1.576-.575.872-.29 1.603-.529 1.622-.529.02 0 .093.17.161.38l.125.378-1.141.379c-.628.208-1.149.385-1.157.393-.03.025.327 1.062.365 1.062.02 0 .481-.148 1.024-.33l.986-.329.128.384c.07.211.123.389.116.395-.007.006-.454.156-.993.335-.54.178-.99.33-1.004.338-.013.007.117.434.29.948.17.515.311.947.311.96 0 .024-.825.31-.893.31-.019 0-.365-1.002-.77-2.227zm28.466 1.42c-1.247-.224-2.053-.993-1.96-1.869.013-.119.037-.237.052-.262.03-.05.036-.048.677.14l.236.069v.21c0 .483.333.764 1.059.893.516.091.865-.076.925-.446.044-.275-.13-.461-.758-.804-1.02-.558-1.316-.78-1.47-1.1-.22-.45-.066-1.142.338-1.526.35-.333.65-.436 1.183-.406.623.035 1.17.247 1.553.602.403.373.557.735.52 1.22a2.488 2.488 0 0 1-.031.288 4.632 4.632 0 0 1-.452-.115l-.442-.126-.018-.226c-.026-.321-.14-.476-.482-.647-.597-.299-1.178-.217-1.298.183-.06.2-.016.36.14.5.073.067.446.299.83.516.91.514 1.103.67 1.27 1.016.178.37.104.903-.185 1.321-.137.2-.477.44-.73.519-.222.068-.712.094-.957.05zm-3.434-.975a3.626 3.626 0 0 1-.448-.113c-.021-.022.94-4.644.973-4.677.01-.01.228.026.485.08l.468.096-.494 2.346c-.271 1.291-.508 2.35-.526 2.354a4.572 4.572 0 0 1-.458-.086zm-17.696-.1c0-.062-.732-3.836-.747-3.85-.009-.009-.332.045-.717.12l-.702.135-.075-.399c-.042-.22-.069-.406-.06-.414.018-.019 3.785-.745 3.8-.733.013.012.147.71.147.768 0 .032-.208.086-.691.178-.38.073-.696.136-.702.14-.005.005.157.88.361 1.943.204 1.064.365 1.94.357 1.948-.016.017-.858.19-.923.19-.026 0-.048-.012-.048-.027zm15.917-.26a6.295 6.295 0 0 1-.502-.082c-.04-.04-.045-.48-.009-.773.024-.186.043-.446.043-.577 0-.48-.118-.56-.993-.678-.333-.046-.615-.069-.626-.052-.01.017-.072.436-.136.933-.064.496-.119.904-.121.908-.007.01-.936-.122-.948-.135-.01-.012.613-4.732.629-4.749.004-.005.55.062 1.212.15 1.458.193 1.689.253 1.972.511.128.117.233.257.308.41.107.217.115.259.115.584 0 .324-.009.37-.115.594-.138.292-.33.485-.568.57a.575.575 0 0 0-.174.08c0 .01.062.06.137.114.081.058.173.17.227.278.11.222.117.433.033 1.118-.058.475-.058.478.017.633.086.177.094.24.032.234a37.72 37.72 0 0 1-.533-.072zm-.305-2.892c.148-.11.215-.227.249-.434.056-.34-.043-.585-.285-.706-.144-.071-1.423-.256-1.464-.211-.033.037-.187 1.236-.162 1.261.01.01.276.056.59.1.643.093.939.09 1.072-.01zm22.934 2.373c-.265-.172-.482-.322-.482-.333 0-.011.265-.425.588-.92l.587-.902.15-2.064c.082-1.136.155-2.071.163-2.08.018-.017 1.173.731 1.174.761 0 .012-.08.632-.18 1.379-.1.746-.173 1.366-.162 1.377.011.011.543-.313 1.183-.72.639-.407 1.173-.735 1.187-.73.077.033 1.088.707 1.088.726 0 .012-.81.469-1.8 1.014l-1.8.99-.59.908c-.324.5-.598.908-.607.908-.01 0-.235-.142-.5-.314zm-59.166.078c-.088-.415-1.16-5.844-1.16-5.878 0-.054 1.12-.722 1.174-.7a499.96 499.96 0 0 1 4.703 3.89c.039.036-.049.102-.486.365a15.18 15.18 0 0 1-.56.328c-.014.004-.197-.142-.406-.325a61.96 61.96 0 0 0-.473-.412l-.094-.08-.888.531c-.488.292-.906.548-.928.57-.032.03-.01.18.094.634.102.454.125.604.093.634-.047.045-.988.61-1.015.61-.01 0-.034-.076-.054-.167zm1.263-3.112c.343-.205.623-.384.623-.398 0-.032-1.75-1.577-1.786-1.577-.014 0 .09.515.233 1.145.141.63.257 1.157.257 1.173 0 .016.012.029.025.029.014 0 .305-.168.648-.372zm23.384 3.223a2.15 2.15 0 0 1-1.235-.945c-.442-.736-.543-1.988-.224-2.773.262-.645.828-1.106 1.537-1.25.346-.07.964-.07 1.237-.001.65.166 1.183.66 1.434 1.326.134.355.196.687.217 1.16.038.838-.19 1.492-.694 1.982-.219.213-.653.427-1.018.501-.338.069-.993.069-1.254 0zm1.27-.902c.534-.262.792-.9.697-1.73-.075-.666-.288-1.11-.645-1.35-.258-.174-.404-.21-.76-.194-.37.018-.62.126-.836.359-.301.327-.41.702-.379 1.316.033.653.186 1.078.502 1.389.262.258.463.33.888.317.281-.008.365-.025.532-.107zm3.913.727c-.496-.107-.91-.404-1.097-.787-.188-.385-.208-.592-.185-1.907.012-.655.032-1.425.044-1.712l.022-.52.487.017c.267.01.491.023.498.03.007.008-.003.558-.02 1.222-.019.665-.028 1.46-.022 1.769.011.495.022.577.09.707.147.278.387.396.813.396.447 0 .658-.11.796-.41.108-.236.135-.614.169-2.383l.024-1.27h.394c.217 0 .445.01.507.023l.113.023-.024 1.036c-.036 1.624-.079 2.412-.142 2.646-.166.61-.548.973-1.178 1.122-.28.066-.981.065-1.29-.002zm25.615-2.34c-.328-.094-.56-.2-1.838-.851-.703-.358-1.284-.655-1.291-.661-.02-.017 2.635-5.196 2.663-5.197.062-.002 2.661 1.357 2.848 1.488.407.288.649.63.721 1.022.097.52-.23 1.233-.688 1.501a1.435 1.435 0 0 1-.4.131l-.247.042.124.174c.535.753.07 1.912-.929 2.31-.21.085-.73.106-.963.04zm.408-1.077c.285-.086.555-.475.555-.8 0-.373-.16-.52-1.111-1.014-.409-.213-.76-.387-.779-.387-.02 0-.193.314-.385.698l-.35.698.324.173c1.178.634 1.433.725 1.746.632zm1.258-2.366c.134-.113.277-.402.277-.563.001-.296-.188-.456-1.102-.932-.392-.204-.72-.37-.73-.37-.024 0-.63 1.156-.613 1.17.033.03 1.46.734 1.535.757.048.015.185.028.304.03.186.003.232-.01.329-.092zm-51.075 2.32c-.827-.152-1.516-.731-2.004-1.684-.442-.863-.596-1.686-.445-2.372.08-.365.32-.841.556-1.1.614-.677 1.773-1.063 2.602-.868.294.07.656.256.917.474.21.174.454.467.456.545 0 .021-.237.148-.529.282l-.53.244-.178-.174c-.308-.3-.652-.414-1.025-.338-.495.1-.876.395-1.032.798-.102.26-.11.792-.02 1.126.166.617.477 1.195.832 1.552.34.341.542.428.995.428.311 0 .372-.01.547-.097.537-.263.782-.716.704-1.298l-.03-.225.542-.249c.298-.137.549-.243.556-.235.008.007.038.145.067.306.141.778-.1 1.584-.632 2.111-.4.397-.94.666-1.546.772-.357.062-.473.063-.803.002zm5.352-2.26a2.41 2.41 0 0 1-1.122-.656c-.663-.663-1.152-2.005-1.086-2.978a2.461 2.461 0 0 1 1.32-2.068c.508-.247.854-.33 1.383-.335.508-.004.652.03 1.082.253.292.152.702.54.857.812.06.106.11.203.11.216 0 .013-.25.107-.556.208l-.555.184-.221-.237c-.32-.34-.426-.39-.857-.388-.461.002-.69.088-.965.364-.295.295-.363.494-.363 1.07 0 .39.013.506.096.806.218.792.607 1.374 1.069 1.602.215.106.258.114.583.114.325 0 .368-.008.583-.113.436-.214.63-.524.654-1.048l.015-.32.563-.195c.31-.107.571-.187.581-.177.046.046.013.886-.043 1.1-.21.807-.77 1.4-1.59 1.685-.525.182-1.09.22-1.538.102zm36.038-.069c-.478-.127-2.591-.832-2.586-.863.027-.17 1.79-5.511 1.819-5.511.122 0 2.503.803 2.805.946.616.29.962.713 1.131 1.38.283 1.116-.325 2.859-1.266 3.624a2.113 2.113 0 0 1-1.903.424zm.809-1.1c.49-.225.887-.822 1.123-1.69.12-.439.136-1.02.036-1.279-.074-.19-.293-.407-.538-.53-.193-.097-1.402-.503-1.424-.478-.019.021-1.179 3.602-1.179 3.64 0 .028 1.008.367 1.26.424.195.044.521.004.722-.088zm-6.37-.476a83.231 83.231 0 0 1-2.113-.502c-.02-.02 1.246-5.628 1.28-5.668.016-.018 4.132.9 4.158.928.003.003-.043.223-.102.488-.083.37-.12.481-.163.481-.03 0-.708-.15-1.506-.332-.798-.183-1.458-.325-1.467-.316-.034.034-.281 1.192-.258 1.212.013.012.63.16 1.372.327.742.168 1.354.311 1.36.318.014.013-.19.925-.211.946-.007.007-.633-.129-1.39-.302-.759-.173-1.382-.31-1.385-.304a34.74 34.74 0 0 0-.326 1.483c.006.006.712.17 1.568.367.857.195 1.563.36 1.57.366.006.006-.038.223-.097.483-.06.26-.108.481-.108.493 0 .035.007.036-2.182-.468zm-26.411-2.432-.637-2.857c-.011-.044.254-.113 1.464-.381 1.693-.376 1.946-.407 2.335-.289.753.23 1.242 1.023 1.128 1.832-.047.336-.17.583-.391.781-.098.089-.172.166-.165.172.008.007.1.04.207.074.142.045.24.11.372.244.217.222.283.386.471 1.17.15.626.203.744.374.85.125.078.147.155.052.184-.096.029-1.172.266-1.207.266-.07 0-.279-.549-.396-1.039-.132-.55-.248-.815-.413-.937-.156-.114-.514-.093-1.26.077-.344.078-.631.148-.64.156-.008.009.096.51.23 1.114.135.604.234 1.109.22 1.122a5.519 5.519 0 0 1-.574.144l-.547.12zm1.877-.807c.69-.154.964-.244 1.096-.361.098-.087.196-.32.197-.468 0-.17-.11-.521-.21-.66-.1-.142-.32-.244-.525-.244-.14 0-1.659.315-1.695.352-.011.012.218 1.09.31 1.454.011.046.044.084.074.084.029 0 .368-.07.753-.157zm4.363 2.32c-.038-.218-.66-5.67-.648-5.679.03-.021 4.162-.482 4.203-.468.06.02.174.974.118.991-.02.007-.699.086-1.508.177-.808.09-1.484.176-1.5.191-.047.042.089 1.194.143 1.214.037.015 2.259-.227 2.672-.29l.125-.019.057.5c.032.275.054.502.05.505-.003.002-.633.075-1.4.163-.766.087-1.4.165-1.408.173-.017.017.15 1.467.171 1.489.008.008.726-.068 1.594-.169.87-.1 1.59-.172 1.604-.158.02.02.147 1.003.13 1.003l-2.118.245c-1.161.135-2.146.245-2.188.245-.06 0-.082-.026-.097-.114zm14.964-.034c-.279-.038-.51-.072-.511-.075-.002-.003.136-1.075.307-2.383.172-1.307.305-2.383.298-2.39a16.767 16.767 0 0 0-.868-.125c-.47-.06-.857-.111-.86-.113-.016-.009.122-.97.141-.99.022-.021 4.644.572 4.672.6.009.01-.013.24-.047.512l-.064.496-.107-.018c-.342-.055-1.63-.21-1.64-.197-.007.008-.142 1.024-.301 2.256a605.6 605.6 0 0 1-.309 2.373c-.023.156.014.153-.71.054zm-3.536-.317a9.834 9.834 0 0 1-.516-.04c-.019-.018.354-5.784.376-5.81.018-.02 1.155.035 1.178.058.004.005-.364 5.803-.37 5.827-.002.005-.039.006-.082.003l-.587-.038zm-6.212-.85c-.012-.423-.03-1.743-.043-2.932l-.021-2.162 1.22-.008a66.326 66.326 0 0 1 1.501.003c.669.024 1.08.19 1.49.599.523.521.769 1.24.769 2.242 0 1.531-.654 2.612-1.771 2.928-.166.047-.406.061-1.188.071-.54.007-1.196.017-1.458.022l-.478.008zm2.725-.32c.626-.191.965-.858.965-1.897 0-.85-.19-1.446-.536-1.677-.267-.178-.363-.195-1.223-.21l-.797-.016v.996c0 .547.01 1.423.023 1.946l.023.952.686-.02c.46-.014.743-.038.86-.074z" style="fill:#0053b5;stroke-width:.413591" transform="translate(8.862 -32.951)"/>
</svg>
